<mxfile host="65bd71144e">
    <diagram id="s5f9uc402U0fC_YcY70I" name="第 1 页">
        <mxGraphModel dx="1222" dy="542" grid="1" gridSize="10" guides="1" tooltips="1" connect="1" arrows="1" fold="1" page="1" pageScale="1" pageWidth="827" pageHeight="1169" math="0" shadow="0">
            <root>
                <mxCell id="0"/>
                <mxCell id="1" parent="0"/>
                <mxCell id="3" value="" style="shape=image;verticalLabelPosition=bottom;labelBackgroundColor=#ffffff;verticalAlign=top;aspect=fixed;imageAspect=0;image=data:image/png,iVBORw0KGgoAAAANSUhEUgAABswAAAU6CAYAAABGZFMSAAAMPmlDQ1BJQ0MgUHJvZmlsZQAASImVVwdYU8kWnluSkEBooUsJvQkiUgJICaGF3puNkAQIJcRAULGjiwquXSxgQ1dFFKw0O2JnUWzYFwsqyrpYsCtvUkDXfeV7831z57//nPnPmXNn7r0DgNoJjkiUi6oDkCcsFMcG+9OTU1LppCeADHQBBdCANodbIGJGR4cDWIbav5d3NwAiba86SLX+2f9fiwaPX8AFAImGOJ1XwM2D+CAAeBVXJC4EgCjlzacUiqQYVqAlhgFCvFCKM+W4SorT5XivzCY+lgVxGwBKKhyOOBMA1cuQpxdxM6GGaj/ETkKeQAiAGh1in7y8fB7EaRDbQBsRxFJ9RvoPOpl/00wf1uRwMoexfC6yohQgKBDlcqb9n+n43yUvVzLkwwpWlSxxSKx0zjBvN3Pyw6RYBeI+YXpkFMSaEH8Q8GT2EKOULElIgtweNeQWsGDOgA7ETjxOQBjEhhAHCXMjwxV8eoYgiA0xXCHoVEEhOx5iPYgX8gsC4xQ2m8X5sQpfaEOGmMVU8Oc4Yplfqa/7kpwEpkL/dRafrdDHVIuz4pMgpkBsUSRIjIRYFWLHgpy4MIXN2OIsVuSQjVgSK43fAuJYvjDYX66PFWWIg2IV9mV5BUPzxTZnCdiRCry/MCs+RJ4frI3LkcUP54Jd5guZCUM6/ILk8KG58PgBgfK5Y8/4woQ4hc4HUaF/rHwsThHlRivscTN+brCUN4PYpaAoTjEWTyyEC1Kuj2eICqPj5XHixdmc0Gh5PPgyEA5YIADQgQTWdJAPsoGgo6+xD97Je4IAB4hBJuADBwUzNCJJ1iOE1zhQDP6EiA8Khsf5y3r5oAjyX4dZ+dUBZMh6i2QjcsATiPNAGMiF9xLZKOGwt0TwGDKCf3jnwMqF8ebCKu3/9/wQ+51hQiZcwUiGPNLVhiyJgcQAYggxiGiLG+A+uBceDq9+sDrjDNxjaB7f7QlPCJ2Eh4TrhG7CrUmCEvFPUUaAbqgfpMhF+o+5wK2gpivuj3tDdaiM6+AGwAF3gX6YuC/07ApZliJuaVboP2n/bQY/PA2FHdmJjJJ1yX5km59Hqtqpug6rSHP9Y37ksaYP55s13POzf9YP2efBNuxnS2whdgA7i53EzmNHsEZAx45jTVg7dlSKh1fXY9nqGvIWK4snB+oI/uFv6MlKM1ngVOvU6/RF3lfInyp9RwNWvmiaWJCZVUhnwi8Cn84Wch1H0p2dnJ0BkH5f5K+vNzGy7wai0/6dm/cHAN7HBwcHD3/nQo8DsM8dbv/m75wNA346lAE418yViIvkHC69EOBbQg3uNH1gDMyBDZyPM3ADXsAPBIJQEAXiQQqYCKPPgutcDKaAGWAuKAXlYBlYDdaDTWAr2An2gP2gERwBJ8EZcBFcBtfBHbh6esAL0A/egc8IgpAQKkJD9BETxBKxR5wRBuKDBCLhSCySgqQhmYgQkSAzkHlIObICWY9sQWqQfUgzchI5j3Qit5AHSC/yGvmEYqgKqoUaoVboKJSBMtEwNB6dgGaik9FidD66BF2LVqO70Qb0JHoRvY52oy/QAQxgypgOZoo5YAyMhUVhqVgGJsZmYWVYBVaN1WEt8DlfxbqxPuwjTsRpOB13gCs4BE/AufhkfBa+GF+P78Qb8Db8Kv4A78e/EagEQ4I9wZPAJiQTMglTCKWECsJ2wiHCabiXegjviESiDtGa6A73YgoxmziduJi4gVhPPEHsJD4iDpBIJH2SPcmbFEXikApJpaR1pN2k46QrpB7SByVlJRMlZ6UgpVQloVKJUoXSLqVjSleUnip9JquTLcme5CgyjzyNvJS8jdxCvkTuIX+maFCsKd6UeEo2ZS5lLaWOcppyl/JGWVnZTNlDOUZZoDxHea3yXuVzyg+UP6poqtipsFTGq0hUlqjsUDmhckvlDZVKtaL6UVOphdQl1BrqKep96gdVmqqjKluVpzpbtVK1QfWK6ks1spqlGlNtolqxWoXaAbVLan3qZHUrdZY6R32WeqV6s3qX+oAGTWO0RpRGnsZijV0a5zWeaZI0rTQDNXma8zW3ap7SfETDaOY0Fo1Lm0fbRjtN69EiallrsbWytcq19mh1aPVra2q7aCdqT9Wu1D6q3a2D6VjpsHVydZbq7Ne5ofNJ10iXqcvXXaRbp3tF973eCD0/Pb5emV693nW9T/p0/UD9HP3l+o369wxwAzuDGIMpBhsNThv0jdAa4TWCO6JsxP4Rtw1RQzvDWMPphlsN2w0HjIyNgo1ERuuMThn1GesY+xlnG68yPmbca0Iz8TERmKwyOW7ynK5NZ9Jz6WvpbfR+U0PTEFOJ6RbTDtPPZtZmCWYlZvVm98wp5gzzDPNV5q3m/RYmFhEWMyxqLW5bki0ZllmWayzPWr63srZKslpg1Wj1zFrPmm1dbF1rfdeGauNrM9mm2uaaLdGWYZtju8H2sh1q52qXZVdpd8ketXezF9hvsO8cSRjpMVI4snpkl4OKA9OhyKHW4YGjjmO4Y4ljo+PLURajUkctH3V21DcnV6dcp21Od0Zrjg4dXTK6ZfRrZztnrnOl87Ux1DFBY2aPaRrzysXehe+y0eWmK801wnWBa6vrVzd3N7FbnVuvu4V7mnuVexdDixHNWMw450Hw8PeY7XHE46Onm2eh537Pv7wcvHK8dnk9G2s9lj9229hH3mbeHO8t3t0+dJ80n80+3b6mvhzfat+HfuZ+PL/tfk+Ztsxs5m7mS38nf7H/If/3LE/WTNaJACwgOKAsoCNQMzAhcH3g/SCzoMyg2qD+YNfg6cEnQgghYSHLQ7rYRmwuu4bdH+oeOjO0LUwlLC5sfdjDcLtwcXhLBBoRGrEy4m6kZaQwsjEKRLGjVkbdi7aOnhx9OIYYEx1TGfMkdnTsjNizcbS4SXG74t7F+8cvjb+TYJMgSWhNVEscn1iT+D4pIGlFUnfyqOSZyRdTDFIEKU2ppNTE1O2pA+MCx60e1zPedXzp+BsTrCdMnXB+osHE3IlHJ6lN4kw6kEZIS0rblfaFE8Wp5gyks9Or0vu5LO4a7gueH28Vr5fvzV/Bf5rhnbEi41mmd+bKzN4s36yKrD4BS7Be8Co7JHtT9vucqJwdOYO5Sbn1eUp5aXnNQk1hjrAt3zh/an6nyF5UKuqe7Dl59eR+cZh4ewFSMKGgqVAL/si3S2wkv0geFPkUVRZ9mJI45cBUjanCqe3T7KYtmva0OKj4t+n4dO701hmmM+bOeDCTOXPLLGRW+qzW2eaz58/umRM8Z+dcytycub+XOJWsKHk7L2ley3yj+XPmP/ol+JfaUtVScWnXAq8FmxbiCwULOxaNWbRu0bcyXtmFcqfyivIvi7mLL/w6+te1vw4uyVjSsdRt6cZlxGXCZTeW+y7fuUJjRfGKRysjVjasoq8qW/V29aTV5ytcKjatoayRrOleG762aZ3FumXrvqzPWn+90r+yvsqwalHV+w28DVc2+m2s22S0qXzTp82CzTe3BG9pqLaqrthK3Fq09cm2xG1nf2P8VrPdYHv59q87hDu6d8bubKtxr6nZZbhraS1aK6nt3T1+9+U9AXua6hzqttTr1JfvBXsle5/vS9t3Y3/Y/tYDjAN1By0PVh2iHSprQBqmNfQ3ZjV2N6U0dTaHNre2eLUcOux4eMcR0yOVR7WPLj1GOTb/2ODx4uMDJ0Qn+k5mnnzUOqn1zqnkU9faYto6ToedPncm6Myps8yzx895nzty3vN88wXGhcaLbhcb2l3bD/3u+vuhDreOhkvul5oue1xu6RzbeeyK75WTVwOunrnGvnbxeuT1zhsJN252je/qvsm7+exW7q1Xt4tuf74z5y7hbtk99XsV9w3vV/9h+0d9t1v30QcBD9ofxj2884j76MXjgsdfeuY/oT6peGrytOaZ87MjvUG9l5+Pe97zQvTic1/pnxp/Vr20eXnwL7+/2vuT+3teiV8Nvl78Rv/Njrcub1sHogfuv8t79/l92Qf9Dzs/Mj6e/ZT06ennKV9IX9Z+tf3a8i3s293BvMFBEUfMkf0KYLCiGRkAvN4BADUFABo8n1HGyc9/soLIz6wyBP4Tlp8RZcUNgDr4/x7TB/9uugDYuw0ev6C+2ngAoqkAxHsAdMyY4Tp0VpOdK6WFCM8Bm6O/puelg39T5GfOH+L+uQVSVRfwc/svXG18Wn8QSHoAAABsZVhJZk1NACoAAAAIAAQBGgAFAAAAAQAAAD4BGwAFAAAAAQAAAEYBKAADAAAAAQACAACHaQAEAAAAAQAAAE4AAAAAAAAAkAAAAAEAAACQAAAAAQACoAIABAAAAAEAAAbMoAMABAAAAAEAAAU6AAAAAO483VcAAAAJcEhZcwAAFiUAABYlAUlSJPAAAEAASURBVHgB7N0HnCRF3TDgupxzRi5zd9yRQQ4kvKAoOUgOkhH4JEgQFQxIEsyKiiggOQgICoLkICJKzungcs45p6+rj5nbvdu8s7szO0/9GGamu6q6+qmdnb3+d1U1WZukIBEgQIAAAQIECBAgQIAAAQIECBAgQIAAAQIECBDIE4FZs2alLWnbvkto2qRJaNo0hCbJc5OwLqwVXydv4n9pSt8n+9Y9hxCjXzFLVVNSvUSAAAECBAgQIECAAAECBAgQIECAAAECBAgQIECgeAUEzIq37505AQIECBAgQIAAAQIECBAgQIAAAQIECBAgQIBAIiBg5seAAAECBAgQIECAAAECBAgQIECAAAECBAgQIECgqAUEzIq6+508AQIECBAgQIAAAQIECBAgQIAAAQIECBAgQICAgJmfAQIECBAgQIAAAQIECBAgQIAAAQIECBAgQIAAgaIWEDAr6u538gQIECBAgAABAgQIECBAgAABAgQIECBAgAABAgJmfgYIECBAgAABAgQIECBAgAABAgQIECBAgAABAgSKWkDArKi738kTIECAAAECBAgQIECAAAECBAgQIECAAAECBAgImPkZIECAAAECBAgQIECAAAECBAgQIECAAAECBAgQKGoBAbOi7n4nT4AAAQIECBAgQIAAAQIECBAgQIAAAQIECBAgIGDmZ4AAAQIECBAgQIAAAQIECBAgQIAAAQIECBAgQKCoBQTMirr7nTwBAgQIECBAgAABAgQIECBAgAABAgQIECBAgICAmZ8BAgQIECBAgAABAgQIECBAgAABAgQIECBAgACBohYQMCvq7nfyBAgQIECAAAECBAgQIECAAAECBAgQIECAAAECzREQIECAAAECBAgQIECAAAECBAgQIFA3AvMXLApLly4Py1esCqtXr66bg6iVAAECBOpUoFmzZqFVy+ahTZtWoVPH9nV6LJU3nICAWcPZOzIBAgQIECBAgAABAgQIECBAgEAjFVi1anWYNXt+WLJ0WSM9Q6dFgACB4hGINzwsWRofy5ObIFaE7t06hebNmxUPQJGcqYBZkXS00yRAgAABAgQIECBAgAABAgQIEKg/gUywrHkyKqFbcmG1VcsWLq7WH39eHmnMuClpuwYN2CQv26dRZQvot7Jdim1rvAli+YqVYfacdTdCzJodQu9eXYuNodGfrzXMGn0XO0ECBAgQIECAAAECBAgQIECAAIH6FIjTMMaRZXH0waaf6xnatW0tWFafHeBYBAgQyLFA/H0ef5dvuknPEG+EiL/j4+96qXEJCJg1rv50NgQIECBAgAABAgQIECBAgAABAg0sENcsi6lb106hadMmDdwahydAgACBXAnE3+lx1HBMmd/1uapbPQ0vIGDW8H2gBQQIECBAgAABAgQIECBAgAABAo1IYPmKVenZxGkYJQIECBBoXAKZ3+2Z3/WN6+yK+2wEzIq7/509AQIECBAgQIAAAQIECBAgQIBAjgVWr16d1hin8JIIECBAoHEJZH63Z37XN66zK+6zETAr7v539gQIECBAgAABAgQIECBAgAABAgQIECBAgACBohcQMCv6HwEABAgQIECAAAECBAgQIECAAAECBAgQIECAAIHiFhAwK+7+d/YECBAgQIAAAQIECBAgQIAAAQIECBAgQIAAgaIXEDAr+h8BAAQIECBAgAABAgQIECBAgAABAgQIECBAgACB4hYQMCvu/nf2BAgQIECAAAECBAgQIECAAAECBAgQIECAAIGiFxAwK/ofAQAECBAgQIAAAQIECBAgQIAAAQIECBAgQIAAgeIWEDAr7v6v07NfsmRJuO+++8KoUaPCmjVr6vRYKidAgAABAgQIECBAgAABAgQIECBAgAABAgQI1FRAwKymcspVKnDbbbeFo48+OgwbNiz873//qzS/DAQIECBAgAABAgQIECBAgAABAgQIECBAgACBhhBo3hAHdczGL7B27drwm9/8Jj3RgQMHhl122aXxn3Q9neEBBxwQPvroo1of7eyzzw4XXnhhretRAQECBAgQIECAAAECBAgQIECAAAECBAgQKHQBAbNC78E8bf8///nPdCrG2LzjjjsuT1tZmM2aNGlSGDNmTK0bP2fOnFrXoQICBAgQIECAAAECBAgQIECAAAECBAgQINAYBATMyujFuXPnhtdffz28+eab4d133w1du3YNm2++eRg5cmTYfvvtyyhR9qYpU6aE//73v+H9999Pg0d9+vQJW265Zdhuu+3C1ltvXXahDbbGkVqxfGzLW2+9FWbOnBmGDh2atmefffYJHTp02KBE2W9zVU/ZtW+89de//nV2YxwNdcEFF2Tf1/bFNddcE1q3bl3bakqVP++888L48eNDHHX1la98pdS+it5MmDAh/VmJffPpp5+G/v37p32z5557hn79+lVUtNb7Dj300HDUUUdVu57vfve7IbZbIkCAAAECBAgQIECAAAECBIpXYNy48eGRRx9LAc4847TQokWLnGOMGTM2/POxJ9J6v3rIQWHTTT+X82OoMPcCM2bMCPfe90CI1xMPP/yr4XObbJL7g6ix4AR8nguuyzS4BgICZhug3XnnnWnQZMGCBRvsWff2kEMOCT/96U/TdbnKzJBsXLNmTfjtb38bvv/974clS5aUme3EE09Mpyzs0qVLmfvjxunTp4eTTz45PP7442Xm6dmzZ7jsssvC6aefHpo3L78rc1VPmY0oY+M777wTnnnmmeyeBx54IPs6Fy8uv/zynAbMYkAv9ldMBx54YJWauGLFivCDH/wg/OIXv0j/eNiwUMuWLcO5556b/gxU1McblqvO+xEjRoRjjjmmOkXSvDHgKGBWbTYFCBAgQIAAAQIECBAgQIBAoxKYN39+eP2NN9Nziteycp2mTJ0afn3t78KiRYvTqicnN5Zfdun3Q6tWrWp0qGeeeS4889zz1S4bgz1nn3VmtcsVa4HxyU3Wv/r1b8OCBQtTglGffBLO/+Y5YbPNBleZ5J133guxXC7S0CFDkoEHW+aiqoKu46mnn02uFc/I6Tn06dM77PWlPatUp89zlZhkagQC5UdZGsHJVecU4h0TJ510Urjjjjuyxdq3bx+22WabMHny5HT0Uczz0EMPpcGg1157rdyg2fHHHx/uueeebD1t27ZN64nT6MXgVUy33357eP7558Pbb78dOnfunM2befHSSy+FOIIo3tGRScOGDQsdO3YMH3zwQVi8eHG676yzzgpvvPFGuPHGGzPZSj3nqp5SlVbwZunSpWnAMWaJQbyDDjqogtwhxFF4L7/8cponnm9VUi7veFq9enUadKzKcTN5Yp/st99+qXtmW+/evZM/HDYLH3/8cToKMAbUfvnLX4Ynn3wyPb82bdpksnomQIAAAQIECBAgQIAAAQIECDRqgTlz5oZf/uraNFjWo0f3sGrV6jBt2vRwy613hDiarUmTJtU+/4WLFoWpU6dVu1yrljUL0FX7QI2gwEcfjwq//d11YenSZSHeqN+8ebPk2t3U8PNf/iac9Y0zwjZbb1Wls/zgww/DE08+XaW8lWVatfcqAbMEKQa3P076J5dpixHDqxQw83nOpbq68l1AwOyzHrrvvvuywbI4zeFdd92VBkUyI7fee++98I1vfCO8+OKLyZf9onDkkUeWGQh58MEHs8GyeMfMTTfdlI4CytQTp+47/PDD0zWo4iifiy66KM1T8gclBnHOOOOMbLAs5r/uuutCr1690mwrV64M1157bbj00kuTL7Clafk4BeDXvva1ktWEXNVTqtIK3sQgUWxrNIrpyiuvDBdffHEFJUKIo8+OOOKINM9f//rX0LRp0wrz53JnDITGPv3HP/5RrWp/9KMfZYNlw4cPD/FnJ061mUkPP/xwOros9m+c0vOb3/xmuQHNTBnPBAgQIECAAAECBAgQIECAAIHGIBBHlMVgWbzI3rFjh3DRheelo5Wu+ekvwsuvvJpO/XjKySfU+BpQr149w6FfPbhSqtdeeyO89vobleaTYZ3AG2++Fa7/441JcHNVOgXjRRedH5o1a5b25fjxE5JA2h/CqaecFHbdZedKyfony5TsNHLHcvMtX748vPX2O+n+rbbcIsTBBuWlWJcUwvDNh4XOnTpVSPF+Msgifv7iqMqqTH9alTw+zxWS29kIBQTMkk6NgZ7vfe97affGgM3TTz+drldWsr9jQOSJJ54IO+ywQ4hT+MVASAyMHH300SWzhe985zvZ93GU2YajprbddtsQR33FNdHmzZsX/vznP6dBs/g+k2699dZ03bL4Pk4Bee+996ZfUJn9cYRVDLR169YtnHrqqenmq666aqOAWa7qyRy3oucYnIsBu8ceWzf39V577VXKoqKy9bVv2rRpaeBq1qxZ6bpjsR/iqMHqpDiCLAZBYxowYEB44YUXQvfu3UtVcfDBB4fBgweHHXfcMRvQjP2TCXiWyuwNAQIECBAgQIAAAQIECBAgQKCRCMRASJyGMU7fFm8kv+C8c9ORSnG00pFHHJasi/XX8OJ/XgorVq4IZ3z91FLXu6pKEGeEqigYk6knjkYTMMtolP8cr4098+zz4Z6/3JcuM9O/f7/wrSTI2SFxjum7374w/Oo3vwuffjo6/PnmW8P8ZCrP/fbdu8JRgl/4wk4hPspLMQCXCZidcvKJoUuXjWffKq9ssW4/5ODKl5G56uqfJgGzMeHzn98+xDUDa5t8nmsrqHwhCtTfcJ481olTI8bpEmOKUwiOHDmyzNbGux3iqK5Mev311zMv0+c4Cm306NHp6+22226jYFkmcwycnH322Zm36TSP2TfJixhEy6S4Rlm8m6OsdMopp4ShQ4emu0aNGpWOfCuZL1f1lKyzrNfxizWuoxZHiMUU/wiKU1vW52ixstq14bbx48en/RfXK/vPf/5T7WBZrO+2225L77SJr88777yNgmVxe0xbbLFFOOGEE9a9Sf6/4c9KdkctXsQvrbjWXnUfMbgpESBAgAABAgQIECBAgAABAgRyKRDXvrrmJz9PrrGNTa9lnXvON5KbjftnD7HvPl8J+++3T/r+lVdeC1df87NkWYtZ2f1e1L/ApEmTw9VJn91191/SYFlcpywGyDLBstiiuMxIHCU4Yvjm6bW0+//6YPhx0ncTJ06qcYPj6MOY4rXDzp0rHjVV44MoWCsBn+da8SlcwAICZknnTZw4MduFG05rmN3x2Ys4aiiT4tphJdOjjz6afXvMMcdkX5f14thjj81uLlkubsy0Z8SIESGOSKsoZdoTF2eN0z2WTLmqp2SdZb2OI+1uueWWdFffvn3Dv/71r9CnT5+ysjbotrj+2xe/+MWNHiWnU6ysgRnTmK82PyuVHacq+3/xi1+ETslQ7Oo+3n///apULw8BAgQIECBAgAABAgQIECBAoFKBuHTIXx/4W7jiymvC+AkT05FHXz/tlBDXR9owxVFmBx6wX7p5zNhx4UeXXxn+9/KrG2ar8P3a5BpYXGOrskdsl1S2QLwJ+977Hkj8r0pHjsVcW2+1ZRoYW7x4SXjh36VvNI+jBc8/75yw3XbbpBWOHj0mXHbFj9NRacuWLSv7IBVsnTN3XcAsBstqsp5dBVXblQjE2dRqmnyeayqnXGMRMCVj0pOTJq2/I6J///V3vpTVyQsXLsxubteuXfZ1fPFhsqBlJpU3Si2zP659FddKi/WVLBdH/0xNhq3HVFlbYp7y2pOreuIxKktxCsI4dWScrvDJJ58MMWgW0wfJvLlxjbWKUmZEXswTA5AVfUnGdeC22WbdF3NFdZa3L5o/++yzG+0uuY7aRjs32JD5WYl31/To0WODvaXfltc3pXN5R4AAAQIECBAgQIAAAQIECBBoWIEnn3omWVus/MuELZq3CHvt9cWNGjlq1CfhllvvCNOmT0/3tWnTOpzwtePCzjutu+F84aJFyRInT6X79klGmMWRS4cf9tXQtWuXcPc996VBrz/dcFOyfMl/wzFHHxk22aTyG7BjoO2sc87bqC02VE0grlUWR5RlRnm1a9c2HH3UkWH33XZJR5DdlEy7+PHHo8LTzzwbjk36ZHgysiymuETMuWd/I51SMwbbFi9eHOLPzSuvvp7mGzny81VrQJJrzpw5ad6uXbtWuYyMVRd4PPnMzU6Mjzjs0OT6ZemlZCqqxee5Ih37ikWg/G/CYhFIzjNOwzhs2LD0jOOororSO++sW5Ay5tlqq61KZY1T/mXSkCFDMi/LfI5DjgcOHBhifXFNrSVLlqQLXMZA15133pmWiWtkVZYy7YnTNsaAUCblqp5MfRU9xyBXnIIx3p1Scj2vI488Mg2aVVS25L7MaLmS20q+7ty5c5j72R0oJbfX5+vvfve74cwzz6xwMdJMezJ9E99v+LOSyVOb5/PPPz9ccskl1a4ijrKLwUyJAAECBAgQIECAAAECBAgQIBAFHvzbQxVCxJvGSwbM4giWvyTrkT3//AvZJS+22nKLcPJJJ6TBsExlMajy6D8fT9/ulgRkMlP9fXHPPcKgQQPDH66/IcyYMTO8+9774f0PPgxx+5FHHJquf5apw3PuBOJosJtvuT0NdsVad/z8DuH4rx0T4qxMMa1ctSoMHbJZmJCMFIxTLv7sF78O2227TRJQOyL06tUzvdF99912DdtsvXU6uux/L78S5s2bF26+9fYwIhlR2L59u7A4ucb5ZhKUqyh9kqyHFlMczRTXtKssxdFvmTZWltf+kH4m47Snb7zxVvqZOvigA9K+Kc/G57k8GduLUUDALOn17bffPn1U9gMQf4n/6le/ymbbZZddsq/ji8zIsPi6ZOAovi8rlRyhNG3atOQPhUGhZcuWobLpHDN13XvvvWHcuHHp23gOrVu3zuzKWT3ZCit5EUfLxUdjT/vuu2+VTjGuiXffffeleeNotLimXa5T/GM1rhdX3RRH6kkECBAgQIAAAQIECBAgQIAAgYzAkCRIUtFa9G1KXHOKZeK1hTHJtHxxXft43ePYY+IIpV0z1VXpuX+/fuHyH/0gPPTwo+Gpp58J8ebvsWPHpiOZKqogrot24QXfrChLuu+f/3wiPP7Ek5XmK6YM8drhwQfuHx5LRiCdePxx2SkWMwYtk1Fkhx16SIjrzcXRYzHY+eZbb4d33n0vnHH6qWHkjutGkXXs2CGcecZpYdddvxBuv+OutO9jsCymucn6ZH+++bZMlRU+jx8/oUp5L/7OtwTMKpQsvXP77bYN8+cvCKOT65PxsxWDkgfsv0/4yle+HGIfb5h8njcU8b6YBVw5r0bvf+9730tHhMUicZTO/vvvX6p0HGEVUxztFef2rSyVnNKxuvP9xoDMueeemz3Ez3/+8+zr6rzIVT0VHfPqq68OcWRWWSlOh3jUUUelu2JAsqI/ziqarrGsuhtqWxwteMopp6SjBmMbLr744tCtW7eGao7jEiBAgAABAgQIECBAgAABAgQqFPhWEoCqyrWsTCXx+s1pp54c/vbQw+kUjF26dM7sqtZzDOAcfdThYY//2y1ZU+uv4YhkdFlF14Zi5fG6W2akWkUHa9WqZUW7i3bfl760Z9h9913TQGd5CG3btg1fPeSgEKdZjMGvmckowMzUjCXLbLnFiHDVlZeFJiU2tmzZIvTvt265lhKbsy9XJNf/pk6dln0fBw/06d0r+76sF9X52SyrfLFt69t303DuOQeFOMrs/gceTGY3m52sM/j38Myzz4dDv3pI2C0JdJa8zurzXGw/Ic63IgEBs4p0PtsXh6Wefvrp4fbbb0+3dOrUKVx33XUblYz5Yqrsiz1TsGS+TNnMvoqeX3zxxXDooYemUznGfLFte+yxR0VFytyXq3rKrLzExvgLuOS5lthVanvMU16+kmXy+fXkyZPT9dxef/31tJlbJ0PUv/Od7+Rzk7WNAAECBAgQIECAAAECBAgQIFBtgXhR/pvnnFXtcmUV6J0ETM775tll7bItxwJxNFF8xBF98VFR6p7cAP7tb50fpk2bHlolga0Nr1/G4OWGI5bibEiXJSMHy0vPPfevcPudd6fXANesWRPi47xvnhNqGnQt7zi2hzTguf3224ZHHn0sHS04d24yfeYtt4UnnnwqnP2NM0OfPr2zTD7PWQovilxAwKySH4C33nornHrqqcncu2+mOeM0ik888USp9cIyVWQi85V92WTyr0rmBc6kqgSK4gisa665Jlx11VXpHL+x7BlnnBGuv/76TDVVes5VPVU6WBFluv/++8M555yTzL09Iz3rkSNHhscee6zUVJlFxOFUCRAgQIAAAQIECBAgQIAAAQI5F4jXtaZNn15pvYsWLao0TzFniCP6nnr62VoRfOXLXwrHHXt0tep47l8vpPnj2mhxtNm7yXSPcerHuJaalHuBGByNowV33mlkuPX2O8PHH48Kq1etTpYTyo/ZsHyec9/naqydgIBZOX5xesUrr7wy/PSnPw2ZwNbOO+8c7rzzzjB48OAyS2WGB8c7I+KHvUUZc8KWLJiZwjFui8OPK0qvvfZaGrh7991302zxWHGqwwsvvLCiYhvty1U9G1VcxBvi+nNnnXVW+Nvf/pZVOPnkk8Pvfve7ZEHN9tltuXoRf75imjNnThg1alS1qy35c1ftwgoQIECAAAECBAgQIECAAAECBBpAIBMAmzBhYrjke5c2QAscckOBZs2qd2l5zNhxYeLESWk1e+yxezotZAyY/euFf6drbHXp0mXDQ3ifI4E4ivO7374wXc+sT58+lV63ztFhy63G57lcGjsaWKB6v9UauLH1dfhXX301XYPq/fffTw8Z51P+4Q9/mK7DFYcal5fi/L6ZtHTp0kp/8cQ8mVSybGZbfI7BjcsuuyzENcoyI9fiyKWbb745bLHFFiWzVvg6V/VUeJAi3BkDqOedd14avIqnv8kmm4Q//OEP6bSMdcUxderUtOo4srC6owvrqk3qJUCAAAECBAgQIECAAAECBAjUpcCMZB2tmOIsTXHUTGWpKlMOVlZHY95/2KGHJEGq/ap9is88+1z4xyP/TNfA2n23Xapcfu3ateHvf384zd8tmeoxrn8WZ+saMXzz8MGHH4Ubbrolnf6xKrNwVfmgMpYSiN6777ZrqW0N9cbnuaHkHbcygcq/XSqroZHtj6OCLrjggmxw6qCDDgrXXnttGDhwYKVnuummm4b33nsvzTd69Oiw3XbbVVgm5okpBuFioGXDFEcu7bPPPuGdd95Jd8Uvkzgl42mnnVattb5yVc+G7Svm93EEYRxFdvfdd6cM8Q+1888/P1x66aWhQ4cOdUYzb968MHv27LT++CWXmQa0OgfMjFCrThl5CRAgQIAAAQIECBAgQIAAAQINKTD9s4DZvvt8JRx5xGGVNuXvD/0jPPTwI5XmK9YMcYBAfFQnTZkyNTz+xFNpkS/svFNyPbNPlYvf85f7wrvvrRuccNCB+2WvaR17zFHhiquuCR999HF48G8PhSMOP7TKdcpYuAI+z4Xbd4295QJmJXo4TnH4/e9/P93SuXPncN1114XjjjuuRI6KXw4YMCCbIQbOKgqYxen0MiOFYrBswztjJkyYEPbaa6/w6aefpnXGwN2NN94YevXqlT1GVV7kqp6KjhUDMPF8NkyZEXGLFy8Os2bN2nB3+n7BggXZ7TFPVe8iicHDmgSLsgerxYs4Wu/II48M//jHP9Jahg8fHu64446www471KLWqhXN/DzE3HF9tBhQrW7aZpttskHY6paVnwABAgQIECBAgAABAgQIECBQ3wLx2lPmBuJBgyq/qb2+21cMx5s1a3b4zW9/ny5DE2fKOvSrB1f5tJ9+5rnsemlbbblF2OP/ds+W3XTTzyXroB0Vbrv9rvDPx54IcUDCzjvtmN3vReMT8HlufH3amM5IwOyz3nzggQeywbK4Rtmzzz4b+vXrV62+LhkweeONN8IJJ5xQbvm4P5NKlovbYqDp4IMPzgbLYiDvkksuyWSv8nOu6qnsgFOmTAl9+/YtN9tVV10V4qOyVJ1g4MyZM5PFKbtXVmWd7L/ooouywbLYT/fee2+178ipacNKBsx23NEfDzV1VI4AAQIECBAgQIAAAQIECBAoHIFJkyZnZ4MaLGBW7x03Obn298tf/TbMnTs3nSnrnLP/X3JdrluV2vHGm2+FOLosph49uofTTj05fV3yf3vu8X/hww8/Dq+8+lq44cY/h4ULF4SvfHmvklm8bkQCPs+NqDMb4ak0bYTnVO1TWrZsWYhBkJhi4Of555+vdrAslj3wwAOzo55uuummEANJ5aUrrrgiuysGXUqmWPbtt99ON8X1y2oSLIuFc1VPybYV++u4rl1m3bC999473H///fUWLIv2mYDZZpttFrp27Vrs3eH8CRAgQIAAAQIECBAgQIAAgSIQePzJddMAdu3aJcRZoaT6EYgjgR57/Mlw+RVXp8GyONvTyScdH4ZvPqzSBsQZmu68657w++v+GGI9Xbp0Cd+56MLQqVPHMsuedtrJYeuttgxxrbO777kv3HvfX9NyZWa2saAFfJ4LuvsafeONMEu6OAZAxo0bl3b2xRdfnA79rUnP9+7dO3zxi19MR6ctWrQofPvb3w533XXXRlXFbf/+97/T7e3btw9xusVMWrFiRfjhD3+Yvo1TNX7ve9/L7KrWc67qqcpB43l/+OGHVcm6UZ4nnngiXfsr7ojBqKpOyRi/ZBsixf7ITDX5q1/9KrRs2bJemzFq1Kj0eCNHjqzX4zoYAQIECBAgQIAAAQIECBAgUFgCTz39THIz99RyGz1r9pzsvrvu/ks6cii7oZwXPXr0CPvvV/3lIcqprkqbZyZLeLz88qtp3s/vsH2VysRMc+bMrXJeGUsLxKDVm2+9HR7+x6Nh/PgJ6c527dqFM08/NWyVBLUqSx98+FG45dbbkyVaZqdZP/e5TcI3zzmrwlFpLVu0CN8896xw4023hJdfeTVdK+3DpJ4TTzw+DBo4oLJD2l8gAj7PBdJRRdxMAbOk859++un0RyDeJRHvfrjhhhuq9COxxRZbhF133bVU3rju2bbbbpvWc/fdd6cBoAsuuCDEaR6nT58e/v73v4fLL788W+YnP/lJqakF48iyON1gTJtvvnm45ZZbsnkre3HiiSdmRzvlqp7Kjhn3x/XXYltrkmKQLJNiHVUNmGXK1OdzvBsmTtUZU5xP+T//+U/6qEobvvzlL4dBgwZVJWu5eebNmxceeuihdL+AWblMdhAgQIAAAQIECBAgQIAAAQKJwNtvvxve/6BqNzj/+8WXqmQ2ePCgeg+YPZasaxWvybRq1SocsP9+5bZzwYKF4buX/CC0SK5TNW3WNMyfvyDN27fvpuWWsWNjgYXJIICf/OQXYcrU9cHWuG7cWf/v9NCtW+XTMN5511/CM88+l6145MjPh1NPPjHtv+zGcl40a9YsnHnGaclxuqYj28ZPmBiu+vFPwl5f2jN87bhjyillcyEJ+DwXUm8VZ1sFzJJ+f/XVdXepxLsnLrzwwir/JJx11lkbBcxi0CcGzc4+++w0aHbnnXeG+CgrHXfccSHWUTK98sor2bcxOJMJ0GQ3VvDi0EMPzQbMclVPBYcrul1xFF0cORjTpEmTwplnnlllg/vuu6/WAbNrr702LFiw7o+9XXbZpcrHlpEAAQIECBAgQIAAAQIECBAoPoE4vV23Kq4zVVWdnskIs/pOI0YMDzGgt8/eXw4dO3Yo9/BxX8+ePcKEJMiSSXH6v//bvfTN7pl9nssW6JDMhrXVVlukAbPevXqFQ796cNhxxx2yy9CUXWr91l691v2MdO7UKRx7zFEhBsyqk+KAhiOPOCxsv/224eZbbk9HSVqWpDqC+Z3X5zm/+0frksFBxY4Qp2LMjOjKlcVpp52WBtJiMOzFF18MK1euLFV1HG32s5/9LBx22GGltsc3meDdRjuquSFX9VTzsI06e0OaLly4MMSAWUxx2s8dd9yxxtbz58+vcVkFCRAgQIAAAQIECBAgQIAAgcIQ2DsJMDV06tChQzjm6CPTZsTXNUlxGsb2F7YP/fv1q7R4HJ2UGVnWOhmRNmBA/yoHeiqtvIgyHHXk4clsWYPCDttvV+3ZoL7y5b3SJUxGJteu2rRpXWO1wclMTZf/6AfpdJy77LJzjesppoJf+uIeYbtttwlDh2xWJ6ft81wnrCrNM4EmyaiqtXnWpkbVnBgs++STT8Knn34a4lpfw4cPDzX9A6FRwXx2Mg888EA44ogj0ndxbbB8npKxIf3j1J2XXHJJ2oSXX345uTunamuY/e1vf0v/MGzdunU6+vCtt94KcYrQmP70pz+FM844I33tfwQIECBAgAABAgQIECBAgEDuBMaMm5JWNmjAJrmrVE0FL+DnojC7UL8VZr/Vdav9XNS18Lr6ZyXrWMbUtn2X0DQZgdq0aUivdzcJ68JacVRqWPdfmi99n+xb9xxCjH7FLFVNRT/CrKpQNc3XIlmwcsSIEemjpnUoV9wCMaZ9/fXXpwiHH354lYNlsUAs99RTT20EGOeEjlN4SgQIECBAgAABAgQIECBAgAABAgQIECBAgEAISTxOIkAgnwViNPzuu+8OPZJ5wq+++upqNfWQQw5J5u/umX3EUY4x6Pbggw+m9VWrMpkJECBAgAABAgQIECBAgAABAgQIECBAgEAjFTDCrJF2bKGc1q677hoeeeSRtLmmYyy/16LTRx99FKq7yOnZZ58d4kMiQIAAAQIECBAgQIAAAQIECBAgQIAAAQIEyhcQMCvfxp56EIgjng444IB6OFLhH6K6wbLCP2NnQIAAAQIECBAgQIAAAQIECBAgQIAAAQIE6kfAlIz14+woBAgQIECAAAECBAgQIECAAAECBAgQIECAAAECeSogYJanHaNZBAgQIECAAAECBAgQIECAAAECBAgQIECAAAEC9SMgYFY/zo5CgAABAgQIECBAgAABAgQIECBAgAABAgQIECCQpwICZnnaMZpFgAABAgQIECBAgAABAgQIECBAgAABAgQIECBQPwICZvXj7CgECBAgQIAAAQIECBAgQIAAAQIECBAgQIAAAQJ5KiBglqcdo1kECBAgQIAAAQIECBAgQIAAAQKFKdCsWbO04atWrS7ME9BqAgQIEChXIPO7PfO7vtyMdhScgIBZwXWZBhMgQIAAAQIECBAgQIAAAQIECOSzQKuWzdPmLV+xMp+bqW0ECBAgUAOBzO/2zO/6GlShSJ4KCJjlacdoFgECBAgQIECAAAECBAgQIECAQGEKtGnTKm347Nnzw5o1awvzJLSaAAECBDYSiL/TZ8+Zn27P/K7fKJMNBSsgYFawXafhBAgQIECAAAECBAgQIECAAAEC+SjQqWP70LZN67Bq9eowacqMsHjJspCZwisf26tNBAgQIFCxQPwdHn+XT5o8I/19Hn/Hx9/1UuMSaLI2SY3rlJwNAQIECBAgQIAAAQIECBAgQIAAgYYViBdXZyUjzJYsXdawDXF0AgQIEMipQAyWde/WKTRvvm69ypxWrrJSArNmzUrft23fJTRt0iQ0TYaANUmem4R1Ya34OnkT/0tT+j7Zt+45hBj9ilmqmtZNqFzV3PIRIECAAAECBAgQIECAAAECBAgQIFCpQLyQ2rtX1zB/waKwdOnysHzFqrA6GXEmESBAgEDhCTRr1izENcviNIxGlhVe/1W1xQJmVZWSjwABAgQIECBAgAABAgQIECBAgEA1BeKFVRdXq4kmOwECBAgQaAABa5g1ALpDEiBAgAABAgQIECBAgAABAgQIECBAgAABAgQI5I+AgFn+9IWWECBAgAABAgQIECBAgAABAgQIECBAgAABAgQINICAgFkDoDskAQIECBAgQIAAAQIECBAgQIAAAQIECBAgQIBA/ggImOVPX2gJAQIECBAgQIAAAQIECBAgQIAAAQIECBAgQIBAAwgImDUAukMSIECAAAECBAgQIECAAAECBAgQIECAAAECBAjkj4CAWf70hZYQIECAAAECBAgQIECAAAECBAgQIECAAAECBAg0gICAWQOgOyQBAgQIECBAgAABAgQIECBAgAABAgQIECBAgED+CAiY5U9faAkBAgQIECBAgAABAgQIECBAgAABAgQIECBAgEADCAiYNQC6QxIgQIAAAQIECBAgQIAAAQIECBAgQIAAAQIECOSPgIBZ/vSFlhAgQIAAAQIECBAgQIAAAQIECBAgQIAAAQIECDSAgIBZA6A7JAECBAgQIECAAAECBAgQIECAAAECBAgQIECAQP4ICJjlT19oCQECBAgQIECAAAECBAgQIECAAAECBAgQIECAQAMICJg1ALpDEiBAgAABAgQIECBAgAABAgQIECBAgAABAgQI5I+AgFn+9IWWECBAgAABAgQIECBAgAABAgQIECBAgAABAgQINICAgFkDoDskAQIECBAgQIAAAQIECBAgQIAAAQIECBAgQIBA/ggImOVPX2gJAQIECBAgQIAAAQIECBAgQIAAAQIECBAgQIBAAwgImDUAukMSIECAAAECBAgQIECAAAECBAgQIECAAAECBAjkj4CAWf70hZYQIECAAAECBAgQIECAAAECBAgQIECAAAECBAg0gICAWQOgOyQBAgQIECBAgAABAgQIECBAgAABAgQIECBAgED+CAiY5U9faAkBAgQIECBAgAABAgQIECBAgAABAgQIECBAgEADCAiYNQC6QxIgQIAAAQIECBAgQIAAAQIECBAgQIAAAQIECOSPgIBZ/vSFlhAgQIAAAQIECBAgQIAAAQIECBAgQIAAAQIECDSAgIBZA6A7JAECBAgQIECAAAECBAgQIECAAAECBAgQIECAQP4INK/rpsyeu7iuD6F+AgQIECBAgAABAgQIECBAgAABAgQIECBAgACBEgLdurQr8c7LygSMMKtMyH4CBAgQIECAAAECBAgQIECAAAECBAgQIECAAIFGLVDnI8xEMBv1z4+TI0CAAAECBAgQIECAAAECBAgQIECAAAECBAgUvIARZgXfhU6AAAECBAgQIECAAAECBAgQIECAAAECBAgQIECgNgICZrXRU5YAAQIECBAgQIAAAQIECBAgQIAAAQIECBAgQKDgBQTMCr4LnQABAgQIECBAgAABAgQIECBAgAABAgQIECBAgEBtBATMaqOnLAECBAgQIECAAAECBAgQIECAAAECBAgQIECAQMELCJgVfBc6AQIECBAgQIAAAQIECBAgQIAAAQIECBAgQIAAgdoICJjVRk9ZAgQIECBAgAABAgQIECBAgAABAgQIECBAgACBghcQMCv4LnQCBAgQIECAAAECBAgQIECAAAECBAgQIECAAAECtREQMKuNnrIECBAgQIAAAQIECBAgQIAAAQIECBAgQIAAAQIFLyBgVvBd6AQIECBAgAABAgQIECBAgAABAgQIECBAgAABAgRqIyBgVhs9ZQkQIECAAAECBAgQIECAAAECBAgQIECAAAECBApeQMCs4LvQCRAgQIAAAQIECBAgQIAAAQIECBAgQIAAAQIECNRGQMCsNnrKEiBAgAABAgQIECBAgAABAgQIECBAgAABAgQIFLyAgFnBd6ETIECAAAECBAgQIECAAAECBAgQIECAAAECBAgQqI2AgFlt9JQlQIAAAQIECBAgQIAAAQIECBAgQIAAAQIECBAoeAEBs4LvQidAgAABAgQIECBAgAABAgQIECBAgAABAgQIECBQGwEBs9roKUuAAAECBAgQIECAAAECBAgQIECAAAECBAgQIFDwAgJmBd+FToAAAQIECBAgQIAAAQIECBAgQIAAAQIECBAgQKA2AgJmtdFTlgABAgQIECBAgAABAgQIECBAgAABAgQIECBAoOAFBMwKvgudAAECBAgQIECAAAECBAgQIECAAAECBAgQIECAQG0EBMxqo6csAQIECBAgQIAAAQIECBAgQIAAAQIECBAgQIBAwQsImBV8FzoBAgQIECBAgAABAgQIECBAgAABAgQIECBAgACB2ggImNVGT1kCBAgQIECAAAECBAgQIECAAAECBAgQIECAAIGCFxAwK/gudAIECBAgQIAAAQIECBAgQIAAAQIECBAgQIAAAQK1ERAwq42esgQIECBAgAABAgQIECBAgAABAgQIECBAgAABAgUvIGBW8F3oBAgQIECAAAECBAgQIECAAAECBAgQIECAAAECBGojIGBWGz1lCRAgQIAAAQIECBAgQIAAAQIECBAgQIAAAQIECl5AwKzgu9AJECBAgAABAgQIECBAgAABAgQIECBAgAABAgQI1EZAwKw2esoSIECAAAECBAgQIECAAAECBAgQIECAAAECBAgUvICAWcF3oRMgQIAAAQIECBAgQIAAAQIECBAgQIAAAQIECBCojYCAWW30lCVAgAABAgQIECBAgAABAgQIECBAgAABAgQIECh4AQGzgu9CJ0CAAAECBAgQIECAAAECBAgQIECAAAECBAgQIFAbAQGz2ugpS4AAAQIECBAgQIAAAQIECBAgQIAAAQIECBAgUPACAmYF34VOgAABAgQIECBAgAABAgQIECBAgAABAgQIECBAoDYCAma10VOWAAECBAgQIECAAAECBAgQIECAAAECBAgQIECg4AUEzAq+C50AAQIECBAgQIAAAQIECBAgQIAAAQIECBAgQIBAbQQEzGqjpywBAgQIECBAgAABAgQIECBAgAABAgQIECBAgEDBCwiYFXwXOgECBAgQIECAAAECBAgQIECAAAECBAgQIECAAIHaCAiY1UZPWQIECBAgQIAAAQIECBAgQIAAAQIECBAgQIAAgYIXEDAr+C50AgQIECBAgAABAgQIECBAgAABAgQIECBAgAABArUREDCrjZ6yBAgQIECAAAECBAgQIECAAAECBAgQIECAAAECBS8gYFbwXegECBAgQIAAAQIECBAgQIAAAQIECBAgQIAAAQIEaiMgYFYbPWUJECBAgAABAgQIECBAgAABAgQIECBAgAABAgQKXkDArOC70AkQIECAAAECBAgQIECAAAECBAgQIECAAAECBAjURkDArDZ6yhIgQIAAAQIECBAgQIAAAQIECBAgQIAAAQIECBS8gIBZwXehEyBAgAABAgQIECBAgAABAgQIECBAgAABAgQIEKiNgIBZbfSUJUCAAAECBAgQIECAAAECBAgQIECAAAECBAgQKHgBAbOC70InQIAAAQIECBAgQIAAAQIECBAgQIAAAQIECBAgUBsBAbPa6ClLgAABAgQIECBAgAABAgQIECBAgAABAgQIECBQ8AICZgXfhU6AAAECBAgQIECAAAECBAgQIECAAAECBAgQIECgNgICZrXRU5YAAQIECBAgQIAAAQIECBAgQIAAAQIECBAgQKDgBQTMCr4LnQABAgQIECBAgAABAgQIECBAgAABAgQIECBAgEBtBATMaqOnLAECBAgQIECAAAECBAgQIECAAAECBAgQIECAQMELCJgVfBc6AQIECBAgQIAAAQIECBAgQIAAAQIECBAgQIAAgdoICJjVRk9ZAgQIECBAgAABAgQIECBAgAABAgQIECBAgACBghcQMCv4LnQCBAgQIECAAAECBAgQIECAAAECBAgQIECAAAECtREQMKuNnrIECBAgQIAAAQIECBAgQIAAAQIEClBgzZo14fY77w6vvvZ6AbZekwkQIECAQO4FmqxNUu6rVSMBAgQIECBAgAABAgTyRyBeFFy4cFG9NKhDh/ahaVP3JtYLtoPkvcDiJUvCmNFj6rydbdq2DZsNHlTnx3EAAo1J4P6/Phj++dgT6Sl95ctfCkcfdURo1qxZYzpF50KgQQWWLl0afnT5VTlrw/DNh4VTTj4xZ/WpiEAhCMyaNSttZtv2XULTJk2Sf2eF0CR5bhLWhbXi6+RN/C9N6ftk37rnEGL0K2apampe1YzyESBAgAABAgQI5EZg+fLl4brrb8hNZeXU8vVTTwodO3YsZ6/NBIpPYMbMmeGS711aLyd+zdVXhN69etXLsRyEQL4LTJ40OfzqN7+r82YOToJlP/jed+v8OA5AoDEJHHzQAWHmzFnpCLOnnn42jBkzLpx91hmhS5cujek0nQuBBhNYk1ypj5+xXKU+vXvnqir1ECBQjoCAWTkwNhMgQKBYBJYkd/3+9YG/1cnpDtlss/CFL+xUJ3WrlEAhC6xevTq8++57dXoKK1asrNP6VU6gkAXKG/0VJ9+Ij/SOxQ1uQ6xoX8YijmKTCBAoLdAkuQ24VatWpTeW827lypUhfo7iZ7RFixbl5Cp7c6uWLcveYSsBAuUKxM/mWd84Ix1lFv9NOHrMmHDlj38aLvrWeWGTPn3KLWcHAQLVFzjwgP1Cr149q18wKfHCCy+GTz4dXaOyChEgUD0BAbPqeclNgACBRicQR7o89/wLdXJeMSggYFYntCotcIF4EfCA/fet07No07ZNndavcgKFLHDZpd8PfftuutEp/Oba34e333k37Lfv3uHIIw4rtf/a314X3nr7nRAvdhx26CGl9sU3EydOCpdeduVG220gUOwCQzYbHP74h99WieHyK64O48aPDwcduH/46iEHVamMTAQI1F5g//32Cf369Q2/v+6PYe7cueGan/w8XHj+N8PAgQNqX7kaCBBIBbbeasswZMhmNdL46ONRAmY1klOIQPUFBMyqb6YEAQIEGpVAixYtww7bb1cn59S/f786qVelBApdIAbMjjj80EI/De0nQIAAAQI5E4ijyyZOmpTWN3DggPTZ/wgQqD+BLbcYkQTJzk2nUF20aHHy/Nvw859eHVq3bl1/jXAkAgQIECDQwAICZg3cAQ5PgACBhhZo375dOOfs/9fQzXB8AgQIECBAgACBIhaYMHFiiLMTxDRo4ID4JBEgUM8CQ4cOCd+68Lzwu9/9IZz+9VMEy+rZ3+EIECBAoOEFBMwavg+0gAABAgQIECBAgAABAgQIFLXAmDHj0vPv3r1b6NChQ1FbOHkCDSkQp1H9+c+urvLagw3ZVscmQIAAAQK5FhAwy7Wo+ggQIECAAAECBAgQIECAAIFqCYwdOy7NP2jgwGqVk5kAgY0FPvzwo/DmW29vvKOOtjRr1jwcfdThdVS7agkQIECAQP0JCJjVn7UjESBAgAABAgQIECBAgAABAmUIjBk7Nt06cOCA9Nn/CBCoucC48RPCU08/W/MKqlmyZcuWAmbVNJOdAAECBPJTQMAsP/tFqwgQIECAAAECBAgQIECAQFEILF68OEyfPiM9V+uXFUWXO8k6Fujdu1f4/A7b1/FR1lffokWL9W+8IkCAAAECBSwgYFbAnafpBAgQIECAAAECBAjkTmDRosVpZe3atctdpWoiQCAVmDt3XoiBsbLSmM+mY2zSpElo3rx5mDRpclnZSm1r1bpV6NG9e6lt3hAgsE5gu223CfEhESBAgAABAtUTEDCrnpfcBAgQIECAAAECBAg0UoGZs2amZ9atW9dGeoZOi0DDCfz9oYfDC//+T4UNWLt2bbjyxz+pME9m5/Dhm4fvXHRB5q1nAgQIECCQ1wLxO/D9Dz6sURsnTJhYo3IKESBQfQEBs+qbKZFjgcsuvyrMX7Awx7WWX123rl3DD77/3fIz2EOAAAECBOpR4PY77w7Lli3LyRHjdDinnHRCTupSCYFiE4gjXxZ89jdpt27diu30nS8BAgQIEChTYM2aNWHVqlUhrlMmESBQc4EX//NSzQsrSYBAvQkImNUbtQOVJzB//oIwb/788nbnfHuLZIoPiQABAgQI5IvAa6++HhYuWpST5rRq1UrALCeSKilGgRf/89/0tNu0aRP69etbjATOmUCdCnztuGPC0UcdUeYxvnPxD9LpGo//2rHhCzuPLDNPZuNf7r0//PtFFx0zHp4J1ERgzpy54ac//1XYfbddwhf3/L9Q3lTEcbrUW2+7IwwcOMDfmDWBVoZACYEB/fuHtm3blNhS9ZdTpkyt12unVW+ZnAQan4DIQePr04I7oyOPPCwsX7683todL4JIBAgQIEAgXwR22WXnnH0PxnVfJAIEqi8Q755/9rnn04I777RjaJmM1pQIEMitQBydUtYIlVmzZmfXNhs2dEhyMbFthQdu1sx3XYVAdhKogsDz/3ohzJgxI/zt7w+HXXf5QhIwK7vQq6++FiZOnJQ+Ru74+bDFiOFlZ7SVAIFKBY479qgwZMhmleYrK8NNN98a/vPZzV1l7beNAIHcCfhLM3eWaqqhwC5f2LmGJRUjQIAAAQKFL3DM0UcW/kk4AwIFLnD3PfclFw5nhiZNmoQ99ti9zLNp1rxZun3mzHXrnJWZyUYCBKotMHbcuLRMHCW9ySZ9ql1eAQIEqiewevXqZD3BF9NCn99h+9ClS+dyKzj00EPCG2++nQbXbrnl9nDVlT8KrVu3Lje/HQQIECBAoNAFBMwKvQe1nwABAgQIECBAgACBGgs8+dQz4Zlnn0vLH3jAfqF/v35l1rXlFiPC66+/Gf738qvhk09Ghw4dOmTzDR02JOyW3KEvESBQfYExY8alhfr37xeaNm1a/QqUIECgWgKvv/FmiEtjxLTXl/aMT+WmOOL61JNPSKdvnD1nTrj3vgfCSSd+rdz8dhAgQIAAgUIX8Ndoofeg9hMgQIAAAQIECBAgUG2BuHbgdX/4U7jnL/elZUcM3zwc+tWDy61nx8/vEOLaEzHFi4bjxo/PPmZMn1G63NrSb70jQKB8gcwIs4ED1n2+ys9pDwECtRWIUxA//PCjaTV9+24ahibToFaWhg0bGvb8bPR1nMrxgw8/qqyI/QQIECBAoGAFjDAr2K7TcAIECBAgQIAAAQIEaiowZvSY8PY776bFd99t13D88cemUzKWV1+7ZIGXH136vTBnztwwfsKEEEoExTp16lheMdsJEKhAYO3atWHcuPFpjkEDB1aQ0y4CBHIh8K8X/h0mT5mSVnXg/vtVucqjjjw8/c6M34E3J1Mz/jiZmjFOoyoRIECAAIHGJiBg1th61PkQIECAAAECBAgQIFCpwDbbbB2+c9EFYeasWeELO+9Uaf5Mhq5du4T42DBNnDhp/aYm6196RYBA+QJTpk4Ny5cvTzMMHDggffY/AgTqRmDp0mXh7w/9I6180KCBYeTIz1f5QHHdspNOOD78+trfhdmzZ4d7738gnHj8cVUuLyMBAgQIECgUAVMyFkpPaScBAgQIECBAgAABAjkV2GyzwdUKluX04CojQCBk1i9r375d6NGjOxECBOpQ4MG//T0sWLAwPcKxRx9Z7SNtvfWWYZcv7JyWe/75F8LoMWOqXYcCBAgQIEAg3wUEzPK9h7SPAAECBAgQIECAAAECBAg0QoH165cNaIRn55QI5I/AG2+8GZ5+5rm0QXFNznjDSE3SscccFdq1axvidKr3/OX+mlShDAECBAgQyGsBUzLmdfdoHAECBOpGYNWqVeHJp56pm8rLqXXw4EFhWBUWlS6nuM0ECBAgQIAAAQKNTGDsmHHpGcXp4SQCBOpGYObMWeGmm29LK+/YsWM4/mvH1PhAcTToQQceEP5y7/1hdLIW6CuvvFatqR1rfGAFCRAgQIBAPQkImNUTtMMQIEAgnwRiwOz+vz5Yr0068ID9BMzqVdzBCBAgQKA8gUmTJoeVK1eWt7tG26dPn1GjcgoRKFaB+PfoxEnr1v4bOKB/sTI4bwJ1KrBkyZLw+z/8MSxdujQ0adIknHn6qSEGzWqT9vrSnuGZZLRaXAP0/gceDNtvv21o3tzlxdqYKlscAg8/8s/QqWOHGp3sJ5+OrlE5hQgQqL6Ab7TqmylBgACBgheI/1jq3r1bvZ5HnLpDIlDsAi+/8mp4/PGn6pVh332/EnYauWO9HtPBCOS7wA033ZzvTdQ+Ao1CYNy48eHjUZ+UeS7BhR4cAABAAElEQVTz588Pq1evTvd9koxUmVbFoHMmyDZ79pzwxJNPl6q7SfJu772/XGqbNwSKVWDx4sXhF7+8NkyYMDElOGD/fcOIEcNrzRGDY0ccfmi4/k83hlmzZqczl+y/3z61rlcFBBq7wHvvvd/YT9H5EWgUAgJmjaIbnQQBAgSqJ9CqVavw859eXb1CchMgUGuBuND6uPHja11PdSrILO5enTLyEmjsAl26dEnuhm+W09NctWp1mDt3bk7rVBmBQhf48KOPw333P1DpaTz66GOV5tkww4wZM9Jp4UpujzeFCZiVFPG6WAUWLlqUBMt+kw2WxXXLDv3qwTnj2HHHHZKA9VNhzNhx4ZHk87v7bruEDh1qNnImZ41SEYE8F9hmm61Dp041G+H58cejgtkM8ryDNa/RCAiYNZqudCIECBAgQIBAvgsMTtZoOeTgA+u1mfGYEgECpQUuOO+c0LfvpqU31vLdxImTwqWXXVnLWhQn0LgEOnRoHzbd9HP1dlIxYCYRIBDC0mQqxmXLlqcUO+ywXfh/Z349NG3aNGc08bN29FFHhGt++ot0usd33n0/7LrLzjmrX0UEGqPAAclIzCFDNqvRqd10860CZjWSU4hA9QUEzKpvpgQBAgQIECBAoEYCg5LgVXxIBAjUv0Crli3DlltukR64dZvWOW9ArDNTfzyWRIBACLvtukv6YEGAQP0K9OzZM/zw+xcn0yU+nd6slctgWeZMhg4dEvbc4//CtttsFeLIGYkAAQIECDQGgSZrk9QYTsQ5ECBAgAABAgQIECBAgAABAgQIECBAgACBfBCIl92XJCM+Y2rTpk2NR3quWrUqrFmzJi0f1xGUCBSTwKxZs9LTbdu+S2iajHCOA6bjSOcmYV1YK51hIJlkIDPPwLoZB9ameWLBGP2qziQEPmHF9NPlXAkQIECAAAECBAgQIECAAAECBAgQIECgzgXihft27drV+jiCZLUmVAGBKgvkbgLjKh9SRgIECBAgQIAAAQIECBAgQIAAAQIECBAgQIAAAQL5IyBglj99oSUECBAgQIAAAQIECBAgQIAAAQIECBAgQIAAAQINICBg1gDoDkmAAAECBAgQIECAAAECBAgQIECAAAECBAgQIJA/AgJm+dMXWkKAAAECBAgQIECAAAECBAgQIECAAAECBAgQINAAAgJmDYDukAQIECBAgAABAgQIECBAgAABAgQIECBAgAABAvkjIGCWP32hJQQIECBAgAABAgQIECBAgAABAgQIECBAgAABAg0gIGDWAOgOSYAAAQIECBAgQIAAAQIECBAgQIAAAQIECBAgkD8CAmb50xdaQoAAAQIECBAgQIAAAQIECBAgQIAAAQIECBAg0AACAmYNgO6QBAgQIECAAAECBAgQIECAAAECBAgQIECAAAEC+SMgYJY/faElBAgQIECAAAECBAgQIECAAAECBAgQIECAAAECDSAgYNYA6A5JgAABAgQIECBAgAABAgQIECBAgAABAgQIECCQPwICZvnTF1pCgAABAgQIECBAgAABAgQIECBAgAABAgQIECDQAAICZg2A7pAECBAgQIAAAQIECBAgQIAAAQIECBAgQIAAAQL5IyBglj99oSUECBAgQIAAAQIECBAgQIAAAQIECBAgQIAAAQINICBg1gDoDkmAAAECBAgQIECAAAECBAgQIECAAAECBAgQIJA/AgJm+dMXWkKAAAECBAgQIECAAAECBAgQIECAAAECBAgQINAAAgJmDYDukAQIECBAgAABAgQIECBAgAABAgQIECBAgAABAvkjIGCWP32hJQQIECBAgAABAgQIECBAgAABAgQIECBAgAABAg0gIGDWAOgOSYAAAQIECBAgQIAAAQIECBAgQIAAAQIECBAgkD8CAmb50xdaQoAAAQIECBAgQIAAAQIECBAgQIAAAQIECBAg0AACAmYNgO6QBAgQIECAAAECBAgQIECAAAECBAgQIECAAAEC+SMgYJY/faElBAgQIECAAAECBAgQIECAAAECBAgQIECAAAECDSAgYNYA6A5JgAABAgQIECBAgAABAgQIECBAgAABAgQIECCQPwICZvnTF1pCgAABAgQIECBAgAABAgQIECBAgAABAgQIECDQAAICZg2A7pAECBAgQIAAAQIECBAgQIAAAQIECBAgQIAAAQL5IyBglj99oSUECBAgQIAAAQIECBAgQIAAAQIECBAgQIAAAQINICBg1gDoDkmAAAECBAgQIECAAAECBAgQIECAAAECBAgQIJA/AgJm+dMXWkKAAAECBAgQIECAAAECBAgQIECAAAECBAgQINAAAgJmDYDukAQIECBAgAABAgQIECBAgAABAgQIECBAgAABAvkjIGCWP32hJQQIECBAgAABAgQIECBAgAABAgQIECBAgAABAg0g0LwBjplXh5w9d3FetUdjCBAgQIAAAQIECBAgQIAAAQIECBAgQIAAgfwX6NalXf43UgurLGCEWZWpZCRAgAABAgQIECBAgAABAgQIECBAgAABAgQIEGiMAkU/wizTqSLBGQnPBOpWIDOqs1XbNnV7ILUTIFBKYPmSpel733elWLwhUOcCvvfqnNgBCGwk4DtvIxIbCNSLQOY7z9+b9cLtIASyAj57WQovCNSrQOazV68HdbA6FzDCrM6JHYAAAQIECBAgQIAAAQIECBAgQIAAAQIECBAgQCCfBQTM8rl3tI0AAQIECBAgQIAAAQIECBAgQIAAAQIECBAgQKDOBQTM6pzYAQgQIECAAAECBAgQIECAAAECBAgQIECAAAECBPJZQMAsn3tH2wgQIECAAAECBAgQIECAAAECBAgQIECAAAECBOpcQMCszokdgAABAgQIECBAgAABAgQIECBAgAABAgQIECBAIJ8FBMzyuXe0jQABAgQIECBAgAABAgQIECBAgAABAgQIECBAoM4FBMzqnNgBCBAgQIAAAQIECBAgQIAAAQIECBAgQIAAAQIE8llAwCyfe0fbCBAgQIAAAQIECBAgQIAAAQIECBAgQIAAAQIE6lxAwKzOiR2AAAECBAgQIECAAAECBAgQIECAAAECBAgQIEAgnwUEzPK5d7SNAAECBAgQIECAAAECBAgQIECAAAECBAgQIECgzgUEzOqc2AEIECBAgAABAgQIECBAgAABAgQIECBAgAABAgTyWUDALJ97R9sIECBAgAABAgQIECBAgAABAgQIECBAgAABAgTqXEDArM6JHYAAAQIECBAgQIAAAQIECBAgQIAAAQIECBAgQCCfBQTM8rl3tI0AAQIECBAgQIAAAQIECBAgQIAAAQIECBAgQKDOBQTM6pzYAQgQIECAAAECBAgQIECAAAECBAgQIECAAAECBPJZQMAsn3tH2wgQIECAAAECBAgQIECAAAECBAgQIECAAAECBOpcQMCszokdgAABAgQIECBAgAABAgQIECBAgAABAgQIECBAIJ8FBMzyuXe0jQABAgQIECBAgAABAgQIECBAgAABAgQIECBAoM4FBMzqnNgBCBAgQIAAAQIECBAgQIAAAQIECBAgQIAAAQIE8llAwCyfe0fbCBAgQIAAAQIECBAgQIAAAQIECBAgQIAAAQIE6lxAwKzOiR2AAAECBAgQIECAAAECBAgQIECAAAECBAgQIEAgnwUEzPK5d7SNAAECBAgQIECAAAECBAgQIECAAAECBAgQIECgzgWa1/kRivgAq1atDgsXLQ6LFi8JS5YsDc2bNw9t27QOHdq3C+3bt62yzIoVK8OcufPD0qXLwvIVK0KrVi2TetqEdu3ahPbtql5PlQ8oI4ECFViRfD6WLFkSliaft+XLloeWyWeldevWoX2H9qFly5ZVPqtlyWctrWfp0rBy5cqkjlbJI/nMJZ/dFi1aVLkeGQkUi8Di5HtuYfJYvDh+ZlYln5eWoU3yuenapXPyman6nxpLlixLvzfjd+by5Lsv1tG2bZvQsWO70Koan+FicXeeBEoKfDR1TXjg1RWhQ+sm4Zt7tyq5y2sCBHIosHbt2vD++++HN998M7z11lth5syZYejQoWHzzTcP++yzT+jQoUMOj6YqAgQyAvPmzQv//e9/w9tvv51+Bjt16hQGDRoUtt9++7DnnntmsnkmQKAeBBYvXhxOP/309LrJN77xjfT7rx4O6xAECBCoF4GqX8Wql+Y0noPMmDk7fDJ6Qli9enWZJ9Wta+cwaMCmoU0SQCsvrV69JkyYNCVMnjIjrFmzpsxs3bt3CYMH9ksuJLqIXyaQjUUhEC9cTJk8JUyfNr3M823SpEno2atn6N2nd2jWrFmZeeLGVatWhUkTJ4U5s+eUmSeW7duvb+jarWuZ+20kUGwC8caQT0aPDzNnlfOZado0bLJJz9Bv002Sz175g9rjd+WYsZPC1OkzyyRsmtTTv+8mYdPP9Qrx8ywRILCxwCNvrgwvj14durX3GdlYxxYCuRGYPn16OPnkk8Pjjz9eZoU9e/YMl112WXoRMd4sKREgkBuBhx9+OP1czZgxo8wKd9ppp/CTn/xE4KxMHRsJ5F7gggsuCPfcc09a8b777pv7A6iRAAECDShQ/tWrBmxUoR/640/Gho9Gjc0Gy+JFwo4d24fWrdbf7Tt7zrzwxtsfpKPGyjvfD0eNDhMnTcsGy+Ld9Z06dUjvts9cMJw1a2544833QxyFJhEoRoEY5Pr4w49LBcviKLD27dunozqjSQyoxWDaqI9GZT9PG1otTUaTffDeB6WCZa2Sz2y7du1Ck6brLj7Gi/rjxo5LHxuW955AsQmsSEZfvp58/5QMlsURYZ2S77uWn93EsTq52SN+j8XvxfJSzPPGWx+UCpbFUWkdk5GhmSBbvGlk7PhJ4YOPRpdXje0Eilrg0+lrwn8/XVXUBk6eQF0LvPTSS2HrrbcuFSwbNmxY2HHHHdO/F+Px48X8s846K8S77SUCBHIj8OMf/zgccsgh6ecr1hj/nbfLLruELbfcMjuLyMsvvxziRfvXXnstNwdVCwEC5QrEAPaNN95Y7n47CBAgUOgCbnvLcQ/GC4fTZ8xOa42jUTYfOjCZkqpT9o74xck0U58md+PPX7AoCaitSS/+bbfN8BDvni+ZJkyaGubMmZ9uioGyoUMGhC6dO2azLFu+Inzy6bgwd96CsDIJGHw6ZkIYsfng7H4vCBSLQBxZFqdPjClOvzhw8MBk5Gab7OnPnzc/TJwwMQkqr0gC1EvDpAmTQr8B/bL744sYUBs/dnw6wiy+75xMI9evf79SAbc46mzChAlh7Zq1aVAtBtJ69OwRs0sEilJg3PjJ6TTB8eTj99OwIQOzgbK4bdbsecnos3HpFI2zZs8NU6bOCJv06Rl3lUpjx00KS5MpVGOKUw6PGDY4mc6qXfo+fjZjPTHgFoNm8WaTOIK7Z49u6X7/I1DsAslXUnjpk1Xht08uDyvLntSg2ImcP4GcCMSbps4444zsBfvDDz88XHfddaFXr15p/XEK72uvvTZceuml6d+bN910UzrS5Wtf+1pOjq8SAsUqMHr06HDFFVekp9+2bdtwww03hGOPPTZ7/WTatGnhoosuCnfddVdYvnx5OOKII8IHH3yQ3GRs6Ypi/Zlx3nUrEEdax6kYJQIECDRmgdJRmsZ8pvVwbvHC3tjkAmImbb3F0BCnXsyMBovb2yVrsWyVbI9rmcUUA2jxAuCGqeQd+zEQVjJYFvO2jhcVk+2ZNV3ixcgYOJMIFJPAsmXLwuxZ6wLUcb2yoZsPLRUsixadOncKmw3ZLPuPqlmzZqXrkpV0mjF9Rjbols6FP3hQNlgW88XPcLfu3dJ6MuWmTp2WBtoy7z0TKCaB+N01bfqs9JTjupxbjhhSKlgWd3Tv1jm5aWRQliV+T22Ylic3f8RAWkzNkhtHtt1q82ywLG6Ln70eydTDWwzfLL5N05gkwCYRKGaBGCC7/cUV4dePLw8n/mlJ+Nmjy8MyEw0U84+Ec68HgVtvvTVdMykeKo50uffee7PBsrgtzm4QL9rHIFomXXXVVZmXngkQqKHAJZdckt74GIvH6d9iELrkzca9e/cOt912W9htt93SI4wfP94osxpaK0agKgJf//rX05tH4pqdEgECBBqrgIBZDnt23vyFYdlnd8nHQFnmDvkNDxH/wOuXrMWSSYsWrRsdk3kfR54tWbIsfRuntyqvnjiCLU7RmEmLFy/NvPRMoCgE4qivGKiOKa4ZUd5aEa2TAHXJdceWJhf7S6Y4Ci2Tem/SO/Nyo+e4iHsMwMW0KrmTeP789eU2ymwDgUYsMG/ewuzZ9evbp9SNIdkdyYt4s0eLz9ZwWbS49HddzFfyhpE+vXukI8xKls+8jvXEqY1jilMQL1y4OLPLM4GiE3jyvVXhr6+uDM99uCosWLruO7DoEJwwgXoW+POf/5w9YlyjrLw1cU855ZQwdOjQNO+oUaPCokWLsuW8IECg+gLPPPNMWmj77bcPBx98cJkVxM/j0Ucfnd335ptvZl97QYBA7gT+9Kc/hUceeST9notrBkoECBBorAICZjns2XinfCZVNl1UySDYwg0uIq5avSobBIjruFSUmjdvlt0dpwqRCBSTQJxmMZNKBsQy20o+t223flqOzBSOmf1xqsaYmid3B8epFitKnTt3zu5euGB90CC70QsCRSCw+LNpUOOpduq4/saNsk49s57ZqlWrk2lPS39PzZ67Pujco3vXsopnt/UssX/23I1HZmczekGgkQsM7NE0bNW32UaP1i0a+Yk7PQINKDBx4sT06CNGjAjbbrtthS2Ja5rFFKcSfuuttyrMaycBAuULTJ48OVmmYk6aYffddy8/Y7KnT58+2f1jxozJvvaCAIHcCMSbQL71rW+lN4zEUZ2mPc2Nq1oIEMhPgYqjMfnZ5rxt1fISF+/jlIkVpZLBrTgNVckUp1mMI2VWJVMsxlFjcQRNyWkdS+YtOaosTvcoESgmgZXJSJOY4qjN8kaXZTzWJCM3M6nkNB6xjsznMTPFaSZfWc9xnbRM2jDwltnumUBjF2idjH6ON4Y0bdok+eytv3Fjw/OOFwuXLF03Yjp+RjfMmxntGb/j2rdfH9TesJ74vuSNJpk6y8pnG4HGLnDSbmX/jXnu7UvD+Nnrv+sau4PzI1BfAvHvxKlTp6aH69+/f6WHXbhw/Q1Vld2IVWllMhAoYoEFCxaE448/PhXYe++9K5R44403svsHDVo/JXh2oxcECNRYIF6bPOGEE5Lrk4vDxRdfHHbeeecQA2gSAQIEGquAgFkOe7Zbl87ZtcnaVhK8qizQtUmfHmHCxKlhdXKxcWyyXsuggX03ammcymr+ZyNcunbpFOIFTIlAMQn06t0rdO/RvdQ89uWdf2YUWdzfps364HKzEhf7M9M7lldH3B4DAJm0/LMpWDPvPRMoFoF+m66/i7eic47remY+V316dS+VNW5f/lnQO95kUt6NIZlCbUoEq5cvWz+6NLPfMwECBAgQqAuBGDC7884706oHDBhQ6SHeeeedNE+cJm748OGV5peBAIGyBeLn54477ih7Z4mtY8eODX/84x/TLe3btw/HHntsib1eEiBQW4Err7wyvPLKK2GrrbYKl19+eW2rU54AAQJ5LyBglsMuinfHV3aHfDxcvEg4acq07JEz67JkNyQv+idrnK1cuSpMnTYzyTs9LE7WXOrdq0eIa5qtTO7umJNMYzVl6oy0SOdkbZfNh7qLqqSf18Uh0LFTxyqd6PLly8PcOXPTvHF0WZsSAe34Pi7UvjJZk2zpsopHdMYKSgbeMiPTqtQImQgUiUD8jos3hcTvuRkz102j071bl9Cv3yalBOJ3XCaYVtn0w7FgHJ0Wg2qxzIrk8yoRIECAAIH6EGiZzP5xzDHHVOlQ9957bxg3blyaN665VHJmgipVIBMBAlUWmDFjRnjooYfCFVdckU7d2KlTp3DPPfeka1tXuRIZCRCoUOB///tf+PGPf5xeM7n99ttD/E6UCBAg0NgFBMwaoIfjHfeZEWadO3UIcXTYhileFBwyuH86Ym302Ilh7rwF6WPDfD17dA3Dhgys9M78Dct5T6BYBOKIsPHjxmdHhsVRaRtO3xhHnMWA2do1a8OsmbNCj549yuSJF+pnzpiZ3RffxzJNkmnpJALFLjBv/sLwwUej0ylOM4GwaDKg/+dCWSPSSuZpmtyFX5UUA9wxUF1ypGdVyslDgAABAgTqWiCum3TuuedmD/Pzn/88+9oLAgRyJ7DPPvuEl156KSxatChb6eabbx4efvjhMGTIkOw2LwgQqJ1A/IzFqRjjv79+9KMfVbqGZ+2OpjQBAgTyR6D04ln5065G2ZJ4cfDjT8aGSZPXjS5rnlwg3CwJipWXpk6fGSZ+lre8PLNmzw2fjpmQrHe2urwsthMoWoEYBBv10aiwaOG6f0zFwFjv3r038ujZq2d225TJU9K5ubMbPnsRP7+TJkwMcbRayZSEzEq+9ZpA0QrEz0ic375kICxizExGmWVGRJfEWZMEmzOpqiHn5F6SNMVAtUSAAAECBPJF4MUXXww77bRT8p237saq008/Peyxxx750jztINCoBOI6gSWDZfHkxo8fH6666qrw4YcfNqpzdTIEGlLgggsuCJ9++mnYcccdwyWXXNKQTXFsAgQI1KuAEWb1xL1o8ZIw6pNxIT7HFKef2mqLodk1zzZsxoSJU8K4CVOymzslI9G6dU3WSEvWcFm+ckVYsGBROtVVvOAYp21cuGhx2HqLYemUVdlCXhAoYoG5c+eGieMnphfwI0NcdH3wkMFljgaLUzvGx4L5C9K7p2KQrVfvnqFDh47paLQlS5akI8/iIrdxap04yiVui8/xIREgED9jbcKWw4ckI56TqUuXrwjzk8/TzFlz0ymF440dixYtCUOHDFhPVSJKtmGQbX2m0q+y+TKRs9K7vSNAgAABAvUqEG/Ouuaaa9IL9fF1TGeccUa4/vrr67UdDkagmATiZ27FihXpNIwff/xxuPHGG8OkSZNCnC7ukUceCU8++WTYYYcdionEuRLIuUCc7vSmm25Kr3/cdtttG83Sk/MDqpAAAQJ5JCBgVsedEQNaMfgVR4plLvR17NAuXXOsdbIeWVkpXlQsGSyL65PFqRdLpj7Jemaf69MrvPfhJ8kfiyvTC5ETJk0NgwZsWjKb1wSKTiBerJiYjASbN3de9ty7de8W+vbrW2Fwq/+A/mHc2HFh4YKF6Wd12tTpIT5KplatWoUhw4aET0d9mm6Oa59JBAisE2iZfB66dl03xXCXZNMmvZPvqU0Wh3ff+zisTqZGnTZjVro/rmcWU9MSQa+So83SneX8L5OvZNlystpMgAABAgTqVOC1114Lp556anj33XfT48S/E6+++upw4YUX1ulxVU6g2AU2HL357W9/Ow1U33nnnWkQ7eSTT85+LovdyvkTqInA9OnTQxwpHVNcv2z48OE1qUYZAgQIFKyAoRF12HVx1Ncbb38QYiArBsviSJS4lss2W22e3KVRdrAsNmfSlPUX6eO6LxsGyzJNbt++bRp4y7yPI80yQbnMNs8Eiklgzuw54cP3P8wGy2JAa/Bmg0MMhlU2EizmHTJ0SBpYa92m9UbrAnbq3CkNlsV8mTuImycjRSUCBMoXiDeIDB7UL5thconvt6bN1v8JUpU1yeL3W+Y7rmTZbOVeECBAgACBehCI03PHqal23nnn7EX5kSNHhtdff12wrB78HYLAhgJx2v0bbrghDBs2LN313nvvhWeffXbDbN4TIFBFgdNOOy2dYnj33XcP559/fhVLyUaAAIHGI+Bqbx315eSpM8KYsROzF/fidIqDB/atMFCWacqiJNCWSb17dc+8LPO5czJVY5vk4v7SpcvSqeSWJ9NgVRSMK7MSGwkUuEC8iD5+7Pj0jsJ4Kk2SkStxXbI+ffqE6l5Y79GzR4iPWOfSpUtDXCupVRLgbt583a/LuD2u0xSTEWYpg/8RqFCgR/euYdSn49I8ixYvzeZtkXymYiA7BsuWLSu9NmA2U4kXJfO0atmyxB4vCRAgQIBA/QhMmzYt7LPPPuGdd95JD9itW7d0SsZ4cbGym7Pqp4WOQqDxCMR/d8VH/LddfFSUYtDskEMOCT/72c/SbG+//Xb40pe+VFER+wgQKENgypQp4dFHH033xLUCDzzwwDJyhVLrvv/+978PDz/8cJrvpJNOCkcffXSZZWwkQIBAoQgImNVBT8URZePGT05rbt68WdhsUP9yR4mVdfgVK9ddjI//6KpK8CuuGxMDZjHFslUpU9ZxbSNQiALxH1FjRo8J8+fNT5sf1xgbMGhAaNu2ba1OJ/6jrKw64jpmmRSn3pEIFJtAHD395tvrFlSPo6DjyOmKUrNkJFn8XooBr9WrVycBsjjiet1Fj9atWoYlyffXqmR7vOHj/7N3J3B2TfcDwE8QZEFijVgjRAiCKq1qLaUL/lT/tFXaaquoXVttUTu1lqK1l1Zbu9q1dn9VJYraxS5EpEIktkgq+c/vpvd1MnmTeTPz5r6bme/5NJ377nbO+57evvfO7ywLNL1uLb33/n+DbQsu2Pp5rV1vPwECBAgQ6IzAmDFj0mc/+9n03HMzp+b+n//5n2ztpKWWWqozt3UtAQKtCERD/U033ZTmnXfepiUo3m36PrlgK2fO3L3GGmtUjr/xxhuVbRsECHRM4OGHH67pwieeeCLFv0gbbbRRTdc4iQABAmUWEDCrc+1MeHNiJVgWDYQj11h1jg2A1bLv23fBNHnyu1mv+2lNI1miF/6c0odTplYOx7USgZ4k8Oorr1aCZTFt4korrZR6/acxvlaHSZMmpSn/aYxfomlk2px6CE9smvYxT4suOuvagvl+fwl0Z4G+TaOa89Q8iJXva/k3AmQRDIvUp+lzMQ+Wxev+/ftlAbPYfve99+f4eRnre+apf7/OBcTz+/hLgAABAgRqEYgOH9tss00lWBZrlcW0jBIBAl0nMHz48CxgFs/fU089ldZZZ505ZpYHs+OkESNGzPFcBwkQqC4QgekYrdlWiiD27bffnp02cuTItOKKK2bbw4YNa+tSxwkQIFB6gTlHYkpf/HIVMKaVeuHFV7NCRS/5kWs2Bcs6MG1UNARGwCzSxImT5zg6bUpTI2Q0MkaKqRnna+p9JRHoKQJTmkamTHhjQvZ2F1544bTS0KZgWRvTdVSz+bBp5MvYsa9lhxZoeo4GDBhQ7bRsSpCJE9/OjsW0H3369ql6np0EurNA9PKNz7YPp05NE9+e3ObIsIlNoz9jJGikhZrWNGueYrrif73xZrbr5VdeS/G6WprWNHr6taZ1OvPU2nn5cX8JECBAgEA9Bc4///wUU7xFOuKIIwTL6onrXgRaEVhttdUqRy644IJ0xhlnVF633IigWj6NXByLdQUlAgTaLxCdgq+55po2L3zmmWcq6wbuscceKf5JBAgQ6C4C83SXN1KG9xGNeVOaFoGOtNwygzoULItrBw5YOP5k6bkXxrS6tksE6EY/82KlIXLRgYvkl/lLoEcIjB07tvK//2WXW7ZDwbKAWmjhhSpe48aOy6aNq+z4z0Y+9WO+ftmiixld1tLI654jsMQSM//3H59D8TkVo8iqpZiGMV+/LI63/JxadODCTesDzuzoESPIxo3/b1Cs+f1efPnVytqBEXQz9XBzHdsECBAg0JUCU5s6iBx66KFZFoMHD04HH3xwV2bn3gQI/Edgyy23TIssMrON46yzzkp33313VZv4nfaTn/wkPfjgg9nxVVZZJa288spVz7WTAAECBAgQINCWgBFmbQm14/jbTT3t8zS96UvbuGa94fP91f72axqlsvDC/SuHouf8oCUXT6//a0LWQPjgw0+kZZcdlDU09mkaHj1t2rQ0+Z33UvTGj8bISH2b7jGkjXVkKhnYINBNBN6Z/E72TnrP3zub1z6mBaglRYCs+fpjMVpswMAB6e2m0WMffPBBGv3U6DRo8KCm6eL6Z0G4uO+bE95MkyfNfMZjZNniSyxeS1bOIdAtBVZcfnB6s2kK4g+aPoPefOvtpjXNnkwrNO3r17R2YO/e82Xrasb+V18bn00vHAhLLrFY9q85SIxWGzpkuTT62Zey3c+/8EqaNvXfafHFBzZ1Oumd3f+1cf9Kr4+fOZI0RpCuMnSF5rewTYAAAQIEulQgRpbl6yHFFHEXXnhhzfl985vfbHPdpZpv5kQCPUwgAtQnnXRS2m233bIOjZtttlk68MADU6wfGKPPJk6cmI38POGEE9L999+f6cQa1FdeeWWHO1L2MGJvlwABAgQIEKgiIGBWBaWju955973KpS+8+Eplu62NwUsvOUvALM5feejyWUPhpKaAwEdNPfhfHvNa9q/avaKn/eqrDp3jukvVrrOPwNwsENMxxuiWSNOmTktjXh5T89sZMnTILAGzuHDFISum0VNGZwGzKVOmpJdeeCl2z5b69uuXVhm2crb49GwH7SDQQwRinb/hw1ZKT41+IRtZHWuZPfn0862++wGLLJSGrVw90LVUUweRSU3TEEdQLJ7pl8aMzf61vFkEyyK4Zv2yljJeEyBAgEBXCowaNapy+zvuuCPFv1rTdtttJ2BWK5bzCFQR+N73vpcefvjhdPbZZ2dBs+OPPz7Fv2ppoYUWSjF96lprrVXtsH0ECBAgQIAAgZoETMlYE1PbJ8VaYrHGSr1SNEbGGmgjVls59Wta06xa6t27d1ppxeXSx9ddo2mE2YLVTrGPQLcVeO+9/wao6/EmswDAasNTTO04X9Oz1TLF4rcxqkywrKWM1z1VIKZGXG/dEWmF5Qan3vNV73+zUP9+aY3VV0lrrbHqHDt1DFt5xey8vk1rCLZMESiLUdjrjlw9RQcTiQABAgQIFCnwwAMPFJmdvAgQaCFw5plnpvvuuy996lOfaprKe/bvnBEo++EPf5heeOGF9JWvfKXF1V4SIECAAAECBNon0KtpvufqC4+07z5z7dlvTpzZ6L7YwH6lfg8ffTQ9m34x1kiLL4nRqBjTXkkE5jaB/JlboGlawzKnWK/iw6bnLf4vsl/TqLKYOk4iMDcLfNg0CixSV33eRaeR95tGfsY6fzHyuU/TvwhEtzfFqOr3m8o6tWnkaNwnPu8iaCYRmFsF5pbPvbnVV7kJVBPo6s+8annaR4BASvlnXtd935yWnn/++fTss882dahaOMV6ZTF1o0Sgpwt09bPX0329fwKtCXj2WpOp7/4JE2Yu09G3/8A0T1P7UDQ1RTtRrzQzrJW1GTU1G+UtRzPbkGZU2pIi+tWeZiURl/rWX5fdbd5552lqtO+T/euyTNyYAIGKwPzzz5/in0SAQG0C0Yljkd7/XY+ztqtmP2vepm8+MTJNIkCAAAECBAgQINBcIGbZibUE459EgAABAgQIEOgKgfZ3/e6KUrgnAQIECBAgQIAAAQIECBAgQIAAAQIECBAgQIAAgQYJCJg1CF62BAgQIECAAAECBAgQIECAAAECBAgQIECAAAEC5RAQMCtHPSgFAQIECBAgQIAAAQIECBAgQIAAAQIECBAgQIBAgwQEzBoEL1sCBAgQIECAAAECBAgQIECAAAECBAgQIECAAIFyCAiYlaMelIIAAQIECBAgQIAAAQIECBAgQIAAAQIECBAgQKBBAgJmDYKXLQECBAgQIECAAAECBAgQIECAAAECBAgQIECAQDkEBMzKUQ9KQYAAAQIECBAgQIAAAQIECBAgQIAAAQIECBAg0CABAbMGwcuWAAECBAgQIECAAAECBAgQIECAAAECBAgQIECgHAICZuWoB6UgQIAAAQIECBAgQIAAAQIECBAgQIAAAQIECBBokICAWYPgZUuAAAECBAgQIECAAAECBAgQIECAAAECBAgQIFAOAQGzctSDUhAgQIAAAQIECBAgQIAAAQIECBAgQIAAAQIECDRIQMCsQfCyJUCAAAECBAgQIECAAAECBAgQIECAAAECBAgQKIeAgFk56kEpCBAgQIAAAQIECBAgQIAAAQIECBAgQIAAAQIEGiQgYNYgeNkSIECAAAECBAgQIECAAAECBAgQIECAAAECBAiUQ0DArBz1oBQECBAgQIAAAQIECBAgQIAAAQIECBAgQIAAAQINEhAwaxC8bAkQIECAAAECBAgQIECAAAECBAgQIECAAAECBMohIGBWjnpQCgIECBAgQIAAAQIECBAgQIAAAQIECBAgQIAAgQYJCJg1CF62BAgQIECAAAECBAgQIECAAAECBAgQIECAAAEC5RAQMCtHPSgFAQIECBAgQIAAAQIECBAgQIAAAQIECBAgQIBAgwQEzBoEL1sCBAgQIECAAAECBAgQIECAAAECBAgQIECAAIFyCAiYlaMelIIAAQIECBAgQIAAAQIECBAgQIAAAQIECBAgQKBBAgJmDYKXLQECBAgQIECAAAECBAgQIECAAAECBAgQIECAQDkEBMzKUQ9KQYAAAQIECBAgQIAAAQIECBAgQIAAAQIECBAg0CABAbMGwcuWAAECBAgQIECAAAECBAgQIECAAAECBAgQIECgHAICZuWoB6UgQIAAAQIECBAgQIAAAQIECBAgQIAAAQIECBBokICAWYPgZUuAAAECBAgQIECAAAECBAgQIECAAAECBAgQIFAOAQGzctSDUhAgQIAAAQIECBAgQIAAAQIECBAgQIAAAQIECDRIQMCsQfCyJUCAAAECBAgQIECAAAECBAgQIECAAAECBAgQKIeAgFk56kEpCBAgQIAAAQIECBAgQIAAAQIECBAgQIAAAQIEGiQgYNYgeNkSIECAAAECBAgQIECAAAECBAgQIECAAAECBAiUQ0DArBz1oBQECBAgQIAAAQIECBAgQIAAAQIECBAgQIAAAQINEhAwaxC8bAkQIECAAAECBAgQIECAAAECBAgQIECAAAECBMohIGBWjnpQCgIECBAgQIAAAQIECBAgQIAAAQIECBAgQIAAgQYJCJg1CF62BAgQIECAAAECBAgQIECAAAECBAgQIECAAAEC5RAQMCtHPSgFAQIECBAgQIAAAQIECBAgQIAAAQIECBAgQIBAgwQEzBoEL1sCBAgQIECAAAECBAgQIECAAAECBAgQIECAAIFyCAiYlaMelIIAAQIECBAgQIAAAQIECBAgQIAAAQIECBAgQKBBAgJmDYKXLQECBAgQIECAAAECBAgQIECAAAECBAgQIECAQDkEBMzKUQ9KQYAAAQIECBAgQIAAAQIECBAgQIAAAQIECBAg0CABAbMGwcuWAAECBAgQIECAAAECBAgQIECAAAECBAgQIECgHAICZuWoB6UgQIAAAQIECBAgQIAAAQIECBAgQIAAAQIECBBokICAWYPgZUuAAAECBAgQIECAAAECBAgQIECAAAECBAgQIFAOAQGzctSDUhAgQIAAAQIECBAgQIAAAQIECBAgQIAAAQIECDRIQMCsQfCyJUCAAAECBAgQIECAAAECBAgQIECAAAECBAgQKIeAgFk56kEpCBAgQIAAAQIECBAgQIAAAQIECBAgQIAAAQIEGiQgYNYgeNkSIECAAAECBAgQIECAAAECBAgQIECAAAECBAiUQ0DArBz1oBQECBAgQIAAAQIECBAgQIAAAQIECBAgQIAAAQINEhAwaxC8bAkQIECAAAECBAgQIECAAAECBAgQIECAAAECBMohIGBWjnpQCgIECBAgQIAAAQIECBAgQIAAAQIECBAgQIAAgQYJCJg1CF62BAgQIECAAAECBAgQIECAAAECBAgQIECAAAEC5RAQMCtHPSgFAQIECBAgQIAAAQIECBAgQIAAAQIECBAgQIBAgwQEzBoEL1sCBAgQIECAAAECBAgQIECAAAECBAgQIECAAIFyCAiYlaMelIIAAQIECBAgQIAAAQIECBAgQIAAAQIECBAgQKBBAgJmDYKXLQECBAgQIECAAAECBAgQIECAAAECBAgQIECAQDkEBMzKUQ9KQYAAAQIECBAgQIAAAQIECBAgQIAAAQIECBAg0CABAbMGwcuWAAECBAgQIECAAAECBAgQIECAAAECBAgQIECgHAICZuWoB6UgQIAAAQIECBAgQIAAAQIECBAgQIAAAQIECBBokICAWYPgZUuAAAECBAgQIECAAAECBAgQIECAAAECBAgQIFAOAQGzctSDUhAgQIAAAQIECBAgQIAAAQIECBAgQIAAAQIECDRIQMCsQfCyJUCAAAECBAgQIECAAAECBAgQIECAAAECBAgQKIeAgFk56kEpCBAgQIAAAQIECBAgQIAAAQIECBAgQIAAAQIEGiQgYNYgeNkSIECAAAECBAgQIECAAAECBAgQIECAAAECBAiUQ0DArBz1oBQECBAgQIAAAQIECBAgQIAAAQIECBAgQIAAAQINEhAwaxC8bAkQIECAAAECBAgQIECAAAECBAgQIECAAAECBMohIGBWjnpQCgIECBAgQIAAAQIECBAgQIAAAQIECBAgQIAAgQYJCJg1CF62BAgQIECAAAECBAgQIECAAAECBAgQIECAAAEC5RAQMCtHPSgFAQIECBAgQIAAAQIECBAgQIAAAQIECBAgQIBAgwQEzBoEL1sCBAgQIECAAAECBAgQIECAAAECBAgQIECAAIFyCAiYlaMelIIAAQIECBAgQIAAAQIECBAgQIAAAQIECBAgQKBBAgJmDYKXLQECBAgQIECAAAECBAgQIECAAAECBAgQIECAQDkEBMzKUQ9KQYAAAQIECBAgQIAAAQIECBAgQIAAAQIECBAg0CABAbMGwcuWAAECBAgQIECAAAECBAgQIECAAAECBAgQIECgHAICZuWoB6UgQIAAAQIECBAgQIAAAQIECBAgQIAAAQIECBBokICAWYPgZUuAAAECBAgQIECAAAECBAgQIECAAAECBAgQIFAOAQGzctSDUhAgQIAAAQIECBAgQIAAAQIECBAgQIAAAQIECDRIQMCsQfCyJUCAAAECBAgQIECAAAECBAgQIECAAAECBAgQKIeAgFk56kEpCBAgQIAAAQIECBAgQIAAAQIECBAgQIAAAQIEGiQgYNYgeNkSIECAAAECBAgQIECAAAECBAgQIECAAAECBAiUQ0DArBz1oBQECBAgQIAAAQIECBAgQIAAAQIECBAgQIAAAQINEhAwaxC8bAkQIECAAAECBAgQIECAAAECBAgQIECAAAECBMohIGBWjnpQCgIECBAgQIAAAQIECBAgQIAAAQIECBAgQIAAgQYJCJg1CF62BAgQIECAAAECBAgQIECAAAECBAgQIECAAAEC5RAQMCtHPSgFAQIECBAgQIAAAQIECBAgQIAAAQIECBAgQIBAgwQEzBoEL1sCBAgQIECAAAECBAgQIECAAAECBAgQIECAAIFyCAiYlaMelIIAAQIECBAgQIAAAQIECBAgQIAAAQIECBAgQKBBAgJmDYKXLQECBAgQIECAAAECBAgQIECAAAECBAgQIECAQDkEBMzKUQ9KQYAAAQIECBAgQIAAAQIECBAgQIAAAQIECBAg0CABAbMGwcuWAAECBAgQIECAAAECBAgQIECAAAECBAgQIECgHAICZuWoB6UgQIAAAQIECBAgQIAAAQIECBAgQIAAAQIECBBokICAWYPgZUuAAAECBAgQIECAAAECBAgQIECAAAECBAgQIFAOAQGzctSDUhAgQIAAAQIECBAgQIAAAQIECBAgQIAAAQIECDRIQMCsQfCyJUCAAAECBAgQIECAAAECBAgQIECAAAECBAgQKIeAgFk56kEpCBAgQIAAAQIECBAgQIAAAQIECBAgQIAAAQIEGiQgYNYgeNkSIECAAAECBAgQIECAAAECBAgQIECAAAECBAiUQ0DArBz1oBQECBAgQIAAAQIECBAgQIAAAQIECBAgQIAAAQINEhAwaxC8bAkQIECAAAECBAgQIECAAAECBAgQIECAAAECBMohIGBWjnpQCgIECBAgQIAAAQIECBAgQIAAAQIECBAgQIAAgQYJCJg1CF62BAgQIECAAAECBAgQIECAAAECBAgQIECAAAEC5RAQMCtHPSgFAQIECBAgQIAAAQIECBAgQIAAAQIECBAgQIBAgwQEzBoEL1sCBAgQIECAAAECBAgQIECAAAECBAgQIECAAIFyCAiYlaMelIIAAQIECBAgQIAAAQIECBAgQIAAAQIECBAgQKBBAgJmDYKXLQECBAgQIECAAAECBAgQIECAAAECBAgQIECAQDkEBMzKUQ9KQYAAAQIECBAgQIAAAQIECBAgQIAAAQIECBAg0CABAbMGwcuWAAECBAgQIECAAAECBAgQIECAAAECBAgQIECgHAICZuWoB6UgQIAAAQIECBAgQIAAAQIECBAgQIAAAQIECBBokICAWYPgZUuAAAECBAgQIECAAAECBAgQIECAAAECBAgQIFAOAQGzctSDUhAgQIAAAQIECBAgQIAAAQIECBAgQIAAAQIECDRIQMCsQfCyJUCAAAECBAgQIECAAAECBAgQIECAAAECBAgQKIeAgFk56kEpCBAgQIAAAQIECBAgQIAAAQIECBAgQIAAAQIEGiQgYNYgeNkSIECAAAECBAgQIECAAAECBAgQIECAAAECBAiUQ0DArBz1oBQECBAgQIAAAQIECBAgQIAAAQIECBAgQIAAAQINEhAwaxC8bAkQIECAAAECBAgQIECAAAECBAgQIECAAAECBMohIGBWjnpQCgIECBAgQIAAAQIECBAgQIAAAQIECBAgQIAAgQYJCJg1CF62BAgQIECAAAECBAgQIECAAAECBAgQIECAAAEC5RAQMCtHPSgFAQIECBAgQIAAAQIECBAgQIAAAQIECBAgQIBAgwQEzBoEL1sCBAgQIECAAAECBAgQIECAAAECBAgQIECAAIFyCAiYlaMelIIAAQIECBAgQIAAAQIECBAgQIAAAQIECBAgQKBBAgJmDYKXLQECBAgQIECAAAECBAgQIECAAAECBAgQIECAQDkEBMzKUQ9KQYAAAQIECBAgQIAAAQIECBAgQIAAAQIECBAg0CABAbMGwcuWAAECBAgQIECAAAECBAgQIECAAAECBAgQIECgHAICZuWoB6UgQIAAAQIECBAgQIAAAQIECBAgQIAAAQIECBBokICAWYPgZUuAAAECBAgQIECAAAECBAgQIECAAAECBAgQIFAOgV4zmlI5itKYUrw58b3GZCxXAgQIECBAgAABAgQIECBAgAABAgQIECBAYK4VWGxgv7m27HNDwSdMmJAVs2//gWmeXr3SPE1DwHo1/e2VZoa1YrvpRfwnS9nrpmMz/6YU0a84pdZkhFmtUs4jQIAAAQIECBAgQIAAAQIECBAgQIAAAQIECBDolgLzdct31YE3JRLcATSXEOiAQD6q0zPXATyXEOiEgGevE3guJdAJAc9eJ/BcSqCDAp67DsK5jEAnBTx7nQR0OYEOCnj2OgjnMgKdFMifvU7exuUlEzDCrGQVojgECBAgQIAAAQIECBAgQIAAAQIECBAgQIAAAQLFCgiYFestNwIECBAgQIAAAQIECBAgQIAAAQIECBAgQIAAgZIJCJiVrEIUhwABAgQIECBAgAABAgQIECBAgAABAgQIECBAoFgBAbNiveVGgAABAgQIECBAgAABAgQIECBAgAABAgQIECBQMgEBs5JViOIQIECAAAECBAgQIECAAAECBAgQIECAAAECBAgUKyBgVqy33AgQIECAAAECBAgQIECAAAECBAgQIECAAAECBEomIGBWsgpRHAIECBAgQIAAAQIECBAgQIAAAQIECBAgQIAAgWIFBMyK9ZYbAQIECBAgQIAAAQIECBAgQIAAAQIECBAgQIBAyQQEzEpWIYpDgAABAgQIECBAgAABAgQIECBAgAABAgQIECBQrICAWbHeciNAgAABAgQIECBAgAABAgQIECBAgAABAgQIECiZgIBZySpEcQgQIECAAAECBAgQIECAAAECBAgQIECAAAECBIoVEDAr1ltuBAgQIECAAAECBAgQIECAAAECBAgQIECAAAECJRMQMCtZhSgOAQIECBAgQIAAAQIECBAgQIAAAQIECBAgQIBAsQICZsV6y40AAQIECBAgQIAAAQIECBAgQIAAAQIECBAgQKBkAgJmJasQxSFAgAABAgQIECBAgAABAgQIECBAgAABAgQIEChWQMCsWG+5ESBAgAABAgQIECBAgAABAgQIECBAgAABAgQIlExAwKxkFaI4BAgQIECAAAECBAgQIECAAAECBAgQIECAAAECxQoImBXrLTcCBAgQIECAAAECBAgQIECAAAECBAgQIECAAIGSCQiYlaxCFIcAAQIECBAgQIAAAQIECBAgQIAAAQIECBAgQKBYAQGzYr3lRoAAAQIECBAgQIAAAQIECBAgQIAAAQIECBAgUDIBAbOSVYjiECBAgAABAgQIECBAgAABAgQIECBAgAABAgQIFCsgYFast9wIECBAgAABAgQIECBAgAABAgQIECBAgAABAgRKJjBfycrTLYozefLk9H//9381v5ctt9wyzTvvvDWf70QCBFoXePTRR9MNN9yQxowZk95555200korpVVXXTVtt912qV+/fq1f6AgBAjULPPTQQ2ns2LE1n9/8RJ95zTVsE+icwGOPPZZ95xw9enR6++2307Bhw9Lw4cPTBhtskJZffvnO3dzVBAhUFZg+fXq67777UnznjH9Tp05Nq6++evZv4403Tn369Kl6nZ0ECNRX4Lzzzks33nhjiufugAMOqPnm7777brrnnnvSE088kf1bcMEF0xprrJFGjBiRPv3pT6d55tGvvGZMJ/ZIgf322y+9/PLLaa+99kpbbLFFhwyi3XSXXXZJ8Zl61llnpaWXXrpD93ERAQIEukJAwKwLVO+666607bbb1nzn9957L/Xt27fm851IgMDsApMmTUo77LBDuvXWW2c/2LRn8ODB6cQTT0w77bRT1eN2EiBQu8DJJ5+cLrnkktovaHbm+++/rzGxmYdNAh0RePHFF9NBBx2ULr/88jRjxozZbjH//POnAw88MB1yyCGet9l07CDQcYEIUu+6665p1KhRVW8SAevf//73ab311qt63E4CBOoj8NFHH6Ujjzwy68DVv3//mm968803p9122y3rXFntouhwcsEFF2QB8GrH7SPQ0wWefvrpdPrpp2cMW2+9dYc54rfk1VdfnV0fvy0lAgQIlElA15kuqI3oaSgRIFCcQDTAb7XVVpVgWQSg11lnnfSpT30qLbroollBXnvttbTzzjun6667rriCyYkAAQIECNRZ4I033kibbrppuuyyy7JgWfSEj5Flm2yySRoyZEiWW4x4OfbYY9PnPve5rOdunYvgdgR6pMBFF12UPvaxj1WCZfPNN19ad911s4b1fERKNCR+8pOfTGeeeWaPNPKmCRQlECNS2jvbwTnnnJO+8IUvVIJlMctP/GaMz9A83X///dm+GEUqESAwq0AEqo844ohZd3bg1YQJE9Kpp57agStdQoAAgWIEBMy6wDl6HkZac80107hx49r8Z9qOLqgEt+wxAtEoGNMt/u1vf8ve8z777JMiOBZTxsVUG+PHj08///nPKx7f/e5308SJEyuvbRAg0H6Bn/3sZ+mOO+6o6d8VV1xRGUX91a9+1WiX9nO7gsAsAl//+tezaXBiZ0wdFVNKxZSMd955Z3rhhRfSX//612w64jgen4Ma7kNCItA5gXzqqWnTpqVevXpl3y1jOqkHH3wwewZjpoP4Dhrp3//+d9p///3TI4880rlMXU2AwGwCMZ3i4YcfXnneZjuhlR0xXf+PfvSjytEf/OAH2VTG8ZsxPkNff/31LJgWJ8Tvy/jNGH8lAgRmCkSAOtpdz183WgAAQABJREFUosNWZ1J8bm644YbZc9eZ+7iWAAECXSlgSsYu0M1HmEWPw0GDBnVBDm5JgEAuED0Fb7nlluxlfIHLpwfIj0fv35i2KtY1u/fee1P0ZoqG/v/93//NT/GXAIF2CuRrtbR1WTQafv7zn08xCnSttdbKprhp6xrHCRBoXeCtt95Kt99+e3bCMsssk6699to0cODAWS7YaKONUgSqYyRMpPic3HvvvWc5xwsCBNonsOeee6ZoqI90wgknZFOeNr9DTAkX30EHDBiQjj766BSBtaOOOipdddVVzU+zTYBABwRiurYIaD377LPZ774pU6a0+y4xfWP+DO+7777pF7/4xSz3WGqppdL111+fNttss6zjyZNPPpkuvPDCtPvuu89ynhcEeopAPHOxTmC0n0SQK9pSqk0D3pbHAw88kD1bMUNCtMM888wzbV3iOAECBBouIGBW5yr44IMPsi9ycdu11167znd3OwIEWgpcfPHF2a4VVlgh/fa3v215uPI61nGJaRsj3X333QJmFRkbBLpOIHryxg+jmBr1mmuuqYw067oc3ZlA9xaIqaLyxoovfvGLswXL8ncfnbaWXXbZ9Oqrr6aYIi56yce6ZhIBAu0X+PDDDyudsxZbbLG01157tXqTn/70p+n888/PZhiJxvdoIFxiiSVaPd8BAgTaFjj00ENTR4Jk+Z2nT5+eNdjH6wUXXDAdfPDB+aFZ/kZHy8MOOyxtscUW2f747ipgNguRFz1IIEZWx/PQ2RS/BaMjiUSAAIG5SUDArM61FT2RYl7fSCNHjqzz3d2OAIHmAi+++GLK55ePKaoWXnjh5odn2d5yyy0r89zHDyWJAIGuFfjd736XTjvttBTrQ1x66aWVtZW6Nld3J9C9Bd58883KG1x88cUr29U2YuRZBMxipGc0NAqYVVOyj0DbAvH7Lp6jSJtvvvkcO3/EOrqxdmB8BsYoM5202vZ1BoG2BGKNzghcN0/xfMW0w7WkGOESwetIsQZojCZrLcUzHp+vMaompjqODtGW0GhNy/7uLBBtK/G8tEzxLD3++OMtd7f6Ojo2V7tPjDRr7zqErWbiAAECBOosIGBWZ9B8Osa4rRFmdcZ1OwItBC655JLKngiItZUGDx7c1imOEyBQB4FYUynvkRvTWOU9detwa7cg0KMFYn3cPMX0OK2lCJDlU94st9xyc+xQ0to97CdAYKZAfKblKRr+2kqrrrpq5ZR4Tk0DXuGwQaBDAn/+859nuy46kLTVcSS/6Kmnnso30/rrr1/Zbm0jzrnpppuyIF2sDTpixIjWTrWfQLcVWG211bKZQlq+wZhqePvtt2+5u9XXX/va11L8a5li3c9f/epXLXd7TYAAgVIICJjVuRrygNnyyy+fNU7EB8Ctt96a9cCIXvbxZSsaO6IB0fpmdcZ3ux4nEL0FI/Xr1y998pOfzLZjhGc0bMS0VTHP/fDhw9M666yTPXt612dE/otAlwvsv//+WSNDrOnys5/9rMvzkwGBniIQsxfEGmXRq/62225L1113Xdpmm21me/uxdmfeGz8aJCQCBDouENMK5ymfSSR/Xe1vrNuZp9GjR+eb/hIg0CCBmFouT6usskq+2erflVdeuXIsrhUwq3DYIECAAAECPUJAwKzO1ZwHzKIB/xOf+ET6xz/+MUsO0YAfc2HHotDHH3982m233dI888wzyzleECBQm8C//vWv7MRlllkme45OPfXUbJ7tfEHn5ndZaaWV0h//+MfsuWy+3zYBAvUVuPbaa7OG/LjrD3/4w7TkkkvWNwN3I9DDBa688spsxMrf/va37O93vvOdLGgWn4UvvfRStn7SjTfemCnFOoLxHEoECHRcYNiwYZWL//nPf1a2W9t47LHHKocmT55c2bZBgEBjBMaNG1fJuJZRac3XHXz99dcr19ogQIAAAQIEeoaAgFmd6zn/gZQP+1966aVTzLk9dOjQFPPf33vvvSm+dE2aNCl9//vfT2+//XaKxaElAgTaLzB+/PjsopiH/sc//nE6+eSTKzdZdtllU/Twfeutt7J9MZ3Gpz/96SxYHc+eRIBA/QWmTp2aooE+UjQ2aKivv7E7EojPvFhAfeedd05XXHFFOvfcc7N/LWXOPPPM7Ltmy/1eEyDQPoEhQ4akWP82pjq96667UgTNWpt6/+mnn86mcstzeOedd/JNfwkQaJBAPuI6so+OzW2l5ufEcy8RIECAAAECPUvA0KY61ncEwvLFZHv37p3OO++89Nprr6WLL744HX300Snm+o0RZnvttVcl1yOPPLKyxkRlpw0CBGoSyEeYxRSMESyLaU+POOKIFIG0V155JcXc9s8991xlju1YsP0HP/hBaj4tR00ZOYkAgZoETjvttOyZi5NjKsaFFlqopuucRIBA7QLReHfIIYekG264YY4XxefhSSedlGbMmDHH8xwkQGDOAvH9cr/99stOiikZv/3tb2cdIFteFb8DY8TntGnTKoc8fxUKGwQaJhAduvJUy+w+zc9pfm1+D38JECBAgACB7i0gYFbH+o3G+Ggg3HfffdMtt9ySdt1119nuHuu5xLpm3/rWt7Jj0ehhhNlsTHYQaFMgGizyXrv5KLJLLrkkHX744bNMARejO6MH/h577JHdM565Aw88sM37O4EAgfYJRO/d4447LrsoAmUx5bBEgEB9BaLh7stf/nLWSeSDDz7IpiOOkWZnn312imkYTznllLTZZptlmUankhh9Hc+iRvv61oO79TyBCFLH6M5IMcIs1sf95S9/mUaNGpXNIBLbMers73//e/rKV76S8nVzTUvc8/634h2XT6BXr16VQkWbTVup+TnNg2dtXec4AQIECBAg0D0ETMlYx3qMKeBiJFktKRo0Lr/88hSNHfFDSyJAoH0C0du3b9++2bSLceWmm26adthhh1ZvctRRR6U//OEPKdY3u+6661IE3OIeEgEC9RG4/vrr08SJE7Obbbfddtn0VfW5s7sQIJALRKerP//5z9nLaLy/+eab08iRI/PDacstt0wHHHBA9nkXnbOmT5+erWn2pS99KW211VaV82wQINA+gegIEutQ77TTTimm+Y6ZReJZa5m23nrrdMYZZ2S/8+JYHmRreZ7XBAgUJ7DAAgtUMms+PWNlZ4uN5ufkwe8Wp3hJgAABAgQIdGMBI8waVLmLLrpoWmONNbLcx44dm61l1qCiyJbAXCuw2GKLVcq+/fbbV7arbcR6Sp/61KeyQ/Ej6Pnnn692mn0ECHRQ4KKLLqpcueOOO1a2bRAgUD+B6HCVp+gE0jxYlu+PvzHqLGY9yFME2iQCBDon8IlPfCI98sgjae+9904rrLDCLDeLWUT22WefbFaDfMrwOEHAbBYmLwg0RCA6WeYpOiy3lZqf0/zatq5znAABAgQIEOgeAgJmDazHVVddtZL7k08+Wdm2QYBAbQLNA2bNn6fWro7pGfMUi7JLBAjURyAaB/NRL4svvnjafPPN63NjdyFAoCIQz1l0soq03HLLtfmc5VMRx/mPP/54/JEIEOikQATGYgTZSy+9lHV4vOeee9LDDz+crZ97+umnZ6Or8+c0shIw6yS4ywnUQSBmAspTLZ0mm58Tn7cSAQIECBAg0LMETMlYx/qOqTlivuv55psvDRo0qM07jxs3rnLOIossUtm2QYBAbQIRJIt1JCI1nzqjtaubL9rsmWtNyX4C7ReI9QPz9R5iatT4HJQIEKivwPjx4ys3zGcpqOyosrH00kunCGBPmDAhvfHGG1XOsIsAgc4IxHfJfPaC5vd54IEHKi+HDRtW2bZBgEBjBFZcccVKxrV0IGl+TsvRpJUb2SBAgAABAgS6rYARZnWs2q9//etZj98hQ4Zka5O1det8VFnMi13L6Ji27uc4gZ4msO2221becv48VXZU2Wh+ziqrrFLlDLsIEOiIwBVXXFG5rK3pUSsn2iBAoF0CK6+8ciUY/corr7R57TvvvJPefPPN7LzVV1+9zfOdQIBA6wJnnXVWOv7449M555zT+kn/OXLxxRdnWzEduBHXbXI5gUCXC3zsYx+r5PHQQw9VtqttvP/++2n06NHZoZjNRMCsmpJ9BAgQIECgewsImNWxfmNe+0hTpkxJN9544xzvfO2116Z8hNnaa69daQCZ40UOEiAwi8CWW26Zevfune274IILKiNcZjnpPy8effTRdN9992Wv4ofP4MGDq51mHwECHRCI5ytP8ZkmESBQf4E+ffqk1VZbLbtxTCs8ZsyYOWZyww03pBkzZmTnrLfeenM810ECBOYscOutt6aDDjoo7bnnnumtt95q9eR//OMf6amnnsqOx3qeRly3SuUAgcIEosNJ/vkZs5Ncd911reZ93HHHpXxWkq222irNO++8rZ7rAAECBAgQINA9BQTM6livm222WeVu8WPq5ZdfrrxuvvHaa69li0Ln++JLmUSAQPsFYiqcL3zhC9mF0Thx5JFHVr3J5MmT01577ZWmT5+eHT/ssMOqnmcnAQLtF4hG+xjJEinWall00UXbfxNXECBQk0A+WiWmQI3G+OikVS3F+kr77rtv5VA0+kkECHRcIP+dF98lDzjggKo3is6Q8Vzm6Rvf+Ea+6S8BAg0WaP5sxjNc7fMz1i476aSTKiVtfk1lpw0CBAgQIECg2wsImNWxiqMRY9ddd83uGGtFrLnmmimCYTHsf9KkSemxxx5Lp512WoppcfKpdHbaaaeU/wCrY1HcikCPEfjNb36T8ukVjznmmBSNgjHCMxot4kfPpZdemj7+8Y+nWJQ9UvQu/OY3v9ljfLxRAl0t8MQTT1SyMO1bhcIGgS4RiM+5ESNGZPe+9957sym9Y4R1TDkcnUPiO+cJJ5yQfQeNtcsifec730nNpzDOdvovAgTaJRBT76+00krZNRdddFH6/Oc/n26//fZsfcCYvu3cc89Nm266aXruueeyc3bZZZdkZGe7iJ1MoEsFDjzwwMoyGC+88ELaeOONs2c4PitfffXVdNlll2XtMvm62DHFeN4xs0sL5uYECBAgQIBA6QTmK12J5vICnXHGGdkPpbvuuivrcX/wwQen+Fct7bHHHunkk0+udsg+AgRqFIj1IW6++ea04YYbptdffz3ddNNN2b9ql0dwOgJopseppmMfgY4JCJh1zM1VBDoi0Ldv3xRrBkZjfXS+ihGe3/3ud1u9VXzuxXdTiQCBzgnE6OmYUj++b8ao6ltuuSX7V+2uu+22Wzr77LOrHbKPAIEGCSy44ILp97//fdaBJDpWjho1qtU1BkeOHJl+/etfN6iksiVAgAABAgQaLWCEWZ1rIL6I3XnnnVljxvDhw2e7ezR0xFpn0cAfi0f369dvtnPsIECgfQJDhgxJd9xxR4qegC2DYbHG2TrrrJNN1xiNGxFgkwgQqJ+AgFn9LN2JQC0CMVL62WefTaeeemoaNGhQ1UtiFNo111yT9Z6P754SAQKdF1hjjTXSM888k/bbb78Uv/map/i+uf7666djjz02C5b16tWr+WHbBAiUQCBmHYkR2dHRpFo7TATGjz766PTAAw+kJZdcsgQlVgQCBAgQIECgEQK9mhYDn7kaeCNyL0Geb058LyvFYgO7JnD19ttvp1iYPaZojADa0KFD0zzziFOWoOoVoUECXf3MxULsMRXj2LFj0zLLLJPWWmuttMACCzTo3cqWQHkEuvrZK887VRIC5RLo6mcvppOKz73oMb/88sunYcOGpf79+5cLQWkIFCzQ1c/d1KlTU6wVGFMwDhgwIK277rqzBdEKfsuyI1AKga5+9ur1JqMZLEZpRwCtT58+2bT9sRavRGBuFZhbnr251Ve5CbQm4NlrTaa++/PlBvr2H5jmaeqYFqGV6KDWK80Ma2Wd1Zr6q+Vd1mZ2XpuRnRMliehXe/qzCZh1ccCsvv/zcDcCc7+AD5O5vw69g7lTwLM3d9abUs/9Ap69ub8OvYO5T8BzN/fVmRJ3DwHPXveoR+9i7hPw7M19dabE3UPAs1dMPRYdMDPUqZh6lQsBAgQIECBAgAABAgQIECBAgAABAgQIECBAgEBJBQTMSloxikWAAAECBAgQIECAAAECBAgQIECAAAECBAgQIFCMgIBZMc5yIUCAAAECBAgQIECAAAECBAgQIECAAAECBAgQKKmAgFlJK0axCBAgQIAAAQIECBAgQIAAAQIECBAgQIAAAQIEihEQMCvGWS4ECBAgQIAAAQIECBAgQIAAAQIECBAgQIAAAQIlFRAwK2nFKBYBAgQIECBAgAABAgQIECBAgAABAgQIECBAgEAxAgJmxTjLhQABAgQIECBAgAABAgQIECBAgAABAgQIECBAoKQCAmYlrRjFIkCAAAECBAgQIECAAAECBAgQIECAAAECBAgQKEZAwKwYZ7kQIECAAAECBAgQIECAAAECBAgQIECAAAECBAiUVEDArKQVo1gECBAgQIAAAQIECBAgQIAAAQIECBAgQIAAAQLFCAiYFeMsFwIECBAgQIAAAQIECBAgQIAAAQIECBAgQIAAgZIKCJiVtGIUiwABAgQIECBAgAABAgQIECBAgAABAgQIECBAoBgBAbNinOVCgAABAgQIECBAgAABAgQIECBAgAABAgQIECBQUgEBs5JWjGIRIECAAAECBAgQIECAAAECBAgQIECAAAECBAgUIyBgVoyzXAgQIECAAAECBAgQIECAAAECBAgQIECAAAECBEoqIGBW0opRLAIECBAgQIAAAQIECBAgQIAAAQIECBAgQIAAgWIEBMyKcZYLAQIECBAgQIAAAQIECBAgQIAAAQIECBAgQIBASQUEzEpaMYpFgAABAgQIECBAgAABAgQIECBAgAABAgQIECBQjICAWTHOciFAgAABAgQIECBAgAABAgQIECBAgAABAgQIECipgIBZSStGsQgQIECAAAECBAgQIECAAAECBAgQIECAAAECBIoREDArxlkuBAgQIECAAAECBAgQIECAAAECBAgQIECAAAECJRUQMCtpxSgWAQIECBAgQIAAAQIECBAgQIAAAQIECBAgQIBAMQICZsU4y4UAAQIECBAgQIAAAQIECBAgQIAAAQIECBAgQKCkAgJmJa0YxSJAgAABAgQIECBAgAABAgQIECBAgAABAgQIEChGQMCsGGe5ECBAgAABAgQIECBAgAABAgQIECBAgAABAgQIlFRAwKykFaNYBAgQIECAAAECBAgQIECAAAECBAgQIECAAAECxQgImBXjLBcCBAgQIECAAAECBAgQIECAAAECBAgQIECAAIGSCgiYlbRiFIsAAQIECBAgQIAAAQIECBAgQIAAAQIECBAgQKAYAQGzYpzlQoAAAQIECBAgQIAAAQIECBAgQIAAAQIECBAgUFIBAbOSVoxiESBAgAABAgQIECBAgAABAgQIECBAgAABAgQIFCMgYFaMs1wIECBAgAABAgQIECBAgAABAgQIECBAgAABAgRKKiBgVtKKUSwCBAgQIECAAAECBAgQIECAAAECBAgQIECAAIFiBATMinGWCwECBAgQIECAAAECBAgQIECAAAECBAgQIECAQEkFBMxKWjGKRYAAAQIECBAgQIAAAQIECBAgQIAAAQIECBAgUIyAgFkxznIhQIAAAQIECBAgQIAAAQIECBAgQIAAAQIECBAoqYCAWUkrRrEIECBAgAABAgQIECBAgAABAgQIECBAgAABAgSKERAwK8ZZLgQIECBAgAABAgQIECBAgAABAgQIECBAgAABAiUVEDAracUoFgECBAgQIECAAAECBAgQIECAAAECBAgQIECAQDECAmbFOMuFAAECBAgQIECAAAECBAgQIECAAAECBAgQIECgpAICZiWtGMUiQIAAAQIECBAgQIAAAQIECBAgQIAAAQIECBAoRkDArBhnuRAgQIAAAQIECBAgQIAAAQIECBAgQIAAAQIECJRUQMCspBWjWAQIECBAgAABAgQIECBAgAABAgQIECBAgAABAsUICJgV4ywXAgQIECBAgAABAgQIECBAgAABAgQIECBAgACBkgoImJW0YhSLAAECBAgQIECAAAECBAgQIECAAAECBAgQIECgGAEBs2Kc5UKAAAECBAgQIECAAAECBAgQIECAAAECBAgQIFBSAQGzklaMYhEgQIAAAQIECBAgQIAAAQIECBAgQIAAAQIECBQjIGBWjLNcCBAgQIAAAQIECBAgQIAAAQIECBAgQIAAAQIESiogYFbSilEsAgQIECBAgAABAgQIECBAgAABAgQIECBAgACBYgQEzIpxlgsBAgQIECBAgAABAgQIECBAgAABAgQIECBAgEBJBQTMSloxikWAAAECBAgQIECAAAECBAgQIECAAAECBAgQIFCMgIBZMc5yIUCAAAECBAgQIECAAAECBAgQIECAAAECBAgQKKmAgFlJK0axCBAgQIAAAQIECBAgQIAAAQIECBAgQIAAAQIEihEQMCvGWS4ECBAgQIAAAQIECBAgQIAAAQIECBAgQIAAAQIlFRAwK2nFKBYBAgQIECBAgAABAgQIECBAgAABAgQIECBAgEAxAgJmxTjLhQABAgQIECBAgAABAgQIECBAgAABAgQIECBAoKQCAmYlrRjFIkCAAAECBAgQIECAAAECBAgQIECAAAECBAgQKEZAwKwYZ7kQIECAAAECBAgQIECAAAECBAgQIECAAAECBAiUVEDArKQVo1gECBAgQIAAAQIECBAgQIAAAQIECBAgQIAAAQLFCAiYFeMsFwIECBAgQIAAAQIECBAgQIAAAQIECBAgQIAAgZIKCJiVtGIUiwABAgQIECBAgAABAgQIECBAgAABAgQIECBAoBgBAbNinOVCgAABAgQIECBAgAABAgQIECBAgAABAgQIECBQUgEBs5JWjGIRIECAAAECBAgQIECAAAECBAgQIECAAAECBAgUIyBgVoyzXAgQIECAAAECBAgQIECAAAECBAgQIECAAAECBEoqIGBW0opRLAIECBAgQIAAAQIECBAgQIAAAQIECBAgQIAAgWIEBMyKcZYLAQIECBAgQIAAAQIECBAgQIAAAQIECBAgQIBASQUEzEpaMYpFgAABAgQIECBAgAABAgQIECBAgAABAgQIECBQjICAWTHOciFAgAABAgQIECBAgAABAgQIECBAgAABAgQIECipgIBZSStGsQgQIECAAAECBAgQIECAAAECBAgQIECAAAECBIoREDArxlkuBAgQIECAAAECBAgQIECAAAECBAgQIECAAAECJRUQMCtpxSgWAQIECBAgQIAAAQIECBAgQIAAAQIECBAgQIBAMQICZsU4y4UAAQIECBAgQIAAAQIECBAgQIAAAQIECBAgQKCkAgJmJa0YxSJAgAABAgQIECBAgAABAgQIECBAgAABAgQIEChGQMCsGGe5ECBAgAABAgQIECBAgAABAgQIECBAgAABAgQIlFRAwKykFaNYBAgQIECAAAECBAgQIECAAAECBAgQIECAAAECxQgImBXjLBcCBAgQIECAAAECBAgQIECAAAECBAgQIECAAIGSCgiYlbRiFIsAAQIECBAgQIAAAQIECBAgQIAAAQIECBAgQKAYAQGzYpzlQoAAAQIECBAgQIAAAQIECBAgQIAAAQIECBAgUFIBAbOSVoxiESBAgAABAgQIECBAgAABAgQIECBAgAABAgQIFCMgYFaMs1wIECBAgAABAgQIECBAgAABAgQIECBAgAABAgRKKiBgVtKKUSwCBAgQIECAAAECBAgQIECAAAECBAgQIECAAIFiBATMinGWCwECBAgQIECAAAECBAgQIECAAAECBAgQIECAQEkFBMxKWjGKRYAAAQIECBAgQIAAAQIECBAgQIAAAQIECBAgUIyAgFkxznIhQIAAAQIECBAgQIAAAQIECBAgQIAAAQIECBAoqYCAWUkrRrEIECBAgAABAgQIECBAgAABAgQIECBAgAABAgSKERAwK8ZZLgQIECBAgAABAgQIECBAgAABAgQIECBAgAABAiUVEDAracUoFgECBAgQIECAAAECBAgQIECAAAECBAgQIECAQDECAmbFOMuFAAECBAgQIECAAAECBAgQIECAAAECBAgQIECgpAICZiWtGMUiQIAAAQIECBAgQIAAAQIECBAgQIAAAQIECBAoRkDArBhnuRAgQIAAAQIECBAgQIAAAQIECBAgQIAAAQIECJRUQMCspBWjWAQIECBAgAABAgQIECBAgAABAgQIECBAgAABAsUICJgV4ywXAgQIECBAgAABAgQIECBAgAABAgQIECBAgACBkgoImJW0YhSLAAECBAgQIECAAAECBAgQIECAAAECBAgQIECgGAEBs2Kc5UKAAAECBAgQIECAAAECBAgQIECAAAECBAgQIFBSAQGzklaMYhEgQIAAAQIECBAgQIAAAQIECBAgQIAAAQIECBQjIGBWjLNcCBAgQIAAAQIECBAgQIAAAQIECBAgQIAAAQIESiogYFbSilEsAgQIECBAgAABAgQIECBAgAABAgQIECBAgACBYgQEzIpxlgsBAgQIECBAgAABAgQIECBAgAABAgQIECBAgEBJBQTMSloxikWAAAECBAgQIECAAAECBAgQIECAAAECBAgQIFCMgIBZMc5yIUCAAAECBAgQIECAAAECBAgQIECAAAECBAgQKKmAgFlJK0axCBAgQIAAAQIECBAgQIAAAQIECBAgQIAAAQIEihEQMCvGWS4ECBAgQIAAAQIECBAgQIAAAQIECBAgQIAAAQIlFRAwK2nFKBYBAgQIECBAgAABAgQIECBAgAABAgQIECBAgEAxAgJmxTjLhQABAgQIECBAgAABAgQIECBAgAABAgQIECBAoKQCAmYlrRjFIkCAAAECBAgQIECAAAECBAgQIECAAAECBAgQKEZAwKwYZ7kQIECAAAECBAgQIECAAAECBAgQIECAAAECBAiUVEDArKQVo1gECBAgQIAAAQIECBAgQIAAAQIECBAgQIAAAQLFCAiYFeMsFwIECBAgQIAAAQIECBAgQIAAAQIECBAgQIAAgZIKCJiVtGIUiwABAgQIECBAgAABAgQIECBAgAABAgQIECBAoBgBAbNinOVCgAABAgQIECBAgAABAgQIECBAgAABAgQIECBQUgEBs5JWjGIRIECAAAECBAgQIECAAAECBAgQIECAAAECBAgUIyBgVoyzXAgQIECAAAECBAgQIECAAAECBAgQIECAAAECBEoqIGBW0opRLAIECBAgQIAAAQIECBAgQIAAAQIECBAgQIAAgWIEBMyKcZYLAQIECBAgQIAAAQIECBAgQIAAAQIECBAgQIBASQUEzEpaMYpFgAABAgQIECBAgAABAgQIECBAgAABAgQIECBQjICAWTHOciFAgAABAgQIECBAgAABAgQIECBAgAABAgQIECipgIBZSStGsQgQIECAAAECBAgQIECAAAECBAgQIECAAAECBIoREDArxlkuBAgQIECAAAECBAgQIECAAAECBAgQIECAAAECJRUQMCtpxSgWAQIECBAgQIAAAQIECBAgQIAAAQIECBAgQIBAMQICZsU4y4UAAQIECBAgQIAAAQIECBAgQIAAAQIECBAgQKCkAgJmJa0YxSJAgAABAgQIECBAgAABAgQIECBAgAABAgQIEChGQMCsGGe5ECBAgAABAgQIECBAgAABAgQIECBAgAABAgQIlFRAwKykFaNYBAgQIECAAAECBAgQIECAAAECBAgQIECAAAECxQj0mtGUismqnLm8OfG9chZMqQgQIECAAAECBAgQIECAAAECBAgQIECAAIHSCiw2sF9py9YdCjZhwoTsbfTtPzDN06tXmqdpCFivpr+90sywVmw3vYj/ZCl73XRs5t+UIvoVp9SajDCrVcp5BAgQIECAAAECBAgQIECAAAECBAgQIECAAAEC3VJgvm75rjrwpkSCO4DmEgIdEMhHdXrmOoDnEgKdEPDsdQLPpQQ6IeDZ6wSeSwl0UMBz10E4lxHopIBnr5OALifQQQHPXgfhXEagkwL5s9fJ27i8ZAJGmJWsQhSHAAECBAgQIECAAAECBAgQIECAAAECBAgQIECgWAEBs2K95UaAAAECBAgQIECAAAECBAgQIECAAAECBAgQIFAyAQGzklWI4hAgQIAAAQIECBAgQIAAAQIECBAgQIAAAQIECBQrIGBWrLfcCBAgQIAAAQIECBAgQIAAAQIECBAgQIAAAQIESiYgYFayClEcAgQIECBAgAABAgQIECBAgAABAgQIECBAgACBYgUEzIr1lhsBAgQIECBAgAABAgQIECBAgAABAgQIECBAgEDJBATMSlYhikOAAAECBAgQIECAAAECBAgQIECAAAECBAgQIFCsgIBZsd5yI0CAAAECBAgQIECAAAECBAgQIECAAAECBAgQKJmAgFnJKkRxCBAgQIAAAQIECBAgQIAAAQIECBAgQIAAAQIEihUQMCvWW24ECBAgQIAAAQIECBAgQIAAAQIECBAgQIAAAQIlExAwK1mFKA4BAgQIECBAgAABAgQIECBAgAABAgQIECBAgECxAgJmxXrLjQABAgQIECBAgAABAgQIECBAgAABAgQIECBAoGQCAmYlqxDFIUCAAAECBAgQIECAAAECBAgQIECAAAECBAgQKFZAwKxYb7kRIECAAAECBAgQIECAAAECBAgQIECAAAECBAiUTEDArGQVojgECBAgQIAAAQIECBAgQIAAAQIECBAgQIAAAQLFCgiYFestNwIECBAgQIAAAQIECBAgQIAAAQIECBAgQIAAgZIJCJiVrEIUhwABAgQIECBAgAABAgQIECBAgAABAgQIECBAoFgBAbNiveVGgAABAgQIECBAgAABAgQIECBAgAABAgQIECBQMgEBs5JViOIQIECAAAECBAgQIECAAAECBAgQIECAAAECBAgUKyBgVqy33AgQIECAAAECBAgQIECAAAECBAgQIECAAAECBEomIGBWsgpRHAIECBAgQIAAAQIECBAgQIAAAQIECBAgQIAAgWIFBMyK9ZYbAQIECBAgQIAAAQIECBAgQIAAAQIECBAgQIBAyQTmK1l5unVx9ttvv/Tyyy+nvfbaK22xxRY1v9cxY8akBx98MP3zn/9Mzz33XFphhRXS8OHD0yabbJKWX375mu/jRAI9SWDy5Mlpl112SdOnT09nnXVWWnrppWt++4888kh66KGH0qOPPpreeOONNGTIkDR06NC09dZbp8UXX7zm+ziRQE8U6MyzV83rkksuSZdddlkaOHBguvDCC6udYh8BAk0Cf//739MJJ5yQFltssfSb3/ymJpM///nP6d///ndN526wwQZpySWXrOlcJxHoSQIdefZynw8++CBdeeWV6fHHH0+vvvpqWmSRRdKwYcPSRhttlNZbb738NH8JEKgicN5556Ubb7wxbbzxxumAAw6ocsbMXdEGE7/rOpJ89nVEzTXdXaCjbZuvv/56uummm9Lo0aPTK6+8UmnbHDlyZFp77bW7O5v3R4DAXCQgYFZQZT399NPp9NNPz3KLRvda0tSpU9PPfvazdPLJJ6cZM2bMdsn888+f9tlnn3TIIYdkDYmznWAHgR4sEI3sV199dSYQz1AtaeLEiWnPPfdMl156adXT+/Xrl/bee+/suezfv3/Vc+wk0NMFOvLstWb27LPPpu9973vpvffeS0sttVRrp9lPgECTQHzPvPbaa9MyyyxTk8ekSZPSlltuWdO5cVI0Srbn/Jpv7EQCc7lAe5+9/O3+4Q9/SNHo+NZbb+W7Zvn71a9+NZ166qnt6vQ1yw28INCNBT766KN05JFHprFjx6a2fpfdfPPNaffdd++QRjTuf/GLX+zQtS4i0B0FOtK2+e6776Zjjz02+676/vvvV2XZfvvt0y9/+cuav8dWvYmdBAgQqJOAgFmdIOd0m/gyd8QRR8zplNmO/etf/8q+mMUolzwNGjQorbzyyllvjBj1EgG1X/ziF+mWW25J999/f+rTp09+qr8EerTAhAkTsgaG9iCMHz8+68kbvXvzFM9bPHcxsjN6Q0WjffTej9fRG1giQGBWgY48e7Pe4b+vYtTLzjvvnD13/91riwCBagIxE0HeSaTa8Wr7HnvssWq77SNAoB0CHXn24vZ/+tOfspkQ4ndipJhBZMUVV0zxG/CZZ55JsT9GV7/00kvpnnvuSfPN52d7BuW/CPxHIGYQiWCZRIBAcQIdaduMGX923HHHdMMNN1QKuuyyy2Yz+MRvx/jMmzZtWta+cuedd2YjrqMNRiJAgEAjBaxh1sX68SVuu+22y37wtCerww8/PJsSLq5ZbbXVUjRqjBs3Lv31r3/NfkhFD+J8OsY4tu+++7bn9s4l0G0FouFiww03zALL7XmTMVIzD5Ztvvnm2fMWo1vimYtnLxo2llhiieyWV111Vfr1r3/dnts7l0C3F+jos9cazDHHHJNGjRrV2mH7CRBoEoiGi8svvzybpvvDDz9sl0nzgFk0VsRn3Zz+ffazn23X/Z1MoDsLdObZi86O0XgY94jfc9FAGIGxu+66Kz355JMppgZfY401Mr7oFHncccd1Z0rvjUC7BGKkSrSVxEw7taaY4eeOO+6o6d9tt92WLX8R947pUeN3pUSAQMoC1B1p24zPsDxYFoGyv/zlL9l0jPGZF9MRx3fQz33ucxnxm2++mc3ow5sAAQKNFtBVrc41EKNQYi7t6CkRjYf33ntv1ekU55RtzOd7/vnnZ6dET8O77757tnWTttlmm6xHxsc//vEUc9/H+dG4aMqqOck61h0FHnjggXT99ddna43FD6H4wtXeFF/U8rWR4pmKL3HzzjvvLLeJL4cxJePnP//5bH8EzWI9QolATxWox7PXmt19992XfaYttNBCWaNhrA8jESAwUyBGOMd3zOiUFWuQxXfOjqR8PZcY2bLKKqt05BauIdCjBOrx7MXo6W984xvZTCExvX7cM757Nk8jRoxIp5xySqUBMYLihx56aPNTbBPoUQIxvX60s0Rnxgg4T5kypV3vf/DgwSn+1ZIiGBdTzsV30GuuuSZbV7CW65xDoLsJ1KNtM0ziMyxP0Yay/vrr5y+zv9HmecUVV6T47IsOzHFOBM5iTV6JAAECjRIQMKuzfCwoe9hhh3Xqrr/73e8qC7DHvPaLL7541fvFB0r84Dr33HOz49F4Ym2JqlR2dmOBCJIdffTRnXqHcY+YKiBSNEi0DJblN4+eT/HFLb7APfzww/lufwn0SIF6PHvV4GLq0/hsi573sXbL7bffngTMqknZ11MFfvOb32QdOzr7/vOAmUXWOyvp+p4iUI9nLz7TYtrFSCeeeOJswbLccosttsiOReeUJ554QuNhDuNvjxSI32ftDZJ1BCqmNo7flb169UoXXXRRNtNPR+7jGgLdQaAebZsxIjQ+wyLFchctg2W508ILL5zNlhBre0aK76ibbrppfthfAgQIFC4gYFZn8vg/+mr/xx5rjsUollrSK6+8Ujltp512qmxX24geiXnALNY7EzCrpmRfdxaInvHVnrkYaVbrvPbNp6X69Kc/PUeupZdeOmu0ePvtt9PEiRPTwIED53i+gwS6q0A9nr1qNgcccEC2TuBWW22Vvvvd72YBs2rn2UegpwqMHDkyVZt+MaYwjYBzLWnGjBnZdN9xbtxPIkCgbYF6PHsXX3xxllGMLovPuDmlmBouGhsjxW9MiUBPFdhkk01m+9yLNY9ifb96pWir+eY3v5nNDhQBui996Uv1urX7EJgrBerRthltJtEJMlJrAwFynObtKu+8806+218CBAg0REDArM7ssd5Y9LpvmWJY8fbbb99yd9XX+TpKffr0qayZVPXEpp3NP0hiujiJQE8T+NrXvpbiX8sU89r/6le/arm76uuYBmDnnXdOCyywQBowYEDVc2Ln+++/n03REdvxha75l7rYJxHoSQL1ePZael133XXZtMaLLrpo9rflca8JEEjp+OOPr8qw5ppr1tw5K9ZLyr9DGmFWldNOArMJdPbZixEyMcVbpOig1b9//9nyaL4jGisFypqL2O6pAjH9cMsUM3601QDf8prWXsezGdPvR4A6AuNHHHFEa6faT6DHCNSjbXOZZZbJ2kyio3F0Uo5Ad+/evasaxvqdecrX8cxf+0uAAIGiBQTMihavIb+f/OQnaffdd099+/Zt8+x8Op04MRpKJAIE2i9wyCGH1HRRnBdrT0T63ve+V9M1TiJAoDaB8ePHp1133TU7OYLdMZpTIkCgawSaf3+MgNlNN92UYhqc6GEfjRrRSBKNFTHTwcc+9rGuKYS7EuhhArFO9eTJk7N3HVMu5ika/mOE6P33359i5Fk8k+uuu24aNGhQfoq/BAh0ocAvfvGLbHaDyOK4445L88wzTxfm5tYEeo5ATG8a674fc8wx2SwIP/3pT1M8by3Ttddem+6+++5sd8yatdJKK7U8xWsCBAgUKiBgVih3bZl94QtfqOnEF154obKAZoxGW2eddWq6zkkECNQuMHXq1KwBMRabvuSSS7ILv/zlL3d6rcLaS+BMAj1DIIJlMX3xDjvskHbcccee8aa9SwINEsgDZvPNN1+KziD551tenJjt4NZbb02nn3562nvvvbM1XRZaaKH8sL8ECHRAIF+7LC5dfvnl0/PPP5++/e1vp7/+9a+z3S0aGffdd990wgknZDMgzHaCHQQI1EXgtddey4JkcbONN944ffGLX6zLfd2EAIGZAocddliaMGFCOvvss9Mpp5ySjTSLzsdDhw7N9kenrV//+tfZyZ/97GezDlzsCBAg0GgBAbNG10AH84+p4eIHVvyNFD01FltssQ7ezWUECLQUiKlVo+F+0qRJlXm345zoHXXwwQdni0G3vMZrAgQ6JnDOOeekG264IS211FLpzDPP7NhNXEWAQM0CecAsRk1HsCyCYRtttFE2mmzMmDHZaJenn346+/w77bTTsumI//KXv9R8fycSIDC7QIykztMHH3yQNthgg2xd3Ni34IILppi66sUXX0zTp0/P1lGKZ+/OO+/Mpvv3Oy+X85dAfQWiHSVf/7O1aVfrm6O7EehZAjEF41lnnZVWXXXVFGtVR4es+Ncyff3rX0+/+93vUnTmkggQINBoAWPNG10DHch/7Nix6TOf+UxlyPJaa62VfvzjH3fgTi4hQKA1gWhEfOutt2YJlsW5l156adagP2PGjNYutZ8AgXYIPPPMM+kHP/hBdkUEzuq1HkU7iuBUAj1OINaRyNNuu+2WNdpHD9+jjz46a6x48skns96++fq4N998c/r973+fX+IvAQIdEGg+wix+u8VUjDH16b333putKfjcc89lUzZedtllKdbyjBTB7UMPPbQDubmEAIG2BGIa1JiOOFKsYfaJT3yirUscJ0CgAwLnnXdeOvHEE+d45VVXXZViHfq33357juc5SIAAgSIEhO6LUK5jHldccUU2NU7+g2v99ddPsQhu9EqUCBCon0As+Hz99ddnPZyit2/08L3yyiuz6RljeqoHH3wwnX/++ea4rx+5O/VAgQhM77zzztlo6W9961tp22237YEK3jKB4gVibbJYq2z48OEpAmYtU0wHt+eee2br6caMBpGiV3BcZ22XllpeE6hNIJ65PEWwLNYHjOkYY2r9PEWQ+itf+Upab731svWpYzaRc889N33/+9+3XnWO5C+BOgkcddRR2WjOuN2PfvSjOt3VbQgQaC4QnbFiWsY8xdSn8ZtvlVVWSePGjUv33HNP+uMf/5g+/PDDbNrGBx54IN12221pwIAB+SX+EiBAoHABI8wKJ+9Yhq+//nqKdZPiB1QeLNtll13S7bffXumB2LE7u4oAgWoCMTXc1ltvnWJNwWikuPzyy7MewHlv+wsvvDD96U9/qnapfQQI1CgQP6DiR9Gyyy6bYuopiQCBYgRixEqsI1EtWNa8BPFdM6aNixQN/LF+rkSAQMcEFl544VkujGewebCs+cGVVlop62kf+z766KN03XXXNT9smwCBTgpE+0qMno60wgorpE9+8pOdvKPLCRBoKRCdjPNgWXS4isDYXXfdlXXCiraWWMsspmEcNWpUGjRoUHZ5XHPssce2vJXXBAgQKFRAwKxQ7o5lFtMEjBgxIl199dXZDQYPHpyuueaaFA32/fv379hNXUWAQLsFYpqO008/vXJd8+3KThsECNQk8Pe//73yY+iCCy5IiyyySE3XOYkAgWIFYhrwPD3++OP5pr8ECLRToPk6ZEsssUQ2xf6cbvGlL32pcviJJ56obNsgQKDzAhdffHFl6v2vfe1r1qfuPKk7EJhN4NRTT63sO+igg1KsU1YtrbvuulkwLWY4iBQjq6dNm1btVPsIECBQiIApGQth7lgm8QERPXvjy1ykWPxy//33z3poxOLsEgEC9RGIxdUj1TLNVIzyjJ5Qcc0jjzxSnwK4C4EeKBCdPqLXfHT8iB9TzX9QNef45z//mb2Mqay23HLLbDs+D/W2b65km0DXCcQi7XmKtc2aN+Ln+/0lQKBtgeYBs+bPVWtXDh06tHLo6aefrmzbIECg8wIxqiVPO+64Y77pLwECdRR46KGHKnf7zne+U9mutrHZZptl0zTG+taTJ09OY8aMSc0/B6tdYx8BAgS6SkDArKtkO3nfmL93hx12yNZQilutttpq2WLrMde9RIBA/QRiOrhYCzDSIYccko455pg53jwa91dcccVsWqr4IhfP6gILLDDHaxwkQKB1gXfffTdbi7P1M2YemTp1auW83r17t3W64wQItCIQwef33nsvO7r00kuneeedt5UzZ+6O9SXyZCRoLuEvgfYLNA+SxffHtlJ87uXJs5dL+Eug8wLR6fHRRx/NbhTtLLF2tUSAQP0Fxo8fn920b9++KaYabiuttdZaKQJmkd544w0Bs7bAHCdAoMsEBMy6jLZzN45FZ6+//vrsJttss0267LLL0oILLti5m7qaAIHZBIYPH17Z99hjj1W2W9uIBo5XX301O7zyyisLlrUGZT+BNgTWXnvtbMHnNk5L//jHP9LYsWOzZy3WFIwUI8wkAgQ6JnDGGWekww8/PLv4zjvvTJtssskcbxSjyvK05ppr5pv+EiDQToH4zjls2LCsMTBGjM2YMWOO08A1f/ZWWWWVdubmdAIEWhO44oorKoe23377yrYNAgTqKxAB6b/97W/p/fffz9bCbT7SulpOL730UrY7pmaMayUCBAg0SkCLU6Pk55BvzFF/1llnZWd87nOfS/GFbv7555/DFQ4RINBRgZjedJlllska5G+77bb0yiuvpOWWW67V2/3lL39JeY/ffGRaqyc7QIBAqwJ77rlnin9tpZjr/pJLLkkDBgzI1u9s63zHCRCYs0Csx5mnK6+8co4Bs+ggknfgitHU0fNXIkCg4wIxpemJJ56Y3nnnneyzrbX1XCKHc845p5LRhhtuWNm2QYBA5wSaT6sfHbgkAgS6RiDWJouAWaSbb7651TXM4ngEy/KRn9Ex2cjqUJEIEGiUwDyNyli+rQscfPDBlQVoTznlFMGy1qkcIVAXgXze+uj5tNdee2XTLFa78QsvvJB23XXXyqF8PaXKDhsECBAgQKDkAhtssEGKqXEinXnmmemGG26oWuIpU6akPfbYI8W0qZF+8pOfZIHrqifbSYBATQIx5X70nI8Uz9SLL75Y9bo//elP6aqrrsqOxTRWO+20U9Xz7CRAoP0C0UE5T6uvvnq+6S8BAnUW2HzzzSt33GeffVr9zIt2mG9961uVjslbbbVV5TobBAgQaISAEWaNUJ9DntOnT0933HFHdsayyy6b9cbIe2TM4bLsUHwY1TIvcFv3cZxATxM46qijspErzz33XNaTfr311ktHHHFE1pN+iSWWSKNHj872n3rqqdl0AuGz8847a7zoaf9D8X4JECDQDQSix+65556bfY7FlHDbbrttioXYo6Eipr+ZNGlSNhXqYYcdln3+xVuORdcPOuigbvDuvQUCjRWI75jRIfKAAw7IpviO0S1HHnlk+sxnPpOGDBmSHn/88XT11VenX/7yl5WCxvdUa3dWOGwQ6JRArOEZI1kixSw+MZJFIkCgawRieZlvf/vb6cILL0xvvfVWiqm9f/zjH6foeBzPXqxxNmrUqGyq8LwDyYgRI9LPf/7zrimQuxIgQKBGAQGzGqGKOu2pp56q9OSNaXB23333mrO+/PLLBcxq1nIigf8K9OnTJ/3xj39MX/3qV7MfUNFYMaf57DfbbLNZpsn5751sESBAgACB8gvEaJWY9uakk05K0Vnr/PPPz/5VK3k05P/2t7+1lm41HPsIdEBg//33T+PGjcumZpw8eXIWPKt2m/h+GsFto8uq6dhHoGMC0d4SnUUixdqA1sXtmKOrCNQq8Ov/Z+8+4FypysYBn0uV3rsU6QJSRRBEFGki5aMJSFGqCH9ARARFEFAUBOEDRRApgqAU+RAElF6UIh2k9yYKXHqv+c87OGN2b3Y32eQum8lzfq5JZs5Mcp65h0nmPfOeo49ODz30ULr66qtTBKxjHt1iLt3++4gbAOK6Zpz/FAIECHyYAlIyfpj6Dd77xhtvbLDUIgIExrdAzEcWk6vHl7dGk9FG+pxll102XXjhhemyyy4r01mN789l/wQIECBAYHwIHHLIIfmdZJGhYIIJ+v4kiAuIMcI37qy+8sor8ztfxsdnsE8CvSpw8MEH5/1rnnnmGYdglllmSWuvvXa6/vrr8ztBx6lgAQECwxaQjnHYdDYkMCyBCH5dddVV6dxzz01LLLFEw33MPPPM6bDDDksR0JYmtSGRhQQIjLDAmGx0zQfDa0b4jUfL2z33wmv5R5lhuilGy0fyOQhUWqBb+tyzzz6bp6KK1AEx0inSURnpVOl/mpVvXLf0vcofCA3sOYFu6HsxX9n999+fzy0x99xz56kZJ5100p47VhpcHYFu6Heh/d5776VICR6ZRaIfRorGOeaYozoHQkt6TqBb+l7PHRgNrrxAt/S9mBs35oaPFIwxUHmhhRZKMQ2GQqBbBbql73Wrb/G5x44dmz+dfMrp0gTZDQ0x3jNubBiTPghr5XMEZ9MEfzBT8AfrUraumDs4ol9Z9aaLgJmAWdP/WFQk0AkBJ5NOKNoHgdYF9L3WzWxBoBMC+l4nFO2DQGsC+l1rXmoT6JSAvtcpSfsh0JqAvteal9oEOiWg73VKcvD9jHTArG/+lcE/m7UECBAgQIAAAQIECBAgQIAAAQIECBAgQIAAAQIEKicgYFa5Q6pBBAgQIECAAAECBAgQIECAAAECBAgQIECAAAECrQgImLWipS4BAgQIECBAgAABAgQIECBAgAABAgQIECBAgEDlBATMKndINYgAAQIECBAgQIAAAQIECBAgQIAAAQIECBAgQKAVAQGzVrTUJUCAAAECBAgQIECAAAECBAgQIECAAAECBAgQqJyAgFnlDqkGESBAgAABAgQIECBAgAABAgQIECBAgAABAgQItCIgYNaKlroECBAgQIAAAQIECBAgQIAAAQIECBAgQIAAAQKVExAwq9wh1SACBAgQIECAAAECBAgQIECAAAECBAgQIECAAIFWBATMWtFSlwABAgQIECBAgAABAgQIECBAgAABAgQIECBAoHICAmaVO6QaRIAAAQIECBAgQIAAAQIECBAgQIAAAQIECBAg0IqAgFkrWuoSIECAAAECBAgQIECAAAECBAgQIECAAAECBAhUTkDArHKHVIMIECBAgAABAgQIECBAgAABAgQIECBAgAABAgRaERAwa0VLXQIECBAgQIAAAQIECBAgQIAAAQIECBAgQIAAgcoJCJhV7pBqEAECBAgQIECAAAECBHqwT6MAAEAASURBVAgQIECAAAECBAgQIECAQCsCAmataKlLgAABAgQIECBAgAABAgQIECBAgAABAgQIECBQOQEBs8odUg0iQIAAAQIECBAgQIAAAQIECBAgQIAAAQIECBBoRUDArBUtdQkQIECAAAECBAgQIECAAAECBAgQIECAAAECBConIGBWuUOqQQQIECBAgAABAgQIECBAgAABAgQIECBAgAABAq0ICJi1oqUuAQIECBAgQIAAAQIECBAgQIAAAQIECBAgQIBA5QQEzCp3SDWIAAECBAgQIECAAAECBAgQIECAAAECBAgQIECgFQEBs1a01CVAgAABAgQIECBAgAABAgQIECBAgAABAgQIEKicgIBZ5Q6pBhEgQIAAAQIECBAgQIAAAQIECBAgQIAAAQIECLQiIGDWipa6BAgQIECAAAECBAgQIECAAAECBAgQIECAAAEClRMQMKvcIdUgAgQIECBAgAABAgQIECBAgAABAgQIECBAgACBVgQEzFrRUpcAAQIECBAgQIAAAQIECBAgQIAAAQIECBAgQKByAgJmlTukGkSAAAECBAgQIECAAAECBAgQIECAAAECBAgQINCKgIBZK1rqEiBAgAABAgQIECBAgAABAgQIECBAgAABAgQIVE5AwKxyh1SDCBAgQIAAAQIECBAgQIAAAQIECBAgQIAAAQIEWhEQMGtFS10CBAgQIECAAAECBAgQIECAAAECBAgQIECAAIHKCQiYVe6QahABAgQIECBAgAABAgQIECBAgAABAgQIECBAgEArAgJmrWipS4AAAQIECBAgQIAAAQIECBAgQIAAAQIECBAgUDkBAbPKHVINIkCAAAECBAgQIECAAAECBAgQIECAAAECBAgQaEVAwKwVLXUJECBAgAABAgQIECBAgAABAgQIECBAgAABAgQqJyBgVrlDqkEECBAgQIAAAQIECBAgQIAAAQIECBAgQIAAAQKtCAiYtaKlLgECBAgQIECAAAECBAgQIECAAAECBAgQIECAQOUEBMwqd0g1iAABAgQIECBAgAABAgQIECBAgAABAgQIECBAoBUBAbNWtNQlQIAAAQIECBAgQIAAAQIECBAgQIAAAQIECBConICAWeUOqQYRIECAAAECBAgQIECAAAECBAgQIECAAAECBAi0IiBg1oqWugQIECBAgAABAgQIECBAgAABAgQIECBAgAABApUTEDCr3CHVIAIECBAgQIAAAQIECBAgQIAAAQIECBAgQIAAgVYEBMxa0VKXAAECBAgQIECAAAECBAgQIECAAAECBAgQIECgcgICZpU7pBpEgAABAgQIECBAgAABAgQIECBAgAABAgQIECDQioCAWSta6hIgQIAAAQIECBAgQIAAAQIECBAgQIAAAQIECFROQMCscodUgwgQIECAAAECBAgQIECAAAECBAgQIECAAAECBFoREDBrRUtdAgQIECBAgAABAgQIECBAgAABAgQIECBAgACBygkImFXukGoQAQIECBAgQIAAAQIECBAgQIAAAQIECBAgQIBAKwICZq1oqUuAAAECBAgQIECAAAECBAgQIECAAAECBAgQIFA5AQGzyh1SDSJAgAABAgQIECBAgAABAgQIECBAgAABAgQIEGhFQMCsFS11CRAgQIAAAQIECBAgQIAAAQIECBAgQIAAAQIEKicgYFa5Q6pBBAgQIECAAAECBAgQIECAAAECBAgQIECAAAECrQgImLWipS4BAgQIECBAgAABAgQIECBAgAABAgQIECBAgEDlBATMKndINYgAAQIECBAgQIAAAQIECBAgQIAAAQIECBAgQKAVAQGzVrTUJUCAAAECBAgQIECAAAECBAgQIECAAAECBAgQqJyAgFnlDqkGESBAgAABAgQIECBAgAABAgQIECBAgAABAgQItCIgYNaKlroECBAgQIAAAQIECBAgQIAAAQIECBAgQIAAAQKVExAwq9wh1SACBAgQIECAAAECBAgQIECAAAECBAgQIECAAIFWBATMWtFSlwABAgQIECBAgAABAgQIECBAgAABAgQIECBAoHICAmaVO6QaRIAAAQIECBAgQIAAAQIECBAgQIAAAQIECBAg0IqAgFkrWuoSIECAAAECBAgQIECAAAECBAgQIECAAAECBAhUTkDArHKHVIMIECBAgAABAgQIECBAgAABAgQIECBAgAABAgRaERAwa0VLXQIECBAgQIAAAQIECBAgQIAAAQIECBAgQIAAgcoJCJhV7pBqEAECBAgQIECAAAECBAgQIECAAAECBAgQIECAQCsCAmataKlLgAABAgQIECBAgAABAgQIECBAgAABAgQIECBQOQEBs8odUg0iQIAAAQIECBAgQIAAAQIECBAgQIAAAQIECBBoRUDArBUtdQkQIECAAAECBAgQIECAAAECBAgQIECAAAECBConIGBWuUOqQQQIECBAgAABAgQIECBAgAABAgQIECBAgAABAq0ICJi1oqUuAQIECBAgQIAAAQIECBAgQIAAAQIECBAgQIBA5QQEzCp3SDWIAAECBAgQIECAAAECBAgQIECAAAECBAgQIECgFQEBs1a01CVAgAABAgQIECBAgAABAgQIECBAgAABAgQIEKicgIBZ5Q6pBhEgQIAAAQIECBAgQIAAAQIECBAgQIAAAQIECLQiIGDWipa6BAgQIECAAAECBAgQIECAAAECBAgQIECAAAEClRMQMKvcIdUgAgQIECBAgAABAgQIECBAgAABAgQIECBAgACBVgQEzFrRUpcAAQIECBAgQIAAAQIECBAgQIAAAQIECBAgQKByAgJmlTukGkSAAAECBAgQIECAAAECBAgQIECAAAECBAgQINCKgIBZK1rqEiBAgAABAgQIECBAgAABAgQIECBAgAABAgQIVE5AwKxyh1SDCBAgQIAAAQIECBAgQIAAAQIECBAgQIAAAQIEWhEQMGtFS10CBAgQIECAAAECBAgQIECAAAECBAgQIECAAIHKCQiYVe6QahABAgQIECBAgAABAgQIECBAgAABAgQIECBAgEArAgJmrWipS4AAAQIECBAgQIAAAQIECBAgQIAAAQIECBAgUDkBAbPKHVINIkCAAAECBAgQIECAAAECBAgQIECAAAECBAgQaEVAwKwVLXUJECBAgAABAgQIECBAgAABAgQIECBAgAABAgQqJyBgVrlDqkEECBAgQIAAAQIECBAgQIAAAQIECBAgQIAAAQKtCAiYtaKlLgECBAgQIECAAAECBAgQIECAAAECBAgQIECAQOUEBMwqd0g1iAABAgQIECBAgAABAgQIECBAgAABAgQIECBAoBUBAbNWtNQlQIAAAQIECBAgQIAAAQIECBAgQIAAAQIECBConICAWeUOqQYRIECAAAECBAgQIECAAAECBAgQIECAAAECBAi0IiBg1oqWugQIECBAgAABAgQIECBAgAABAgQIECBAgAABApUTEDCr3CHVIAIECBAgQIAAAQIECBAgQIAAAQIECBAgQIAAgVYEBMxa0VKXAAECBAgQIECAAAECBAgQIECAAAECBAgQIECgcgICZpU7pBpEgAABAgQIECBAgAABAgQIECBAgAABAgQIECDQioCAWSta6hIgQIAAAQIECBAgQIAAAQIECBAgQIAAAQIECFROQMCscodUgwgQIECAAAECBAgQIECAAAECBAgQIECAAAECBFoREDBrRUtdAgQIECBAgAABAgQIECBAgAABAgQIECBAgACBygkImFXukGoQAQIECBAgQIAAAQIECBAgQIAAAQIECBAgQIBAKwICZq1oqUuAAAECBAgQIECAAAECBAgQIECAAAECBAgQIFA5AQGzyh1SDSJAgAABAgQIECBAgAABAgQIECBAgAABAgQIEGhFQMCsFS11CRAgQIAAAQIECBAgQIAAAQIECBAgQIAAAQIEKicgYFa5Q6pBBAgQIECAAAECBAgQIECAAAECBAgQIECAAAECrQgImLWipS4BAgQIECBAgAABAgQIECBAgAABAgQIECBAgEDlBATMKndINYgAAQIECBAgQIAAAQIECBAgQIAAAQIECBAgQKAVAQGzVrTUJUCAAAECBAgQIECAAAECBAgQIECAAAECBAgQqJyAgFnlDqkGESBAgAABAgQIECBAgAABAgQIECBAgAABAgQItCIgYNaKlroECBAgQIAAAQIECBAgQIAAAQIECBAgQIAAAQKVExAwq9wh1SACBAgQIECAAAECBAgQIECAAAECBAgQIECAAIFWBATMWtFSlwABAgQIECBAgAABAgQIECBAgAABAgQIECBAoHICAmaVO6QaRIAAAQIECBAgQIAAAQIECBAgQIAAAQIECBAg0IqAgFkrWuoSIECAAAECBAgQIECAAAECBAgQIECAAAECBAhUTkDArHKHVIMIECBAgAABAgQIECBAgAABAgQIECBAgAABAgRaERAwa0VLXQIECBAgQIAAAQIECBAgQIAAAQIECBAgQIAAgcoJCJhV7pBqEAECBAgQIECAAAECBAgQIECAAAECBAgQIECAQCsCAmataKlLgAABAgQIECBAgAABAgQIECBAgAABAgQIECBQOQEBs8odUg0iQIAAAQIECBAgQIAAAQIECBAgQIAAAQIECBBoRUDArBUtdQkQIECAAAECBAgQIECAAAECBAgQIECAAAECBConIGBWuUOqQQQIECBAgAABAgQIECBAgAABAgQIECBAgAABAq0ICJi1oqUuAQIECBAgQIAAAQIECBAgQIAAAQIECBAgQIBA5QQEzCp3SDWIAAECBAgQIECAAAECBAgQIECAAAECBAgQIECgFQEBs1a01CVAgAABAgQIECBAgAABAgQIECBAgAABAgQIEKicgIBZ5Q6pBhEgQIAAAQIECBAgQIAAAQIECBAgQIAAAQIECLQiIGDWipa6BAgQIECAAAECBAgQIECAAAECBAgQIECAAAEClRMQMKvcIdUgAgQIECBAgAABAgQIECBAgAABAgQIECBAgACBVgQEzFrRUpcAAQIECBAgQIAAAQIECBAgQIAAAQIECBAgQKByAgJmlTukGkSAAAECBAgQIECAAAECBAgQIECAAAECBAgQINCKwJhaVlrZoGp1n3vhtao1SXsIECBAgAABAgQIECBAgAABAgQIECBAgACB8Swww3RTjOd36O3djx07NgeYfMrp0gRjxqQJslvAxmSPY9IHYa14nr2I/+Ulf52t++AxpYh+RZVmizvMmpVSjwABAgQIECBAgAABAgQIECBAgAABAgQIECBAoJICE1WyVcNolEjwMNBsQmAYAsVdnfrcMPBsQqANAX2vDTybEmhDQN9rA8+mBIYpoN8NE85mBNoU0PfaBLQ5gWEK6HvDhLMZgTYFir7X5m5sPsoE3GE2yg6Ij0OAAAECBAgQIECAAAECBAgQIECAAAECBAgQIDCyAgJmI+vt3QgQIECAAAECBAgQIECAAAECBAgQIECAAAECBEaZgIDZKDsgPg4BAgQIECBAgAABAgQIECBAgAABAgQIECBAgMDICgiYjay3dyNAgAABAgQIECBAgAABAgQIECBAgAABAgQIEBhlAgJmo+yA+DgECBAgQIAAAQIECBAgQIAAAQIECBAgQIAAAQIjKyBgNrLe3o0AAQIECBAgQIAAAQIECBAgQIAAAQIECBAgQGCUCQiYjbID4uMQIECAAAECBAgQIECAAAECBAgQIECAAAECBAiMrICA2ch6ezcCBAgQIECAAAECBAgQIECAAAECBAgQIECAAIFRJiBgNsoOiI9DgAABAgQIECBAgAABAgQIECBAgAABAgQIECAwsgICZiPr7d0IECBAgAABAgQIECBAgAABAgQIECBAgAABAgRGmYCA2Sg7ID4OAQIECBAgQIAAAQIECBAgQIAAAQIECBAgQIDAyAoImI2st3cjQIAAAQIECBAgQIAAAQIECBAgQIAAAQIECBAYZQICZqPsgPg4BAgQIECAAAECBAgQIECAAAECBAgQIECAAAECIysgYDay3t6NAAECBAgQIECAAAECBAgQIECAAAECBAgQIEBglAkImI2yA+LjECBAgAABAgQIECBAgAABAgQIECBAgAABAgQIjKyAgNnIens3AgQIECBAgAABAgQIECBAgAABAgQIECBAgACBUSYgYDbKDoiPQ4AAAQIECBAgQIAAAQIECBAgQIAAAQIECBAgMLICAmYj6+3dCBAgQIAAAQIECBAgQIAAAQIECBAgQIAAAQIERpmAgNkoOyA+DgECBAgQIECAAAECBAgQIECAAAECBAgQIECAwMgKCJiNrLd3I0CAAAECBAgQIECAAAECBAgQIECAAAECBAgQGGUCAmaj7ID4OAQIECBAgAABAgQIECBAgAABAgQIECBAgAABAiMrIGA2st7ejQABAgQIECBAgAABAgQIECBAgAABAgQIECBAYJQJTDTKPk+lP85uu+2WHnvssbTzzjun1VZbrem23n333enmm29Od9xxR/r3v/+dFlxwwbTIIoukz3zmM2mWWWZpej8qEqi6wOOPP573ldtuuy09+OCDae65504LL7xw+tznPpfmmmuuppv/1FNPpeuuuy7ddddd6f7770+zzTZbWmyxxdJSSy2VFl988ab3oyKBXhHoVN+r94o+eMghh6QZZpghnXDCCfWrPCdAIBOo1Wr5eerWW29Ncd579tln8++Icd5bY4010lRTTdWU01tvvZViH8VfbBT7iPPeqquumiaYwPi6piBV6hmBTvW9F198Mf++efvtt+d9eZpppknzzjtvWnrppfPvrj0DqqEEmhQYn+er1157LW2//fbp9ddfT9/4xjfy82iTH0s1ApUXeOGFF/LrLPFd8R//+Eeafvrp8++Kn/rUp/Jz1lAADz/8cH6eG6perJ922mnTSiut1ExVdQgQIDD+BLIv/D1dxj7/ai3+xne55557atlRzP9+/etfN/V22YWP2hZbbFFuV2xfPGY/qmq//e1vm9qXSgRGi8D46HPZj6fannvuWRszZkzD/jLJJJPU9thjj9rzzz8/KMN7771XO+KII2qTTz55w/1E39tqq62G3M+gb2IlgQ9JYDT3vUYkm266ad4P55hjjkarLSPQNQLjo+9lA6hqa6655oDnqplnnrn2y1/+svbOO+8M6nTjjTfWFlhggQH3kw0SqV188cWD7sNKAqNRYHz0u2hnp/reueeeW4t+Wvyu6/+43HLL1a644orRSOszERhUYHz1vfF9vsqCZWV/POaYYwZto5UERqPA+Op7cc1x6qmnLvtH//PVeuutV7v33nsHJdl9990H3L7//pZddtlB92UlgdEmML763mhr54f9eSJGEn+vvfFu7Y0336u99fZ7tbffeT/7vfte/vfuu+/X3n3v/dp7//l7//1a7f34v/+UuqfFokEfDRnN/us8vkt2ET7tv//+Lb1N3E328Y9/PJ166qnldvPPP3+KERwf+chH8mUvvfRS2nLLLVMWVMtHGZcVPSHQQwLPPPNM+vSnP50OPfTQsh/MOuus+R2YM800Uy7x9ttvp5/97Gdp5ZVXTm+88caAOtGXsi9z+cjCqJQFzvJ919/Jecopp6Qll1wyxahghUAvC3Sy7/V3jLuqzznnnP6LvSZAIBO49tpr87ud//KXv5QeCy20UMouMKQpppgiXxb9c6eddspHyZeV+j3JLgimFVZYIT3wwAP5mokmmijfR2QxmHjiifNl8X109dVXT6eddlq/rb0k0HsCnep7Bx10UMouMKbop1GmnHLKvC/GXZ3ZIK982d///veUBcXTTTfdlL/2fwR6WWB8n6/OO++8lA1q7mVibScwjkB2JTllg4Xza44vv/xyvj7OVyuuuGKaZ555UjZYOV+WDQBJn/zkJ9N99903zj6KBfF9UiFAgEBXCQwaTuuBleM7Evzkk0/W1llnnT6jKYa6wyxGA2epOMptNthggzyKWhyO7OJ/LUtPVcsCZ2WdGEWsEOgGgU73uR133LHsB1mQuZalCOjDECN4s3SMZZ3tttuuz/rixdlnn13WmXTSSfO7N+tH5mfpB2pZmpyyzrbbblts6pFAVwiM1r5Xj/fuu+/WzjjjjFr2Y6zsa+4wqxfyvBsFOtn3oo8suuiiZf/YcMMN8zteCpf4jpgNIKlNNtlkZZ1s8FWxunx89NFHa3Guy3605H8/+clPaq+++t+MC2PHjq3F+bJYH31yqNHD5c49ITAKBDrZ76I5nep7WcrwWmQ+iL4VGQ2if0aGg6L861//qm2++eZl38vSi9eyVHHFao8ERr1Ap/ve+D5fxV2j/e/2dIfZqP9n5gM2EOh03zv99NPLc1GW5ruWBZb7ZC6I6y7ZNDFlnU984hO1LKVpg09WK/vY17/+9Vqc5wb7i++gCoFuEuh03+umto/kZx3pO8zijoyeLp3+hx3/4T/wwANru+66ay0bedEwRdxQAbOf/vSn5Uln7bXX7vMjqv5gXXbZZWW97A6YPiev+nqeExhNAp3sc3HxLhsRn/eDbJRTn8ByfZvvvPPOPhcP44dR/zLffPOV/en//u//+q/OX8d2WU7tsl6kWlUIdIvAaO17Z511Vm3vvfeuZXdM12acccayfxUX6gXMuuVfmM85kEAn+97xxx9f9pFIgRMX8RuVE088sayXzUc2TpX6lN8RYBuoRBrioi/GABWFQLcIdLLfRZs71fc23njjsk/FoK5GJfp1/UXIq666qlE1ywiMSoFO973xfb6K6y1xnsvm/iz7poDZqPyn5UMNIdDJvhdTXhSDhbO5bGvZXc8N3z0GdMT3zOK7YgTZ+pe4hlKsP+mkk/qv9ppA1wt0su91PcZ4bMBIB8ykZMz+y93J8thjj6X99tsvHXXUUemaa64pU8S18h6REqAo++6774CTra+yyipp3XXXzas+/fTT6fzzzy8280igJwROPvnklF1UyNu62267pexie8N2Z6Px81QCxcpI91ZfsoBaeuihh/JFSy21VFp//fXrV5fPIzXjzjvvXL6O9AMKgV4U6FTfC7vsjul08MEHpyw/fspGFPYipzYTaFog+ktRIt33hBNOWLzs87j11lunBRdcMF92//33p+zusXL9m2++WaZYzEbVp1122aVc1/9J9M2i9D93Fss9EugFgU70vXDKBjzmXFk2kfJ3XH+/6NebbLJJuTjLclA+94RALwmM7/PVr371q/waSpwv6893vWSsrQQaCVx55ZXp4YcfzldlGbPyqWEa1YspLOL6Z1EafVesT8cYU1soBAgQ6AYBAbMOH6VsMsz0+c9/fpy/yEnfbMlubc6rxsX5mLNssFJ/Yb/4ATZYfesIVEngiSeeKJuTpa8pnzd6EnO7FOWWW24pnuaPF1xwQfl60003LZ83erLZZpuVi+u3Kxd6QqAHBDrV94JqiSWWGOecGefRYi6mHuDURAJNCxR9L+YZG+qiQ3HeyyY7Trfddlv5Hv/85z/LAV0bbbRRylIzluv6P5ltttlSdpdnvjgueMS8vAqBXhToVN97/vnnc76VVlppUMboe0UpLloWrz0S6BWB8Xm+isEke+yxRz7wJAaCxYV/hQCBDwSKc168auc6S2xfBMxiftz4/qoQIECgGwQm6oYP2U2fMZtDKV1++eXjfORsfqQUFyWGKtmcZ+mll17Kq2U564eqnmKS96I0Gs1RrPNIoIoC0V+iZHO1pJlmmmnQJr7yyivl+v4X4rPUiuW6oYLU0cezHN4p9le/XbkDTwj0gECn+l5QDTSiN8uDn+LuT4UAgQ8EIliVpf7OXzTzHXGg817Rf2NHrewnmzt3wDvaPviE/p9ANQU61fdefvnllKWXy5FWX331QbHqB3dlabEGrWslgaoKjK/zVWQoyVKBpyydXMrSgqfll18+RQBNIUDgA4FW+t5A3zcLyyJgFtdRsjk8i8UeCRAgMKoFBMxG2eGZbrrpyk/UzCjebFLNsv59991XPveEQC8I7LXXXimbOLapEYHFF7VwiQvx9SVSqRZlgQUWKJ42fMxyeKePfexj+UipSB8XfdCIxIZUFlZYoFN9r8JEmkag4wLxvfDUU0/N95vN2znk/ovzXqR3i4sURcnm7Ey///3v85dDDRKJ82Nc5I/SSraEfAP/R6AiAp3qe9EPI/3wUOWRRx5Jxx57bF5tyimnTPXZDYba1noCVRIYX+erH/7wh+mGG27IfxMecMABVSLTFgIdEYg0jMXg/KHuCiu+b8Yb97/OEsuK9ZEZ4cUXX0w//elP8/6XzUefD3qO6TPi+2hc1xks60HsSyFAgMBICQiYjZR0k+8Td75E6ptIP3DXXXfl8zNNNNHAh6lI3xi7Ly5oNPlWqhHoeoE111yzqTZEKpszzzwzrxt3o8U8ZfWlGLEfywaaB62+fv3dbNkktsnI33odz3tBoFN9rxestJFApwRiVO5QaYOL9zrjjDPSo48+mr+MuZLi7rCifPSjH216P/V3gK6wwgrFLjwS6CmBTvW9odCeeeaZFPPjHnjggSlSN04zzTR5cDvmGlQI9KLA+DhfXX/99emggw5KkR7ulFNOccdLL/7D0uYhBeK7Y/wNVd555510+OGHl9X6f1eMuzmLrDxxzSUGjsT1k6LEdc9IG37aaaelo48+Oh8sEqn5FQIECHzYAgNHYj7sT9bD7x8jOOLEEZPcHnPMMQNOxv7WW2+lX/ziF6VUnIxim/qLIuVKTwj0qEDcAbb11lvnd4IFQaTdmGGGGfpoRF+KEqPwmxnVVJ/SMfqcQoDAuALN9L1xt7KEAIF2BWKQyC677FLu5tBDDy2ft/LkT3/6U/rVr36VbxLnzTh/KgQIDCww3L63xhprpGuvvTa9+uqr5c4XXnjhdN5556WhMh+UG3hCoIcFmj1fRR+LVIxx1+gPfvCDIecC7WFSTSfQlMD3vve98g6yCHSttdZafbaLLFjFtZZLLrkkXxdBs5VXXjmf5uL2229Pf/vb3/JrNZEW9Qtf+EL+un/grc9OvSBAgMAICEwwAu/hLVoU+Na3vlVuse++++a3K5cL/vMkgmO77757euihh/qsqtVqfV57QaCXBSLw/NnPfjZdffXVOcPiiy+evvOd74xD8vbbb+fLIt1iM6W+XrFtM9upQ6BXBJrte73ioZ0ERkogLjost9xy6dlnn83fcvvtt88vSrT6/jHKd/3110/xvXLMmDHpyCOPTNNPP32ru1GfQM8ItNP3Yv6X+mBZoEU61B/96EflyPyegdRQAi0KtHK+iusnDz74YFp22WXTd7/73RbfSXUCBAqBuAby1a9+NR122GH5orgjOvpi/1KfEWvWWWdNcYfn3Xffnd8YEKkZL7roonzO6uKusvjeud1225VBtv7785oAAQIjJdDc1eGR+jTeJxeIVFfFyIyXXnoprbTSSvkXuksvvTTFCIwTTzwxXxZ3n8XojGWWWSbfLnLcR7o5hQCBlM4666w8jcDNN9+cc0Re7CuuuKLhHZhxMTBKM/MGRr0IWBelPnhWLPNIoJcFWul7veyk7QQ6KRApcSKN2yqrrJJifs0oO+ywQzkPUrPvFYG2SPv4//7f/8vPiXHn9UknnZQ233zzZnehHoGeEuhE3/vJT36SLr744nT66aenmE8p0tC98cYbebq4z3zmM6n4LttTsBpLYAiBVs9Xke70+OOPz38LnnzyyWmwaS+GeGurCfS0QKRQXH755fNzVEDEdBVxnSWuTfYvc845Z56hYNddd81vBIhBXf1LzA//5z//uZwzLVI4FhkO+tf1mgABAiMlICXjSEm3+D6//vWv01ZbbZUuu+yyFKM3Yg6J+nkkYncxb1IE0b74xS/me59llllafBfVCVRPIHJi77TTTumcc84pG/e1r30t/fznP08RVG5UijSM77//fooLH5HTfrBSpBWIOjGvhUKAQMrz0bfa97gRINC+wE033ZS22WabVIzijXPaj3/841SfsaCZd/nd736XdttttzLgNvvss6ff/OY3abXVVmtmc3UI9JxAp/pepKaqL3vuuWce8D711FPzuczie2zRv+vreU6gVwVaPV89/fTTKe64jhLzlzW6sN+rltpNoFmBuAbywx/+MB1yyCHlAOIInMW5ar755mu4mxVXXDHF31AlvrseccQR5Y0DN9xww1CbWE+AAIHxKuAOs/HKO/ydx0WKyPF71FFHpUUXXbTPCKi4o2W99dbLg2lRL1JfRREwG763LashEF/Wor8UwbLoH3/84x/z0fEDBcui5ZNPPnkJECN6hyr1deq3HWo76wlUVWC4fa+qHtpFYCQE4sJFpJSKixXFxfS4mzruRmklWBaTsMf3yriLrLg7bYsttshT5AiWjcSR9B7dJtCpvjdQuyNjyHHHHVeOtr/zzjvT5ZdfPlB1ywn0jMBwz1fbbrttnqo4Mvd885vf7BkvDSXQKYEbb7wxz2wVAefItvORj3wkDz5HOuKBgmWtvndMpVFk/onznkKAAIEPU8AdZh+m/hDvHSeLmLQ9/uKH2V133ZU/LrjggikmX48Sy5977rn8uYBZzuD/elAg7gqL0bcx2jBKpNiIH0P77bdfPpnsUCSR+qb4UhbzAi611FKDblLMHRipqiIopxDoVYF2+16vumk3gXYF4m7qNdZYo5xoPb4XRlq3uCjYSqrguNCx7rrrphdeeCH/SDHoJOag6H/HS7uf1/YEqiLQTt+LuVmKeQGLi4IDuUTQLALZMcdLlEjLHylXFQK9KjDc89VTTz2VLrjggpwt5gpce+21GxK+9tpr5fJf/OIX6bzzzstfxzxNm2yySbnOEwK9JhCZemL+v2L6inXWWSef2zZSKXayTDHFFGmOOeZITz75ZLr33ntTZP9p5TttJz+LfREgQEDArEv+DcQtyksvvfQ4nzZGehQlAmkKgV4TiKDxxhtvnP70pz/lTY8UG7/97W/Luf2a8ZhnnnnKahE4Gyxg9vzzz6cY3RglgmXy35d0nvSYQCf6Xo+RaS6Bjgg8/vjj6Qtf+EJ68MEH8/3FhYtI5d3qwKnIZPA///M/6fXXX08xAOQ73/lO2n///aUa7shRspMqCrTb9+JC/YUXXpj3t7hwHyP0ByuLLbZYuTrma1II9KpAp85Xt956a1OEMVA5/qLEPIIKgV4ViBTf++yzT978aaedNh9U9ZWvfKUpjgiwFddNIhg23XTTDbpd1H/mmWfyOlNNNZVg2aBaVhIgML4FBMzGt/Aw9h8joIrUOjHp+mCp5Io7auJtNttss2G8m00IdLfAt7/97TJYFqPkzzjjjCEvQPRv8TLLLFMuuuWWW9KWW25Zvu7/JNYXpX67YplHAr0i0Im+1ytW2kmgUwJxMSHOdUWwLC5kRFrGVssTTzxRBsviTpYYSb/qqqu2uhv1CfSMQCf63sILL5wHzGJf99xzz6ADtAK26OfxPO7+VAj0okC756sITMfdmkOVCGLH/PFRllhiiVQMqDQoeSg566sqcPbZZ5fBski7GKmB55prrqabG+e6+eefP8+KFZkLrrzyykG3jSw+b7/9dl7nE5/4xKB1rSRAgMD4FhAwG9/Cw9h/nCiKix/xwypG/zYqMbr/zDPPzFctvvji+Re7RvUsI1BVgRj5d8wxx+TNW3311dNZZ501rJHxMeI3UuNEmpzjjz8+xWTrA6VaPPDAA0vOuGipEOhFgU71vV6002YC7QjEOSpSs0WJu8GK74ut7jPuJivuLIs7tOOONYUAgYEFOtH3IgtCUU488cQUaa4GKnGhsUgjF3VifkKFQC8KtHu+mn766fM5rYeyu//++8t5A3fccccUfwqBXhV48803UwyOjDLnnHPmwa6YxqKVMskkk+RZsq677roUf5EedaBrLLHf4rpOPF922WXjQSFAgMCHJjDBh/bO3nhAgfr89Pvuu296+eWXx6kbE21GLu1i/rLB7ogZZ2MLCFRE4Hvf+16ZS/vwww8fVrAsKGadddb0+c9/PleJ0YURMGtUTjvttPTXv/41XxV3fkYaLIVALwp0qu/1op02ExiuQIy6je+FUeKCQ/TD4ZS4U/r000/PN91ggw0Ey4aDaJueEuhU31trrbXSNNNMk9vFhcGrr766oWMM4Nprr73SzTffnK9fYIEF8lH6DStbSKDCAs5XFT64mjaqBeIc9eijj+afce+9906tBsuKxhXXNuM8uummm6YIxDUqcfdZMYgkgtwDXY9ptK1lBAgQGB8C7jAbH6pt7jPy1a+//vrpnHPOSTGfUowo3G+//fL82RNPPHF+wf6kk05Kf/nLX/J3WnLJJdN2223X5rvanEB3CcQksJEWIEp8gbvmmmvyv2ZaEWmn5p133j5Vjz766BR9Ke7cjFSnMcFsTG4b6QeefvrpfGTiAQccUG5z8MEHpxlnnLF87QmBXhHodN/rFTftJNCuQNxZVsxjFBkI4rtgs2WrrbYq0xUXKadi2xlmmCEdd9xxTe0m5p6IOUMVAr0m0Km+F4HuQw89NO2www75gK+4kBgXBWMAVtx99sILL+R3kB5yyCHp73//e848+eSTpz/84Q95JoRec9deAs5X/g0Q+HAELr300vyNIwtPXB9p9rtipA9eccUVyw8d859FJoM77rgjv465yCKL5BkSlltuuXzu3UhPHFmzjjrqqBS/MaPEOdB1lpLQEwIEPiSBMdkIttqH9N6j4m2fe+G1/HPMMN0U4/XzRP7fjTbaKH+PmJh9qABX3OWywgorlHOZDfTh4lbliy66aMgJNAfa3nICIy3QqT4XKeHqJ0NvpR3xpazRRb8TTjgh7bzzzvmXwsH2FxPdnnrqqS5eDIZk3agTGM19rxFW5K6PQSNzzDFHevLJJxtVsYxAVwh0qu/FwI6Y23Y4JSZRn2mmmfJN4/wXF+BbLXGRI869CoFuEOhUv4u2dqrvFW477bRTOvbYY/NU4MWyRo9TTTVVnir8y1/+cqPVlhEYlQKd7Hsjeb6qT8kYd9dIyTgq/3n5UIMIdLLvzTzzzOUgrUHecpxVcX6Lc2Z9eeCBB/JsBjEf4WAlBohEsCyux0SgTiHQLQKd7Hvd0uYP43OOHTs2f9vJp5wuTZD9NyK7xyH/b0U2uU6+PP/vRvafjuK/Hh/8d6RW/vckol+t/KdFSsYP4yg38Z6R7u2GG25IRxxxRD7yon6TOOgxsjhGJ8bIjxjxqxDoNYEbb7yx403edttt02233ZanZ4y7OfuXuNssgt+RmtGXuP46XveKwPjoe71ip50E2hHoVN/r1H7aaYttCXSTQKf7zC9/+ct0/fXX56PwJ5po3IQvESjbY4890sMPP5wEy7rpX4rP2mmBTve9Tn8++yNQRYFIxVhkNOhE+yKtcASkI0NPZDboX+JusrjTOu7mjoFhrrP0F/KaAIEPQ8AdZiN0h1k7BzduTY7R9Q899FCK3L+RolGQrB1R236YAt0y+uKdd95JMRrqwQcfzOc4i1Q5cQFDIdCtAt3S97rV1+cmMJCAvjeQjOUExp9At/S7+L4Zv/HiO+fUU0+d4sJipG5UCHSrQLf0vW719bkJDCTQLX3vqaeeSvfee2+K89/iiy+eZptttoGaZDmBrhDolr7XFZiDfMiRvsNs3CFtg3w4qz4cgZhLaa655sr/PpxP4F0J9J5A3GEW6afiTyFAgAABAgQIECDQaYH4vhmZQ+JPIUCAAAECVReIQSEGhlT9KGsfge4XkJKx+4+hFhAgQIAAAQIECBAgQIAAAQIECBAgQIAAAQIECLQhIGDWBp5NCRAgQIAAAQIECBAgQIAAAQIECBAgQIAAAQIEul9AwKz7j6EWECBAgAABAgQIECBAgAABAgQIECBAgAABAgQItCEgYNYGnk0JECBAgAABAgQIECBAgAABAgQIECBAgAABAgS6X0DArPuPoRYQIECAAAECBAgQIECAAAECBAgQIECAAAECBAi0ISBg1gaeTQkQIECAAAECBAgQIECAAAECBAgQIECAAAECBLpfQMCs+4+hFhAgQIAAAQIECBAgQIAAAQIECBAgQIAAAQIECLQhIGDWBp5NCRAgQIAAAQIECBAgQIAAAQIECBAgQIAAAQIEul9AwKz7j6EWECBAgAABAgQIECBAgAABAgQIECBAgAABAgQItCEgYNYGnk0JECBAgAABAgQIECBAgAABAgQIECBAgAABAgS6X0DArPuPoRYQIECAAAECBAgQIECAAAECBAgQIECAAAECBAi0ISBg1gaeTQkQIECAAAECBAgQIECAAAECBAgQIECAAAECBLpfQMCs+4+hFhAgQIAAAQIECBAgQIAAAQIECBAgQIAAAQIECLQhIGDWBp5NCRAgQIAAAQIECBAgQIAAAQIECBAgQIAAAQIEul9AwKz7j6EWECBAgAABAgQIECBAgAABAgQIECBAgAABAgQItCEgYNYGnk0JECBAgAABAgQIECBAgAABAgQIECBAgAABAgS6X0DArPuPoRYQIECAAAECBAgQIECAAAECBAgQIECAAAECBAi0ISBg1gaeTQkQIECAAAECBAgQIECAAAECBAgQIECAAAECBLpfQMCs+4+hFhAgQIAAAQIECBAgQIAAAQIECBAgQIAAAQIECLQhIGDWBp5NCRAgQIAAAQIECBAgQIAAAQIECBAgQIAAAQIEul9AwKz7j6EWECBAgAABAgQIECBAgAABAgQIECBAgAABAgQItCEgYNYGnk0JECBAgAABAgQIECBAgAABAgQIECBAgAABAgS6X0DArPuPoRYQIECAAAECBAgQIECAAAECBAgQIECAAAECBAi0ISBg1gaeTQkQIECAAAECBAgQIECAAAECBAgQIECAAAECBLpfQMCs+4+hFhAgQIAAAQIECBAgQIAAAQIECBAgQIAAAQIECLQhIGDWBp5NCRAgQIAAAQIECBAgQIAAAQIECBAgQIAAAQIEul9AwKz7j6EWECBAgAABAgQIECBAgAABAgQIECBAgAABAgQItCEgYNYGnk0JECBAgAABAgQIECBAgAABAgQIECBAgAABAgS6X0DArPuPoRYQIECAAAECBAgQIECAAAECBAgQIECAAAECBAi0ISBg1gaeTQkQIECAAAECBAgQIECAAAECBAgQIECAAAECBLpfQMCs+4+hFhAgQIAAAQIECBAgQIAAAQIECBAgQIAAAQIECLQhIGDWBp5NCRAgQIAAAQIECBAgQIAAAQIECBAgQIAAAQIEul9AwKz7j6EWECBAgAABAgQIECBAgAABAgQIECBAgAABAgQItCEgYNYGnk0JECBAgAABAgQIECBAgAABAgQIECBAgAABAgS6X0DArPuPoRYQIECAAAECBAgQIECAAAECBAgQIECAAAECBAi0ISBg1gaeTQkQIECAAAECBAgQIECAAAECBAgQIECAAAECBLpfQMCs+4+hFhAgQIAAAQIECBAgQIAAAQIECBAgQIAAAQIECLQhIGDWBp5NCRAgQIAAAQIECBAgQIAAAQIECBAgQIAAAQIEul9AwKz7j6EWECBAgAABAgQIECBAgAABAgQIECBAgAABAgQItCEgYNYGnk0JECBAgAABAgQIECBAgAABAgQIECBAgAABAgS6X0DArPuPoRYQIECAAAECBAgQIECAAAECBAgQIECAAAECBAi0ISBg1gaeTQkQIECAAAECBAgQIECAAAECBAgQIECAAAECBLpfQMCs+4+hFhAgQIAAAQIECBAgQIAAAQIECBAgQIAAAQIECLQhIGDWBp5NCRAgQIAAAQIECBAgQIAAAQIECBAgQIAAAQIEul9AwKz7j6EWECBAgAABAgQIECBAgAABAgQIECBAgAABAgQItCEgYNYGnk0JECBAgAABAgQIECBAgAABAgQIECBAgAABAgS6X0DArPuPoRYQIECAAAECBAgQIECAAAECBAgQIECAAAECBAi0ISBg1gaeTQkQIECAAAECBAgQIECAAAECBAgQIECAAAECBLpfQMCs+4+hFhAgQIAAAQIECBAgQIAAAQIECBAgQIAAAQIECLQhIGDWBp5NCRAgQIAAAQIECBAgQIAAAQIECBAgQIAAAQIEul9AwKz7j6EWECBAgAABAgQIECBAgAABAgQIECBAgAABAgQItCEgYNYGnk0JECBAgAABAgQIECBAgAABAgQIECBAgAABAgS6X0DArPuPoRYQIECAAAECBAgQIECAAAECBAgQIECAAAECBAi0ISBg1gaeTQkQIECAAAECBAgQIECAAAECBAgQIECAAAECBLpfQMCs+4+hFhAgQIAAAQIECBAgQIAAAQIECBAgQIAAAQIECLQhIGDWBp5NCRAgQIAAAQIECBAgQIAAAQIECBAgQIAAAQIEul9AwKz7j6EWECBAgAABAgQIECBAgAABAgQIECBAgAABAgQItCEgYNYGnk0JECBAgAABAgQIECBAgAABAgQIECBAgAABAgS6X0DArPuPoRYQIECAAAECBAgQIECAAAECBAgQIECAAAECBAi0ISBg1gaeTQkQIECAAAECBAgQIECAAAECBAgQIECAAAECBLpfQMCs+4+hFhAgQIAAAQIECBAgQIAAAQIECBAgQIAAAQIECLQhIGDWBp5NCRAgQIAAAQIECBAgQIAAAQIECBAgQIAAAQIEul9AwKz7j6EWECBAgAABAgQIECBAgAABAgQIECBAgAABAgQItCEgYNYGnk0JECBAgAABAgQIECBAgAABAgQIECBAgAABAgS6X0DArPuPoRYQIECAAAECBAgQIECAAAECBAgQIECAAAECBAi0ISBg1gaeTQkQIECAAAECBAgQIECAAAECBAgQIECAAAECBLpfQMCs+4+hFhAgQIAAAQIECBAgQIAAAQIECBAgQIAAAQIECLQhIGDWBp5NCRAgQIAAAQIECBAgQIAAAQIECBAgQIAAAQIEul9AwKz7j6EWECBAgAABAgQIECBAgAABAgQIECBAgAABAgQItCEgYNYGnk0JECBAgAABAgQIECBAgAABAgQIECBAgAABAgS6X0DArPuPoRYQIECAAAECBAgQIECAAAECBAgQIECAAAECBAi0ISBg1gaeTQkQIECAAAECBAgQIECAAAECBAgQIECAAAECBLpfQMCs+4+hFhAgQIAAAQIECBAgQIAAAQIECBAgQIAAAQIECLQhIGDWBp5NCRAgQIAAAQIECBAgQIAAAQIECBAgQIAAAQIEul9AwKz7j6EWECBAgAABAgQIECBAgAABAgQIECBAgAABAgQItCEgYNYGnk0JECBAgAABAgQIECBAgAABAgQIECBAgAABAgS6X0DArPuPoRYQIECAAAECBAgQIECAAAECBAgQIECAAAECBAi0ISBg1gaeTQkQIECAAAECBAgQIECAAAECBAgQIECAAAECBLpfQMCs+4+hFhAgQIAAAQIECBAgQIAAAQIECBAgQIAAAQIECLQhIGDWBp5NCRAgQIAAAQIECBAgQIAAAQIECBAgQIAAAQIEul9AwKz7j6EWECBAgAABAgQIECBAgAABAgQIECBAgAABAgQItCEgYNYGnk0JECBAgAABAgQIECBAgAABAgQIECBAgAABAgS6X0DArPuPoRYQIECAAAECBAgQIECAAAECBAgQIECAAAECBAi0ISBg1gaeTQkQIECAAAECBAgQIECAAAECBAgQIECAAAECBLpfQMCs+4+hFhAgQIAAAQIECBAgQIAAAQIECBAgQIAAAQIECLQhIGDWBp5NCRAgQIAAAQIECBAgQIAAAQIECBAgQIAAAQIEul9AwKz7j6EWECBAgAABAgQIECBAgAABAgQIECBAgAABAgQItCEgYNYGnk0JECBAgAABAgQIECBAgAABAgQIECBAgAABAgS6X0DArPuPoRYQIECAAAECBAgQIECAAAECBAgQIECAAAECBAi0ISBg1gaeTQkQIECAAAECBAgQIECAAAECBAgQIECAAAECBLpfQMCs+4+hFhAgQIAAAQIECBAgQIAAAQIECBAgQIAAAQIECLQhIGDWBp5NCRAgQIAAAQIECBAgQIAAAQIECBAgQIAAAQIEul9AwKz7j6EWECBAgAABAgQIECBAgAABAgQIECBAgAABAgQItCEgYNYGnk0JECBAgAABAgQIECBAgAABAgQIECBAgAABAgS6X0DArPuPoRYQIECAAAECBAgQIECAAAECBAgQIECAAAECBAi0ISBg1gaeTQkQIECAAAECBAgQIECAAAECBAgQIECAAAECBLpfQMCs+4+hFhAgQIAAAQIECBAgQIAAAQIECBAgQIAAAQIECLQhIGDWBp5NCRAgQIAAAQIECBAgQIAAAQIECBAgQIAAAQIEul9AwKz7j6EWECBAgAABAgQIECBAgAABAgQIECBAgAABAgQItCEgYNYGnk0JECBAgAABAgQIECBAgAABAgQIECBAgAABAgS6X0DArPuPoRYQIECAAAECBAgQIECAAAECBAgQIECAAAECBAi0ISBg1gaeTQkQIECAAAECBAgQIECAAAECBAgQIECAAAECBLpfQMCs+4+hFhAgQIAAAQIECBAgQIAAAQIECBAgQIAAAQIECLQhIGDWBp5NCRAgQIAAAQIECBAgQIAAAQIECBAgQIAAAQIEul9AwKz7j6EWECBAgAABAgQIECBAgAABAgQIECBAgAABAgQItCEgYNYGnk0JECBAgAABAgQIECBAgAABAgQIECBAgAABAgS6X0DArPuPoRYQIECAAAECBAgQIECAAAECBAgQIECAAAECBAi0ISBg1gaeTQkQIECAAAECBAgQIECAAAECBAgQIECAAAECBLpfQMCs+4+hFhAgQIAAAQIECBAgQIAAAQIECBAgQIAAAQIECLQhIGDWBp5NCRAgQIAAAQIECBAgQIAAAQIECBAgQIAAAQIEul9AwKz7j6EWECBAgAABAgQIECBAgAABAgQIECBAgAABAgQItCEgYNYGnk0JECBAgAABAgQIECBAgAABAgQIECBAgAABAgS6X0DArPuPoRYQIECAAAECBAgQIECAAAECBAgQIECAAAECBAi0ISBg1gaeTQkQIECAAAECBAgQIECAAAECBAgQIECAAAECBLpfQMCs+4+hFhAgQIAAAQIECBAgQIAAAQIECBAgQIAAAQIECLQhIGDWBp5NCRAgQIAAAQIECBAgQIAAAQIECBAgQIAAAQIEul9AwKz7j6EWECBAgAABAgQIECBAgAABAgQIECBAgAABAgQItCEgYNYGnk0JECBAgAABAgQIECBAgAABAgQIECBAgAABAgS6X0DArPuPoRYQIECAAAECBAgQIECAAAECBAgQIECAAAECBAi0ISBg1gaeTQkQIECAAAECBAgQIECAAAECBAgQIECAAAECBLpfQMCs+4+hFhAgQIAAAQIECBAgQIAAAQIECBAgQIAAAQIECLQhIGDWBp5NCRAgQIAAAQIECBAgQIAAAQIECBAgQIAAAQIEul9gTC0r3d+M4bfguRdeG/7GtiRAgAABAgQIECBAgAABAgQIECBAgAABAgR6UmCG6aboyXaPVKPHjh2bv9XkU06XJhgzJk2Q3QI2Jnsckz4Ia8Xz7EX8Ly/562zdB48pRfQrqjRb3GHWrJR6BAgQIECAAAECBAgQIECAAAECBAgQIECAAAEClRSYqJKtGkajRIKHgWYTAsMQKO7q1OeGgWcTAm0I6Htt4NmUQBsC+l4beDYlMEwB/W6YcDYj0KaAvtcmoM0JDFNA3xsmnM0ItClQ9L02d2PzUSbgDrNRdkB8HAIECBAgQIAAAQIECBAgQIAAAQIECBAgQIAAgZEVEDAbWW/vRoAAAQIECBAgQIAAAQIkb8wAAABAAElEQVQECBAgQIAAAQIECBAgMMoEBMxG2QHxcQgQIECAAAECBAgQIECAAAECBAgQIECAAAECBEZWQMBsZL29GwECBAgQIECAAAECBAgQIECAAAECBAgQIECAwCgTEDAbZQfExyFAgAABAgQIECBAgAABAgQIECBAgAABAgQIEBhZAQGzkfX2bgQIECBAgAABAgQIECBAgAABAgQIECBAgAABAqNMQMBslB0QH4cAAQIECBAgQIAAAQIECBAgQIAAAQIECBAgQGBkBQTMRtbbuxEgQIAAAQIECBAgQIAAAQIECBAgQIAAAQIECIwyAQGzUXZAfBwCBAgQIECAAAECBAgQIECAAAECBAgQIECAAIGRFRAwG1lv70aAAAECBAgQIECAAAECBAgQIECAAAECBAgQIDDKBATMRtkB8XEIECBAgAABAgQIECBAgAABAgQIECBAgAABAgRGVkDAbGS9vRsBAgQIECBAgAABAgQIECBAgAABAgQIECBAgMAoExAwG2UHxMchQIAAAQIECBAgQIAAAQIECBAgQIAAAQIECBAYWQEBs5H19m4ECBAgQIAAAQIECBAgQIAAAQIECBAgQIAAAQKjTEDAbJQdEB+HAAECBAgQIECAAAECBAgQIECAAAECBAgQIEBgZAUEzEbW27sRIECAAAECBAgQIECAAAECBAgQIECAAAECBAiMMgEBs1F2QHwcAgQIECBAgAABAgQIECBAgAABAgQIECBAgACBkRUQMBtZb+9GgAABAgQIECBAgAABAgQIECBAgAABAgQIECAwygQEzEbZAfFxCBAgQIAAAQIECBAgQIAAAQIECBAgQIAAAQIERlZAwGxkvb0bAQIECBAgQIAAAQIECBAgQIAAAQIECBAgQIDAKBMQMBtlB8THIUCAAAECBAgQIECAAAECBAgQIECAAAECBAgQGFkBAbOR9fZuBAgQIECAAAECBAgQIECAAAECBAgQIECAAAECo0xgolH2eSr1cV544YV08803p1tvvTX94x//SNNPP31aeOGF06c+9am09NJLt9TWO+64I51//vnp8ccfT6+88kqad95500ILLZTWX3/9NMUUU7S0L5UJVFUg+kf0udtuuy09+OCDae6558773Oc+97k011xzDdjsW265Jf3zn/8ccP1gK9Zaa6004YQTDlbFOgKVFxhu3+sPE+fKq666Kt13333pxRdfTAsuuGDeh5dbbrlB+3D//XhNoBcEarVauuuuu/LvmXHee/bZZ8s+s8Yaa6SpppqqKYb4Xnn99den22+/Pd15551p6qmnTossskj6xCc+kVZcccWm9qESgV4SeOedd9J1112X4vdZ9Jv3338/zTfffPlvs3XWWSdNMskkTXFEH77mmmvyfhd977XXXsv73qKLLpo+85nP5H2xqR2pRKBHBOK7YfS96Hdx/ptmmmny6yJxbSV+7w237Lbbbumxxx5LO++8c1pttdWGuxvbEegZgYcefjy9+dbbafbZZk7TTTt1z7RbQwkQ6B0BAbPxdKxPPfXU/AvXyy+/3PAd1ltvvXTIIYfkP6waVvjPwpdeeiltvPHG6ZJLLmlYbfbZZ08//elP0+abb95wvYUEekHg7bffTt///vfTYYcdluLiQ/8SFy522WWXtM8++6Tpppuu/+p8u9///vfjLG9mweuvv54mm2yyZqqqQ6ByAu32vQLkkUceSd/97nfTmWeeOWAf3nPPPfM+rL8Vah57WeDpp59OX/va19Jf/vKXhgwzzzxz2n///dP222+fJppo4K/755xzTv599V//+lfD/XzpS19KJ5xwQpplllkarreQQK8J3H333WmLLbbIA9WN2j7nnHPm30l32GGHRqvLZQ888EDadttt01//+tdyWf2T+I137LHHpgjAKQQIpHTeeefl57RnnnmmIUcMrjr44INbDpzde++96aijjsr3ufbaazfct4UECPxX4PU33kz//NcH/XCG6af97wrPCBAgUCEBKRk7fDDjYv1WW22Vttxyy1QEy6accsp8hO4888yTxowZk7/jueeemz75yU/mo+gH+ghxIT4uVBTBssknnzwttdRS+b7ibrUoTz31VP6jLb5AKgR6USB+NH36059Ohx56aHmhfdZZZ81H5s4000w5SVzU/9nPfpZWXnnl9MYbb/QikzYT6LhAp/pe3BXz+c9/Pp1xxhl5H55gggnyu2RipPDHPvax/HNHHz7ooIPS6quvno/k73hj7JBAFwlce+21afHFF+8TLIusA8suu2yZdSD650477ZS+8Y1vDNiyr3/962mDDTZIRbAsvq+usMIKKS74F+WCCy5Iiy22WIr3VAj0usBll12WlllmmTJYFsHo+G0WfS/uzIzyxBNPpOhbP//5zwfkijtCl1hiiT7BsrhDLfZdBLjjN966666bjjjiiAH3YwWBXhGI74Ax4LgIlhXnqzg/FXd0/v3vf09rrrlmuummm5pmee+99/LBJU1voCKBHheI652PPf5UjytoPgECPSGQ/Qevp8vY51+txV+nyumnnx63t+R/WSqcWhbIqmVpO8rdZ+mmalmKjbJOlu6mlgXGyvXFk7feequWXRgs62V3x9SyFATF6nyfP/7xj8v1M844Y+35558v13tCYLQKdLrP7bjjjmU/+PjHP16LPlZfsuB0LUvHWNbZbrvt6lfnz7OUHrXLL7+8qb+zzjqrlgWv8/1tsskm4+zLAgKjVWA09r2wWnXVVcv+udJKK9XuueeePoTZ6Ptaloa4rJNdhOyz3gsCo12gk33v3XffrWXp2sr+sOGGG9b+/e9/lwRZcLmWDSCpZXdilnWyrAfl+uLJ2WefXa7PLvTn31dj30XJUlPVskEmZZ0seF179dXOfV8u3scjgfEl0Ml+F58x+laWWr/sE9/+9rf7/IbLBmTVsuwhtWzQR15n4oknrmVp+cdpXvwuzNLHlfvJBozUsrTgZb0sLWMty4hQrv/IRz5Su//++8v1nhAY7QKd7ntZmv1aFhTL+0T8BotzWhboKhmyQR+1LNtO2WeylPy16EdDlSeffLKW3cFZbhfXcH79618PtZn1BEatQKf7Xv+GZikYa3fe/UDtqr/dWP7969/P9q/mNYGeExjffa/nQAdocDbQuhZ/r73xbu2NN9+rvfX2e7W333k/i4+8l/+9++77tXffez/7jvDB3/vv12pZ2vRyb3VPy2WDPYnR3D1dOvkPO4JcxUW9+LGUjXJqaBtf4Op/cEWQrX/J0gKUX96yecr6ry5fZyOBy3p/+MMfyuWeEBitAp3sc1kKjVo2EjfvA9kdnPl/PBu1O5sXos/Fw/qLi43qD7QsLnKsssoq+ftlo/ub+jE20L4sJzDSAqOx7z333HO17M7rvE/NMcccAw78yOYmLM912WjikabzfgTaEuhk3zv++OPLvpCNtq/VB7nqP+SJJ55Y1ovvnPUly4BQy1Is5uuj/w30fTXOeXExvxgIFt9NFQLdItDJfhdtPvroo8u+sPvuuw/IkKUXLusdcMAB49Q75ZRTyvVZtpFa/H5sVPbee++y3qabbtqoimUERqVAp/teNj1F2RdiIGSjEufC+kHJ2Xy441SLwNqBBx5Y23XXXWvZ/Jzl98/iHCdgNg6ZBV0m0Om+91YWIHvs8X/WHnzosdqtd9xTBskEzLrsH4aPO94FOt33xvsH7tI3GOmAmZSM2TejTpUrr7wyPfzww/nuIt/8pz71qYa7jtSK++23X7kuuxBYPi+e/O53v8ufZiOk0m9+85ti8TiPMSdTUa6++uriqUcCPSFw8sknp+wHUt7WmKw5u9OyYbtj8vRIk1qURn2uWDfYYzaaOGV3oqVIifrHP/4xRV9WCPSiQKf6XqTPyb6v5YRf/OIXG84xGCtjMvePfvSjeb2YayJSNCoEelEg5hMrSsxRNuGEExYv+zxuvfXWeWrTWJjdnZKyu8PK9TfccEOKOdCiRPqqgb6vRmq4mBu0SCde/97lzjwh0CMCl156ad7S7I6vfM7NgZr9la98pVyV3WFWPi+eRFr+ouy7775lOrliWfH4ne98J2XZSvKXF154YcoC2MUqjwR6SiBSoUaJ74KRprRRiXNhlvmjXNWo72V3TufXYGK+smuuuab8/llu5AkBAn0EsoBZejRLvxjzlb388n+/R/ap5AUBAgQqKiBg1sEDGznri5KlBSieNnyMXPdFueWWW4qn+eMjjzySrr/++vx5/OgqcuL3qfSfF2uttVbK0njkfz/4wQ8aVbGMQGUFOtXnmgGKAMGRRx6ZX5zM7got51ZqZlt1CFRNoFN9L7vDrKQZKOBdVJhuuunypxEkf/PNN4vFHgn0lEDR9xZZZJG05JJLDtr24rtmlooixZxJRbnjjjuKpwNefCwqxAXKLK1x/vL2229PY8eOLVZ5JNBTAlnK77y9MV9gMUduI4DZZputXFwMpCwWxPnroosuyl/GHExrr712sWqcxzjnrbHGGvnymBc7S088Th0LCFRdIK5zZNNO5M3M0nYP2tzB+l5sGNdUYs7c/n8xD5pCgMC4AhNONGGadpqpxvmbYvLJxq1sCQECBComMFHF2vOhNifLg12+f9wZNlh55ZVXytVTTDFF+Tye/P73vy9fR0BsqDL77LMPVcV6ApUUKPpcNlfLoBcvovGD9bmhcLI5zvIJ3KPeTjvtlFZbbbWhNrGeQKUFOtX3snk8S6fB7vyMAFncJRNlzjnnHHQgSblDTwhUTCCbsyVlKaXyVg31PTMqDXTei3NaUZrZTwQIYmR+lBjklc2xW2zukUBPCETQOUuDn5ZffvkhA9X1AyGzVP19fOLcWdztucwyy6QshX+f9f1fxN2fWcr9fHE2v2fK0oL3r+I1gUoLRLB4iy22yNs41LlnsL4XO8jmus4zhfQHy+b0TBtttFH/xV4T6HmBySf7SFp8sYXGcRj73Avp7nsfGme5BQQIEKiSgIBZB49mpGGMiwpRYuTvYKV+dG/9BcPY5sYbb8w3jUDapz/96fx5XCSJCxyRvuqBBx5I2XwUaamllkqRai6bBDev4/8I9JrAXnvtlQeymkmNOFifG8rtm9/8ZsrmmEgxGvj73//+UNWtJ1B5gU71vSWWWCJlc06kv/3tbynSXZ133nkN73jJ5oTJ+2DA7rLLLpX31UACjQTiu+Cpp56ar8rm7WxUpc+y4rwXqariQmFRIq1wUWKfQ5XXX3+9rHLfffcJmJUanvSKQAS2ItPAUCW+K9an3d9hhx36bFIEnmPhAgss0Gddoxfzzz9/ubh+23KhJwQqLhDnrt/+9rdDtjIy9Bx77LF5vfi9ttlmmw25jQoECBAgQIAAgYEEBMwGkhnG8khbE39DlchBf/jhh5fVYsRifXnmmWfyl3PMMUc+8vCII47If3wVIxLr68bIxdNOOy0f8Vi/3HMCvSAQc680UyIlzplnnplXjbvRItjcbIm5Jop5K/bYY48088wzN7upegQqK9DJvhej5zfccMN8Pol43GabbfKgWZwDH3300XT88cenCy64ILeMeQSjHyoEelEgBkhtuummTTX9jDPOyPtPVI7vpjHvUlEWXHDB4mmeqnGwtHBxZ039HWkx2l8hQKCvQNzNGXMiRXr8mCMwAmwHHnhgirk560txh2gsGyoNcdSpT/3473//OxYpBAjUCcR1k/itFv0tUjdOM800ebYev9fqkDwlQIAAAQIEWhYQMGuZrP0Nvve976Vi1G/k0O6fdrGYiH2WWWZJMeFzTLhelI9+9KMpRvoWubwjEBD5vGPy2m984xtFNY8ECPxHIPrL1ltvnfebWLT33nunGWaYoSmft99+O8UF+ihx0cKF+qbYVCKQCzTb9+Jcd/nll+cpd84666x03HHH5X/9GX/5y186z/VH8ZpAA4H4blh/J+ahhx7ap1Z9FoTob7vvvnvqnx682OCkk05KL7zwQvGyT5rHcqEnBHpU4Ic//GE+CPLFF18sBWKepEiv3//3XVSIO9CKMlCfK9bHY30dc3fWy3je6wIxv9+1115bpjgNj8jAE5kKmrl7s9f9tJ8AAQIECBAYXGDwxOmDb2ttiwJx8f2rX/1qGQCLEVBHH330OHsp7jCLEb0RLItUOvvvv3+KQFpM9v7cc8+lBx98sMy1HRNIf+tb3yrnlxhnhxYQ6FGBmCj6s5/9bLr66qtzgcUXXzwPQjfLceSRR+Z9LepHKsapppqq2U3VI9DTAq30vbgIuM8++6Tzzz9/ULM4D8aF/1qtNmg9Kwn0skCkN11uueXSs88+mzNsv/32aeWVV+5DEum+Yy6mKPG9MubmjO+o/cutt96aIh1qfdH/6jU873WBN954I9UHy8Ij7jb73//933TRRReNw1Pfz4aavyw2rq9Tv+04O7aAQI8JRD/rn30n0pb+6Ec/SjHfn0KAAAECBAgQaEdAwKwdvRa2ve222/KLE6ecckq+VdytcsUVV/SZUyJWxFwSxSTtxV1kMUoxUnzUpxaYb775UozE33HHHfP9xQXHPffcM3/u/wgQSHn/iDRUN998c84RE6dHn6tPSzWYU4wC/slPfpJXiUBZ/3koBtvWOgK9LBDnpmb7XlwA3GCDDfLBIXHhMS4OxuTuMQ9FpGGM9MWrrLJKzhmDSeKu6+iLLtr38r8wbW8kEOm+IyVV9JexY8fmVaKvFHO61G8zZsyY/IJ+PEaJ76aRreA3v/lN+sc//pFf6I9sCBFYi8Bb9Mmi1H8XLZZ5JNCrAl/5ylfSn//85zwl3M9+9rM8WB3np0suuSS/w+yEE07oQ1P0uVgYAx6HKvV16oNnQ21nPYGqC8RvtIsvvjidfvrp6YADDkiRhSe+R8b5LObGLX7/Vd1B+wgQIECAAIHxIyBgNn5cy73GRfe4M2XZZZdNMVI3Sozqve666xrOoxR3k00++eTl9pGyceONNy5f938SF0diYtsokYKgmcnb++/DawJVEog5HuIC/Je//OVU3K35ta99LV122WVp+umnb7qpf/rTn8o0VOuvv37Tgbam30BFAhUTGE7f+8UvfpFfbAyKSM14yy235JO7f/3rX88vNkaquOi7MeF7cbEw5jS78MILK6anOQSGL3DTTTelZZZZJh9cFYGzSSedNMXF+1/96ldlv+m/97gLLfpS8R0y5l2K9MVxJ3bMURgXI4uBI3FOLUr0U4UAgQ8EFltssby/rLvuunm2j+uvvz7FeS1KzP8Xd28+9dRTH1TO/j/6ZlHq0zMWy/o/1teJOQwVAgQ+EIg7p1dbbbW0ySab5HO933///eXgjhh0HL/9FAIECBAgQIDAcAUEzIYr18R2N954Y34B46CDDspHEcadLfE80uXEHWIDlfr5lTbaaKOBquXL4061FVdcMX8eP6oeeuihQetbSaDKAqeeempadNFF0znnnJM3c/bZZ09//OMfU8zBUlwUbLb9xd2gUX+zzTZrdjP1CPSkwHD7XtxBVpTYxxJLLFG87PMYd7jE4JOiFBcki9ceCfSiQHzvi5SJMRAr7gyLEndTx8j6SNU9VNlmm23S7bffnuJif/13z9guRutHP4t5PyPFalEEzAoJjwQaC+y8885pyy23zFfGXdT1d3nWD4qMu2GGKvV16rcdajvrCfSawGSTTZbPf7vQQgvlTb/zzjvz+XF7zUF7CRAgQIAAgc4ICJh1xnGcvfz85z/PU9nEPGRR1llnnXT33XenSHETd5ENVuovWhRf+garXx98u/feewerah2BSgrEiPrNN988v0ARowonmmii9O1vfztFf1hvvfVabnPcmRYpdqLMOOOMadVVV215HzYg0AsC7fS96GfFhfg555xzyH5WpCAO17gQohDoZYG4ozOCYwcffHCeXSC+Ox533HF5BoMYONJsmXfeefN0cpHGMfrjlVdemc//8sgjj6S48B+l6KfxXMAsFJReE4g0i3HHWPw1U+oHWkVQuigRiC5KM4Mc6+vEeVIh0GsCRd9rJhV3BM3qf/fV971ec9NeAgQIECBAoD0BAbP2/Bpu/eMf/zjtuuuu+QWMaaedNp122ml5usSPfexjDev3X1gfJKtPxdG/XvG6fhLoaaaZpljskUBPCEQf2XDDDdPvfve7vL0f//jHU6TEOfTQQ1PMPTacEvMGFvNGRErUCMApBAj0FWi37z399NPlDiOt1VBlttlmywPYUS/mVVII9KrA448/ns85dscdd+QEMSgrBmhtv/32A6ZgbMYq7sqONFcLL7xwn/NeZEyIMvHEE6d55pknf+7/CPSSwGGHHZYPeIxBj5deeumQTa8/p9Wfr+r7TzMDP+rrzD333EO+rwoEqiaw9tpr530vzj8xZ/tQZaC+N9R21hMgQIAAAQIE6gUEzOo1OvD87LPPTvvss0++p7jzK0Y2xYTQrZT6kVFxV9pQpb7OAgssMFR16wlUSiDuJIv5xqJEWqmYAynmcmmnnHXWWeXmQ6VFLSt6QqDHBNrte/PPP395Uf6JJ54YUu+VV15Jzz33XF5vkUUWGbK+CgSqKBBz1ca57sEHH8ybF4O0Yg7bVu78evnll/M70+LutOJu6oGs/vWvf6UrrrgiX/2lL30pTT311ANVtZxAZQUiiFyUIv1p8brRY9E/Y139HZ/RT4u7zOIuzhdffLHR5uWy+E5blHa/2xb78UigmwSKvhfnvnvuuWfIjz5Q3xtyQxUIECBAgAABAnUCAmZ1GO0+jVFPcQExSqTNiLQ2c801V8u7XWuttfJRvLHhiSeeWN7p0mhHMbo47qaJEiMPY3SwQqBXBGJE/THHHJM3d/XVV08R6Iq5Atstxaj92M+SSy7Z7u5sT6ByAp3oe5E6J+4IjRLpU+OumcHK+eefn4qUPJ/85CcHq2odgcoKHH/88flgrGjg/vvvn89h1mpj4+7ruGMm5j+Lv8FK3L1dpKHbaqutBqtqHYHKChTnqmjgySefXPaJgRocQeyiROrU+hJ3hEaJ89mBBx5Yv6rP88suuyxdc801+bL4PTnQHJ99NvKCQMUE6vteXBcZrERQ7YILLiir9O975QpPCBAgQIAAAQJDCAiYDQHUyuq4cP/oo4/mm8Qk6cUIwlb2EXUjreKaa66ZbxYjqQ444ICGu4gRwjG/RHEhY7/99mtYz0ICVRWIOQHjx1GUww8/PE0yySRtNzUu2sedLFFiJPD000/f9j7tgEDVBDrV94r5ASMFasz5MlC6nTi3RqrjosSdLgqBXhOIFNz77rtv3uwYIBX9cDhlzJgx6XOf+1y+aWRCOOmkkxru5qqrrirfL86F+l1DJgt7QCDm+isuvkefibszByrnnntuOvLII/PVk046aVpllVX6VK2f3yzmvK7PFFJUjPlBd9lll+Jlfn4sX3hCoIcEYiBxMeVEXGu5+uqrG7Y+AtB77bVXuvnmm/P1kXUnMhkoBAgQIECAAIHhCJiYZzhqA2xT5LSPCxExt0tMvt5MiVQdK664Yp+qJ5xwQr7sgQceSD/60Y/yNHM77bRTWnrppdPrr7+eYj6JH/zgB+n+++/Pt4vRV0b+9iH0ouICESi+/PLL81ZGcDpG4RYjcYdqelykj4sfjUrcOVMUad8KCY8E/ivQyb4X57eLL744n3/p2muvTTGHZ5zbll9++XzQSaTWueSSS/Lz4Kuvvpp/iG222abPpO7//WSeEai2QFyoL+ZDijRVAwW6GinEd8T6O7D33HPPFHdtxvfVHXbYId1www35HGhxbozvlpGGMfrnG2+8keJ7bcwL2olBKY0+m2UERrvABBNMkGf9iN9hEbiO9Ps33XRT+sb/b+9Ofuy46j2AH0+xe/AcOx7iMbaTkOmF91YI2CF2LJBgAQuExOZJrOCvYMUGEBL/AEII8V8gpEeABCce4ime7bbbYzw77/yqfdttd3d1dft2ufr05yh2375Vt6rO56R8763vOaf+93+rKRdjeQRfMQL0j3/84/ho6N/+9rcppuifWL71rW+ln/zkJ9VItegs8p3vfCf96le/St/+9rfT0NBQiikfIxjvTT8X9z3rBeUTt+MxgcUgEJ1D4v0n3qeik2QE0PH+FSM14/rH6OhoNeo6zqG///3vFcng4GD685//XL13LQYjdSRAgAABAgT6L7Ak98b5qv+bXThbvDJ6uzrYjeuHXvigN2/ePH4hYzYbiyAsvlA9X2Ju+2984xvpwoULzy965vf44BhfzjZt2vTM834h0EWBfp1zEWxNvLHzbOr6pz/9Kf3gBz+Y8iUxTVV8EYsSIzh/85vfTLmeJwksNIGunntxUfC73/1uanIfs3i/i3sWxsUQhcBCEejXuRefFX/+85/PqdqXLl2a9Dkxppb76U9/On5xf6oNL1u2rAoKdMqaSsdzXRbo13k3sY4RUsdo514HjonLJj6OAO0Xv/hFdaF/4vO9x3GRP973ogNkXYnvdn/5y1/SN7/5zbrVLCPQKYH5OPfiesnvf//72verQIgphyO4/uEPf9jYJO5B37tn9R/+8If0s5/9rPFrrUigSwLzce5NVb+RK6Pp00PHqkUH9u1OW157darVPEdg0Qi0de4tGtBpKjoyMlItGRxen5bmDp3543bVOWZJGou1opNnGvuvWq/6PS8b+xnTocf602x8iqfz5pV+CMR0Ub1ev/3YXmxjz5491Qia+AC3fPmzgwFXrFiRPvzww2q6xuidLyzrl7rtLBSBmS4yzLUeRpjNVc7rFotAv8+96CEco6l//etfpy1btkzJGCOx//rXv6a4p4uwbEoiTy4CgX6fezHK5aOPPkrf+973JumtWbMmxWjsuDeosGwSjycWqUAEzIcPH04/+tGPUtyH8/kS39e+//3vV6PEYlTMdGX9+vXpb3/7W3Uvwam+w8X73I9//ONq1JqwbDpFzy8mgd/97nfVfdtjVp7nr4uEQwRlv/zlL9Px48dnFZYtJkN1JUCAAAECBJoLGGHWxxFmzdlnv+bVq1fTsWPH0tmzZ9P27dvT+++/n2JefIXAQhPQ+2KhtZjjLUVgoZx70XMo3u/Onz+fdu7cmQ4cOJCGh4dLaQb1WIQCC+HcixEzcd6dOnWqmrI4piSOUTIKgYUqMN/nXUzSEiOjDx06VN1POu6ZtGvXrikv5s9kGJ0uY7R1nIfRiWR3noax1xt2ptdaTqBrAvN97sU9/uL9KjpbReeOOPdi6kaFwGIXmO9zb7H7qj+B6QSce9PJ9Pf5tkeYCcwWSGDW3//NbI3AyxPwZvLy7O15cQs49xZ3+6v9yxNw7r08e3tevALOu8Xb9mr+cgWcey/X394Xr4Bzb/G2vZq/XAHnXjv+bQdmuo620672QoAAAQIECBAgQIAAAQIECBAgQIAAAQIECBAg0FEBgVlHG8ZhESBAgAABAgQIECBAgAABAgQIECBAgAABAgQItCMgMGvH2V4IECBAgAABAgQIECBAgAABAgQIECBAgAABAgQ6KiAw62jDOCwCBAgQIECAAAECBAgQIECAAAECBAgQIECAAIF2BARm7TjbCwECBAgQIECAAAECBAgQIECAAAECBAgQIECAQEcFBGYdbRiHRYAAAQIECBAgQIAAAQIECBAgQIAAAQIECBAg0I6AwKwdZ3shQIAAAQIECBAgQIAAAQIECBAgQIAAAQIECBDoqIDArKMN47AIECBAgAABAgQIECBAgAABAgQIECBAgAABAgTaERCYteNsLwQIECBAgAABAgQIECBAgAABAgQIECBAgAABAh0VEJh1tGEcFgECBAgQIECAAAECBAgQIECAAAECBAgQIECAQDsCArN2nO2FAAECBAgQIECAAAECBAgQIECAAAECBAgQIECgowICs442jMMiQIAAAQIECBAgQIAAAQIECBAgQIAAAQIECBBoR0Bg1o6zvRAgQIAAAQIECBAgQIAAAQIECBAgQIAAAQIECHRUQGDW0YZxWAQIECBAgAABAgQIECBAgAABAgQIECBAgAABAu0ICMzacbYXAgQIECBAgAABAgQIECBAgAABAgQIECBAgACBjgoIzDraMA6LAAECBAgQIECAAAECBAgQIECAAAECBAgQIECgHQGBWTvO9kKAAAECBAgQIECAAAECBAgQIECAAAECBAgQINBRAYFZRxvGYREgQIAAAQIECBAgQIAAAQIECBAgQIAAAQIECLQjIDBrx9leCBAgQIAAAQIECBAgQIAAAQIECBAgQIAAAQIEOiogMOtowzgsAgQIECBAgAABAgQIECBAgAABAgQIECBAgACBdgQEZu042wsBAgQIECBAgAABAgQIECBAgAABAgQIECBAgEBHBQRmHW0Yh0WAAAECBAgQIECAAAECBAgQIECAAAECBAgQINCOgMCsHWd7IUCAAAECBAgQIECAAAECBAgQIECAAAECBAgQ6KiAwKyjDeOwCBAgQIAAAQIECBAgQIAAAQIECBAgQIAAAQIE2hEQmLXjbC8ECBAgQIAAAQIECBAgQIAAAQIECBAgQIAAAQIdFRCYdbRhHBYBAgQIECBAgAABAgQIECBAgAABAgQIECBAgEA7AgKzdpzthQABAgQIECBAgAABAgQIECBAgAABAgQIECBAoKMCArOONozDIkCAAAECBAgQIECAAAECBAgQIECAAAECBAgQaEdAYNaOs70QIECAAAECBAgQIECAAAECBAgQIECAAAECBAh0VEBg1tGGcVgECBAgQIAAAQIECBAgQIAAAQIECBAgQIAAAQLtCAjM2nG2FwIECBAgQIAAAQIECBAgQIAAAQIECBAgQIAAgY4KCMw62jAOiwABAgQIECBAgAABAgQIECBAgAABAgQIECBAoB0BgVk7zvZCgAABAgQIECBAgAABAgQIECBAgAABAgQIECDQUQGBWUcbxmERIECAAAECBAgQIECAAAECBAgQIECAAAECBAi0IyAwa8fZXggQIECAAAECBAgQIECAAAECBAgQIECAAAECBDoqIDDraMM4LAIECBAgQIAAAQIECBAgQIAAAQIECBAgQIAAgXYEBGbtONsLAQIECBAgQIAAAQIECBAgQIAAAQIECBAgQIBARwUEZh1tGIdFgAABAgQIECBAgAABAgQIECBAgAABAgQIECDQjoDArB1neyFAgAABAgQIECBAgAABAgQIECBAgAABAgQIEOiogMCsow3jsAgQIECAAAECBAgQIECAAAECBAgQIECAAAECBNoREJi142wvBAgQIECAAAECBAgQIECAAAECBAgQIECAAAECHRUQmHW0YRwWAQIECBAgQIAAAQIECBAgQIAAAQIECBAgQIBAOwICs3ac7YUAAQIECBAgQIAAAQIECBAgQIAAAQIECBAgQKCjAgKzjjaMwyJAgAABAgQIECBAgAABAgQIECBAgAABAgQIEGhHQGDWjrO9ECBAgAABAgQIECBAgAABAgQIECBAgAABAgQIdFRAYNbRhnFYBAgQIECAAAECBAgQIECAAAECBAgQIECAAAEC7QgIzNpxthcCBAgQIECAAAECBAgQIECAAAECBAgQIECAAIGOCgjMOtowDosAAQIECBAgQIAAAQIECBAgQIAAAQIECBAgQKAdAYFZO872QoAAAQIECBAgQIAAAQIECBAgQIAAAQIECBAg0FEBgVlHG8ZhESBAgAABAgQIECBAgAABAgQIECBAgAABAgQItCMgMGvH2V4IECBAgAABAgQIECBAgAABAgQIECBAgAABAgQ6KiAw62jDOCwCBAgQIECAAAECBAgQIECAAAECBAgQIECAAIF2BARm7TjbCwECBAgQIECAAAECBAgQIECAAAECBAgQIECAQEcFBGYdbRiHRYAAAQIECBAgQIAAAQIECBAgQIAAAQIECBAg0I6AwKwdZ3shQIAAAQIECBAgQIAAAQIECBAgQIAAAQIECBDoqIDArKMN47AIECBAgAABAgQIECBAgAABAgQIECBAgAABAgTaERCYteNsLwQIECBAgAABAgQIECBAgAABAgQIECBAgAABAh0VEJh1tGEcFgECBAgQIECAAAECBAgQIECAAAECBAgQIECAQDsCArN2nO2FAAECBAgQIECAAAECBAgQIECAAAECBAgQIECgowICs442jMMiQIAAAQIECBAgQIAAAQIECBAgQIAAAQIECBBoR0Bg1o6zvRAgQIAAAQIECBAgQIAAAQIECBAgQIAAAQIECHRUQGDW0YZxWAQIECBAgAABAgQIECBAgAABAgQIECBAgAABAu0ICMzacbYXAgQIECBAgAABAgQIECBAgAABAgQIECBAgACBjgoIzDraMA6LAAECBAgQIECAAAECBAgQIECAAAECBAgQIECgHQGBWTvO9kKAAAECBAgQIECAAAECBAgQIECAAAECBAgQINBRAYFZRxvGYREgQIAAAQIECBAgQIAAAQIECBAgQIAAAQIECLQjIDBrx9leCBAgQIAAAQIECBAgQIAAAQIECBAgQIAAAQIEOiogMOtowzgsAgQIECBAgAABAgQIECBAgAABAgQIECBAgACBdgQEZu042wsBAgQIECBAgAABAgQIECBAgAABAgQIECBAgEBHBQRmHW0Yh0WAAAECBAgQIECAAAECBAgQIECAAAECBAgQINCOgMCsHWd7IUCAAAECBAgQIECAAAECBAgQIECAAAECBAgQ6KiAwKyjDeOwCBAgQIAAAQIECBAgQIAAAQIECBAgQIAAAQIE2hEQmLXjbC8ECBAgQIAAAQIECBAgQIAAAQIECBAgQIAAAQIdFRCYdbRhHBYBAgQIECBAgAABAgQIECBAgAABAgQIECBAgEA7AgKzdpzthQABAgQIECBAgAABAgQIECBAgAABAgQIECBAoKMCArOONozDIkCAAAECBAgQIECAAAECBAgQIECAAAECBAgQaEdAYNaOs70QIECAAAECBAgQIECAAAECBAgQIECAAAECBAh0VEBg1tGGcVgECBAgQIAAAQIECBAgQIAAAQIECBAgQIAAAQLtCAjM2nG2FwIECBAgQIAAAQIECBAgQIAAAQIECBAgQIAAgY4KCMw62jAOiwABAgQIECBAgAABAgQIECBAgAABAgQIECBAoB0BgVk7zvZCgAABAgQIECBAgAABAgQIECBAgAABAgQIECDQUQGBWUcbxmERIECAAAECBAgQIECAAAECBAgQIECAAAECBAi0IyAwa8fZXggQIECAAAECBAgQIECAAAECBAgQIECAAAECBDoqIDDraMM4LAIECBAgQIAAAQIECBAgQIAAAQIECBAgQIAAgXYEBGbtONsLAQIECBAgQIAAAQIECBAgQIAAAQIECBAgQIBARwUEZh1tGIdFgAABAgQIECBAgAABAgQIECBAgAABAgQIECDQjoDArB1neyFAgAABAgQIECBAgAABAgQIECBAgAABAgQIEOiogMCsow3jsAgQIECAAAECBAgQIECAAAECBAgQIECAAAECBNoREJi142wvBAgQIECAAAECBAgQIECAAAECBAgQIECAAAECHRUQmHW0YRwWAQIECBAgQIAAAQIECBAgQIAAAQIECBAgQIBAOwICs3ac7YUAAQIECBAgQIAAAQIECBAgQIAAAQIECBAgQKCjAgKzjjaMwyJAgAABAgQIECBAgAABAgQIECBAgAABAgQIEGhHQGDWjrO9ECBAgAABAgQIECBAgAABAgQIECBAgAABAgQIdFRAYNbRhnFYBAgQIECAAAECBAgQIECAAAECBAgQIECAAAEC7QgIzNpxthcCBAgQIECAAAECBAgQIECAAAECBAgQIECAAIGOCgjMOtowDosAAQIECBAgQIAAAQIECBAgQIAAAQIECBAgQKAdAYFZO872QoAAAQIECBAgQIAAAQIECBAgQIAAAQIECBAg0FEBgVlHG8ZhESBAgAABAgQIECBAgAABAgQIECBAgAABAgQItCMgMGvH2V4IECBAgAABAgQIECBAgAABAgQIECBAgAABAgQ6KiAw62jDOCwCBAgQIECAAAECBAgQIECAAAECBAgQIECAAIF2BARm7TjbCwECBAgQIECAAAECBAgQIECAAAECBAgQIECAQEcFBGYdbRiHRYAAAQIECBAgQIAAAQIECBAgQIAAAQIECBAg0I6AwKwdZ3shQIAAAQIECBAgQIAAAQIECBAgQIAAAQIECBDoqIDArKMN47AIECBAgAABAgQIECBAgAABAgQIECBAgAABAgTaERCYteNsLwQIECBAgAABAgQIECBAgAABAgQIECBAgAABAh0VEJh1tGEcFgECBAgQIECAAAECBAgQIECAAAECBAgQIECAQDsCArN2nO2FAAECBAgQIECAAAECBAgQIECAAAECBAgQIECgowICs442jMMiQIAAAQIECBAgQIAAAQIECBAgQIAAAQIECBBoR0Bg1o6zvRAgQIAAAQIECBAgQIAAAQIECBAgQIAAAQIECHRUQGDW0YZxWAQIECBAgAABAgQIECBAgAABAgQIECBAgAABAu0ICMzacbYXAgQIECBAgAABAgQIECBAgAABAgQIECBAgACBjgoIzDraMA6LAAECBAgQIECAAAECBAgQIECAAAECBAgQIECgHQGBWTvO9kKAAAECBAgQIECAAAECBAgQIECAAAECBAgQINBRAYFZRxvGYREgQIAAAQIECBAgQIAAAQIECBAgQIAAAQIECLQjIDBrx9leCBAgQIAAAQIECBAgQIAAAQIECBAgQIAAAQIEOiogMOtowzgsAgQIECBAgAABAgQIECBAgAABAgQIECBAgACBdgQEZu042wsBAgQIECBAgAABAgQIECBAgAABAgQIECBAgEBHBQRmHW0Yh0WAAAECBAgQIECAAAECBAgQIECAAAECBAgQINCOgMCsHWd7IUCAAAECBAgQIECAAAECBAgQIECAAAECBAgQ6KiAwKyjDeOwCBAgQIAAAQIECBAgQIAAAQIECBAgQIAAAQIE2hEQmLXjbC8ECBAgQIAAAQIECBAgQIAAAQIECBAgQIAAAQIdFRCYdbRhHBYBAgQIECBAgAABAgQIECBAgAABAgQIECBAgEA7Aku+yqWdXXVzL1dGb3fzwBwVAQIECBAgQIAAAQIECBAgQIAAAQIECBAg0FmBjeuHOntsJRzYyMhIVY3B4fVp6ZIlaWkeArYk/1ySxmKteJx/if+qUv2el439TCnSr1ilaTHCrKmU9QgQIECAAAECBAgQIECAAAECBAgQIECAAAECBIoUWF5kreZQKUnwHNC8hMAcBHqjOp1zc8DzEgIvIODcewE8LyXwAgLOvRfA81ICcxRw3s0RzssIvKCAc+8FAb2cwBwFnHtzhPMyAi8o0Dv3XnAzXt4xASPMOtYgDocAAQIECBAgQIAAAQIECBAgQIAAAQIECBAgQKBdAYFZu972RoAAAQIECBAgQIAAAQIECBAgQIAAAQIECBAg0DEBgVnHGsThECBAgAABAgQIECBAgAABAgQIECBAgAABAgQItCsgMGvX294IECBAgAABAgQIECBAgAABAgQIECBAgAABAgQ6JiAw61iDOBwCBAgQIECAAAECBAgQIECAAAECBAgQIECAAIF2BQRm7XrbGwECBAgQIECAAAECBAgQIECAAAECBAgQIECAQMcEBGYdaxCHQ4AAAQIECBAgQIAAAQIECBAgQIAAAQIECBAg0K6AwKxdb3sjQIAAAQIECBAgQIAAAQIECBAgQIAAAQIECBDomIDArGMN4nAIECBAgAABAgQIECBAgAABAgQIECBAgAABAgTaFRCYtettbwQIECBAgAABAgQIECBAgAABAgQIECBAgAABAh0TEJh1rEEcDgECBAgQIECAAAECBAgQIECAAAECBAgQIECAQLsCArN2ve2NAAECBAgQIECAAAECBAgQIECAAAECBAgQIECgYwICs441iMMhQIAAAQIECBAgQIAAAQIECBAgQIAAAQIECBBoV0Bg1q63vREgQIAAAQIECBAgQIAAAQIECBAgQIAAAQIECHRMQGDWsQZxOAQIECBAgAABAgQIECBAgAABAgQIECBAgAABAu0KCMza9bY3AgQIECBAgAABAgQIECBAgAABAgQIECBAgACBjgkIzDrWIA6HAAECBAgQIECAAAECBAgQIECAAAECBAgQIECgXQGBWbve9kaAAAECBAgQIECAAAECBAgQIECAAAECBAgQINAxAYFZxxrE4RAgQIAAAQIECBAgQIAAAQIECBAgQIAAAQIECLQrIDBr19veCBAgQIAAAQIECBAgQIAAAQIECBAgQIAAAQIEOiYgMOtYgzgcAgQIECBAgAABAgQIECBAgAABAgQIECBAgACBdgUEZu162xsBAgQIECBAgAABAgQIECBAgAABAgQIECBAgEDHBJZ37HiKOpyHDx+lm7dup1u3v0xffnknLV++PA0OrEqrh4fS8PBgUXVVGQJdELidz7Wb+c/t23fSgwcP06pVr6SBVSvThvXr0ooV/rnrQhs5hsUjcDu/7508dbaq8L43dqWVr6xYPJVXUwLzLBCfL+/ff9BoLwOrVqXBwVWN1rUSAQLNBUZHr6cbN2+nu/fuVy8aGFiZhocG8+fOtc03Yk0CBKYVePT4cbp27ca0y+sWDOTrLnHtRSFA4MUFHudz8crV6+nLO3fSnTv30orly9LA4EB1jq1dM5yWLFny4juxBQIECHRIwBXkeWqMS5evpKPHvkiPHj2acg8bN6xLe3e/nuKDnEKAwIsJRDh99NipdHnk6pQbWrZ0adq2bXPa+fq2tGyZgbVTInmSQB8FHj/+Kh06fDxFaBZlT36/S0lgVmH4i0AfBI5+fqrqkNVkUzu2b3lyDjZZ2zoECMwkEB20Ps3vcXfu3J1y1egcue+NnVUnySlX8CQBAo0E7ucw+uBnnzda9/mVvPc9L+J3AnMTuHBxJJ364ly6d3+sc8jzW4mOIvtz58jVq4eeX+R3AgQILFgBV47noekOHz2RDh05MR6WxQX6NbnXxaqVK8f3duXqtfTRvz+d9ovW+IoeECBQK3D/wYP0j38efCYsi1Fl0dPplScjWqJ34ukzF1KcmwoBAvMvcPLUmfGwbP73Zg8EFpfAV199VfXwXVy1VlsC3RCIkOzjg0fHv8PFDAZrVg9Xs4cszR20osQI0E8OHkn3now868aROwoCBAgQIDA7gdNnL6Qjn58cD8ti1qx4z4uOIb2OyDGj1j8//iyNznE06OyOyNoECBBoR8AIsz47xwiXi5euVFtdtmxZeuvAnmpajt4Q5eht/3keCXP9xq0cqD1Onx46lj784O3U+4LV58OxOQLFC8SUb73eTuvXrUlv7t8zHpRF5UeuXMujz05WUzSOXBlN585fStu2bi7eRQUJvCyBa9dvpjPnLr6s3dsvgeIF7ty9l2IUZ5R4z4v3vrrSu6BRt45lBAjMLBAB2Mc5CHuQO2vFd7voUf/a5o3jU1E9ePiwmvFgZGQ0xewH0VHr/XffnHnD1iBAYEqBlStfmdU5dP7C5aoTZVxb2fTqhim36UkCBJoJXL9xM504eaZaOd7z3tizI23dsmn8PS+uZ546fTadOTv2ve9oDtb++8N3x4O0ZnuxFgECBLopIDDrY7tEj98TT+7XEpt9/50Dk4YlD+V5ft/Lz3/0r09z7+C7VQ/8GG3mA10fG8KmFo1ABNAxRUCU6OX07tf2j3+A6yG8unFd/tC2t+rpG89FaCYw6+n4SaC/AtUFwjzCOkpcxNfTsL++tkYgBGI6uF5Zu3b1M51Ees/7SYBA/wWOnTg9Pmosptbf8tqrz+xkRe55fyCHaHFvs7iQGB1I4p667qP7DJNfCDQWiOBrXX6fa1LiM2d8z4tyYN8u94xvgmYdAjUC0fmjV3bv2j7pGkp0yNq7e0d1T7O4phn38xy9dj29unF972V+EiBAYMEKmJKxj00XX4ru5l6/UeIeZdPN4Rsf/Hbu2Da+51u3nl74GH/SAwIEZhS4du3m+Do7d2ydFJb1FsaF+7iIESWmDFAIEJgfgbiXYIz43Lxpoy9L80NsqwRyYDZ2b8Dl+Ybrq3Lve4UAgfkXeJjvS3119Fq1o+iMtX3ba1PuNKar2rbl6UwGMauIQoDA/ArENZjP8n0FowNznJvxOVQhQODFBG7k6YV7pe6cimufvdL7jNr73U8CBAgsVAEjzPrYchPnqa97Q4ldTgzTbrqA38dWsKnFJHD7y6fh19o19b0P435mMVVOjICJP3GhUSFAoH8Cly5frabBWfnKK2nf3p3P3Fewf3uxJQIEbj157xsaHIRBgEBLAjFypTcV6tYJgdhUu9+1c/t4oBZT9CsECMyfQIzmPPjZ5/n73cNqNFqM/lQIEHhxgRgh3Ssraq6dTLyu8ih3LlEIECBQgoDArI+t2LuPUmxyph6/E99IluURZwoBArMXWLVqZdWDcOnSJbUB2OPHj6spUGMP0fN34oe62e/VKwgQeF4gOozE/TmjHNi/2zn2PJDfCfRRoNd7d3hooI9btSkCBOoELudOIVHie9tMnbTic2l01FIIEJh/gZjdIKbpj1l83jywd9oZR+b/SOyBQFkC8TmzN4NWzNKzZvXwlBXsfS6NhYP5FjQKAQIEShAQmPWxFTeuX5cGB1ZVW5zpjWLim0rc10whQGD2Ajtf39roRXFvwZiiI8rW5+430WgDViJAoFbg8NETKaarihtBxxSoCgEC8yMQI6R7MxoMDQ9WnUHO5putx4jruHdEdCSJz5VxHrqHxPy0ga0uToGbT6amWpPvpxSBWJTokHUzT61/8+btanTL0NBgGs5/BgZWLk4ktSbQskBMeXrp8pVqr9u3bk4rBdUtt4DdlSwQ930fuTI2FfHxfA/PD957a1IgHZ9Jz567WDHE/To3b9pQMom6ESCwiAQEZn1s7OF84SL+zFTiwv2ZcxfGV1uzZuqeGuMreECAwKwF4jyLYDrOtZgqLkpcPNy58+n9A2e9US8gQGCSwJmzF1LcwzMu1MeNnxUCBOZPIHrR98ro6I1qZGdvmrh4/v79B+lGvoB4/sLlKjTb/8au6tzsvcZPAgRmLxCfKSOsjhKziMQUcMdOfJEuXroy3iFr4lbX5cD6rf17jDKbiOIxgXkQiPMwSswesqNhR8p5OAybJFCkwLq1a9KBfbtTjOK8kTuG/N8/D6bX8z0Ch2KGg9wX+cbNW+mLMxeqTpOrVq5M73xtXzXSs0gMlSJAYNEJCMxeQpPHaJfeCLN1uZfihvVrX8JR2CWBMgXiwv2nh47lixmPnrmIsXvX9tR0RFqZMmpFoP8Ct/P0HPGeFuXNPBXjsmWmGO6/si0SeCoQ51yvXB65WvX0jSly1ubOV/G+dyt3FIkLGFFGr91I//rkUPqfD981TWoPzU8CcxC4/+DB+KviwvwnB4+Mn2exIDqMRFgdI86iXMvn3j/yhcV3vrY/T2E1VD3nLwIE+itw4eJIupVHeEbZsX2r97n+8toagUpgS56dJ2bR+ji/7925c7cKz56niZkN3n/3zRQjzBQCBAiUIuBftBZbMnonHvn8ZNUbMXa7PN8Eel/u+asQINA/gbFewE9vUNvbctx7Is65mFpAIUDgxQViVMuhIyeqYHp77m040z1dXnyPtkCAwMQRZnEh/mtv70uvrHj2XknRcSQ+b8Z9J+Ii/vGTp6sewvQIEJibwIP7Tz9XXrgwkh48fJgvzi9P+9/YmTZsWFfd1yw+f8b0jEfzuRfnaawTj7/+X1+bNIXV3I7CqwgQ6AlEB5GTTzpsxf0Ct2/z/a5n4yeBfgpcv3Ezj6g+Pd4hZKptx3teTM+/d/fr7mE2FZDnCBBYkAICs5aaLW6SeeToydzzd6wXVPS+eO+dA+P348BOXgAAJ5BJREFUPGvpMOyGQPECMUXAu2/vzxcnUrqT59S+fv1GujwyWl28+Pz4F1VPxAN5JIxCgMCLCZw8daY6r6LX4Z48glMhQGD+BWIkWXT+WJLvoRSjppcunTyqM2YveC+PbPnHvw7mCxxfpeiFH/d2ifsrKQQIzF7g4aOngVkEYcvyeff1D95+ZrrTJfmDZ4TYH+bn//Xxoeo7X1xEjOlRddaavblXEKgTOJfPq97Izzi/pnovrHu9ZQQIzCwQMxUc/Oxo9Vky1o7R1Fs25xFng6uq5+La5oV8LsZ9rK+OXq/u5/n+uwd83pyZ1hoECCwAAYHZPDdSXKj44vS5dDrf4yV6HkaJL1NvHdj7zJeseT4MmyewaASip/2GDWPTnK7Ptd62ZVPudXg7ffKfw+lRnirnwqWRanncz0whQGBuAtdyEH0m3+A5LhC+me/T4kLF3By9isBsBTZv2pjSpplfNZCD7O1bX6s+f8baMfJFYDazmzUITCWwLIfUE8vrr2+Z9ntcvB9GJ5JPPj1aveTK1WsCs4l4HhPog0DcP7BXNr+6offQTwIE+iQQUwzHTCK9++RGx6u9e3Y8M2J686YN1T3NPjt8PMVItOhQcuTzU1XHkT4dhs0QIEDgpQlM7pb60g6lvB3fvHU7ffTvT/ONMM9XYVl8gYr7KH3w3lvTfskqT0GNCLx8gQip39i7c/xAzuYL/QoBAnMTePjwUTp85GT14h3bt6TV+fxSCBDonsDaPNKsVyZO5dh7zk8CBJoJrMjTL04smzbWX6Bfn+9P3etI4tybKOcxgRcXiPuWfZlHb0aJz6Ax6kUhQKC/Apfy7SwePLl/Z0y7H9dSoqPk8yWmRH37rb35/mVj04PHNdCbN28/v5rfCRAgsOAEnv30v+AOv7sHfPb8pXQ8z/XbG1W2Mc9v/0bukeEDXXfbzJGVLbAp9z6Me7pEuXV77EtW9Yu/CBCYlUBMuXHv/v3qNTfyl6L/POlF//xG7uUpUXvlaO5tuGzZWB+d6J0Y0zgqBAjMr8DE86x3cXF+92jrBMoUWJ6n0u+VuGA4MDDzBfr4zhfnXdxHMO639Pwotd72/CRAYHYCF/NsIb1idFlPwk8C/RW4lb/j9cprm/PsBjUlZvh5deO6agriWC06iuhQWQNmEQECC0Lg6af/BXG4C+MgY0RZ7ya0y5cvS/v27koxXFkhQKB/AtF76Z///qzaYNzHJUZv1pW4WB8XL+7evVdduIjpBZbme8AoBAjMXeBantu+SYlpOnpl546tvYd+EiAwC4GYHiemu4kSI156I1im28S9fKG+V5blz6MKAQJzE4j7BkYv+gi/ojPk4/xn2RQ97Sdu/at8vkaJgG2mc3Xi6zwmQGB6gTj/Lo1cHV8hOkQqBAj0X+D+g6f37hwaHJhxBxPX6Y1Mm/FFViBAgECHBQRmfW6ckSuj42FZXJz/4N0308qVr/R5LzZHgMDEnvNNpruJgKw34mUgn5vCMv8PEZibwMqVK1KMmp6p3M0jzG7nm0FHWbduTVqWpyWOsvy5qa2qJ/1FgMCMAtFR5N+fHK7W27VjW9q1c1vtayaOKpt4IaP2RRYSIDClQLzvnb9wuVoW59bq4emnI45wO94Do8T3wammsaoW+osAgVkJXLue75P05EL+2jXDVZA9qw1YmQCBRgITr7XEzCKr0/TvebHB3ntePB5sELDFegoBAgS6LCAw62PrxJej4yfOVFuMkOyD93JY9oqwrI/ENkVgXCCmtonzKz7AjeZRLhGG1YXTo9euj0+RaoqAcUYPCMxaIOaxjz8zlbiwePTYqWq1fXne+4lfvGZ6reUECEwWiAv0ceE9etiPXB1NMVpzugvxsc75i2MX92NLdRf3J+/JMwQIPC8wMTC7cGEkrd43/cXDCxdHxj9zxn10FQIE+iNwe8K0+kNDg/3ZqK0QIDBJYHj46fk1OnojT7m4ftI6vSfiM2dM2d8rPnP2JPwkQGAhC4x1917INejQsZ/LFwfv3rtXHdGO7VuEZR1qG4dSpsCmJ1OdRlj9+fEvUowim6rENIy9+5fF8g35ZuwKAQIECBBYSAIxrVuvw0dcNOxN/z1VHU6fuZBu3Rob4RkBt/e9qZQ8R6C5wPo8UnrFk3uZRRgdnbWmKnfu3E2nTp+rFkWgHdOGKwQI9EfAyOn+ONoKgZkE1qweHp9OON7zrly9Nu1LTpw6W92zM1YYzkF2TGGsECBAYKELGGHWxxaceC+XmNu+N23HTLuIaXLW5CkFFAIEZiewO09HdSVPg3onB2LxIe6f//60mqJqaHCwuqgRFy3i+TPnLuYwbexeEps3bcz3FKy/ce3sjsLaBAgQIECgHYED+3ZX73WPHj1Op89eSDfyNI3RSSs+Sy7J9+WMIO1sfs/r9fSNC/b739jVzsHZC4GCBeJceuftfenj/xypPlN+cvBI2r7ttfRqnqpxaGigmo7q+vVb6eQXZ6t75QbFls2vpoGBVQWrqBqBdgVu37kzvsPBQefWOIYHBPosEKFXfH48fPREteWDn32eXtu8MW15bex9LV/urKbeP5M/i8ZUqVFi+v233txbPfYXAQIEFrqAwKyPLRj3luiV4ydO9x7O+HPb1s0CsxmVrEBgskD0tn/rwN702eHj1ejOuJfZp4eOTV7xyTPr1q5OB/a5cDgtkAUECBAg0GmBmNr0zf170uEjJ9Kj3BHker5IEX+mKqvy9OAH8rouKk6l4zkCsxeIHvdv54uB8VkzpqCKcDr+TFVez2Hant2vT7XIcwQIzFFg4gizwYGBOW7FywgQaCIQAVncjzo6H0e5eOlK9Weq18btMqJTlyn4p9LxHAECC1FAYNanVoubXPZuQNunTdoMAQINBGJ6qv/5+jsppp86d/5SevDw4aRXxTzau/JoNFNSTaLxBAECBAgsMIG4j8Sa/x5Op744ly5eHpk0HXEEZRvyqJc9u7anuIChECDQP4G4l1mMNPvi9Pl04+atZzYc51tMRxWdITe9Ov39Xp55kV8IEGgkEPerjtHVUWJ61N4UqY1ebCUCBOYksHfPjmpk2Yk8ejruZRadRSaW6MAcwdrundudkxNhPCZAYMELLMn/4D37L96Cr9LsKnBldGxU2Mb1bsg8OzlrE5ibwHyfcxFcf5mnYnyYg7NVq1amgfwnPsgpBBa7wHyfe4vdV/0JTCcwn+defIyPTlsxBXFcrI+p4ZYLyaZrCs8vIoH5PO96jHEBP86/+MwZUy/qWd+T8XMxC7Rx7i1mX3UnMJ3AfJ971WfOu/l97+7dlPI0xfGetzJ30lIILHaB+T73Frtvr/4jIyPVw8Hh9Wlp/jcoLvPGlOlL0lisFY/zL/FfVarf87KxnykH/tU/XU+WzvzDCLOZjaxBgMACEojehmtXuCfgAmoyh0qAAAECcxSILwDRMST+KAQItCsQFwpdLGzX3N4IECBA4OUIVJ85B/JnzvxHIUCAQOkChl2U3sLqR4AAAQIECBAgQIAAAQIECBAgQIAAAQIECBAgUCsgMKvlsZAAAQIECBAgQIAAAQIECBAgQIAAAQIECBAgQKB0AYFZ6S2sfgQIECBAgAABAgQIECBAgAABAgQIECBAgAABArUCArNaHgsJECBAgAABAgQIECBAgAABAgQIECBAgAABAgRKFxCYld7C6keAAAECBAgQIECAAAECBAgQIECAAAECBAgQIFArIDCr5bGQAAECBAgQIECAAAECBAgQIECAAAECBAgQIECgdAGBWektrH4ECBAgQIAAAQIECBAgQIAAAQIECBAgQIAAAQK1AgKzWh4LCRAgQIAAAQIECBAgQIAAAQIECBAgQIAAAQIEShcQmJXewupHgAABAgQIECBAgAABAgQIECBAgAABAgQIECBQKyAwq+WxkAABAgQIECBAgAABAgQIECBAgAABAgQIECBAoHQBgVnpLax+BAgQIECAAAECBAgQIECAAAECBAgQIECAAAECtQICs1oeCwkQIECAAAECBAgQIECAAAECBAgQIECAAAECBEoXEJiV3sLqR4AAAQIECBAgQIAAAQIECBAgQIAAAQIECBAgUCsgMKvlsZAAAQIECBAgQIAAAQIECBAgQIAAAQIECBAgQKB0AYFZ6S2sfgQIECBAgAABAgQIECBAgAABAgQIECBAgAABArUCArNaHgsJECBAgAABAgQIECBAgAABAgQIECBAgAABAgRKFxCYld7C6keAAAECBAgQIECAAAECBAgQIECAAAECBAgQIFArIDCr5bGQAAECBAgQIECAAAECBAgQIECAAAECBAgQIECgdAGBWektrH4ECBAgQIAAAQIECBAgQIAAAQIECBAgQIAAAQK1AgKzWh4LCRAgQIAAAQIECBAgQIAAAQIECBAgQIAAAQIEShcQmJXewupHgAABAgQIECBAgAABAgQIECBAgAABAgQIECBQKyAwq+WxkAABAgQIECBAgAABAgQIECBAgAABAgQIECBAoHQBgVnpLax+BAgQIECAAAECBAgQIECAAAECBAgQIECAAAECtQICs1oeCwkQIECAAAECBAgQIECAAAECBAgQIECAAAECBEoXEJiV3sLqR4AAAQIECBAgQIAAAQIECBAgQIAAAQIECBAgUCsgMKvlsZAAAQIECBAgQIAAAQIECBAgQIAAAQIECBAgQKB0AYFZ6S2sfgQIECBAgAABAgQIECBAgAABAgQIECBAgAABArUCArNaHgsJECBAgAABAgQIECBAgAABAgQIECBAgAABAgRKFxCYld7C6keAAAECBAgQIECAAAECBAgQIECAAAECBAgQIFArIDCr5bGQAAECBAgQIECAAAECBAgQIECAAAECBAgQIECgdAGBWektrH4ECBAgQIAAAQIECBAgQIAAAQIECBAgQIAAAQK1AgKzWh4LCRAgQIAAAQIECBAgQIAAAQIECBAgQIAAAQIEShcQmJXewupHgAABAgQIECBAgAABAgQIECBAgAABAgQIECBQKyAwq+WxkAABAgQIECBAgAABAgQIECBAgAABAgQIECBAoHQBgVnpLax+BAgQIECAAAECBAgQIECAAAECBAgQIECAAAECtQICs1oeCwkQIECAAAECBAgQIECAAAECBAgQIECAAAECBEoXEJiV3sLqR4AAAQIECBAgQIAAAQIECBAgQIAAAQIECBAgUCsgMKvlsZAAAQIECBAgQIAAAQIECBAgQIAAAQIECBAgQKB0AYFZ6S2sfgQIECBAgAABAgQIECBAgAABAgQIECBAgAABArUCArNaHgsJECBAgAABAgQIECBAgAABAgQIECBAgAABAgRKFxCYld7C6keAAAECBAgQIECAAAECBAgQIECAAAECBAgQIFArIDCr5bGQAAECBAgQIECAAAECBAgQIECAAAECBAgQIECgdAGBWektrH4ECBAgQIAAAQIECBAgQIAAAQIECBAgQIAAAQK1AgKzWh4LCRAgQIAAAQIECBAgQIAAAQIECBAgQIAAAQIEShcQmJXewupHgAABAgQIECBAgAABAgQIECBAgAABAgQIECBQKyAwq+WxkAABAgQIECBAgAABAgQIECBAgAABAgQIECBAoHQBgVnpLax+BAgQIECAAAECBAgQIECAAAECBAgQIECAAAECtQICs1oeCwkQIECAAAECBAgQIECAAAECBAgQIECAAAECBEoXEJiV3sLqR4AAAQIECBAgQIAAAQIECBAgQIAAAQIECBAgUCsgMKvlsZAAAQIECBAgQIAAAQIECBAgQIAAAQIECBAgQKB0AYFZ6S2sfgQIECBAgAABAgQIECBAgAABAgQIECBAgAABArUCArNaHgsJECBAgAABAgQIECBAgAABAgQIECBAgAABAgRKFxCYld7C6keAAAECBAgQIECAAAECBAgQIECAAAECBAgQIFArIDCr5bGQAAECBAgQIECAAAECBAgQIECAAAECBAgQIECgdAGBWektrH4ECBAgQIAAAQIECBAgQIAAAQIECBAgQIAAAQK1AgKzWh4LCRAgQIAAAQIECBAgQIAAAQIECBAgQIAAAQIEShcQmJXewupHgAABAgQIECBAgAABAgQIECBAgAABAgQIECBQKyAwq+WxkAABAgQIECBAgAABAgQIECBAgAABAgQIECBAoHQBgVnpLax+BAgQIECAAAECBAgQIECAAAECBAgQIECAAAECtQICs1oeCwkQIECAAAECBAgQIECAAAECBAgQIECAAAECBEoXEJiV3sLqR4AAAQIECBAgQIAAAQIECBAgQIAAAQIECBAgUCsgMKvlsZAAAQIECBAgQIAAAQIECBAgQIAAAQIECBAgQKB0AYFZ6S2sfgQIECBAgAABAgQIECBAgAABAgQIECBAgAABArUCArNaHgsJECBAgAABAgQIECBAgAABAgQIECBAgAABAgRKFxCYld7C6keAAAECBAgQIECAAAECBAgQIECAAAECBAgQIFArIDCr5bGQAAECBAgQIECAAAECBAgQIECAAAECBAgQIECgdAGBWektrH4ECBAgQIAAAQIECBAgQIAAAQIECBAgQIAAAQK1AgKzWh4LCRAgQIAAAQIECBAgQIAAAQIECBAgQIAAAQIEShcQmJXewupHgAABAgQIECBAgAABAgQIECBAgAABAgQIECBQKyAwq+WxkAABAgQIECBAgAABAgQIECBAgAABAgQIECBAoHQBgVnpLax+BAgQIECAAAECBAgQIECAAAECBAgQIECAAAECtQICs1oeCwkQIECAAAECBAgQIECAAAECBAgQIECAAAECBEoXEJiV3sLqR4AAAQIECBAgQIAAAQIECBAgQIAAAQIECBAgUCsgMKvlsZAAAQIECBAgQIAAAQIECBAgQIAAAQIECBAgQKB0AYFZ6S2sfgQIECBAgAABAgQIECBAgAABAgQIECBAgAABArUCArNaHgsJECBAgAABAgQIECBAgAABAgQIECBAgAABAgRKFxCYld7C6keAAAECBAgQIECAAAECBAgQIECAAAECBAgQIFArIDCr5bGQAAECBAgQIECAAAECBAgQIECAAAECBAgQIECgdAGBWektrH4ECBAgQIAAAQIECBAgQIAAAQIECBAgQIAAAQK1AgKzWh4LCRAgQIAAAQIECBAgQIAAAQIECBAgQIAAAQIEShcQmJXewupHgAABAgQIECBAgAABAgQIECBAgAABAgQIECBQKyAwq+WxkAABAgQIECBAgAABAgQIECBAgAABAgQIECBAoHQBgVnpLax+BAgQIECAAAECBAgQIECAAAECBAgQIECAAAECtQICs1oeCwkQIECAAAECBAgQIECAAAECBAgQIECAAAECBEoXEJiV3sLqR4AAAQIECBAgQIAAAQIECBAgQIAAAQIECBAgUCsgMKvlsZAAAQIECBAgQIAAAQIECBAgQIAAAQIECBAgQKB0AYFZ6S2sfgQIECBAgAABAgQIECBAgAABAgQIECBAgAABArUCArNaHgsJECBAgAABAgQIECBAgAABAgQIECBAgAABAgRKFxCYld7C6keAAAECBAgQIECAAAECBAgQIECAAAECBAgQIFArIDCr5bGQAAECBAgQIECAAAECBAgQIECAAAECBAgQIECgdAGBWektrH4ECBAgQIAAAQIECBAgQIAAAQIECBAgQIAAAQK1AgKzWh4LCRAgQIAAAQIECBAgQIAAAQIECBAgQIAAAQIEShcQmJXewupHgAABAgQIECBAgAABAgQIECBAgAABAgQIECBQKyAwq+WxkAABAgQIECBAgAABAgQIECBAgAABAgQIECBAoHQBgVnpLax+BAgQIECAAAECBAgQIECAAAECBAgQIECAAAECtQICs1oeCwkQIECAAAECBAgQIECAAAECBAgQIECAAAECBEoXEJiV3sLqR4AAAQIECBAgQIAAAQIECBAgQIAAAQIECBAgUCsgMKvlsZAAAQIECBAgQIAAAQIECBAgQIAAAQIECBAgQKB0AYFZ6S2sfgQIECBAgAABAgQIECBAgAABAgQIECBAgAABArUCArNaHgsJECBAgAABAgQIECBAgAABAgQIECBAgAABAgRKFxCYld7C6keAAAECBAgQIECAAAECBAgQIECAAAECBAgQIFArIDCr5bGQAAECBAgQIECAAAECBAgQIECAAAECBAgQIECgdAGBWektrH4ECBAgQIAAAQIECBAgQIAAAQIECBAgQIAAAQK1AgKzWh4LCRAgQIAAAQIECBAgQIAAAQIECBAgQIAAAQIEShcQmJXewupHgAABAgQIECBAgAABAgQIECBAgAABAgQIECBQKyAwq+WxkAABAgQIECBAgAABAgQIECBAgAABAgQIECBAoHQBgVnpLax+BAgQIECAAAECBAgQIECAAAECBAgQIECAAAECtQICs1oeCwkQIECAAAECBAgQIECAAAECBAgQIECAAAECBEoXEJiV3sLqR4AAAQIECBAgQIAAAQIECBAgQIAAAQIECBAgUCsgMKvlsZAAAQIECBAgQIAAAQIECBAgQIAAAQIECBAgQKB0AYFZ6S2sfgQIECBAgAABAgQIECBAgAABAgQIECBAgAABArUCArNaHgsJECBAgAABAgQIECBAgAABAgQIECBAgAABAgRKFxCYld7C6keAAAECBAgQIECAAAECBAgQIECAAAECBAgQIFArIDCr5bGQAAECBAgQIECAAAECBAgQIECAAAECBAgQIECgdAGBWektrH4ECBAgQIAAAQIECBAgQIAAAQIECBAgQIAAAQK1AgKzWh4LCRAgQIAAAQIECBAgQIAAAQIECBAgQIAAAQIEShcQmJXewupHgAABAgQIECBAgAABAgQIECBAgAABAgQIECBQKyAwq+WxkAABAgQIECBAgAABAgQIECBAgAABAgQIECBAoHQBgVnpLax+BAgQIECAAAECBAgQIECAAAECBAgQIECAAAECtQICs1oeCwkQIECAAAECBAgQIECAAAECBAgQIECAAAECBEoXEJiV3sLqR4AAAQIECBAgQIAAAQIECBAgQIAAAQIECBAgUCsgMKvlsZAAAQIECBAgQIAAAQIECBAgQIAAAQIECBAgQKB0gSVf5VJ6Jevqd2X0dt1iywgQIECAAAECBAgQIECAAAECBAgQIECAAAECkwQ2rh+a9Jwn+icwMjJSbWxweH1aumRJWpqHgC3JP5eksVgrHudf4r+qVL/nZWM/U4r0K1ZpWowwayplPQIECBAgQIAAAQIECBAgQIAAAQIECBAgQIAAgSIFlhdZq1lUSgI8CyyrEiBAgAABAgQIECBAgAABAgQIECBAgAABAgQKFDDCrMBGVSUCBAgQIECAAAECBAgQIECAAAECBAgQIECAAIHmAgKz5lbWJECAAAECBAgQIECAAAECBAgQIECAAAECBAgQKFBAYFZgo6oSAQIECBAgQIAAAQIECBAgQIAAAQIECBAgQIBAcwGBWXMraxIgQIAAAQIECBAgQIAAAQIECBAgQIAAAQIECBQoIDArsFFViQABAgQIECBAgAABAgQIECBAgAABAgQIECBAoLmAwKy5lTUJECBAgAABAgQIECBAgAABAgQIECBAgAABAgQKFBCYFdioqkSAAAECBAgQIECAAAECBAgQIECAAAECBAgQINBcQGDW3MqaBAgQIECAAAECBAgQIECAAAECBAgQIECAAAECBQoIzApsVFUiQIAAAQIECBAgQIAAAQIECBAgQIAAAQIECBBoLiAwa25lTQIECBAgQIAAAQIECBAgQIAAAQIECBAgQIAAgQIFBGYFNqoqESBAgAABAgQIECBAgAABAgQIECBAgAABAgQINBcQmDW3siYBAgQIECBAgAABAgQIECBAgAABAgQIECBAgECBAgKzAhtVlQgQIECAAAECBAgQIECAAAECBAgQIECAAAECBJoLCMyaW1mTAAECBAgQIECAAAECBAgQIECAAAECBAgQIECgQAGBWYGNqkoECBAgQIAAAQIECBAgQIAAAQIECBAgQIAAAQLNBQRmza2sSYAAAQIECBAgQIAAAQIECBAgQIAAAQIECBAgUKCAwKzARlUlAgQIECBAgAABAgQIECBAgAABAgQIECBAgACB5gICs+ZW1iRAgAABAgQIECBAgAABAgQIECBAgAABAgQIEChQQGBWYKOqEgECBAgQIECAAAECBAgQIECAAAECBAgQIECAQHMBgVlzK2sSIECAAAECBAgQIECAAAECBAgQIECAAAECBAgUKCAwK7BRVYkAAQIECBAgQIAAAQIECBAgQIAAAQIECBAgQKC5gMCsuZU1CRAgQIAAAQIECBAgQIAAAQIECBAgQIAAAQIEChQQmBXYqKpEgAABAgQIECBAgAABAgQIECBAgAABAgQIECDQXEBg1tzKmgQIECBAgAABAgQIECBAgAABAgQIECBAgAABAgUKCMwKbFRVIkCAAAECBAgQIECAAAECBAgQIECAAAECBAgQaC4gMGtuZU0CBAgQIECAAAECBAgQIECAAAECBAgQIECAAIECBQRmBTaqKhEgQIAAAQIECBAgQIAAAQIECBAgQIAAAQIECDQXEJg1t7ImAQIECBAgQIAAAQIECBAgQIAAAQIECBAgQIBAgQICswIbVZUIECBAgAABAgQIECBAgAABAgQIECBAgAABAgSaCwjMmltZkwABAgQIECBAgAABAgQIECBAgAABAgQIECBAoEABgVmBjapKBAgQIECAAAECBAgQIECAAAECBAgQIECAAAECzQUEZs2trEmAAAECBAgQIECAAAECBAgQIECAAAECBAgQIFCggMCswEZVJQIECBAgQIAAAQIECBAgQIAAAQIECBAgQIAAgeYCArPmVtYkQIAAAQIECBAgQIAAAQIECBAgQIAAAQIECBAoUEBgVmCjqhIBAgQIECBAgAABAgQIECBAgAABAgQIECBAgEBzAYFZcytrEiBAgAABAgQIECBAgAABAgQIECBAgAABAgQIFCggMCuwUVWJAAECBAgQIECAAAECBAgQIECAAAECBAgQIECguYDArLmVNQkQIECAAAECBAgQIECAAAECBAgQIECAAAECBAoUEJgV2KiqRIAAAQIECBAgQIAAAQIECBAgQIAAAQIECBAg0FxAYNbcypoECBAgQIAAAQIECBAgQIAAAQIECBAgQIAAAQIFCgjMCmxUVSJAgAABAgQIECBAgAABAgQIECBAgAABAgQIEGguIDBrbmVNAgQIECBAgAABAgQIECBAgAABAgQIECBAgACBAgUEZgU2qioRIECAAAECBAgQIECAAAECBAgQIECAAAECBAg0FxCYNbeyJgECBAgQIECAAAECBAgQIECAAAECBAgQIECAQIECArMCG1WVCBAgQIAAAQIECBAgQIAAAQIECBAgQIAAAQIEmgsIzJpbWZMAAQIECBAgQIAAAQIECBAgQIAAAQIECBAgQKBAAYFZgY2qSgQIECBAgAABAgQIECBAgAABAgQIECBAgAABAs0FBGbNraxJgAABAgQIECBAgAABAgQIECBAgAABAgQIECBQoIDArMBGVSUCBAgQIECAAAECBAgQIECAAAECBAgQIECAAIHmAgKz5lbWJECAAAECBAgQIECAAAECBAgQIECAAAECBAgQKFBAYFZgo6oSAQIECBAgQIAAAQIECBAgQIAAAQIECBAgQIBAcwGBWXMraxIgQIAAAQIECBAgQIAAAQIECBAgQIAAAQIECBQoIDArsFFViQABAgQIECBAgAABAgQIECBAgAABAgQIECBAoLmAwKy5lTUJECBAgAABAgQIECBAgAABAgQIECBAgAABAgQKFBCYFdioqkSAAAECBAgQIECAAAECBAgQIECAAAECBAgQINBcQGDW3MqaBAgQIECAAAECBAgQIECAAAECBAgQIECAAAECBQoIzApsVFUiQIAAAQIECBAgQIAAAQIECBAgQIAAAQIECBBoLiAwa25lTQIECBAgQIAAAQIECBAgQIAAAQIECBAgQIAAgQIFBGYFNqoqESBAgAABAgQIECBAgAABAgQIECBAgAABAgQINBcQmDW3siYBAgQIECBAgAABAgQIECBAgAABAgQIECBAgECBAgKzAhtVlQgQIECAAAECBAgQIECAAAECBAgQIECAAAECBJoLCMyaW1mTAAECBAgQIECAAAECBAgQIECAAAECBAgQIECgQAGBWYGNqkoECBAgQIAAAQIECBAgQIAAAQIECBAgQIAAAQLNBQRmza2sSYAAAQIECBAgQIAAAQIECBAgQIAAAQIECBAgUKCAwKzARlUlAgQIECBAgAABAgQIECBAgAABAgQIECBAgACB5gICs+ZW1iRAgAABAgQIECBAgAABAgQIECBAgAABAgQIEChQQGBWYKOqEgECBAgQIECAAAECBAgQIECAAAECBAgQIECAQHMBgVlzK2sSIECAAAECBAgQIECAAAECBAgQIECAAAECBAgUKCAwK7BRVYkAAQIECBAgQIAAAQIECBAgQIAAAQIECBAgQKC5gMCsuZU1CRAgQIAAAQIECBAgQIAAAQIECBAgQIAAAQIEChQQmBXYqKpEgAABAgQIECBAgAABAgQIECBAgAABAgQIECDQXEBg1tzKmgQIECBAgAABAgQIECBAgAABAgQIECBAgAABAgUKCMwKbFRVIkCAAAECBAgQIECAAAECBAgQIECAAAECBAgQaC4gMGtuZU0CBAgQIECAAAECBAgQIECAAAECBAgQIECAAIECBQRmBTaqKhEgQIAAAQIECBAgQIAAAQIECBAgQIAAAQIECDQXEJg1t7ImAQIECBAgQIAAAQIECBAgQIAAAQIECBAgQIBAgQICswIbVZUIECBAgAABAgQIECBAgAABAgQIECBAgAABAgSaCwjMmltZkwABAgQIECBAgAABAgQIECBAgAABAgQIECBAoEABgVmBjapKBAgQIECAAAECBAgQIECAAAECBAgQIECAAAECzQUEZs2trEmAAAECBAgQIECAAAECBAgQIECAAAECBAgQIFCggMCswEZVJQIECBAgQIAAAQIECBAgQIAAAQIECBAgQIAAgeYCArPmVtYkQIAAAQIECBAgQIAAAQIECBAgQIAAAQIECBAoUEBgVmCjqhIBAgQIECBAgAABAgQIECBAgAABAgQIECBAgEBzAYFZcytrEiBAgAABAgQIECBAgAABAgQIECBAgAABAgQIFCggMCuwUVWJAAECBAgQIECAAAECBAgQIECAAAECBAgQIECguYDArLmVNQkQIECAAAECBAgQIECAAAECBAgQIECAAAECBAoUEJgV2KiqRIAAAQIECBAgQIAAAQIECBAgQIAAAQIECBAg0FxAYNbcypoECBAgQIAAAQIECBAgQIAAAQIECBAgQIAAAQIFCgjMCmxUVSJAgAABAgQIECBAgAABAgQIECBAgAABAgQIEGgu8P9/jmmHm/IFDgAAAABJRU5ErkJggg==;" parent="1" vertex="1">
                    <mxGeometry x="460" y="690" width="1766.01" height="1358" as="geometry"/>
                </mxCell>
                <mxCell id="5" value="&lt;font style=&quot;font-size: 22px&quot;&gt;新增todolist&lt;/font&gt;" style="rounded=0;whiteSpace=wrap;html=1;fillColor=#0050ef;fontColor=#ffffff;strokeColor=#001DBC;" parent="1" vertex="1">
                    <mxGeometry x="510" y="560" width="170" height="70" as="geometry"/>
                </mxCell>
                <mxCell id="6" value="完成作业" style="rounded=0;whiteSpace=wrap;html=1;fontSize=22;fillColor=#60a917;fontColor=#ffffff;strokeColor=#2D7600;" parent="1" vertex="1">
                    <mxGeometry x="820" y="960" width="120" height="40" as="geometry"/>
                </mxCell>
                <mxCell id="15" value="" style="edgeStyle=none;html=1;fontSize=22;" parent="1" source="7" target="6" edge="1">
                    <mxGeometry relative="1" as="geometry"/>
                </mxCell>
                <mxCell id="7" value="打王者荣耀" style="rounded=0;whiteSpace=wrap;html=1;fontSize=22;fillColor=#a20025;fontColor=#ffffff;strokeColor=#6F0000;" parent="1" vertex="1">
                    <mxGeometry x="820" y="1010" width="120" height="60" as="geometry"/>
                </mxCell>
                <mxCell id="8" value="" style="shape=image;verticalLabelPosition=bottom;labelBackgroundColor=#ffffff;verticalAlign=top;aspect=fixed;imageAspect=0;image=data:image/png,iVBORw0KGgoAAAANSUhEUgAAAggAAAHRCAYAAAAPJUEZAAAAAXNSR0IArs4c6QAAIABJREFUeF7snQd4VceZ/l916ar3igQS3WCKAQOmu2Fwi2viOM2Ok3hT/0nWm2zKbja9OWXjdXriuJe4V4orHdN7kVDvvXf9n/cTV5ZAoAtIiu7VO3mIQTpnzsxv5sz3zjffzPFqbGrtgpIIiIAIiIAIiIAI9CLgVVtbK4GgLiECIiACIiACItCHgFdXV5cEgjqFCIiACIiACIiABIL6gAiIgAiIgAiIwNkJyIOgHiICIiACIiACInAaAQkEdQoREAEREAEREAEJBPUBERABERABERCBgQnIgzAwI10hAiIgAiIgAqOOgATCqGtyVVgEREAEREAEBiYggTAwI10hAiIgAiIgAqOOgATCqGtyVVgEREAEREAEBiYggTAwI10hAiIgAiIgAqOOgATCqGtyVVgEREAEREAEBiYggTAwI10hAiIgAiIgAqOOgATCqGtyVVgEREAEREAEBiYggTAwI10hAiIgAiIgAqOOgATCqGtyVVgEREAEREAEBiYggTAwI10hAiIgAiIgAqOOgATCqGtyVVgEREAEREAEBiYggTAwI10hAiIgAiIgAqOOgATCySbv6uoadY2vCouACLg3AS8vL/eugEo/ogmMeoFAYVDf2IzGxmZ0dkokjOjeqsKJgAj0EPD29oLDEYgQRyAkFNQxhoLAqBcI9Q1NaGhsQmREKPz9/IaCsfIUAREQgUEn0NrWhqrqOgQ7ghASHDTo+StDERj1AqGktApRkaHw8/NVbxABERABtyLQ1taOiqo6JMRFulW5VVj3IDDqBUJhcQWSEqLdo7VUShEQARE4hYDGMHWJoSIggSCBMFR9S/mKgAgMAwEJhGGAPEofIYEggTBKu76qLQKeQUACwTPacSTWQgJBAmEk9kuVSQREwEUCEggugtJl50xAAkEC4Zw7jW4QAREYOQQkEEZOW3haSSQQJBA8rU+rPiIwqghIIIyq5h7WykogSCAMa4fTw0RABAaXgATC4PJUbh8QcFkgtLe3w9vb2/70l+rr69HR2YnwsLAz8u3s7MThw0cwdeqUM17T0tqKE1knMGnSxAFPB2tra4Ovry9qamrR1NyExISEc25bvVznjEw3iIAIjCACGsNGUGN4WFFcFgg7du7C5i1b8fE770B1TQ1OnMhGfX0D6urqkZmVhcrKKqxYtgSrV1+Duro67N69F41NTYYrONiBmTMuRmBgIL7279/Ab371i34x8tjjfzzyKNrbO3Dtqmt6rvHz80NUVKT9fPv7O5CTk4usrCwEBgXi7rs+iQ0bNiEkJARLlyw65+bRy3XOyHSDCIjACCKgMWwENYaHFcVlgcB67923D5u3bMNVV16OzMwTCAjwx9tvv4vLL1+OOZfMhr+/v+GhcDhw4CCampvt3w5HENLTx6GjvQPf+/6P8P3vfcd+HhoaavfQs1BWXo4NGzejIL/ArmeiYDiRnYNxY9Nwz6fvsn9v2LQZlZWVqK+tx+2332L3/uzn9yMlJRkRERH2746ODtx6y00uNZVeLpcw6SIREIERSkBj2AhtGA8olksCgYY5L78AIcHBCAoKApcTWltbrfqPP/EUFsy/FGPHptm/I6Mi4Qg6/Vxwehn27TuAV197A6tXrTQjv3DhAkyaOAG79+zF/v0HEBAQgLS0VPM20GtwPDMLa9euxw3XX4vk5CRwSSEr6wRyc/Psd9esvArHMrNQWFCA6dOmmYCoqa3Brl178LWvftml5tHL5RImXSQCIjBCCWgMG6EN4wHFclkgHDx0GBs3bcG1q67G4SNHUVFRZdXfuXOXiYOoqCj799y5l6CjvR2HDh/pwcO4hbTUMQgLC8f9v/4tvvWf9+G9DZvsZ7NnzTSDz2u4FLF9+w6UlJYhJTkJefn5uGzhAmRkpFtezc3N2LbtfbAsXMZYsXypeRiuvOJyZGfnmICg96Cmtta8HK4kvVyuUNI1IiACI5WAxrCR2jLuXy6XBAKrSdf9sWOZyM7JweUrltlsnen3f/gzVixfhokTx9u/fXx8UFpaBsYs0PDPnXMJvH18kJSUCF8fH/zugQfx3//1baxZsw6xsbGYNWtGD0Xmeex4Jp5++lkkJibg+utWIyam73cSKADu/9VvzcPwiY9/FMHBwSguLjEPBwVEWtoYjBs71srhStLL5QolXSMCIjBSCWgMG6kt4/7lclkgsKpt7e0oKixCZGSEGfLOjk6sf+ttXDR1CuLiYhEVGYXx47tn+5s2bUFnVyeSk5LAnQmTJ03E0aPHsHb9W/j8vZ/BG2vWIT4uDtOnX4TMzCzk5Obi/R27UFFRYd6IiRPGw+vkjgl6BlZedSUiIsJx/HgmXnz5VbS0NGPO7NmIjYvF1m3bMe2ii9DS0mK7JG688XokJbq2o0Evl/t3YtVABEYzAY1ho7n1h7bu5yQQ9uzda0GKV1y+AuvffNuCBzmTZyoqKrIth7fdejNaWlrxxpq1mDplsu0ueOW113HHh2/DO+9ugL+/H5YvW4o1a9chIT7BPA8vvPiyiYVNW7bi+mtXwRHs6FPrfz7zPD72sTsQFBSIJ5/6Jy65ZJYJhUsumY133nnPvBDNzS0WFxEeHoZjx47j9ttucYmcXi6XMOkiERCBEUpAY9gIbRgPKJbLAoHnIDz4+z9h1aqVtrzAmfoVly+3rYtMBw8exrHjxy2gsLCoCGvWrEdqagpKy8px7OgxrFix3AIRb7rpBkRHRWHN2vUWeDh92kUWN8D0hz/+BR+78yO2u6F3+vVvHsDtt91scQqlZWUWBLlr9x4sumwhnnjqaXz2nruxc9ceEwgL5s/DT3/2S9z3718zQTFQ0ss1ECH9XgREYCQT0Bg2klvHvcvmskA4cvQY3nrrbXz2M59GZtYJbNy0GRdNnQr/kx6E3Lw8iwG45eYPYeeu3XjlldfsQKSZM2fYNa+9sRYR4eG4+aYbLJjw1dfXYOqUSZg8aZIRpEhgPAMDHp2iw4mWyxWfvvuTSEiItx9xJwMFwuLFl6G8vMI8FZs2bzWBsHzZErzy6uuYN28uYk+JX+ivqfRyuXcHVulFYLQT0Bg22nvA0NXfZYHw7nsbbUbOoEMGKjKGgO58ZzAgTzOMiY7GjTdcd1ppa2vrsP7NtzB79kyUl5XbtkYuTVx77SpERUba9QyCfPiRxxAdHW3LEL3TgQOH8NE7bkdcXJz9mAcl7T9w0LZLMnG5IzMzE5fOm4cZM6afEy29XOeESxeLgAiMMAIaw0ZYg3hQcVwWCJzhe3l5mZufByA1NTbawUTOo5ebmprQ1NRsJx6emmj8ObvnoUgMJOQ5CmFhYXbuQe9UWlpqAuHUHQglJSUWuOiMd2AeDQ2NPc+iF6Gjs8MEiqu7F5zP1cvlQb1ZVRGBUUhAY9gobPRhqrLLAmGYyjPsj9HLNezI9UAREIFBJKAxbBBhKqs+BCQQ9DVHvRIiIAJuTEACwY0bb4QXXQJBAmGEd1EVTwRE4GwEJBDUP4aKgASCBMJQ9S3lKwIiMAwEJBCGAfIofYQEggTCKO36qrYIeAYBCQTPaMeRWAsJBAmEkdgvVSYREAEXCUgguAhKl50zAQkECYRz7jS6QQREYOQQkEAYOW3haSUZ9QKhpKwKEWHBCAjw97S2VX1EQAQ8nAC/e1Nd24D42NPPn/Hwqqt6w0Bg1AuExqYWVNfWIzoi1E5w5GFQSiIgAiIwkgnwezitrW2oqK5FRFgoHEF9D50byWVX2dyHwKgXCF2AfQmyuqYe7W2d6AJ/oiQCIiACI5eAF7zg6+eNiPAQBAYGQNOakdtW7lyyUS8Q3LnxVHYREAEREAERGCoCEghDRVb5ioAIiIAIiIAbE5BAcOPGU9FFQAREQAREYKgISCAMFVnlKwIiIAIiIAJuTEACwY0bT0UXAREQAREQgaEiIIEwVGSVrwiIgAiIgAi4MQEJBDduPBVdBERABERABIaKgATCUJFVviIgAiIgAiLgxgQkENy48VR0ERABERABERgqAhIIQ0VW+YqACIiACIiAGxOQQHDjxlPRRUAEREAERGCoCEggDBVZ5SsCIiACIiACbkxAAsGNG09FFwEREAEREIGhIiCBMFRkla8IiIAIiIAIuDEBCQQ3bjwVXQREQAREQASGioAEwlCRVb4iIAIiIAIi4MYEJBDcuPFUdBEQAREQAREYKgISCAA6u7rQ2tqGzs6uoeKsfEVABERgUAl4e3vB398P3l5eg5qvMhMBJ4FRLxA6OztRWV0PL3TBx8dHPUMEREAE3IJAR0cHOKWJigiFt7e3W5RZhXQvAqNeIFTX1oMvWkR4KHz0krlX71VpRWAUE+jo7ER1TZ1NbCLCQkYxCVV9qAiMeoFQVFKJ+NgIKfCh6mHKVwREYMgI0ANaUlqNxISoIXuGMh69BEa9QCgsrkBSQvTo7QGquQiIgFsT0Bjm1s03ogsvgSCBMKI7qAonAiJwdgISCOohQ0VAAkECYaj6lvIVAREYBgISCMMAeZQ+QgJBAmGUdn1VWwQ8g4AEgme040ishQSCBMJI7JcqkwiIgIsEJBBcBKXLzpmABIIEwjl3Gt0gAiIwcghIIIyctvC0kkggSCB4Wp9WfURgVBGQQBhVzT2slXVZILS2ttqBHP2dNtjV1YXqmhq0t7cjNibmjBXgnt0tW7dh4YL5F1TJnTt3Y9q0qfD39+/Jp66uHhWVFYiLjUVAQIDLpyKe78vFOrM+vXmw/o1NzQgJDgaPQXUmHmjS+xCm5uYW+Pn7obGxCb6+vggKDOjDo7GxGZ1dnQgJdpyVk5Whq+uMBzzxAKiWljYEBvqf9ZyHmpo6hIQEw8fn/E9jq6quQWhICHx9+55GWVtXj8CAAPj6+epI2Avq9bpZBPoncL5jmHiKwEAEXBYIhw4fwcZNW7DosvkI8A/AseOZaGlpRklJGerq60FjNW/uJVh02ULU1tZhx86dZgCZaDBnz56FoKBAfOWr9+F3v72/T7neevtdbN6yBSHBp58GRkPp5+eHeXPnYO6cS+y+H/zop/i3ez9jRq+jvd1+VlBYBJaR/6ZIWLp0sd03UDrfl6umth7FJRVITooFDXpzSwva2tpR39CE8DAKBG8EO4IQHRWBgsJSNDc3IyUl0Yz5vv1HMXZcCmqq6xAQ4I/w8BD4+/maWGAqLC5DW2sbUpITUFhUiuKyCgQFBtrvWlpbERcTiTHJCaBoyy8ogSPYYSdBVlRWobOjE80tbfZtiXaeEBkWgsTEWPj7+aGktBwtrW09SGJjohAY4I+jx3OQlppkf3emqupaZGUXWPlOTzzg1QuhjiCkpSXZrw8czkL62GT4+viYcHKm3Pwi+5m3jzeSk+Lt70oiIAKDR+B8x7DBK4Fy8lQCLgsEAsjJzcWBA4cw55LZKCkpga+fH1548WVccflyzJxxcY+BozHMy8tHa1u3MQrw94fD4UBFRQX+7/d/whc+/zn7+ZiUFISFheLtd941g5qRPg6hoaE9ngEawA0bN2PpkkXmFXAaUAqET378TmSdOGFihKm6ugbFxcVITExAW3s7rl19DWKiBz4A6XxfLgqiyupaM8iBAX4or6yx51IshJ6cjUdFhiEsNMTEU0lJBbx8ur0KZeVV5h2or2+0GTc9CJGRYTaLr69rQFFJuRn3pIQ4BDsCkZ1XiNjoSDPWFA/8e/jJo1WbW1pRWVmNmJgou9fL28vydzgCkBgf18crUFffgPb2jp6+7AgKNI9HXkExEuKiTVDx4y8UNhWVNaisqkFqSoJ5M5xiy7xF1XV2TW/PhFMgNDY0oqGxuecZlTV1CArwh5eXF5ISYhEScnaviKe+aKqXCAwVgfMdw4aqPMrXcwi4JBA4I9y//yCioiIRFxeHwsICNDV1G4HnX3jJvAOpY1Ls34lJiYgIDz+NUHZODg4ePIQXXnwFN95wHfLy87Fw/qWYNu0iEwgUADQ+R48dx80fusGEwp49e7Fl23bcc/enTEDU1zfgvQ0bsXbdeqxYtgzjxqXZz2l8+LvMrCzMmzcXLS0tJjaGyoNA1z0NOJOPd/eMuL6hETTWNdW1iImJ7Db8QYE2c2di3ehhqKyqRUhwkBniktIKM/qREWHdhtzLC3UmEMrQ0d5pBjUiIhQNjU02y2de0dHhiI+Ntno3NbeYl4beAz6bXgem0rIq+Pn5IjIi1P7tH+APioFTE8VCcUk5SsorERUeauKio6MTGePGmECorq5FfHy0CZbE+BgTNU1NLSgoKjFvAIUN+0ZFVQ1O5BQiKiIMFEX24ZguwMfXG6VllQgLDTaRGBwc5PLSj+e8YqqJCPRPgBOM9tY2xMWdPpHh0hzf6biYgY9QlkBQDxsqAi4JBD48M+sEHn/8KXzkw7fiyNFjKCsrtzIdOHAQKSnJCD8pChYtWoi62lps2bq9p8x0K8+ZMxvp6ePwPz/4CX764x9g3fo3bSlg1qwZJhC4Tj133ly89+4GbNi0CbfecjPWrXsTq1ddg7FjUy0vGv6sE9l4+JHHcPttt2D37r2ob6hHS3MLUpKTERgUiPHj0/HOuxtw72fvcYnZ+bxcFZXVyM4rhp+vD1KS4szNbzPzri77ulr311e9zCAmJcbaTJyehsjIcBNWFAkUDBwAuOTg79+9vDBpwlgrM5cVKCaSk+LMwNJA05NAUVFVXW8Cg7/jv0/kFJgB5oPrGxrs/rr6JnPlBwV1Lw9EhIUhMCgABYXFfZgEBTGfeGRl5SF1TKL9LjuvCJMnjO0RCBnpY+Bcbhg/LgV19Y1W9pTkeBNm/DsFzLGsPCTGxVjsRWFxKXx9fM3DQKESGBhgwofCg/coiYAIwMT10ePZiImOtD/ORK9eYVEJkhLj+xX2p7I7nzFM/EXAFQIuCwRmVlBQCHoCFsy/1AwYrdIf/vgXLF+2FBMnjoe3t48ZhMrKKuzYuQsFBQW4ZPZsmx0n0PXf2oY//vmv+M63voE31qxDXFwsZs38QCDMn3+plXn79h149PEnLO7g5ps/ZLPP3olLDF/6wr2Wx+JFlyE3Lw85OXlmMLm8kZaaivnz57lSf5zvy8WARLr7oyLDbSZNQ947QK+rswsR9Az4+phxrK2tt5l1bEykxQdkZuXZ7LyuoRHRkeHmSeAMnYMGYxboGQgLCzEvCH/Hz1FXVdchJjrClgW4jMH6Mi8GGdJrQWPd1QXkFxTDP8APcTHRJlb4XJaXcRMVFdWWL+8N8OeSgj+ycwu7BUJXF07kFn4gEGpqzagzcTlk36HjVteJGWlwOPp6JJxLDCwPlzJCQxzGhJ4LCqGAwAAkJ8ZB8sClbqmLRgmBtvYO5OYVmeeNnkC+PwVFZbbkGBne7QEcKJ3vGDZQvvq9CJyTQGhobMTOnbswefIkvL99h02V9+0/YLEEXFuOj483o05D9c6778ER5LBlibLychMVvHbb9vdx96c+YcY9Pi4OM2de3ONBoECoq6vDm2+9g+LiEjO4CxcswJQpk04TCF/8wr14++3upQnewyWJ6upqHM/Mwle+9HmEhLj2+dPzfbl6CwQa8T37jiAh7gN3II15+tgUhHJ2D4BeB7rnOfOmt2HP/iOYOikdZeWViI+LMfe+t5e3eRtKyirR2dmBsWO6AwBr6xts4KitazCBwKWLmKgI+x0FBT0S0VHhJiy4q6GhodFc+TTmFGcUD1ye4POLGMMQE4maugbzftCjQQ8Fgx6524JioceDcFIgcEmFyxZVVTW2G4HGn27R3jszegsECgM+r7OrwzxDJaWVSEtNtKUUJREQgb4EKPhLSyvN41hTV4/I8DB7n11N5zuGuZq/rhu9BM5JIHD9PzcvH5fOm4tt27Zj5swZPbP7E9k5qKmpwc033WizX8YJXHzxNAsUfOKpZ3D7rTfjzbffNa/BgkvnYc3adUhISMCMi6f3BCkGO4KxcfMWpI9Nw8KFCyyo8eVXX8OVl6+wWAUmio9vf+d7WLjwUmSkp5trnsbax9cX7723wZY6WAZX0/m+XE6BQNVPD8e+g8fN4DoTAwXHpiadJhC45EA3vo+XFxITYlFcUmYCIb+wBClJ8RbbQAPr7eVlOwvoqekOfmxC6ck8afw5+zfxUFeP0vJKZIwdg4OHTyA+NtJiDpjaGfNQU2PBjpzJs0xcpklIiMXho9nIGJtss3vO+JMT402E5BYUY9L4NFti4NJCfBxjEMqsPOYB8PJCfmGpeRAYI+FM+w9lIiiwO56CbdLV2YnOzi60dbTb4DchI/UMOyJcbSldJwKeS4DBzSVlFeZ15M6jc1mKO98xzHNpqmaDRcBlgcAdBb+4/zf4zD1320z98OEjtnsh8OT2u4MHD+PY8eO44fprkZubh9fXrLUYA249rK+rw6JFlyEzMwuf+tTHbVa5dt2bSE5OwvSTQYo0uPxDIZCYkGAzYIoBLmucOHECixcvMsHw+z/+xfLldsrGxgYcPHTYdkzMnTsHO3fttgBHGtS42BhED+EuBpaVRp1LB2NTk3HwyAlER30wQ2YcwIT0MT0CgUa2qbnV6tTZ3gGu7duMPacAnKHX1jVizqypthzg3ObImX7miXy0tLTatRQPASeDHmlwuVTAHQhcgmDg4uEjJzA2LcnW/Jlo8BkPEBcbbQKBIiY0ONA8CSwft1fS0PN+BkPR81BUXI7xGandAqGqxoIkGVfBpRSnx4DloaeDAodlyskrRGNDs8UzUEhU19aiuqYe0dERVgYuK7Auzq2fg9V5lY8IeBIBCure56e4WjcJBFdJ6bpzJeCyQNizZx92796DT3ziTnPj070/PiO9Z6cAzyFguu3Wm8xoczafkZGB6dMvskj/Z59/AclJSViy+DLU1NRiw6bNmDN7FsaPzwDPQaisrMSkSRPOWP7Q0DAkxMejra3NtgNShBw4eAhTJk9CWHiYBTRyKSN93DgUFhZh9eqVdv1A6XxfLs7sM0/kWdwADeHhY9nmmnfuVmBAYGpKIoKDg1FaVmE7Bbjdj8abs2zbfQEvqw93IzCgj3EFFAIMUqShHZOS2HOmAHdJFJVUmOhg4gyDZxowQDIxIca2He4/ePzkmQrd3oX2jnY0NDTZeQoMWjxyPBvhoSFm9Hk2RVZ2Hjq6upCcEGcBl+UVVTbrH5OS0L3UUVqO+PgPvASnsqThZ4Ak4x6chyzl5hUjNNRh7lJ6LKq5ayPEYaKNIoaiRkkERGDwCJzvGDZ4JVBOnkrAZYGwf/8BW++fMGE8CgoLsW37DkRHR/UcfMNzCBxBQVi2bMlprBi7sGvXbkycMN4CGI8cOYrgkGDMv3SexQpkZZ2wnRFnS4xXoNjob+siYxuqq6ptSeO9DZusTCtXXuVSm53vy0VDTrcgZ+DcoZBXUGIHBdEbQFdhc3OrrevTE5KTX4SUxFgzpOWV1WhtaXVudeguY1eXGfz4+BhbSmBMAV37XOt3Jp6+yG1Rvd36nMnTgxEVFW7P6T7YyK+nTRifwHiH2NjuA5FOTRQEjHsICPRHVVWtnVuREB9j3gaKlvKK6rMyZJl5fsKppyfyJgoaLomkJMbZMkhdQxPGjkk8J9epSw2oi0RglBM43zFslGNT9V0g4LJAoLGhQeAfznr5h9vknGtl3T9rh8MRdNpjOaumS94ZL0DDxpm08+AjF8p51kuYN2fk/MOlEP7X1bwH4+Uyr0F7e8+ZBzS0VoaTpwZSNPQ+ktl5RLL57rv/z7ZFchbOcwj4+1ONbn9HO3dri25xwdTa1m6eAOe/+Tvmx3z7W9N0tinv5VIBy9w78PBC2sV2VADmCeneXUH36fkf5XwhZdG9IuDJBAZjDPNkPqrb+RNwWSCc/yNG9p16uUZ2+6h0IiACZyegMUw9ZKgISCDoa45D1beUrwiIwDAQkEAYBsij9BESCBIIo7Trq9oi4BkEJBA8ox1HYi0kECQQRmK/VJlEQARcJCCB4CIoXXbOBCQQJBDOudPoBhEQgZFDQAJh5LSFp5VEAkECwdP6tOojAqOKgATCqGruYa3sqBcIRcUVSIiP0v78Ye12epgIiMBgEOD24eKSSiQmnP7J6MHIX3mMbgKjXiCUlVfbp5RP/Trh6O4Wqr0IiIA7EOBhbQ2NzYiN6f54m5IIDCaBUS8QeLhQcWkFYvjZ5qAAeRIGs3cpLxEQgSEhQM8Bv6lSXlVjp5n6+/kOyXOU6egmMOoFApuf32SvrKxBa1uHnfinJAIiIAIjmQBPRvXz87HPQvP0VCURGAoCEghDQVV5ioAIiIAIiICbE5BAcPMGVPFFQAREQAREYCgISCAMBVXlKQIiIAIiIAJuTkACwc0bUMUXAREQAREQgaEgIIEwFFSVpwiIgAiIgAi4OQEJBDdvQBVfBERABERABIaCgATCUFBVniIgAiIgAiLg5gQkENy8AVV8ERABERABERgKAhIIQ0FVeYqACIiACIiAmxOQQHDzBlTxRUAEREAERGAoCEggDAVV5SkCIiACIiACbk5AAsHNG1DFFwEREAEREIGhICCBMBRUlacIiIAIiIAIuDkBCQQ3b0AVXwREQAREQASGgoAEwlBQVZ4iIAIiIAIi4OYEJBDcvAFVfBEQAREQAREYCgISCENBVXmKgAiIgAiIgJsTkEAA0NHRifqGJvsv0OXmTariDzYBLy9vBAb6ITDAH15eXoOdfb/5dXV1obmlFc3NbejqYr9UEoHeBLzg4+ONkOAg+6+SCAwFgVEvENo7OlFaVolgRyAC/IfPAAxFYyrPoSHQ0dGBhsZmOByB1k+GI/F5jY3N9jwfH5/heKSe4UYEKCBbWlutX8bFRsFXIsGNWs99ijrqBUJFZS18fb0RHhbiPq2mkg47gZbWNtTU1iM2OmLIvQgc/Msqqq1PBvj7DXtd9UD3IcA+2d7eieioMPcptErqNgRGvUAoKq5EfFwEvL3lpnObXvsvKCiNdklZNeJi2FeGdpmhs7MLpeVViI+NHHIx8i9AqUcOIgHL3GeyAAAgAElEQVT2y+KSKiQmRA1irspKBLoJjHqBUFhcgaSEaPUHERiQQHFpJeJiIodHIJRVISFeg/6AjaILoDFMnWCoCEggSCAMVd/yuHwlEDyuST2iQhIIHtGMI7ISEggSCCOyY47EQkkgjMRWUZkkENQHhoqABIIEwlD1LY/LVwLB45rUIyokgeARzTgiKyGBIIEwIjvmSCyUBMJIbBWVSQJBfWCoCEggSCAMVd/yuHwlEDyuST2iQhIIHtGMI7ISEggSCCOyY47EQkkgjMRWUZkkENQHhoqAywKhqqoK9Q0NSEpMRHt7O5qam9HZ0YH2jg40NTWhuqoaoaGhSE8fB548V1/fgM7ODiu3t7cPQkKC7e8vvfwqbrzhuj71qaurA/d+MwUHO+Dr69vz+5KSUpSUlODii6f3/KygsAilpaWYcfF0VFZVobmpuU9+oaEhCA8Pd4mZKy9Xe3uH1YlH33IPvL/fB4fX1Dc0whEUaOco+Pn5nvE8BV7n7+/Xc295RRXCQkNQW9dgB+Lw3t6psqrGfhYS7EBjUzM6O/setxsQ4N+TF3/HE9X6Oybax9sHgYH+Vi7umebBKrw3KDAAldU19l9vL2+0trbZ43mUcGBgAHx9dXrfqR1oJAoEO5K5uQVNzS3Whs72Y7uyv50ttba1gX2b1/K+ppPvUVtbO9ra2xEdFdHn9paWVuuL7K88lry5paXP79nHrD95e4N5O5OvD9+LD86OaGhsQmtrKyIjPnhH+X40NbUgJjrC6sFxpXfy8/UdsD4uvfAeeJErY5gHVltVGgYCLguE/IJCbNq8GZERkRg3Lg1Hjhw1o3XiRA7CwsIQFRWJiRMmYPLkiaitrcX293eisbHRqkBxMOeS2QgKCsJXvnoffvfb+/tU7bHHn7Q8qqqrsWLZUiQnJ/X8fs+efdi9Zw8+8fE77WdtbW2oqKjEG2vWYtmypSgtKUFJaVnP9eXlFYiNjcbqVde4hM+Vl6uwqBQcNDk40nBSEDhTeUU1IiPCzPhy4IyI6P9Es5LSCjs6NyEhBujqwp59R5GSEo/a2gZEhIfa4Bca4jDjzXQipwCOoADEREeioKgUJWU8OCfKnlNRWYNxaUn2XCYaiL0Hj9se/d6po7MD7W0dSE1JRFBQgF2XlV3QLRCCAlFRUWXl5WDd1dllgqSxqQVxcVGIjnRNYLkE2UMuGmkCgaKaQrOuoQGB/v7WrvxZU0sLujo6ER0daX3qTImGurik3Pof+1JOXlH390i6utDa3o7Y6EgTlxSpFBB1dQ2orK5GcmI8mptbkZ1XaCKVgpKCgAJiYkaa9aODh7MQGuowYx8XG92nHDwEqq62DhnpqVY0jiN8vzKz8zEmKR48tbKxqalH71KIBDscSE6K85CeNLjVcGUMG9wnKrfRQsBlgUAg1TU1yMvLR/q4seYh4Ezh4UcfxxWXL8e0i6b2zJ7pYaipqbVZN5OPr4+JhqysE3jq6Wdx+20328+nT7sIsbGx+OnP78dtt9yEd959D1OnTMHefft7+FdWVqGyqhILF8zHkiWLsGvXHsTHxyEwIACBgYGIiYk++ZGl7lt2796N3Lx83H7bLS61oSsv17HMHJtNOT0EnM04EwcyDpA1NfXoQhcS4mL6fS4H7qrqWvj7+6KwuBy+3l4ICAhAdU2dCQt/P1+EhYfCz9cHRcUVKKusgp+PD5KT4hEW6sCho9lIjI9GZ1eX3ZMxdkzPR1o4ezx0OAszL57U59kcnItKypEQF22CgAN4dm6hlZcfeaFoiQgPQ0NTs4kLGpOi4nIEBPoj5pTZo0swPfyikSYQKiqrzQOVEB9j/YcC1hEUZLN19pHq6jokJsbaR6b6S/TZNTY2mVcpIjwEWdmFiAwPsQ+X0bMQHRVu/SYsNBh19Q0oKCozkRkWEoz0cSng8znzpwBgv6KojI/rPnTsvc27MGfmFBSWlNvz6+q7JwtMzIOCgO9USlKcCd6QkCD7nRe87JsXFMLOVF5ehda2doxJSfDwHnZ+1XNlDDu/nHXXaCfgkkDgrGLDxk1ITIjH+PEZOHjwkAkEpjXr1mPa1KlISkq0f2eMT0dszOlGksLi8JGjeOafz+G2W282D8T8+fMwe9ZM/PJXv8FnP/NpvPbq65g2bRpiYz+4/9Chwzh46LAZfC4dPPvcCxg3bqwtdVBQNJz0UvB3SxZdBi4/ZGZmDbpA4DcbvE66SXsftOscxjiwpY6JP6NAcHY0iqaSkgobuDnrKioqR0J8tBltJs6m6GkoKCqBv78/EhO6B3ga+x17DtnfJ41Pg8PRPaAyOQXC7JlT+vRnzsSKikpt0OZA39HZibz8YvvIC59XW1OP5OR4Ey6d7R3mxbCPv8RFSSD0MzKMJIFAEU7PEo0sZ/gUf/QmxMZEWr+hgS0sLjOvwkBij7aYQpd5REWGm1eBf09L/cCTx/5HQ15bV29iMjIy3IR5VnY+SsoqkZaS0MeAUyAsXjALufnFZvApSJ2psrLGhAXzpwciJ7cQ4RGhCA4KQm4+vRgnJxY+PkiMj7Wy0WMhgdC/uZJAGO1mfOjq75JA4OMLC4vw3PMv2iye3oDq6hor1ZYtW5GRkdFj1GfMmG7xCFu2bkdLS4stL/BrdLNmzsCYMWPwwx//DD/98fexZu16ExKzZs3AD370Uyy6bKEtJaxaefXJvLwQGRmBU5cYnn7mWRMIIcHBJlQYm0D35569+zB1ymSLkxgKgZAQH2uDHAdePo8eAc7UOKP38fa22RTXbfvzIHCwLSwuNV6xMVGorKgxo05DTaPN+zmQh4YEIykx1q7jEgPFAOMUKiqrUF3bYJ4EPpeDJV2/SRQPgQGW14GDxzFp4rg+PYWzNMYyJCfG9giE/IISEyEctCsqamzJgwKB3grzhNTW2eA/kFEZui45cnMeSQKB3gLOrNl+NLLsY/wqaXR0hH3giX2UxryhoQlJiXGnfdOBfcBp8NkXGA9AQ80+Yy5/i03oXrbgEhW9Z7bEUFVtS3j0PPB+PofLV/Rk+Pr4WL9h/9m4dTcmjU+1a+LjYxAU4A9vH2/7YuqpSwzZOQUmEAL8/FFQWIL4+GiLiyktq7AlMIv/kUA444shgTByxwx3L5nLAoEVpbu/uKQEEyeMR0MDgxC78PeHHsbiRZchIyPdBhOHw4H6+nq8v2MnSkvLbRmB6/aJiYkmLB56+FF88z++jjfWrENcXKwJhx/86CdYuGAB9u7dh1XXXI26+nrk5xdg5dVX4vDho31iEHoLhC1btyEtLdUGqZycXFw6b+6QCgQfby8zxhQKdOE6Awg5i6ORPZNAoAjggMqZEz0d/IQvB+K8gmKbsVXX1iI1JcmEAgdiztYoEDhQU1BwMZazQubBvPhcDppcHuC34FmmPfuO9Lh3P/BWdK/tjk1lDMJJD0JBscUlcFBnmWk8+F+6h1mv4pIKBDL2QUsMp73b5yIQKCSzsrJQUVFh+cTExCA9Pd2l8cI+1jTAtxgYP8D+RA8T3y9bTiouMy8XBXkwA2d9fEzwMWbg1A9MsXy8h23PvMalpZigz8kvNg9BTU2dvc/snxbbwNiXiuqeT6PHxkbZUgG8uPRYb/Ex7GsMUmRfowdhYkYqKqpqbAmko73DBMu4tGSUV9b0iUHoLRC4VBEREWrvNN8x5iuBcPZuI4Hg0muli86DwDkJBAYRvvLKa1i2bAnWrn3TjFNpaVnPjoExY1LMqHPwWbvuTfMEcE30eGYWVq9aiR07duHI0aO44yO3m0BgLMHMGRf3WWKYOXMG4uPj8errb+CS2TPR2NB0RoGwa/ceTJo00QYTLlkwr6H0IHDWzoGORpzue8Yi0NXLmTdn6mcSCGwXDrAlJeUWdxAVGWbrvAx+pBegpKwC6ePGWLAgRQHjADgjiwgLQVJSHKqqam3wpvufv2esAIWGM0jRucQwa8bk05cYist6YhAoLgoKS638zKOwqAwxMZE2E+VyB70Iza1tFgwmgXD623QuAoFG7a9//Su2b99uGc2fPx933XWXS6+oKwKBxpkeAy4f0YDznaMXweme504guvEpAmig+Y70lygEaMTTx6aYgc/OLTCPQVl5JQICAxAeGmIChB6ysvIqyyIlOR5BgYEoKi612ICaugbERoVbv4qO4hKHnwkE5xJDSIgDEWGhyMrOQ3RkBNo6Os4oELgEFs0vZnp5mSChR0QCQQLBpRdHFw06gXMSCK+8+poZuimTJ5t7f/myJRYoyHTo8BGcOJGNG66/FnV19Vi3/k3bucAdCX/6899w8003Yt2bb2HSxAlmyNesXYfEhARbIugdg0CBMH78eBw7dtxmQw31Ddizd2/PLobeHgQGIy5etNAGv/c2bMKYlOQhFQg0zgzWigwPRWl5JSLDw1BTV4+UpHib7bgqEBj0tf9wJtKSEyxosbi0AmNTk7sH5zGJ5kngTIqehvi4GBv8uU5cXlGJ9o5OJMZ3x2g4B31XYxAYlHgsKw+0FZxRdrR3IiTUYYFhEzJSzVXN9Wd5EPp/z85FIDAH7rjpvZ7u12t77NneZFcEAvtiXkEJQoMdiIo6fccJn8vlpLPtrGEZnAKBM3vGxnDZi2v9FK8UCFyiiIuNMs8APQDV1bUWOEsBwn5J7wOFJvtP7z55qkCIigizaylsKFTraut7djH09iCwj6aOSbCA5/yCYtv2LIEggTDolk8ZukTAZYHAswoeePCP+Py9n0VJaSn27z9g8QiBAd0CgTP4nNxcO+OAMQCvvbHGBEBRcbHNTNJSU+3sgk998mPmAmUMQlrqGFx00VT857f/C8HBwaiqqsY9d3/SvALOtHv33n4FAr0P9EJwOYMpPCwMV1yxAsXFJbZbYrB3MTAGobcHgWcicK2XdXPFg0CPA5cUuPuCbt/oiDBbm+X9DPTiLI2DIgdqGn7nNkcuLdB1zICwFu4t7+zq2Qo5Pn2MuXMpEA4eysTUKRl9Gp2zRwau0UvB6ygyOMgzf3p/OPgHO4JMoKSmJFi78FnaxTA4AsGlN7Cfi1wRCLzNaZy5JBAczN0LPLuiy3YgWExMW7t5g9iu/SWKDHohqmtqLdiRyw30HrA/01tAzxK8vZA+NtliB7pjEGosz8zsArSe9FjwXWA/YoqNjrB+TYEQERqC5tZWsJ9yqcKZKK77EwiOwEDr94x/YOI7QfHNc06aWlqtjyqdTkBLDOoVQ0XAZYHAoMO83DzceutNtmRAD0BKckrPAT880IhGiIY5Lz8f3H2QEJ+AtLQxNmA998KLmDB+PDIyxqGgoBCHDx/B0qVLMDYt1Q5PuvKKFTh+PAuJifGIjIw0Q08hcvToMZut0APB5PQg0DvRO9GAFhYW4t0NGxETHYWrr7rSJWauvFw04M5AwjNlykNmGBvAtdlTEwd8pwjg7yxI8OThSvy3HUzT1o7g4O5gMQ78nD3Fx0abi9W55ausogrt7fQgdG8lo6Bg6o5BOGrBXX2ZdKCt9YMYBM7eGNnOGSHd0scyc23gp9ChG5oGguIlKjLClkGU+hI4Vw/C+fJzVSAw/4aGRpSUVvZswWVf4fkXPCCLyw+nHsDlLBOv49IVPV9+FLqtrfDz84d/gK95lJxLFvTiMQ6G8TesP5fU6GFgECHFCIMl6UGgCGCi+OSfQ0dPYMrEcbaFkksO9EDwWr4nVdV1ti2T3jImpweBHrneiWXg4UkUrY7goB7P2fly9dT7XBnDPLXuqtfQEnBZIBQUFsLP188CC8vKynHs+HGLIXDOTmqqayxokbsSTk1cP8/OzkFiYgJqamqQk5OHyKhI2zJJA8WTGLlU4XSZc2DIzc1Ddk6uDVRTp05GXGx3dP+OnbsQHR1twqJ3otHlsgRFxcXTpyEiou8pcGfC6MrLxUGNs6SzJZadRr+/0+tYB24F40yPJ8RxGyNjGbhcw/95dXWfCcMzEELDQmz/Ot3TPCSp9wDPIEUy5ppu78SlDbqHnXvQnb+ja5ZxC1zSsODHtjZ7Nt3OLC89CHQpcz2Z3hEuL7A9GdtwJsMytN1xZOc+EgUCiVEc82RTCnG2K40vvQBnijvgPbY80NBkIpPCntuFW1raep3Y2d0p2S95RgKjEemVoAhm/3PmTWFLz8Kpyxz8+al9iM/j8iPz5E4H5/kMzJdBs4xXOlUg8PwE9nt6IAY6GXJk956hK50rY9jQPV05ezIBlwXCqS8uBxjnDNY54Jz6s1Pv4aDSvZ7evVVwoAGMRp/X9H6O82f93es8jrj39QM13nC9XM4692Fi4D74iTOOzOkxOBufU+vVX/7OdnE1n/N57kB8Pen3I1UgDDZj65Jn6Jf99SUuXZ0hBvK0ovXXx87Ud7v7b3dhXO3Dg83CHfIbrjHMHViojINL4LwEwuAW4V+bm16ufy1/d3r6aBEI7tQmKiugMUy9YKgISCDoa45D1bc8Ll8JBI9rUo+okASCRzTjiKyEBIIEwojsmCOxUBIII7FVVCYJBPWBoSIggSCBMFR9y+PylUDwuCb1iApJIHhEM47ISkggSCCMyI45EgslgTASW0VlkkBQHxgqAhIIEghD1bc8Ll8JBI9rUo+okASCRzTjiKzEqBcIRcWVSIiP1DaqEdk9R06hus+yqEYcvxNw8rPfQ1U6OyipvArxseqXQ8XYU/JlvywuqUJiwukHtHlKHVWPfx2BUS8Q+DlaHujCw4SUROBMBHhsNb9aGBsTMeRikoN+WXm1HVCkw4HUJ89GgB914wezYvr5HofIicCFEhj1AoEnGxaXVCIs1DHg6XMXClv3uyeBjvZ21NY32kmZ/CT2cCR+7ZNHE4eFOODj6zscj9Qz3IgARSSPTq+ta0RCfBR8z/C9DTeqkoo6AgmMeoHANuEXEnmkK4+q7X2C3AhsLxXpX0CASwo8Cjgo0H/IvQfO6tl3CJpb7VsEXHJQEoE+BLy6P2bFz7b7+nR/k0VJBAabgATCYBNVfiIgAiIgAiLgAQQkEDygEVUFERABERABERhsAhIIg01U+YmACIiACIiABxCQQPCARlQVREAEREAERGCwCUggDDZR5ScCIiACIiACHkBAAsEDGlFVEAEREAEREIHBJiCBMNhElZ8IiIAIiIAIeAABCQQPaERVQQREQAREQAQGm4AEwmATVX4iIAIiIAIi4AEEJBA8oBFVBREQAREQAREYbAISCINNVPmJgAiIgAiIgAcQkEDwgEZUFURABERABERgsAlIIAw2UeUnAiIgAiIgAh5AQALBAxpRVRABERABERCBwSYggTDYRJWfCIiACIiACHgAAQkED2hEVUEEREAEREAEBpuABMJgE1V+IiACIiACIuABBCQQPKARVQUREAEREAERGGwCEgiDTVT5iYAIiIAIiIAHEJBA8IBGVBVEQAREQAREYLAJSCAMNlHlJwIiIAIiIAIeQEACwQMaUVUQAREQAREQgcEmIIEw2ESVnwiIgAiIgAh4AAEJBA9oRFVBBERABERABAabgATCYBNVfiIgAiIgAiLgAQQkEDygEVUFERABERABERhsAhIIZyDa3NyKltY2dHZ2XjBzH29vBAb6w9/f74LzUgYiIAIiIAIiMBwE/iUCoa2tzerm53fuBpMG29vbu4dNS0sL/P394eXlhfaODrS1tiEoKPC82LW1t6O+vgl1dY3o6OyCt7eX5dvV1YUOCoWu88q256aAAF+EhQYj2BHYpw4XlqvuFgEREAEREIHBJ+CyQCgqLsaRw0fR1t5t3ENDQzHj4uk4dOgIKior7GcBAYFYsvgytLS2orS0tGf2nZyUBF9f357SHzh4CJxVT548CRUVldi9Z2+fmvn5+iIsPAyVlZX2c18fX0yaNAHx8fF2LX8/deoUM94bNm5CfFwcJkwYj+OZmSgvr8T8S+eeMyl6Cyqr6tDS0oqgoAAEBvjDz9fHntHZ1YXW1jY0NrXYf7suQCgwv5CQIERFhMLH5wOhc84F1g0iIAIiIAIiMIQEXBYIW7e9j9zcXEyfPg0NDQ04duw4Ll+xHE88+bQZ+vDwcLz33gZ87atfRl5+Pl5/Yy1ioqNx8NBhfO4zn0Z0dFRPNd56+10TDIsXLURdXZ1dc/TocdTW1iI1dQzGjRtrXoC6unq75+DBQxifkYF58+agsLAIr7z6mpXj0nlzkZ2Tg1defR333P0pvPrqG5gwcTymXTT1nJB1dHSiuLQS/G9EOGf4QacZb2qCtrZ21NTWm5fhQkQCC+dwBCAuJtK8FEoiIAIiIAIiMNIIuCwQtmzZhrLycpud03Dv2LkbS5cswuNPPIXrrl2F2NgY/O2hR/ClL9yLrBMnsG/fAVyz8ir89Ge/xLy5c/D2O+/11L2hsdFm5suWLsZ1163G3j17Qa9CdXWNiYPp0y5CWlpqz/Vr172JkJBgLJh/qf2MAuXEiRy0d7Tjqaf+ibr6OnjByzwXAf7+WL1qJa6++kqXWZeUVaGpqQVRkaG2BHC2xOWGktJKNDa1upx/fxey/nxeeNjZn3dBD9HNIiACIiACInCeBM5JIGzctBnRMdHmZm9tbcFtt9zcSyDE4m8PPdwjEHbt2oMrrliBX//6f/Hpuz9lSxJMNIwbN26Cj3kQLkNgYAD+45vfxti0VJSWlSMjPR2lZWX48hf/rWeJ4s233kZYWJgJDYqIrq5OBAcHIygoyOIDGIfw2utrMHPGxRg7Nq3nOa4w4dJCQWE5HI5AxMVEuDSjp6chv7DMPA4Xkhi4yGf6+vpcSDa6VwREQAREQAQGncA5CQQa7vmXzrNlgZ276EFYfEaB8PLLryE9fRzeevsdfPmLn0d9QwMYixAeHobeSwys0fd/+GOsvPoqW2a4/PJlePiRx3HVlVcgOzvbliIKCgsxe9ZMW8rYunUbyssrTAiEhISgoKDAXP/0QFBkRESEw8/XD8uXL3UJVlV1Haqq6xEfF2FLC66myqpaVNc0uHp5v9f5+ngjJiYCjqCAC8pHN4uACIiACIjAYBM4J4GwZdt2JCbEo6Ojw4zwlVeuwEP/ePTkEkNfD8KmzVuxcP6l+Nvf/4HPfubT2H/gAMJCw7BgwaW23OCMQWCFvvPd7+Gqq65AQ0OjBS3mF+Rj+rRp8PPzxdixYy3iPy42xrwGFBr79u23/06bOhVVVVV2z5at23HVVZdbAKOPjw+mTJnsEquS0io0NDYjdUwcfH1cn8kzYLG4pDuI8nwTvSkxUWEIDXWcbxa6TwREQAREQASGhMA5CQQa5eXLlphLnyKBywa/+e0D/QqEffsPYNXKq/GTn/4Cn7nnbnR0duD5F17Cp+/6JDZu2tJXIPzX/+D2227BlMmTUFRUjEcffwKzZs5ESkoypvZj6Ll8UVZeZl4GLjH86S9/Q3hYmAG64vIVfQIiB6JWWFwBnnmQPjZxoEv7/L61td2WGS40RUeFKQ7hQiHqfhEQAREQgUEncE4CgcGFl69Yhr379iPzeBauueYq/OGPf7FgRMYDPPv8C7acwCBFioAFl87D3xm4+MV7ERcXh5279mDKlElgwGNvD8I3/vPbmD5tulWOwqOouKiPQGhsbMK+/fsteNHhcOD993eivKICs2fPxJq1623mf8vNHwJFyeYtW7H6mpV9ghzPRq2kpBINTS1IS423rZeupqbmFhQVy4PgKi9dJwIiIAIi4F4EXBYIGzZuRklJia395+bmIScnF6tWrcRrr72BRZctQFFxic3muaOBAoHegtQxY8Dtkf/+ta8gLi62h8ybb71jhyRxmyPTf//PD+0+Jh6i9M6772HmjBnmQbho6hRUVlbhtTfW4IbrVpv34qWXX7UgRy53hASHYO7cS2xZgenIkaNWFu6QcCVVVdWhqoYxCJF2gJGryRm74Or1/V3XHYMQDsd5Hux0Ic/WvSIgAiIgAiJwNgIuCQQa/rVr1yMz6wQyMsYhKSkJTU1NFhPAn6+8+krExMYgKDAIDkcQqqurUVpahoyMDDunYExKsomHbdvfR01NLbKzc3DZZQswa+YMK9s3v/VdzLlktv29vb0DeXl5mDlzBg4cOIjIqEg0NjSawFi96hr845HH7JwDxifQq8DzCIICA+Hlxdl/lx1qxGfRqxEVGTlg6/NgpIKiChMHcbERtstioMTdCwVF5VbWC0k8jInP1C6GC6Goe0VABERABIaCgEsCodtwt5vhZcAgZ+v8O//wkKO01DE92xidheTvehtbHpGcnZNrZxgwXiA5Oaln1s+gQ+5QYOJ1xzOzMGF8Bmpqauy59DZERNCQ+qKwsBCJid3xAvQ2UKg0Njajs7MDnV3d2w753IT4+D6nN54NHgMVuWTAeIDQkLMHDLJepeVVaGhouaD2YBkjI0IQER5yQfnoZhEQAREQAREYCgIuC4ShePhIyZMegcKSCnR1diEqMsRc/r2/9+AsJ7/VUFPbYN9quNCTFIOC/BEfy5MUXY97GCm8VA4REAEREAHPJyCBcLKNudRQUVVnh0BxuYGHGNH1b99i6Oyysxa4HZLXXYg4YH7MPzqK32JwfVul53dF1VAEREAERGAkEZBA6NUarW38mmOjfWuBX3Pkx5QYkkBBwN0VFyIM+JgAf1+EhDoQ0s+3HkZSp1BZREAEREAEREAC4ZQ+4IytaGlpA/844xoupKv4ePsgMNDPYin0caYLIal7RUAEREAEhouABMJwkdZzREAEREAERMCNCEgguFFjqagiIAIiIAIiMFwEJBCGi7SeIwIiIAIiIAJuREACwY0aS0UVAREQAREQgeEiIIEwXKT1HBEQAREQARFwIwISCG7UWCqqCIiACIiACAwXAQmE4SKt54iACIiACIiAGxGQQHCjxlJRRUAEREAERGC4CEggDBdpPUcEREAEREAE3IiABIIbNZaKKgIiIAIiIALDRUACYbhI6zkiIAIiIAIi4EYEJBDcqLFUVBEQAREQAREYLgISCMNFWs8RAREQAREQATciIDo1y6wAACAASURBVIHgRo2looqACIiACIjAcBGQQBgu0nqOCIiACIiACLgRAQkEN2osFVUEREAEREAEhouABMJwkdZzREAEREAERMCNCEgguFFjqagiIAIiIAIiMFwEJBCGi7SeIwIiIAIiIAJuREACwY0aS0UVAREQAREQgeEiIIEwXKT1HBEQAREQARFwIwISCG7UWCqqCIiACIiACAwXAQmE4SKt54iACIiACIiAGxGQQHCjxlJRRUAEREAERGC4CEggDBdpPUcEREAEREAE3IiABIIbNZaKKgIiIAIiIALDRUACYbhI6zkiIAIiIAIi4EYEJBDcqLFUVBEQAREQAREYLgISCMNFWs8RAREQAREQATciIIHgRo2looqACIiACIjAcBGQQBgu0nqOCIiACIiACLgRAQkEN2osFVUEREAEREAEhouABMJwkdZzREAEREAERMCNCEgguFFjqagiIAIiIAIiMFwEXBYIHR0d8Pb2hpeXV79la2puRmdnJ4IdjjOWvaurC3n5+UgdM6bPNcy7rq4ODocD/v7+9jteW1FRgcjISPj4+AzIg9e3tLSgrq4ekZER8PX1HfAe53NaW9vQ2dV11ut9vL3h5+d7xvqfenNjYxOqq6sRFxdrZamtrUNNTQ2SkhLPWJ/m5mZUVFQiNjamh8NAlWCdy8srEB8fD29vL7S1tRk7JraVn5+ftdu5JnJsaW1BTHS03VpbV4eK8grExcVZ/iEhwf1mWVJSCn9/P2u3/hLrGBAQ0C/HpqYm1NTWIiY6Br6+/bc5n11eUWF5hIWGnmu1+r2+o6MTbW3t6MKZ+4AXyNIXPj4Ds2xvb0dFZSWiIiONPxP7eHFxCaKjoxAYGNinHMUlJdZHyJrvUGFhkfXh5pYWRISH9/QX5sv6O/PsnQnvYxuxnOHhYWfkwnrm5+djzJgxZ2Q8KFCViQiIgNsTcFkgHDp8BPsPHMSqlVehvr4ehYXFaGpuQmNDE/ILClBVVYXZs2Zi6dLFaGxsxNFjx81gM3FAnDB+vBmOH/345/jud77ZB1xDQwM2b9mKi6ZORWJiAvbtP4BJEyfg2edexKprrkJYWN8Bb+OmzWhoaLT8acSaaIxrauDt5Y2QkBAsX7YEqal9RciZWqqmrgGtLW0DDpbt7R1wOAIR7Og7uJ+aL40cxQENxNq167Fi+TIz+Bs2bkJ1dQ1WXXO1GbdTB3Eazmefex5Hjh7H5EmTcMvNN/ZrCDjAV1Z2CycajGPHM/HWW++YYbnooqkoKCxEZUUlqBECAwMsn8TERBMoD/7+j2ftsBQZn/zEnXbN62+sRWlpGT7+sTvs37t278GateuwZPEiZGfn4vrrViE4uK9IoMh6/vkXERsTg8WLLzvtWSzjn//yd0ydOhnp48YiKysbjU2NxqusvBylJaXG5rZbb7b2e/fdDahvbOjJZ+bFFyMmJgavvf4GkpKSMHfO7EF5Acsra0DZezYh1dnZZcY5OipsQJHId+GFl17B6mtWIiYm2tqppaUVT//zWVxx+QqMSUnuU+5n/vmc9fGrrrwc2Tk5eOgfj+L2227B7t17sPLqKxEREWHX7923D1u2bMf1168G+1lOdl73O9jYiMKiIlRWVmHK5Em4+aYb7ffbtu9Ac0tz9zsYEIhZM2dYHX77u//D//vKFxF+yns1KDCViQiIgMcQcFkgcGDZvHkL1q5/C7fd8iHs238QQUFB2P7+Dly+YhnmXzrPBnemmppabN22zYw4E432pfPmmIfgK1+9D7/77f19ANJ7sP7NtzFr1kykpY7B/3z/x/jGf3wdf/37P3D7rTfbbKp3uu8b38att3zI8nUEBdlMiyKDAuVcU2FxBRLjowYc9DnA1zc0m4E4W3pjzTo8++zzaG1rO+NlkydNxH/c97We31dVV+O3v3sQocEhuPGGa/Hk0/9Ec3MTvvBv95q46J327tuPJ558Bv/1nW/i6Weew759++Hr54uZMy5Geno6cnNzMW7cWOzZs89E2xe/cK/NQGk8vvf9H5nxCAvrf+ZNlhMnTgA9Kt//4Y9x04duMKPCtGXrNrz40iv4xn1fw/s7duLii6f3eBec5aMAeOSxJ5AQH4errryi3/ofz8zC4088hfnz5uHgoUMmgsrLyxEU5MDqVVdj/PiMHu/JY088hZrqmp58Lr98OdLSUvH0M89aP1m86HQRcq7tz+vZB5ISuj0lZ0vFJZWIi400T83ZEuvzyKNP4Pbbb0FLczP+94Hf45v/8e949PEncf11qzFubJrdzneKzP7x8KMIDw/Hh268Hk8+9QxOnMjG6tWrsHbdeqsjRXNSYoJd/8qrr9vPP/bRO0xU8x3cs3cfLp07B1dcsQIJCfHW3mz7l15+zd4LJoq5q65cAR8fX+sH3/+f7yLypPAYqN76vQiIwOgk4JJA4MBEo0/3f7f7ustcpkx//ds/bFY5fny6/ZsDVn8u0GPHjmP3nr1Yu+5Nmylx1rPosoVITk7GU08/Y+KhqKjYfvfnvz6ECePTcexYJsaOTYN/gD8mjM+w59Btft83voXrrl0Fb+9uN3R2dg4qKysxe/Ys+zfd0zSYTsFytqZ11Ti0tLahvr5pQIHAAT8nN9dmjEy7du1GTk4ubrzxevs3y586JsW8Klwa2LR5C959b4MZvFmzZ+HIkaOYO+cSvPfeRpzIzsbChfOxbMkSc01zJvr8Cy+Z8Jo5Yzqee/4lMxzw8jIvDg06jdM772xAXX0dPnrHhzF92kX2LAqEH//057j3s/f02z4smyPYYW7xrVu3Yeu2920Wu237+zaD3bNnLw4eOmyenbr6eixbugSLFy3sg9YEwqNPICoqEsuXL+35nZ+vr/Wd1tZW8xSEhoSio6MdHZ2ddg3rWlVVjdWrVsLH18euDQkOPm1G39jUhD/96a/mJXEEOXq8MF/58hcGFHhn6wNFFImuCITSSsTFnF0g0CAfOXIMr7+xBquuWWlLMf/3+z/iK1/6PJ56+llMmjTR6hrg72/etscefxJZJ7Jt6WLB/Eutv3h5eyMwIMCWmyKjIu2d+sK/fQ5t7W3w9vICvVlckmjvaLdq/ezn92P5sqWYO/cS+zfZnbqMwZ9TTK5Z9yYOHTqMqVMm2zu8aNFlJt7PZxlqdA6ZqrUIjB4CLguE3bv32kC2bOkicLmBgxwTjUlGRoa5UplmzpwBXx8f5OcX9FD08vZCaGiozZYe/P2f8P++/AVs3bbdZqt0Gb/8ymtm6OhmpyGjC3raRRfZTJMzLrrjaTQoIpjoQbjpQ9f3DGobNmzCmDEpNrtkokGiu90ZzzCcAoHPeuW111FVWWWPzc8vtNnc9OkX2b8palavXmnr5xRMHLRLSrlu320UydW5/lxXW4fUtDGYe8klmDBhPMrKyvDwI49jxfKlxo0u/+KSUpvJkw0FBJda6KHgz+htmHPJLJvtk+sPf/xTrLzqSmTn5FpZGK9QWlpq8Qs0OJy9z549Ew8//JgZHx9vHytLWloaMjMzsf39nfjC5z8Hfz8/ExOJCQmnCYR/PPwYcvPykJSY2PM7ihQaL4rMfzz8iAm5pqZmE1Jc9qd7nMtFbD8uE/G/dJVTIDmFKDMLCgyCn7+fCQrOqumWX7N2PX758x9fkIEbTIGQmXUCr7zympV96tQpSElOxgsvvmztn3k8C+np40zwtre14Z5P32UxF08//SyCggKtb3Ap6obrViMpOcnE9NIli5GSnGSeAYrJgwcP4+qrrsDOXbtNQDDx77yG8SFMCxfMR0hoCLKysj54B728zIvQ2NCIx5982paS2PdSU1Nx5RUrLojf6BkuVVMRGF0EXBIIRMIBnQMRBzYaX6cL/bHHnsTCBZdi7LixRi4iIhzlZeXmhmbw1ZTJk8EAP7q9OUD96jf/i+9/77tm3GJjYtHW3m5ucRooGjYOip+++5M2y6Unob8lhm9+67/wxS98DuvWvwka0aLiEnObBzu6Z533fu4el1txMD0INLhkRI8GxRBTXl4+KquqMOPi6T1l4ozwisuXWx1pADmzzM3Px9TJk3quoREPCXbgk5/4+MngOB8TFOvXv2VxAYGBQbbkU15RiaLiYmRkpKO+rs5m+7m5eYiKjkLGuHHmgeEyBb0VP/35/caN69FMDPZ77vkXcestN1kwHGMW6ILef+CAxZscPXocX/7ivahvaLQYhHXr3sTFF08z5jRGbKfeiXWmgGEABIWGM1HM0MDR+7R//wEcOXrMPDysP/1RFJmMz6CLnO5xhyMILc0t2Lr9fZtR8172laioCCxZvNjc8BSRXEP/wx//gl/+4icjxoNALwkFEuNnli9dgo2bt5i4uvWWm7Fx4ybcdNONFpD7/vs78bnPftoQ/f3vD5uw4ztCgUAG9H5RANAbk5ychM/ec7fd9/Y77xnHOZfMRktrt5fqgf/7PS5buMDEOVN0VBQKCgrw1tvvWmDkxEkTTDRPmTLZhPov7/81fvnzn1icibMvyoPg8pChC0Vg1BBwWSCQiHOnAP9eUlJirs5nnn3OXOJpqak2+DBqn2nbtvfR0Nho6600BBzkuLb63Asv4atf+SK4Vh8fF4vx48ejuroK7+/YZTEEwSHB2Ld3v7mfOVhy9kw3LYPWaOw4AH//Bz/BXXd9AgcPHsLSJYssBqEgvwATJkzA7x54EPf9+1ddbsDBFAgsG9fqCwoKe57PYDEG7526u2P16mt6ovAf+scjFtTJ+jkTRU9cTEyPESF7XhcayjiF682b85vf/s68Bg5HsAkzeh84E2VqbWk1IzN50gTcfvutFnD4uwd+j2/9533WTt1tWGrr32RJo+JMdJP/7Be/wg3XX2tG+Kmn/2l1sKWSG65DfHyceRtODXJzJQaB13D5JSDAH5s2bzXByaWL+voG83bQNT5l6mRbH2fdvvPd7+G2226xn2ekp6O1rRUUpXSL0+vCoEcKhAtJg+lBMOHljEG47RYLFnzgwT/gm//xdTz6eLdHLC83D8ezsvChG67Hxk2b8OZb71hQ6Sc+9lGLMaCHiH3hn88+j2uvXWVLUk4DThFKcU5hyfeE/+Y7Ne2iqbYMFx0TbcG+3Gy0ceNmC3pcuHCBeefolaHX4NHHnsQPf/DfeOmVVxESHGIxRBIIF9KDdK8IeCaBcxIIxzMzzV16w/XX4aWXXzU3tnM7GqP2aWQ+8uHbbGB/7fU15hbnWuvb776HO+/4MN7bsAktLc1YefVV5kFIiI/HjBkX28yIQYoUCBQDjL6mIeEyBGea9Dww6p1GiW7pF196FdeuvsbWUrkWvmnTZlu3XXTZAvzmfx/AfV//1wgEdhEG4XEG2dXZvWXu8OEj5klhOZ2JM3XO+JyJhj8nN88GcBoKDu4UGQGBARZHEBoSYnEHP/vF/bj15pvMXU3BQIP93oaNxnvcuHE9+WVlnTCvBYUYDQiFAj0Azz33ou0gcW4B7U8gUOTQ4OzYscuYU3DccMN1Jga+9Z3/xry5c8D8uUuBwrB3ckUgUKg89cw/cc3VV+FXv/mdRfQ7o/SZV2ZWFj71yY+Z54negxdffhUfv/MOPP/iSxYTwf700MOP4eYP3WDb+rik8fOf/vCC3s6hEAh/f+gRC9SkN+TBP/ypJ0iRRpzeNRrl9HHjzAtGI84lNQYp/vDHP7PAWy6r0YNDz1BKShKuWXm11XHTpi0Wh3LPPXfh7w89jPi4uJ5YG3qEIiPC8Zl77jYBQe8Qd7AEBztMkH/5i5/H2++8a33rrk993N4jXr9s2RIJhAvqQbpZBDyTgMsCgQPO3x562IwCDTYNH93kzmAoro0eO37cZp00Aoy05tZGukG5dsrtWhwYGYSYnJRka8fJSYmYPn1aH4Hg3J5Io9ffEgNd7JxBcZnj2LFjFv/AbWKrVl5tM1tuJfvcZ7pdt66kwfQg8Hlc92dAJnlxeYFigXvTgxxBuHj6NDPOjBdgQF5vgVBZWW0z6EOHD9tsj2dFHMvMsuWbS+fNxfo337Jo9X/73Gd7ziDguv1TzzyL8tJyJCR2u/D5h/EGPJeC2z25C4HPpBeA5zLQeDhTfwKBgoJigucgcLtiaFiIxRNQZPzlrw/h8JEjFkzHZYtLZs/qiQthnq4IBHpYKD4ofL793e/hM/fcZVyc6X++/yPceutNyEjPwP89+AcEBAZi6pRJWL/+bUyaNMEMJu//xMc/akGs9GD98Pv/7UpTn/GawRQINNIsHw0/+/KyJYvx9388gm9/6xt48823LRaDyzhcVrto6hSLo6Chp0iid4YCISUpCTGxMbZDiMsGFFFkzX7x4B/+jIkTMjBlyhS8/voa2xLqjP/ZunW7LQ2RTVlZue0omTZ1iolnLidcs/IqC4KdN/cSiwOh0KBIp9g70/kmFwRWN4uACLg1AZcFAmer3Ob2uc/eY7P4bZzdz5xhMzqmE9k5dhAQt9HRSL762usmELi0QPcl3chcB+UskMaTAxaDFDlr7u1BOJtAoGj49a9/hzvv/Ii52t/fuctmmRw8OdByYA4LD8VNN97g8oxosAUC98sz6HD37t3YsWO3GQG6i199/Q0LJKOxt0C1k9zI7i9/e8iWIOhVoIji2nNxSTE6O7os3oCHK3H2fvnyZVi58qqeDucUCPQw8Dk0DmRC4cUgUZ7BQHc1Xfrctnj9tasxf/48u59CgrEK3DLIJQbuXmCiB4FekOPHM62dGTjJoDfGDWzctMW8G9x9wt0NX/t/X7LlHQZhWp6dXRZDwjMa5s7te0YBAxq5le9/f/egGXkKxi995eu2RMQAU2eiZ+rOj37YlkF+8cvfYGxaqvHjltYjh4+goqrKtv4tW7rYvFS79+zBf37jvgt6CQdTIBw9egybtmy13R4UeVwS+e3//p95EMiO4rC6phZPPvm0bYOk+PrTn/9mS3M9AiE5GbGx0RYUSg8ad7DQ08b2evLJZ/DvX/8Kysor7O9z5sy2d4Hp+PEs29Z4912fMDH5xBNP266JpOREW+bbuXO3tfu9n/20/ZsCguKMW5SVREAEROBUAi4LBM5WOJvjrJQG5NnnXrDAQOcph9yvTkN2x0dut5mk8+RFigMGYL344ss28+RSBA05r/nw7bfawOgUCDRyf/rL32w9momCgPlzdpORPs62hdFzwS2ODzz4RwQFBuKWmz+ElJRkG/gYEf7ii69YVPzXv/rlM27n6w1hMM9BYAzAI48+boF4CQkJuPbaa2yA5wyeM3Lu1qCw4g6Bf/vcZyzKnT//+S/vR1FRibmCKXa4fMKZ/COPPWmzxo999CO2bXHcWLr8g3qKz62d9LLQM9Dc3ILEhHgz9nv37rdtdgw8/PCHb0NzUzMefewJ/Nd3/7OHya9/+0DPlsqP3XmHBUIy8UwGLiMxeHTm9OndXplnnjW+jAXIz8vHE08+jQkTx1sdOAt95933esrEUwnZXqeeFXDHh2/HlCmT8Iv7f4O7PvlxC8j7wpe+asKk96mMZeVluOtTn+j2Pp2MVXCe4MkDhCi+2P4vvPgKTpw4YYKUUf0XklwVia6cg+A828BZZvZh7rrh4WIfzNK7LGiVbfOb3z5gHjfO+mmo6UFobmoywct3hPlwC+SHb7/NPDvcJvrJj99pMSh/+MOfTUjxADIm9n/u7qAHjQtcba2tJkSZB3/HZQ/2L24x5pIe72NbULApiYAIiMB5CwQOdBzgaLBpwGnUadydAoGGjrMXRpyfmjjQMViLyxEcnBixHm1b87qNHYMdaewoOPrbv907Px7iwwGThozGpb/gKg6idI+7kmpq6+1goIGOZu4+STEAwSfL3F/erCfX52nEKZb6c9uSEb0t3IfOstOgcNtoRHiY7QzoXQ4aSBp/RrL3d7YERQSXMTq7Oi0ehDN05zOZb3Z2NmJj48wA07vD3zsTlyF4yh7XsAc6ypqeCueRzcyX7cfYhIHaqj9GFDLMi21Ib8n4jPQ+MQj7DxxC6pjk007PZF7sc93tEITi4u4jnWkQLzSVVVTb+QJnP0mx0wI1Y6I+YOzqc/nusH/Tu8RE8UQvCzlwm6q/ny+iTgaJ8mRMtuWph4PxPoqv9vbumBK+g0VFRbaM4Tzvg56nmtoaE5Kn9j0+u7a21naqUPyVFJfY0kTv+A9X66PrREAERgcBlz0Inoqje2fGB98vOFM9adDO5VsMnsrLE+vV/S0G9oGz1M4LZsgHElOeyEd1EgERGJ0ERr1AGJ3NrlqLgAiIgAiIwNkJSCCoh4iACIiACIiACJxGQAJBnUIEREAEREAEREACQX1ABERABERABERgYALyIAzMSFeIgAiIgAiIwKgjIIEw6ppcFRYBERABERCBgQlIIAzMSFeIgAiIgAiIwKgjIIEw6ppcFRYBERABERCBgQlIIAzMSFeIgAiIgAiIwKgjIIEw6ppcFRYBERABERCBgQlIIAzMSFeIgAiIgAiIwKgjIIEw6ppcFRYBERABERCBgQlIIAzMSFeIgAiIgAiIwKgjIIEw6ppcFRYBERABERCBgQlIIAzMSFeIgAiIgAiIwKgjIIEw6ppcFRYBERABERCBgQlIIAzMSFeIgAiIgAiIwKgjIIEw6ppcFRYBERABERCBgQlIIAzMSFeIgAiIgAiIwKgjMOoFQldXF9rbO8D/ni15e3vD19fHpQ7S0tqKpsYmRESE2/UtLS2orKxCZGSE/TswMNClfM52UWtrK+obGhAVGdnvZafWx8vLq9868ucdHR2Wh4/P6fXr7OxEY2Oj/S4oKOiMRWpvb0d5eQXi4mJBVu6UWMeOjs6z9wEvL/j6eLtcN/Kvq6tHcLCjh2t1dQ0CAvxP48j+0dbWjpCQYMPGnlhXWwsfX18EOxznjZL14p/aurqefsJ+U15RgcSEBLDt+0u8p62t7bRf+fr69ttH6urqjJ+zv593gXWjCIjAiCIw6gVCfUMTWppb4e1zdqPGQdPhCERQYMCADbhjx04cOnwUd3zkNjMoJ7Jz8Oyzz2PFimXIzc3DlVesMJFw5Oj/b+8swKs8sjf+xt1d8JAggeDu7m51aKm3u9vuttt/bduV7m693RotdUMKpTgEdw3BIUKAQBLi7vJ/zrlNkCKXkNDc5J3n4QHu/WTmd+b75p1zzsyNxsmTUTe8Xrt2oWjRvNllxyUkJGLN2nWYMX3KVQfuffv24/CRY1XndOnSCfv2RVx2DRmQxo0djRMnoxAdFYOBA/urGLiQnKyipqCgEMkpKUhLS0PrViEYMngQsrKycTIqqmoAsbe3R3DLIBQWFuHTuV/gD088CgcHw0BnKiUjM0fFwbUGTB20f/3e1cXxusdVtlkG/PB163XQ7NWzB2QQXbFyNbp26YwWLZpfhmbHzl0qJoYNHazXlsF2w8ZNKii7dO70G4zffPs9ysuvELRmQPt2oejUsYMeL/fbH3EAPt7eWBu+Ho89+hBSUlMRF3cae/bux6SJ41Xweri7a1/csWMXKlABZ2dneHp6YPnyVXB1NQhaKYWFhejatRNahYQoi9jYU/Dx8YGTkyM2bNik9R8/foz2n9hTcdpfRFCwkAAJmC6BBi8QEi+kw9PD+YYzw6KiYhQWFsPdzfm61paX55tvv4e2bVpj1MjheuzxEycx59PP8fxzz2Dvvv06SMhL+MSJkzh+/ETV9ZIuJOtLvFVIMKwuebm2D2uPlkEtkJR0oWpglhn71998p4NKo0aN9BoiRlxcnOHo6IgFCxchOSUVI4cPw4qVqxAS0hJeXl5ITEzS+vTu1QNOTk56r7y8fPy8ZCkuJF9Arx49cOjwEVhbW+tx7ULbaH0DAgPg5uqK8wmJOvAVFhTqPd3d3TB40ACdAb/48qt4683/wMX5+ozq2uOSmJQGLy/X6w/8FRVISc2Ct5cbzM2vPvOubJeIq8NHjiI2Ng7R0dEYOWIYzp1PROTBg+jbp7faXgbzSuHx7/+8gQH9+8LH1xcLFy5CVna2DriWFhaw/9UD8beXX9D/S5n90GNq9wB/vyqUEZEH4e/nh8mTJuhnyckpatM2bVrh+x/m4++vvITPv/waubm5+l2jwEBYWJhj8uSJ2gee+vNf0bhRIGxtbdCvX1989PEcdAgLq7r+2fh4vafUX8Tym2+/i1atWmHs6JH4adHPyMjIwEMPPoB9+yMQvm4Dnv3LU1f1NtQ127M+JEAC1ybQ4AVCQlIa/H09bthHiopLkJtbAA/36w9+4hH49vsf8ccnH8fRY8d1hnX0+Als27JNZ47ihu/Zs7vO4K4s8nI9EHkQd0yfVuVurjxGhMfrb7yN8wkJVafJDF9maVZWhpmajY0Nxo0Zjb59e6tA2LBxM2SGn5eXh4kTxuP0mTM4fuy4zgDNLSzQunWIvtRlQDM3M4O4wGXGWxmeePUfr2Hs6FHo1MkwK72Wi3n7jp3Yum0HoqKideYos+BRI0fo4GQKRQSCnxF9ICk5Hd6eNxYI4oF57bXX4R/gD0srK8SfjddQg7uHB/Jzc5GRmYW33/yPohHvjQi9Bx+4H/Hn4lXEWVtZ/epBcEPHDmEq/Jo1a1olYEQgPPnEo2jT+iLfZctXqt0uFQiLFi9BcHAQFv60GM8/9yxWrQ5Hv3698eFHc/DUn57Atu071ePQLrQtnv7Lc5gyeQJOnoxGt25d8MWX36jAlXuXl5fhQOQh9OzeDb1799R6i7Bd8NNizLrvHuzes1cFwp13TFcxEhDgjzGjR5qC6VlHEiCB6xCgQKhBgSBu2B/nL9TZtbiHMzIy4efnq7N2mVHKC9TDwx2uLi76+dUEgrzMB/Tvh7CwdvD18bnMsyHXL78kV2Lu3C8RFtYeXbt21kvJvNbKykoHchEIp0+fQa9ePbFt+w4daOLjz6kAkMFKQgLnzp/HIw8/iDVrwpGXm4fefXpBwiNZWVl6vd179qFZsybw9vLS/4urXLwT4uWoLCIsJOfi/PkELPllGaZPm4LIg4fQr29vKuuMfwAAIABJREFU9OjezSQevtoQCB99/CkGDugPJ0dHrAkPh5+fH9qHhiL+/Dls2bJdBUJBYSE+/exzFXa2NrYqCsXGgwYOwNat2+Dl7QULC0u116Whhsee+BPatWsLd9eL+SdxZ86o+3/C+DHKXLwE4jGQTpGbnYuOHTvg2PHjGv4Rz5X0r/T0TEycMFYFwp+efhajRw3XEFjXrl00LHHu3Dn4+/vj7Jmz6kEaMnigCgoRkiIqN2/ZipYtg3DkyDFkZ2djxIhh6kGQviahCw8PD/VSsJAACZgmAQqEGhQIEn/duXM3omNiNb/g4YcegKODg/5bBv4+vXvqwCwvzVkz772qQJAXs6+vD9LT0jVM0a1bVxUVVysyE+zcqSN69Lh8IBYX8O49exAbe7rqNJnNHzhwUAeInNwcBPj7I/bUKTzx2CMauli1eg0CAgIQGBhQFT74Yd58dOvaBUEtWuh1GjdupF6ILVu26SAhs1pJXpQZp4iSN958B+++/Tp+WrREQxrdu3U1iaeiNgTCO+/8Dx06tNf8EAkryWDZvFlTpKSk4tjxEyoQcnPzsGrNWs3xkJwSmY1/+fW3uOfuOxGxP0IFQvy58xrakVwRSSaVPzt27jZ4gczMYGZuXpVkGhgQgCZNGsPa2koFwrwFP+mA7uvjrf1u3foN+v36DZtUrEYciET/fn1UIDzy2JMIDAzUpEgRd3LfiIgDKkB37d6jx7QLDVWPxOKfl6rHoDKZMTMrS+vg7uYOaxtrrZd4Hu679y4NY7GQAAmYJgEKhBoUCPLSFrf/nE/nIiioBTqEtceyZSuQl1+gg7G4ZyVprHnzZgi6IlFNuo/MviT+P37cGGSkZ2Dp8hWaXzB2zCjY2tioW/eHeQuqelpaWjrs7Gw1jCBFhMXs+2dC8hP+8/pbOihUFjc3F/h4+2huQVlZKXx9fREdE4MnH39UD5EZYHFJiQ74p07Foay0TAeYbl06a31FpEiIRGaOq1eHa2Z8925dUFpWpvkRBw8dxg8/zMdrr/0d8xf8hDatWlV5Nur6o1ErAuHdD9CpYxjs7O2wZ88+FQgtWjRDcnIqjh49pgJBnEEiKj+Z85kOwH369obkI9x7z11XFQgSygkPX4+S0lJFGtq2jYq2VavXVoWFnJ2c8PRTf9BVM3O/+AryfwdHBwzs3w8LF/2sAqWwsEAForgXJk4ch5DglvjTU89g+LAhKgwkjJWfX6CJjuIBkZwI8W7IcVOnTFYxIH1McmbWrdug59nYWuPb737EHTOmGVZMmEE9T1dbGVPX+wPrRwIkYCBAgVCDAkFenDITXxu+QV+m8v9pUyfpYPyvf7+ugkEGX/lu2LAhV/UgiECYMW0q7O3tdMCWF7H9r8sLJZcgITGp6jxZGRESEoy2bdvoZzbW1uoBkNmbxLYzMzI1o1zcyXLP1WvCNdwh1/by8kR2dg6mTpmk54rnQ0INY8aOwvwFi+Dk6ABzc0NSnIQcZOb44Oz71QX+3Q/ztC1ZmVk4GR2DBx+YhV+WLtPBZ9bMezTMEiYZ9Z06msRzVpMCQUSirPT4ZelyXRUg5dix43BxcdHYvBSZpUuugBwrCX4bN21Rb4ynhztiYk9pImFxcYkmQ4oNRo8aofkAa8PXaZhI+s6ZM2fVtS9eiU2bt+DRRx/S7zZu2oxn/vwURDx+/c338Pf31VyDV/72As6fS9CE1TFjRql34M47ZqjAlEH86b/8FVMmTdQVKt26dtXjpL5enp4a1tq+Ywcemv2Afla5jDUmJlZDEdOmTtYVEe/97yM89shD2rek71McmET3ZyVJ4JoEKBBqUCCIy1Ve0LJ6oFFggL5MJYYrA7eEGHbu2oO2bWRmLW775lUz/0rrVHoQKgXCjfrttUIMcp4kmckMUFz/Iix69Oiuruft23f+Gjc+igED+mkYQETIW++8j7D2oVrf/fsPYMb0qVWJkpKVfv78ecy87x7Na5BBTfIkSstKsWzZSkyYMBbr12/CwAH9IEsyf5y3QFc+tG9vyNSv66UmBUJ6erombF5aDCEGdzRvdnGpqqeHBzp2DMPK1WtRXlZmCO8E+GvCaeUSSZmJS4gpIzNT+8vWbds1r0XyPCQhVIVF0ybYtmOnrlIQcSGJiU/98QkNG61ctQYjRw7Df19/S4WgeDJkOa+IlYMHD2toSpaoSphKchAkz0HEieSxyB/Zs0H2TBBBI7kQ4sUaM2akhg3Ec7R69Vqkpadj6uRJKC4uukwgSD6KrHi4VnisrvcJ1o8ESIAeBNTkKgaZNZ07dx7x587pTL2iohydOnVCSnKKCof0jAwMGzoEe/buw71336nu4UvL9QSCzNwlrnxpkRCAZLJXLpmT78Q7IHHvf772X3Uv5+Xno1fP7ho/lplmixYtENa+HWJPxeLY8ZOYNGGcehvEPfz8c3/B6TNnsXHjFo1D29oZNnSKiIhUESHeARn8Vq9eg6CgIL2XbDKVnJysoZU/P/0H9TDItYYOHazL50yh1KRAyMzMxN4r9puQJFHZQCq4ZcsqHJLEGhIcjPj4eCQkJmp/kfwQWUoo9hNB6enpqaJLwg6SMxATG6srY7p06oSkCxd0RYzsjyGzeAlLyZ4Vkgwry2mPHj2OA5GR6i145dV/4oH7Z+rmXVIyMjOwbv1GjB87BoGNAvUaT/7xz7r0VUJazs5Omqwo95DkVdkPQZZAirdKRK+Eo3bt2oP9ByIxbswo9WCJGH3zrXc1PCIhjVde/Reefebp3+zfYQr9gXUkARIwEKAHQZa4+bjfcPOboqISyKZK11vmKPHkpctXIiszE02bNEFgowDdgEaEQf9+fXW/AUkQk5nY/z33F52lGSsQTsXFYe7cry47PjsnG9bWkgF/cfMmyW5vGRSEFavW4IFZ9+jMXvIfxE1cVFikg766iCXJzdxCB31JQhMhIUlyssxywYJFula/0kUsqxakPQ/OngUZACU0IasZRCBIWEGWtomgkPyEXbv3qmfhgVn3wf+Sdfp1+YEzWiBcSDdqH4Qr2/rxnM9UHMh+EZcW4fj9D/N0FYPkeUgYSISELBOVhELx3EgOgAiBv7/6Mvbs3at8xWsgSaLiHZLBfbluwNRJQxuJSUn420vPq/dAhIZ4Cf7v+Zfwyt9erFqNIt6g9z/4WI+rzF8RkSiCVbxdsgGXiN2kpCQkJl3A9KmTNfQgGzj16dNLQxfilZIltaGhbdXrITs0vvX2e1ovqb+ZuZlevyZ2Da3LfYd1I4H6TKDBC4T0jGx16Yr7/XpFYsKyk6KT481tfVtQUKADgAzKEnOuTCy82m6D4iGQjHZZOnYru9DJfVJSUuDt7a1Nkv9Lxry81ItLii/bWrlyy13ZWlcGlNTUVPVUSB0qBYx4ReRcmUFeWWQgkYQ42YEvLz8PSYkXNO596S58df0Bkv0NZBOi6y3Jk8FR2iobJV1vx8WrtVVWj8iGUrKCwNgi9xLxJaJT8kokuVRWC4gnR8ITskQyOytb+5asSpGNj8R7Iy5/2TBJzpNBW+wiYSEZ/CvtKd8dO3ZCV1lcq5/J/WUHUBGJcq6F7odQrv347Nmz6mm4koN8L3WQ5EsRjzfLyVg2PI4ESOD2EGjwAsGw8qDosv0FroZeBhAbGyu+9G5Pv7ytd5EwiXiIKpMKr3ZzM5ip/Y39PY7b2gDejARIgARqgUCDFwi1wJSXJAESIAESIAGTJ0CBYPImZANIgARIgARIoOYJUCDUPFNekQRIgARIgARMngAFgsmbkA0gARIgARIggZonQIFQ80x5RRIgARIgARIweQIUCCZvQjaABEiABEiABGqeAAVCzTPlFUmABEiABEjA5AlQIJi8CdkAEiABEiABEqh5AhQINc+UVyQBEiABEiABkydAgWDyJmQDSIAESIAESKDmCVAg1DxTXpEESIAESIAETJ4ABYLJm5ANIAESIAESIIGaJ0CBUPNMeUUSIAESIAESMHkCFAgmb0I2gARIgARIgARqngAFQs0z5RVJgARIgARIwOQJUCCYvAnZABIgARIgARKoeQIUCDXPlFckARIgARIgAZMnQIFg8iZkA0iABEiABEig5glQINQ8U16RBEiABEiABEyeAAWCyZuQDSABEiABEiCBmidAgVDzTHlFEiABEiABEjB5AhQIJm9CNoAESIAESIAEap4ABULNM+UVSYAESIAESMDkCVAgmLwJ2QASIAESIAESqHkCFAg1z5RXJAESIAESIAGTJ0CBYPImZANIgARIgARIoOYJUCDUPFNekQRIgARIgARMngAFgsmbkA0gARIgARIggZonQIFQ80x5RRIgARIgARIweQIUCCZvQjaABEiABEiABGqeAAVCzTPlFUmABEiABEjA5AlQIJi8CdkAEiABEiABEqh5AhQINc+UVyQBEiABEiABkydAgWDyJmQDSIAESIAESKDmCVAg1DxTXpEESIAESIAETJ4ABYLJm5ANIAESIAESIIGaJ0CBUPNMeUUSIAESIAESMHkCNy0Qzp07B08vL9ja2GjjKyoqcO78efj7+cHCwuKaQOQ4MzMzxJ0+rcfa/Hq+nFBeXg5zc/Oq68XFnUbTpk2qPrv0omVlZde9z61YROpYUlqG0pJSwMwMVlYWsLSwlH/eVMnLy0NGZhYC/P20zbm5uThzNh6NAgNRgQq4ODv/5npy78SkJL2ft7fXde8nx16tyL0qi3CS47KysmFrawsHB3vIZwmJiXB0cICbm9tVryHnnI0/B3MzMzRqFHjVY6Q9xcXFSE/PQFBQC5SUlCA/Px9FRcVqS19fn+vWv6ioCElJF/T6lXa/KcA1cLDYuUTsXFEBSytLWFlaqK1uphQUFiIlJUXtKucWFBQg9lQcglq0QE5ODry8PG/mclXHinUL8vNhbW0NS0vLG17jVNxpvZeTo2PVsenp6cgvKECAv/9V2yX1Li4pgZ+vH8zNr99uaVd0TCzatG6F8+cT4OLiDFdX1xvWiweQAAmYNgGjBUJWVpYOzPPmL8TIkcP1xSOltLQUX3/7Pe6YMQ32dnb6WXx8PLZt21lFxsPDHQ4yKLm7Yd26DZg+fQp8vL2rvl/88y/670GDBiA+/hzk/wP69wVgeHFZWVmidasQfSl9/8M8BAUFoV1oW6xavQYxMbG/sYC1jTVmPzALzk5ORltHBouMzFwd4KytLWXcQHFxqYoEdzenmxrINmzcjIOHDuOPTz6m50VFR+PLr77FmFEjceToMcyYMfU3IkEG72XLVyqnIYMHXnOwWr9hE8LXrdfB/9JiYW6B1/71atVH8xf8BAd7e8gg1rJlkAqC1NQ0bN+xQwcwEWDCR8TIyZPRSM/IqDr38OEjyMvPQ4/u3S+7R8cO7VU4LV68BPn5BSpoRo0cDjOYYe++/do/pD90795V7WNvb4/NW7bi1Km4qusMHzYUZuZm+PHHBXj88UdgY21ttI1q4kCxb3pGDkpKytTOognEzmInN1cHWFlZGX2b/REHsGr1Wjz/3DN6vvTdDz76BLPvn4nlK1dj4oRxaNqkMY4dP4HVq9fe8LphYe3Rt09vrdM3336Pvn37oEXzZvhkztzLzpXvpX+LgJDy6j9ew4RxY9G+fajyF1Gxe89enD0bj8mTJvxGUIvAe/ud9+Hv749OnTroc2ZlaYkWLZrD3t7wDMt1Nm7agr379qmQSktLg5eXF3Kyc2BrawNbO1s0bdIUkyaO1/+zkAAJ1D8CRguEdes3wMXZBdt37MS4saNga2eHBQsW6YsjLT0d7m5uOiN8+KHZyM7Oxrr1GyEzxXbtQmFpaYGjR4/rAL916zaMGDEMvj4+OtOU2a3MRqOjY3Rw/mXpCvTs2R3R0dGwt3fQgWzrtu247567EBgYoLO0L7/+Tl+8Mkvr17cP7OzsEHnwkM5ge3Tvot4J+WPsjFBmwClpWXBxcoC9vW3VeTII5+TmIzsnH77ebkbN5uRa//7vmxg0sD+6de2iA4cMEF988TX++uyfERERifbt26JRo0aX9SYRCIsWL4GDgyNGjRx2zbovXbYCyckp6N+vT9X5Z86excKffsacj/9X9dlnc7+Ek5MjSopL0Kp1CDZt2qp2Ki0tgbmZuV6/UeNGmHXf3TrIxZ0+AxGB2VnZ8A/w10ElKzMTWdk5CAgQ75Al7pwxDbm5eVgbvg7lFeWIO3UaQ4cOVm+AsEpJTVXvS7duXdSGIkC++PIbtVnz5s2w5JdleOLxh2Fna4fvf5iPJ594BNbWNrCytrotQkEGvcTkDLg42sPJyf4yO+cXFCIrOx9eHs5GiQSx11fffKfeMBG2FubmOH36DN59/wO88vKLOHr0GNzcXBEa2hbJyck4dux4lW2E4fadu9C7V084OthXfR4QEKAeGbn2hx/NwbBhQ1QYb922Qz+7kJyMffsi0KhxIJ547BFY/uqxe/a5FzBt6mQVE3Le4489rM+beBamTpmk54rwBCqQnZ2DOZ99jszMLDg5OqBc7JaSos/h03/6Q5X3Sux5PiFR25SekY5Vq9aqGBAh2LhxI7i5uuHEiRN49JGHqkRF/Xs9skUk0LAJGCUQ5GUhA1NGRgaiomPQqWNHdOncUWeIpWWl6lWQmYq8+J1dnDX8EL5uA3LzchHcsqW6q7fv2AVHJ0d9wclMx8fHG127dFZhUVhYiOPHTwBm5vDx9kJhURHCw9fDP8APXTp3xtYt2zBlykSd1aekJMPFxUVDFUeOHEOrkGDs2LVbByMZ1OTc9u3aQWe7RpSysnIkJYvAcYLdNWZCufkFyMsrhJeHy3U9CcJp//4D2Lh5C6ZNnaRiQFz7UTGxOHTwsM6qxa3buVMHDOjf76oCQQbiwYMH6KxciswSZYZWKXbEDlnZ2RgxbEiVhyUm9hS++vrb3wgEEQMlpaUICW6JyMjDaNGiGbJzcmBtZQVzCwsNETzx2MPIyMjUQSwhMQmbN2+BzPJdXV10BllUVIhhQ4eoWzkwMBAiRhYtWqKDztn4ePTo3g22tnYq6CR8kpGRpfcbPWqECkCpl7RBhOJHH3+qXCIjD6krXo4T28sgOnLEMCOsVf1DRHympmfB3s4Wjg6GWfKVpaCwSL0Lvt7usLAwhLyuVcRztXpNOMaPH4PNm7ehUaMAnIyKNvTvdqEadpHBXtjZ2FzuJUlJScWHH8/BrJn3onEjQ3iiskioRgb2JUuWokuXzujZo5v2uf37I3HoyGEVDIMHDdTPCgoKcebMGXw8Zy769+uLdqFtIJ6j++67WxkfPnIUTRo3womTUXjphec0PLDwp8VIS8/AtCmTtG9KH1i85Bd06dwJHcLaw9fXV20vvMT+4vET8SChRfHcJV1IgpOjE5ydnVQcjR49UvsGCwmQQP0jYJRAKCwswoqVq9C8WTOsXbcegwcO0Blk5cxR4triEZABunOnjvDw8MDqNWtRVl6OzMwM+Pr4onGjRmjTphXeevs93HPPnfDz9VWaMqj+vGSpztpENIibVl6uci8RH/Hx5/UFK6JCYr0yk3F0ckDHDmEqQpo0aaKDmri1pURFxSA4uOVlM+zrmS07J0/zDjzcrv+SS8vIhp2NtXoYrlVycnPx7Xc/IjU1VWfvPt4+aN0qWGdiMpg89uiDsLez15e7zMIuLZUeBPGEeHt5qStfSli7UPTp06tqViuz/V2798LL06Pq9Lz8fCQmJOLdd96o+kw8CJX5Ir6+3oiOioGjsxPyc/NU2InYsrC0UIEgXqHt23ciIMAfMniJIBFv0dHjx9G8WVPk5eXDydkJM++9W2egP/w4Hy1btsCyZSvRoUOY5lps3b5DXeoLFy7WgbFXrx4q3j7/4mtIPFxmx5s2b1YPk4gC4SFhqQMHImFuboE7Zkyt1acrP78QBUXFRtnZysICzs4y4756EY/X8hWrEBl5EO4e7rAwM8fgwQM1z0QE3KOPPFgVQpJ2iwft0iKMX/n7v1Qgde/WFZ07d6zyTiUkJOqzdvxElHLt168Pdu3ao2GakFbBaBnUQo91dnZGYECA2m7N2nUIDg5Cs6ZNsWv3Hg0FiBdPPEXyzMlz8uH/3lEvnYSxJDdBPDoSLkhMTIKEAN3d3ZB0IVlDeyL6xNuyZes2PUc+LyosQliH9jhy5Kg+6/KsiheiR/euKvBYSIAE6h8BowXC6TNndLYjL/wJ48foS0helFJk1n7yZBSaNGmsA7+8ACUGKm5wGfwlX2HXnr06K0tMSIKnp4e6lQcO6I9ePXvozEbKuXPnUVJaAg93dzg5Oal4kBedzJTkRRzUormGFWRwadasKeJOxaFJ0yZ6r6FDBus1Dh48pLOgS13w1zPbheQMuLs7aQz2ekVc0EVFJXBzvXZeg/CIioqGzOjFYyI5CBLvPXrsuNa5MkQiyWQvPP/XqwqE0tIy9OnTs8qD4OjoqDM6mWXKwCru6dy8PPEWw9raCqVlZSgvK1c94e3trfkaMoB8+tnnGtIZMXyYcpfZuwgAmT3Ky11CDxmZmSoQNm7crJ6hUaOGY968hWjXri3atG6N9z/4GN27dlHPj9hm9gMzIfkJ27bvxJTJE3U22rFjmAoeCe/IbFcGq5ycXAwc2E/7gsTS/fz80LtXDzz73Is6eIqHafGSpcpH7i31mDG9dgWC5JfY2FiqB+F6RQbG1HTxIlw9iVPOFTEnrvcTJ6Kwas0aPPOXp/UzCSOIcBDO+Xn5Gqf/0x+e+M0MW56Pjz75VEXtvr0RKoDHjxurokuuIwPvl199o4O1hNjWhm9AdEyMcpNcEREWBts9os/IS3/7O0aPGql9TfqZeCZSkpORnJKqAuONN9/BRx+8q9desXK1hqimT5uCyIMHcfjwUUydMhEWlpYqvqWPyrMj/VCepQ0bNyEzKxsPP/QA7Gxt8dOinxHato2GzSTkMX3qZISEBNe/NyNbRAIkAKMEQuVLUV6eEuMMaRUCccCeiIpWl7m8eDLSM9TteP/Me/XFcejQEZ1JLl22HH976Xl1M8vLU2KYTRo1wtSpkzVGKwOfxL5/nLcQkv0vLyFxi0tmtSTeSSKcCAmJ81YWuZ/M0mWgEqEgL0VJsJKXpbz8xIshA5IxJSEpDf6+F2fj1zqnqLgEubkF8HC/vqdB2vDWO++r8BGvyapVa9T1LlngQ4cOUm9KcMsWcHd3v6pAuFYOgrh8JdYss3mJd4vX4MEHZmHnrt0qSOQziSePGT0Co0aOwAcffoJz58/Bzc1d+YmAO3rsmAos8Q5I3obMLiU0JIP0nn37kZaWjqAWzTBxwniNK59PSMA33/6g+Rzi1ZBBQtgfOnQY334/D8XFRSpU5L4SRpKoiIQb7rn7DoS1b6ftm/v5l4iOPaVhodiYWDz91B/0Gps3b8UjD8/WXBURgTJg1WZJS8/W0IKNzY2TEI3pE+JV+/b7H+Dp6Yme3bupNyUrO0vDA71799RBXARbo8CA3+STiECY+8VXeGj2LM0NkNyTlNQ0zLzvbri6uKjwrsxBaNumtQ78H378qV5TckWGDRmknoBn/vKUeu2ulYMgYRwJG3z7/Y948/XXFK/0x/0HIiHXlSRGCTG0adNavRySTNu7Vy/069sb0j4RgPv27dfcIjs7W5SXV6hXUPqaiFTp48YK8dq0La9NAiRQOwSMEgji8pdZcGzsKezZs0+z7CWmLLMoEQGShCauzrD27XUWJEVeIL/8slwHEcm4PnHipA7eO3ftQo8e3TXprVdP+dtCBYJk/suMSuKaa9as0wE/KKi5znhENFwqECRpS9zWUuQasadOIz8vT2dXMgOS2a+IFWNKckomXF0cdDZ+vSIu6qLiUri5XlxKduXxMvAtWbpMvQetQ4LVCzJs6GAVA++89z94enggNS1NBxRhcGm5UZKiCARJfhw+bIh6al586VVN3Dx0+Ii6qGWmuXz5SvUOiED4z3/fgr+/L3Jy8zShU5aoLVi4SL+X5NE+fXrrv2XJ5bZtOxB76pTaUkIN4t2xtbHVpEZZ8SDhElkBIR4EKeJFWBO+Dg/Mug/ZObk68MtKCREdko/St2/vKoEgOQgiMCREJIOe1FlmpHK9GdOnYPXqcOQXFmDq5InGmKvax2Rm5ap3xeE6ISK5eLF4VrJy4eN1bQ+C2EKEmSTUSl6HOcx0ZY/0PUkAFA9ORXkFfH28MXz40N8kPV4qECQcJ8JWniEJ/RjqYBAI/fv3RZPGjfHjvAUaUhCR7ehoryJT3P8itqSIQBARKOEgGdQrkxT37o9Q+7q4OmPyxAl6rORJSL6PiA4R8fYO9ppbJDkMUjp1DEPTpk3139JXv/7mO4S1a6deJMllEK+QePg2bd6iNh8/bky1bcITSYAE6jYBowSCeA4kDCCuZJntyKxTwgQyi5EYqyRlbdiwEV27doG/v59BIOTmYv6CRRgyZBAqyssRcSBSB3NxOY8fP1bds5JHILH4SwWCu5s7PvjwY9x91x2a5CYxdxEIAwYYkvrkRSqzY5mlSTxcBsujR48iODhYs7HLSsvg5++nCYHGlNzcfOQXFsPb8/rrumWVg6O9Lezsrr2kS1708vKVXASZCUpehYQ7ZDa+aPEv2L59h87OnJyd0SGsneZqVBZjBMLrb76jrn0JtTz6+B9xz1134PDRoxg0cIDGpmVwFmEkYYW/PveiJqvFxMYiKzNLkxPPnDmrTM/Fn1c3uMSeJSFRwiKn4uIwdcpkfDr3C52pyjJUEX0iGsTTI/a6VCDIcss/PPm4rko5fuKkZtFLKETO79mje5VAEFe5lZW1ipV5839C69Yh2o8kKU5moBKzl8F0woSxxpir2scUFBQhN9+QaHq9kpyWqbkmTo4XVxdcebzYWXJlxMPi5uqquRzeXt4aSli/fiOWLF2uA62I3BbNmyvrS8uVAuHS7yScJvuASJ6H2LJX7x44c/qsPleHDh/FxAljER0di9jYWNwxYzoOHT6sx8pz0KljB81XEIEu6zXCAAAgAElEQVSQmHRB8wskIVYEqwhE8bZJEcG/ctUabYPk64hA/PurL+l3Bw8eVjvK9UQgiAdJVq9IGOSzz7/CuDGj0KpViCafytJZCoRqd0meSAJ1noBRAuHSVvzvg48xYfxYdTtmZmXpy0sSntZv2KjL+uRFJjMgyX6WwLgMQDJIDB40QF86b771Lu6++w51Z4t7s0/vnnp5uZa4q8VjIC8w8SSkpqfpDDa0bWudjUuRmYtushMYoOuzjxw7rhnw4toXgSAu1bmff4U/P/1Ho5Yl6gZFF9Lg7ORwzez2rJw8jbF7eRhCItcqUu8TJ0/i2LETmlQmsy5ZrRB1Mhrbd+7U+sjSNsmZeOThB3Vpn4RjpMisVGbvkjHepUuny+6jszYPd7z8yj80n0PEx/qNmzScs29/hOZPSL5BdGysri7p1rWrHvvPv7+MLdu2631l8JC6S5a8eBKGDRmMwEaBOsDJfUUgTJ82FV98+bWGMeQcWcHQq1dPXU4nM88HZ8/SuortRPAJbwlviLtaEvTEQyL1lNUpsr+CJPFJzoqsbBHRIYOR7J+wf38E7rpzBvz8fCHJlNKXansVg9g5NS0L1jZWupz1akVWq2Rn58HPx+O6dhZbnT59GpEHD6tXrbikWPu5LPkVT5iIvbZt26gwE8+XCGhjBYJcT0SWhKfE69IuNFS9FXv27sPQwYPQqVNHfPLpXP2+b59eKtBkWao8gyK0Pvv8S8yYNkWFoNTDzNwcr/37DUybMhEdO3bQVSiy3DQvNx933TldcxnmzVuAl196QUNhIjZEXIvIkz4vq4VEoEvSsQgbbx9vWFtZ6woIuZ6IVRYSIIH6SeCmBcLHn3yGsWNGqTtVigyEMljJsDlh/Dj1LMgSsB07d+n/ZRYkgqFyUxfZoOXOO6dXbZQkg9YvS5dr7FbW4Hft1hkjhg1Vt+vpM2exadMW3f1vyqQJ6tJ8/Y13MGvm3fpyFldoYUE+XN1cVZDIACT7IsigKWEGeYkZU3SNeUoGnBzs4eBwcR8EGQhkH4Tc/CL4+7jfcLMkGXylLdJeebHL0rcFPy3W5EJZVpaekakvYInn/+mPT0Bm4WvD19+wipJXIC7gf772H93cRgTCxk2bcc9ddyIi8qAuW5RZnwzWIpBkVz2ZFT722MP6YpcNrESoyMxdQj+yN8GEcWOqVlJs3rJNB7z77r37srqIAFu7bp3aQDbwGTd2tOZSGEREng4kEs4QUSizVQl37N67D7nZOSomxLuUlZWpXpTKHRPfee8DHTCF+YYNmzSBcubMe9AyKOiGHG71ALFnwoU0ONrZ6j4Il+7emZdfqLaW0ML1dgSVOogQ3LR5K+Li4hDati3atm2tdpRET/GuiVv/4zmfaZ+XRMxKcVtZf8mfkb087p91r7rrLy3irTNs1mVYGpmQkIB33v1AbSOJwrLhkqWVFV58/lnNf7i0yDMj+Qa7d+9RsVBZJFny5Rf/T+2zdOkKdOrcEZMnjtfQj4htCX+JN06KhNqe/cvT6jX65rsf1JshgjE0tI2eI3U7EHlIvUtyv7vumI7WrVvdqml4PgmQQB0kcNMCQWaKsleBzHSlyOAnLxkZoCQRTQZ8efnLi+7S7ZQr2y4zJBEXl34ng4vEh8VlebWXs2R1S9KixGEzMzN1tiyDsLzgZaYr4QyZ3ciMtLJeN8ta6pudU6B1r1wDX1pWDmsrSzhfMpjc7HVlFiahhsrtbCUhz7C3wfWz6a92H3H5OjtJLNpKXciuLs66gkR2TJRr6tI2c3PNBZBZvggFWVEg95bVEFKkffHnzqsN5TgpwlfseOUWyTIAVHp6GjcO1DpLiEfyBzw8Pap2zrxygJPvpT9crY0STpLPZZCV48Tmt3MdvQxwsvFVcUkpLH/d60D2wpB+5+xkZ5TX6Wq2ETElzqXKrZFFLEpSn4jUK71O0ifOnj2rHrVKIXC9fiXHi4tfRFlWlmzh7HHNzZzEZrKvhdi5skgOiTCX0FdZaWnVc1r5vSSuSj8RlS95ECJwhJOEIORvH18f7WOXFhVbCYkqJAybMLGQAAnUNwI3LRDqG4BL2yN7A8iL1fByNYOlpfkNZ5P1mUd9bptBxJarW11CKCIQbvKnGOozHraNBEiABIxf5khWJEACJEACJEACDYcAPQgNx9ZsKQmQAAmQAAkYTYACwWhUPJAESIAESIAEGg4BCoSGY2u2lARIgARIgASMJkCBYDQqHkgCJEACJEACDYcABULDsTVbSgIkQAIkQAJGE6BAMBoVDyQBEiABEiCBhkOAAqHh2JotJQESIAESIAGjCVAgGI2KB5IACZAACZBAwyFAgdBwbM2WkgAJkAAJkIDRBCgQjEbFA0mABEiABEig4RCgQGg4tmZLSYAESIAESMBoAhQIRqPigSRAAiRAAiTQcAhQIDQcW7OlJEACJEACJGA0AQoEo1HxQBIgARIgARJoOAQoEBqOrdlSEiABEiABEjCaAAWC0ah4IAmQAAmQAAk0HAIUCA3H1mwpCZAACZAACRhNgALBaFQ8kARIgARIgAQaDgEKhIZja7aUBEiABEiABIwmQIFgNCoeSAIkQAIkQAINhwAFQsOxNVtKAiRAAiRAAkYToEAwGhUPJAESIAESIIGGQ4ACoeHYmi0lARIgARIgAaMJUCAYjYoHkgAJkAAJkEDDIUCB0HBszZaSAAmQAAmQgNEEKBAAVFRUoLSsDBXlRnPjgSRAAiTwuxIwMwcsLSxgZmb2u9aDN6+/BBq8QCgvr0BWTh5KS0thBj5o9bers2UkUL8IVKAClpaWcHFygLk53131y7p1ozUNXiBk5+SjqLgYbi5OsLS0qBtWYS1IgARI4AYESkvLkJGVAxtrKzg7OZAXCdQ4gQYvEJIupMPL0wUWFhQHNd67eEESIIFaJVBWVoaU1Cz4+rjX6n148YZJoMELhISkNPj7ejRM67PVJEACJk+A7zCTN2GdbQAFAgVCne2crBgJkMCNCVAg3JgRj6geAQoECoTq9RyeRQIkUCcIUCDUCTPUy0pQIFAg1MuOzUaRQEMhQIHQUCx9+9tJgUCBcPt7He9IAiRQYwQoEGoMJS90BQEKBAoEPhQkQAImTIACwYSNV8erToFAgVDHuyirRwIkcD0CFAjsH7VFwGiBUFJSAnNz82vuF5CVnY2y0lK4u197PW55eTkOREaic6dON9We7Oxs2Nvb665hVyupaWkoKCiEq6sLbG1tYXWN4652Lh+umzIFDyYBEqhjBPgOq2MGqUfVMVogHDx8BNt37MT4MaNQUlqKmJhTKCjIR1p6JpKSklBQUIC+vXthyJBByM7OQUTEAeQXFCgqBwcHdOrYAXZ2tvjT08/ig/ffrkKYmZmFd977H4qKimBrY4PCoiJYW1th4ID+6N2rJ2JjT2Hp8hW4+847EBDgf1X0+yMO4OzZePj5+SIx6QImjh9rtIn4cBmNigeSAAnUQQJ8h9VBo9STKhktEKS90dExOBB5EL1798S5+POwsrbC6tVrMWTwQHTs2AFWVlaKRYSBDOwy6EuRWb2Xpwdyc/Pw1tvv4dlnntbPvb29YGdnh8SkJGzatBWDBvXHli3b4eXliVYhwZCBPzk5GcOHDUNAgB9k17AjR4+hqKj4MvynT5/W4zp16oidu/agX9/e6Ngh7Joeh0tP5sNVT3oym0ECDZQA32EN1PC3odlGCQQJDYg4cHFxgZubG1JTU1BYaBj8f1r0M7p26YImTRpVDfpOTk6/qXpc3Gkd3JevWIVxY0cjMTEJvXr1QJvWrZCamob1GzZh6JBB2LR5C7w8PdGiRXNcSE5GcMsgWFtbQzwNbm6u2Lf/AAoLCy+7fmpqqtavZ88e+rmEIrp361IlWK7HkQ/XbehlvAUJkECtEeA7rNbQNvgLGyUQhFJUVAyWrViJyRPHIyoqWgd1KQcPHUbjxo3g5uqq/+/RszsK8gs016CyyO8ctG3bGv5+/vj3f9/EP159GRs3bYa/nx86dgz7rUDw8kSf3r30dPkp5vkLFsHd3U0FxNV+2vTChWQs+nkJHnlotuZJSDH2J1D5cDX4Z4AASMCkCfAdZtLmq9OVN1ogSCvOnIlH7KlYzQ8Qr4KUjz/5DIMGDkBISEsdlGWAlhn9/ohInI2PR7cuXWBuYQ4/X19UVJTjo08+w99eeh5r1q7TEIMcv2DBIuTk5sLZyRE5uXn6G+e9e/VAx04dsHT5SgT4+WHihHGaILlq9VqIIJCfZzYkTZpj7JhR+HHeQsy8727Nd7iZwofrZmjxWBIggbpGgO+wumaR+lOfmxII4to/cTJKPQaHDx3R2f2effvRonkzuLq4wMvLC+3bhyqdLVu3w8rKEt5eXpAVDpKkeOz4CWzbtgMPPXi/CgQfb2+0a9cWCQmJ2LxlG0YMH4INGzfD09MTHcLaY+eu3WjSuDFatw5Bbl4eHB0cVBxk5+Rgz569aNy4MRo3DoS3lzcWLf5ZEyQD/K+eyHgtk/Hhqj+dmS0hgYZIgO+whmj129PmmxIIu/fsxfETJ9Cnd29s275D8wckP0BKfPw5TUqcMnmi5giIAGgX2haurq5YvOQXzJg2BRs3b4Wri7OGD9aGr4Ovry/C2rfTc7ds3YapUyZpjoIkKcox4qUQr8Hx4ycQeyoOgwb21+WOstIhPHy9JjK2bBmE4uISrFy1Gk2bNlFhIcmMxv58Mx+u29PReBcSIIHaIcB3WO1w5VUBowWC7IPw3vsf4s47pusqhRMnTurqBVmhIOXYsROIjonB+HFjcO7ceaxZGw4/Pz/EnT6NC0nJ6N+/L06ejMJdd86Ao6Mjwtet12WLIiL27tuvKxnGjRmNxT//ogKhb5/eet0jR45h9dq1mDp5Eho1CtSwggiEtWvXwcPDXcMadnb2KCkp1lyGYUMH4/sf5+tSR2dn5xvamA/XDRHxABIggTpMgO+wOmwcE6+a0QJBViDs2rUHsx+YiZjYUzrjDwkOhvWvSxtFFJSWlaoXIPLgIRUArUJC0LlzR11NIAO/hBRGjhiG/PwCrN+wEe3bhSIoqAW++PIb9O3TCyEhwQaB4OmpyybD129QUTH7/pnw9PSAiJTVa8Jx+swZJCVd0MTI4OCW6NK5k3oM1oSvQ4/uXfH1N9/j76+8ZJQXgQ+XifdgVp8EGjgBvsMaeAeoxeYbLRD27Y+ArY0tQkPbIP7cOWzduh1u7m5Vg3BWZjacnZ0wfNiQ31Q3NzdX9ydo26Y10tLTcPTocd3/YOCAfigtLVOxIEmIsjxRljm6uLhq8mFiQqJ6Hiq9FHJhWUHh6OSk3gObX8Mb8rnkQ0QciMTu3Xt0P4Qe3bsZhY0Pl1GYeBAJkEAdJcB3WB01TD2oltECQfIBxJ0vf4qLi9XN7+ToWLWcUPIP5POr7YEgg7fM/kUAyN+yLbKDg33VPgWy8ZGNjSGXIS8vT0VH5aZLxuYSVIoE2ZZZ6lC53PFGNuLDdSNC/J4ESKAuE+A7rC5bx7TrZrRAMO1mXrv2fLjqq2XZLhJoGAT4DmsYdv49WkmBwF9z/D36He9JAiRQQwQoEGoIJC/zGwIUCBQIfCxIgARMmAAFggkbr45XnQKBAqGOd1FWjwRI4HoEKBDYP2qLAAUCBUJt9S1elwRI4DYQoEC4DZAb6C0oECgQGmjXZ7NJoH4QoECoH3asi62gQKBAqIv9knUiARIwkgAFgpGgeNhNE6BAoEC46U7DE0iABOoOAQqEumOL+lYTCgQKhPrWp9keEmhQBCgQGpS5b2tjKRAoEG5rh+PNSIAEapYABULN8uTVLhKgQKBA4PNAAiRgwgQoEEzYeHW86hQIFAh1vIuyeiRAAtcjQIHA/lFbBCgQKBBqq2/xuiRAAreBAAXCbYDcQG9BgUCB0EC7PptNAvWDAAVC/bBjXWwFBQIFQl3sl6wTCZDANQiUlZUhLi4O4eHhePTRR0GBwK5SWwQoECgQaqtv8bokQAK1QCAmJgZHjx5F9+7d4evrS4FQC4x5SQMBCgQKBD4LJEACJkLg7Nmz2LZtGwYOHKjiwMzMjALBRGxnitWkQKBAMMV+yzqTQIMjIOLgq6++wlNPPYWioiLMmTMHL7zwAgVCg+sJt6/BDV4gJCVnwMPNCVZWlrePOu9EAiRAAkYSqMw52LFjByZNmoT8/Hz1IoSFhaFx4yZIy8iBr7ebkVfjYSRgPIEGLxBy8wqQl18AN1dnWFMkGN9zeCQJkMBtIVBcXIyIiAg0btwY/v7+iIqKQkFBAUJatUJWdh4c7O3g6GB3W+rCmzQsAg1eIFRUVEBEQn5BESrKKxqW9dlaEiABkyAgIsHC0hIW5uYQj0JZeTlsbKxhb2ej4kByEVhIoKYJNHiBUAlUhAILCZAACZgSAQoDU7KW6dWVAsH0bMYakwAJkAAJkECtE6BAqHXEvAEJkAAJkAAJmB4BCgTTsxlrTAIkQAIkQAK1ToACodYR8wYkQAIkQAIkYHoEKBBMz2asMQmQAAmQAAnUOgEKhFpHzBuQAAmQAAmQgOkRoEAwPZuxxiRAAiRAAiRQ6wQoEGodMW9AAiRAAiRAAqZHgALB9GzGGpMACZAACZBArROgQKh1xLwBCZAACZAACZgeAQoE07MZa0wCJEACJEACtU6AAqHWEfMGJEACJEACJGB6BCgQTM9mrDEJkAAJkAAJ1DoBCoRaR8wbkAAJkAAJkIDpEaBAMD2bscYkQAIkQAIkUOsEKBBqHTFvQAIkQAIkQAKmR4ACAUBZOZBZCJSUAxWmZ8PbWmNLM8DRGrC1Asxu8s4VFUB5eRnk7/pSzMzMYG5uDrObhVFfALAdJEAC9ZZAgxcIhaXAipMV+OWEGc7nAGX1aPCqjV7ragP0awLc2R7wdTL+DuUVFcjJyUdxcYnxJ5nIkba21nB0sIOIBRYSIAESqC8EGrxACI8B3tgBFJfVF5PWfjsszIDxIcAfehp/r5zcfBQWFsHV1QlWlpbGn1jHjywpKUVmdi4c7Gxhb29bx2vL6pEACZCA8QQavEB4cR2wLd54YDzSQMDZGlh6l/E0LiRnwMPdCZb1SBxUtl6ET15+ETzcnY0HwiNJgARIoI4TaPAC4Y+rgINJddxKdbR6m2YZX7HEpHT4+rjVSzd8cUkpsrPz4OnhYjwQHkkCJEACdZwABQIFQrW7KAWCAR0FQrW7EE8kARKowwQoECgQqt09KRAoEKrdeXgiCZBAnSdAgUCBUO1OSoFAgVDtzsMTSYAE6jwBCgQKhGp3UgoECoRqdx6eSAIkUOcJUCBQIFS7k1IgUCBUu/PwRBIggTpPgAKBAqHanZQCgQKh2p2HJ5IACdR5AhQItSAQHK2ANp7A8VQgp4Y2DrS1AMJ8gEPJQEHpxX7lZA209wZ2ngfKr7ELZGc/ILcQOJlRs/3xdguEiooKyJ8ri+xgeLVdDPPy82FtZQUrKys9T44pLy/HkaPH0KJ5M9jZGXY/vNUdELmKoWb7Fa9GAiRQNwhQINSQQLA0v/jbBF52wCfjgDe3AzvPXTS0DOCylfNL/Q3bFcvujXJeVBrwbDjw5XjA5dfN+IrLKjD+R8PWvXLM832AMD9gwRFg8XHD70aEeQNW5sAj3YDHVwA+jsDzfQFnGyAyAVgZAwxtLudVILfIDKfSgaRcw+eZRbfeAW+3QIg4EIlP5sxFRXk5rKytUFRUDHt7e4wcMQz+/n5VDfL08EBgYAC++vo7nDt/HnfeMR1btm5Dj27d0Lx5U/z39bdw7z134cyZszhx8iQeevCBW4JBgXBL+HgyCZBAHSVAgVBDAmFme8De+qKVBzUH4rOA6LRfP6sAjqUCm84YBIL8JMGqaCDUG2jnC/xjC/D6UGD5SUA8EPd1Asb+ANhZAhNCgL5NKjA3wgyjgoEdZ4ENp4F3RwA7zgDDWhoEgoU50CcQmBYKLDsJZBcZvA4d/A3/Ts4B/J0r8P5uM5xMu/UfprrdAqGwsBDLV6xGamoqxo8bg0/nfoF2oW1xKu400tPT4ePtjeTkFISGtsEdM6ZBPAiLf/5FvQgiIM6dO4/JkyaoQBg/biy2bN2KESOGI6hF81t6PCkQbgkfTyYBEqijBCgQakggjAwCnGwMg7vMzivd/Q5Whl8/TMoDzmYCB5IMAqGZKxCXDng6GLwKL24A/jUI+OKAYRvj5/oBU+YDct2BzYAPdwNnsg0D/rS2wKf7gce6XS4QxPkuv5HQxgt4awcwvS1gYwF0CQSyCoGkHKC9XwU+3WuGrfHXDkkY21dvt0CQeq0NX48dO3epMNixczcmThirv6aYkJiEsaNHYt78n+Dn54t+fXtj1+49CG7ZElZWlsjIyMTeffv1u1Wr16J9u3YoKi7Sc3x8fIxt8lWPo0C4JXw8mQRIoI4SoECoIYEg9u3VCBjQBPjfHiCn2GDxPo2AqW2BP61B1c8ci0DILwaWnAA6+AJd/A0ehCsFwoyFwIy2wMjgiyEB+bnliATgu0PAywMuFwheDsA/BgGZBUBkIhCbDgxuDoR4VSCv2Azp+fIzzRV4Z6cZTmfdeo/8vQTC/ogD6NG9G9asDcfYMaPg6uKCA5GHVCy8+fZ7mDxxAoKDgzB/wU+IizuDB2fPQuTBw9gXEYEAPz8UFRXB2toa0TExmDBuLHr06HZLMCgQbgkfTyYBEqijBCgQalAgdPIFnuwOvLAeSMg1WPzBTgZvwfMbLvYAEQjutsChRCDABXC2BV7Z9FuBICEG8Sa8MRz4MRL6c9R3hgHbzwLr4n4bYhBPxZggoIkbEOAMvLEN6OwP9G8GZBQAh5KAlDxgTwKQWwPJk7+PQNiA8wnnceeMaXjz7fcxoH8fNGnSGEt+WY7evXrgy6++wT9efRkuLi6akPjjvIXo3r0Ljh8/iQsXkjVfobJ8+dW3GDigH3r3vomfpbzKg0yBUEffbqwWCZDALRGgQKhBgeDvCDzXF5CfkF4WDbjYAM/2BiLOA4tOXi4QfB2AIymArE6QXAVJHLzSg3CpQPhgJ3AhH5jdGdhz7uoCQVY09AgAPO2BRi6GH6Fq5wO09gbyig0hDhEIy6KAxLxb6jd68u8hENasXY/wdesQEOCP2Ng43DFjKrp17YJ58xci7vRpBAYE4v5Z91Y1LjklBdnZOTh27ISGJnx9vKu+iz0VhxnTplAg3HpX4BVIgATqIQEKhBoUCLKi4OmegLU58I+tQKgX8EhX4O0dwKnMywVCQhbwzSFgWAvgnCQzZlwUCC7WwF/7GZIUKz0IH+4EhrcEWnoCc/YB+xN/60GQFRCzOwLBnsCS44CXvWFFQ5gvkFtsCDnIyokVMcCpGljy+HsIBMlBiIs7jQnjx2LOp3PRvn0o+vXti0OHj2hI4cnHH0GbNq2rYM/94iu4ubnBytIS0TGx6NK5Y9V3IjZGjxxOgVAPX2xsEgmQwK0ToECoQYEg5pjSGhjaAnhsBTChFdDOG3hr58WcBDlGQgwiEJZHGTwC3g6GsITkDxxLBlp5Aa62wANLLwoE8SBURgUCnKBLFsU7kFUA3NPRsIqhtByY0ga4qz0w+xegX2PA3BwY8GuIQTwKso3ArvNAfPatd57bLRDS0zOwZOkyFQh+fn44evSohhLGjB6l/xaR0KljB9x3792auHj2bDzeeuc9PPvM04iIiNT9D0Lbtqlq+LZtOzBu7GgKhFvvCrwCCZBAPSRAgVADAqG1OzA2xNA7rCwMA7W5GdDGB8grAuIyDAOz7EGw7SzwTB/A3Q5wsAHiMwFXO2DRYaB3U2DnGcNyxR3xwJmcS3IQDgK7EwzLHl/sD6yPAdbEAcHuwJ97GQSJiIr/6wM0dwdS8oHwKMPSyuZuhsTFmAzDvgmSf5BaeDFpsrr9+nYLhIOHDquXoHmzpmjWrCk2bNyMoUMGISMzCyeOn8CMGdPw/v8+wpjRIzFoYH988eXXKCsrx0MP3o9ly1ciLy8PM6ZP1U2TZA8FEQ9yXM8e3auLQM9jDsIt4ePJJEACdZQABUINCIQWroZZ+o1Kaj6w9zwwuY0haXB/giG00MYDyCsxrHaQTZCi0i9eSbZKur8j0DXg4meFpRX412Yz3B0GtHAzJES+vh1o5mJYErkiCgjxNIQWZPMkW0uDYKksa0RcxBqEzK2U2y0QrqzrZ3O/RHBwS8TEnkK/Pr0QFNQCJ6OiEBl5GEOHDMTPvyzDiOFDERgQgM2btyK/oECTFGWDpPkLF6GsrAyPPvwgXF1dbgUDBcIt0ePJJEACdZUABUINCISaMK4M4BI6EBFx6VbKcm0LM8DD7uJdCkoMWzhLjoF4FNIKDAJDriG7LkqeQWWRc60tDF6JylJUatiJ8VbL7y0Qki5cgIO9PaysrGFjY61bJld6B2xtbXQ5o42NjTYzJydHVzVISKKkpET3RbC3t4Ojo+OtYqBAuGWCvAAJkEBdJECBUEcEQl3sHDeq0+8tEG5Uv9v1PUMMt4s070MCJHA7CVAgUCBUu79RIBjQUSBUuwvxRBIggTpMgAKBAqHa3ZMCgQKh2p2HJ5IACdR5AhQIFAjV7qQUCBQI1e48PJEESKDOE6BAoECodielQKBAqHbn4YkkQAJ1ngAFAgVCtTspBQIFQrU7D08kARKo8wQavEB4ajVwILHO26nOVVCWVG6YaXy1Ei+kw9fbTZci1rdSXFyC7Jx8eHrc2n4K9Y0L20MCJGDaBBq8QPjvVmBVjGkb8feofaAT8N0U4++ckpoJR0c72Nka9iWoTyU3rwAlJaVwc3WqT81iW0iABBo4gQYvEI4nV+Ava810oyEW4wjIxkuPda3AhNbGewMKi4qRlp4Ndzcn2P66qZFxd6u7R8mmTAUFRcjKzYO7qzNsrK3qbmVZMxIgARK4SQINXiBUADibUYG3d5jp7xbUxA6DN2kDkzlc5ID8TPVd7SswNMgMNpY3V/WiklKkpWWiSLZyrAdFeNjYWup7a/gAAAFmSURBVMHD3QXWVjcJox60n00gARKo3wQavECo3+Zl60iABEiABEigegQoEKrHjWeRAAmQAAmQQL0mQIFQr83LxpEACZAACZBA9QhQIFSPG88iARIgARIggXpNgAKhXpuXjSMBEiABEiCB6hGgQKgeN55FAiRAAiRAAvWaAAVCvTYvG0cCJEACJEAC1SNAgVA9bjyLBEiABEiABOo1AQqEem1eNo4ESIAESIAEqkeAAqF63HgWCZAACZAACdRrAhQI9dq8bBwJkAAJkAAJVI8ABUL1uPEsEiABEiABEqjXBCgQ6rV52TgSIAESIAESqB4BCoTqceNZJEACJEACJFCvCVAg1GvzsnEkQAIkQAIkUD0CFAjV48azSIAESIAESKBeE6BAqNfmZeNIgARIgARIoHoEKBCqx41nkQAJkAAJkEC9JkCBUK/Ny8aRAAmQAAmQQPUIUCBUjxvPIgESIAESIIF6TeD/ASEgJaeJKpMrAAAAAElFTkSuQmCC;" parent="1" vertex="1">
                    <mxGeometry x="490" y="2070" width="1095.9" height="980" as="geometry"/>
                </mxCell>
                <mxCell id="11" value="事情名称" style="text;html=1;strokeColor=none;fillColor=none;align=center;verticalAlign=middle;whiteSpace=wrap;rounded=0;labelBackgroundColor=#333333;fontSize=22;strokeWidth=13;" parent="1" vertex="1">
                    <mxGeometry x="510" y="2140" width="100" height="30" as="geometry"/>
                </mxCell>
                <mxCell id="12" style="edgeStyle=none;html=1;exitX=0.25;exitY=1;exitDx=0;exitDy=0;entryX=0.5;entryY=1;entryDx=0;entryDy=0;fontSize=22;" parent="1" source="11" target="11" edge="1">
                    <mxGeometry relative="1" as="geometry"/>
                </mxCell>
                <mxCell id="14" value="待办事项时间" style="text;html=1;strokeColor=none;fillColor=none;align=center;verticalAlign=middle;whiteSpace=wrap;rounded=0;labelBackgroundColor=#333333;fontSize=22;" parent="1" vertex="1">
                    <mxGeometry x="520" y="2350" width="60" height="30" as="geometry"/>
                </mxCell>
                <mxCell id="16" value="Text" style="text;html=1;strokeColor=none;fillColor=none;align=center;verticalAlign=middle;whiteSpace=wrap;rounded=0;labelBackgroundColor=#333333;fontSize=22;" parent="1" vertex="1">
                    <mxGeometry x="1340" y="2250" width="60" height="30" as="geometry"/>
                </mxCell>
                <mxCell id="17" value="事项状态" style="text;html=1;strokeColor=none;fillColor=none;align=center;verticalAlign=middle;whiteSpace=wrap;rounded=0;labelBackgroundColor=#333333;fontSize=22;" parent="1" vertex="1">
                    <mxGeometry x="530" y="2740" width="60" height="30" as="geometry"/>
                </mxCell>
                <mxCell id="19" value="待办" style="text;html=1;strokeColor=none;fillColor=none;align=center;verticalAlign=middle;whiteSpace=wrap;rounded=0;labelBackgroundColor=#333333;fontSize=22;" parent="1" vertex="1">
                    <mxGeometry x="680" y="2730" width="60" height="30" as="geometry"/>
                </mxCell>
                <mxCell id="20" value="已办" style="text;html=1;strokeColor=none;fillColor=none;align=center;verticalAlign=middle;whiteSpace=wrap;rounded=0;labelBackgroundColor=#333333;fontSize=22;" parent="1" vertex="1">
                    <mxGeometry x="940" y="2739" width="60" height="30" as="geometry"/>
                </mxCell>
                <mxCell id="21" value="" style="rounded=0;whiteSpace=wrap;html=1;labelBackgroundColor=#333333;fontSize=22;strokeWidth=13;" parent="1" vertex="1">
                    <mxGeometry x="1310" y="2380" width="120" height="60" as="geometry"/>
                </mxCell>
                <mxCell id="22" value="" style="rounded=1;whiteSpace=wrap;html=1;labelBackgroundColor=#333333;fontSize=22;strokeWidth=13;" parent="1" vertex="1">
                    <mxGeometry x="1310" y="2380" width="120" height="60" as="geometry"/>
                </mxCell>
                <mxCell id="23" value="" style="rounded=0;whiteSpace=wrap;html=1;labelBackgroundColor=#333333;fontSize=22;strokeWidth=13;" parent="1" vertex="1">
                    <mxGeometry x="1310" y="2380" width="120" height="60" as="geometry"/>
                </mxCell>
            </root>
        </mxGraphModel>
    </diagram>
</mxfile>